G04 #@! TF.GenerationSoftware,KiCad,Pcbnew,no-vcs-found-2f9be81~58~ubuntu16.04.1*
G04 #@! TF.CreationDate,2017-04-06T12:37:07+02:00*
G04 #@! TF.ProjectId,battery,626174746572792E6B696361645F7063,rev?*
G04 #@! TF.FileFunction,Copper,L1,Top,Signal*
G04 #@! TF.FilePolarity,Positive*
%FSLAX46Y46*%
G04 Gerber Fmt 4.6, Leading zero omitted, Abs format (unit mm)*
G04 Created by KiCad (PCBNEW no-vcs-found-2f9be81~58~ubuntu16.04.1) date Thu Apr  6 12:37:07 2017*
%MOMM*%
%LPD*%
G01*
G04 APERTURE LIST*
%ADD10C,0.050000*%
%ADD11R,1.000000X1.000000*%
%ADD12O,1.000000X1.000000*%
%ADD13O,1.700000X1.700000*%
%ADD14R,1.700000X1.700000*%
%ADD15C,1.600000*%
%ADD16R,1.600000X1.600000*%
%ADD17R,1.300000X0.700000*%
%ADD18R,0.700000X1.300000*%
%ADD19R,0.900000X0.800000*%
%ADD20R,0.800000X0.900000*%
%ADD21R,1.300000X1.500000*%
%ADD22R,2.400000X1.400000*%
%ADD23C,0.300000*%
%ADD24C,1.000000*%
%ADD25C,0.800000*%
%ADD26C,0.500000*%
G04 APERTURE END LIST*
D10*
D11*
X1540000Y1230000D03*
D12*
X1540000Y2500000D03*
X1500000Y8770000D03*
D11*
X1500000Y7500000D03*
D13*
X43000000Y2460000D03*
X43000000Y5000000D03*
D14*
X43000000Y7540000D03*
D15*
X47500000Y8500000D03*
D16*
X47500000Y6000000D03*
D17*
X4150000Y4050000D03*
X4150000Y2150000D03*
X17750000Y6950000D03*
X17750000Y5050000D03*
D18*
X31950000Y5500000D03*
X30050000Y5500000D03*
D17*
X4500000Y8950000D03*
X4500000Y7050000D03*
X6450000Y7050000D03*
X6450000Y8950000D03*
D18*
X31950000Y7250000D03*
X30050000Y7250000D03*
D17*
X5900000Y4050000D03*
X5900000Y2150000D03*
D18*
X30050000Y3300000D03*
X31950000Y3300000D03*
D17*
X17750000Y2050000D03*
X17750000Y3950000D03*
X34100000Y4150000D03*
X34100000Y2250000D03*
D19*
X16000000Y2300000D03*
X16000000Y4200000D03*
X14000000Y3250000D03*
D20*
X9000000Y7750000D03*
X9950000Y5750000D03*
X8050000Y5750000D03*
D19*
X10500000Y4200000D03*
X10500000Y2300000D03*
X12500000Y3250000D03*
D20*
X12500000Y5750000D03*
X11550000Y7750000D03*
X13450000Y7750000D03*
D21*
X25250000Y7200000D03*
D22*
X26750000Y3200000D03*
D21*
X28250000Y7200000D03*
X22750000Y6500000D03*
D22*
X21250000Y2500000D03*
D21*
X19750000Y6500000D03*
D23*
X22750000Y6500000D02*
X23700000Y6500000D01*
X29400000Y3300000D02*
X30050000Y3300000D01*
X23700000Y6500000D02*
X25899999Y4300001D01*
X25899999Y4300001D02*
X28399999Y4300001D01*
X28399999Y4300001D02*
X29400000Y3300000D01*
X16000000Y2300000D02*
X16050000Y2300000D01*
X16050000Y2300000D02*
X16550001Y2800001D01*
X16550001Y2800001D02*
X19449999Y2800001D01*
X19449999Y2800001D02*
X19750000Y2500000D01*
X19750000Y2500000D02*
X21250000Y2500000D01*
X24250000Y2000000D02*
X32900000Y2000000D01*
X32900000Y2000000D02*
X33150000Y2250000D01*
X33150000Y2250000D02*
X34100000Y2250000D01*
X24250000Y2000000D02*
X20800000Y5450000D01*
X20800000Y5450000D02*
X20700000Y5450000D01*
X20700000Y5450000D02*
X19750000Y6400000D01*
X19750000Y6400000D02*
X19750000Y6500000D01*
X25250000Y7200000D02*
X26277830Y7200000D01*
X26277830Y7200000D02*
X29027831Y4449999D01*
X29027831Y4449999D02*
X30720001Y4449999D01*
X30720001Y4449999D02*
X31000000Y4729998D01*
X30700000Y7250000D02*
X30050000Y7250000D01*
X31000000Y4729998D02*
X31000000Y6950000D01*
X31000000Y6950000D02*
X30700000Y7250000D01*
X13450000Y7750000D02*
X20620002Y7750000D01*
X20620002Y7750000D02*
X21250000Y7120002D01*
X21250000Y7120002D02*
X21250000Y5777830D01*
X23827830Y3200000D02*
X26750000Y3200000D01*
X21250000Y5777830D02*
X23827830Y3200000D01*
X30050000Y5500000D02*
X29950000Y5500000D01*
X29950000Y5500000D02*
X28250000Y7200000D01*
X12500000Y5750000D02*
X16550000Y5750000D01*
X16800000Y6300000D02*
X17450000Y6950000D01*
X16550000Y5750000D02*
X16800000Y6000000D01*
X16800000Y6000000D02*
X16800000Y6300000D01*
X17450000Y6950000D02*
X17750000Y6950000D01*
X8050000Y5750000D02*
X8379998Y5750000D01*
X8379998Y5750000D02*
X9229999Y6600001D01*
X9229999Y6600001D02*
X10949999Y6600001D01*
X10949999Y6600001D02*
X11800000Y5750000D01*
X11800000Y5750000D02*
X12500000Y5750000D01*
D24*
X33600000Y8950000D02*
X11500000Y8950000D01*
X11500000Y8950000D02*
X6450000Y8950000D01*
D25*
X11550000Y8900000D02*
X11500000Y8950000D01*
X11550000Y7750000D02*
X11550000Y8900000D01*
D24*
X39640000Y8950000D02*
X33600000Y8950000D01*
D23*
X31950000Y7250000D02*
X32600000Y7250000D01*
X33600000Y8250000D02*
X33600000Y8950000D01*
X32600000Y7250000D02*
X33600000Y8250000D01*
D24*
X4500000Y8950000D02*
X1680000Y8950000D01*
X1680000Y8950000D02*
X1500000Y8770000D01*
X6450000Y8950000D02*
X4500000Y8950000D01*
X39690000Y9000000D02*
X39640000Y8950000D01*
X43000000Y7540000D02*
X41150000Y7540000D01*
X41150000Y7540000D02*
X39690000Y9000000D01*
D23*
X43000000Y7540000D02*
X46540000Y7540000D01*
X46540000Y7540000D02*
X47500000Y8500000D01*
X17750000Y3950000D02*
X17700000Y3950000D01*
X17700000Y3950000D02*
X17100011Y3350011D01*
X17100011Y3350011D02*
X14850011Y3350011D01*
X14850011Y3350011D02*
X14750000Y3250000D01*
X14750000Y3250000D02*
X14000000Y3250000D01*
X10500000Y4200000D02*
X13750000Y4200000D01*
X13750000Y4200000D02*
X14000000Y3950000D01*
X14000000Y3950000D02*
X14000000Y3250000D01*
D24*
X9250000Y1000000D02*
X10600000Y1000000D01*
X10600000Y1000000D02*
X17750000Y1000000D01*
D25*
X10500000Y2300000D02*
X10500000Y1100000D01*
X10500000Y1100000D02*
X10600000Y1000000D01*
D24*
X17750000Y1000000D02*
X36200000Y1000000D01*
D23*
X34770002Y3300000D02*
X36200000Y1870002D01*
D24*
X36200000Y1000000D02*
X41540000Y1000000D01*
D23*
X31950000Y3300000D02*
X34770002Y3300000D01*
X36200000Y1870002D02*
X36200000Y1000000D01*
X17750000Y2050000D02*
X17750000Y1000000D01*
D24*
X1960000Y1000000D02*
X9250000Y1000000D01*
D26*
X10500000Y2300000D02*
X10500000Y1400000D01*
X10500000Y1400000D02*
X10100000Y1000000D01*
X10100000Y1000000D02*
X9250000Y1000000D01*
D24*
X1540000Y1230000D02*
X1730000Y1230000D01*
X1730000Y1230000D02*
X1960000Y1000000D01*
X43000000Y2460000D02*
X41540000Y1000000D01*
D26*
X5900000Y4050000D02*
X7050000Y4050000D01*
X7050000Y4050000D02*
X7850000Y3250000D01*
X7850000Y3250000D02*
X12500000Y3250000D01*
X5900000Y4050000D02*
X4150000Y4050000D01*
X6450000Y7050000D02*
X8300000Y7050000D01*
X8300000Y7050000D02*
X9000000Y7750000D01*
X4500000Y7050000D02*
X6450000Y7050000D01*
D25*
X4150000Y2150000D02*
X3800000Y2500000D01*
X3800000Y2500000D02*
X1540000Y2500000D01*
X5900000Y2150000D02*
X4150000Y2150000D01*
D26*
X9950000Y5750000D02*
X9950000Y5700000D01*
X9950000Y5700000D02*
X9049999Y4799999D01*
X9049999Y4799999D02*
X6800001Y4799999D01*
X6800001Y4799999D02*
X6000000Y5600000D01*
X6000000Y5600000D02*
X1850000Y5600000D01*
X1850000Y5600000D02*
X1500000Y5250000D01*
D23*
X16000000Y4200000D02*
X16850000Y5050000D01*
X16850000Y5050000D02*
X17750000Y5050000D01*
X9950000Y5750000D02*
X10650000Y5750000D01*
X10650000Y5750000D02*
X11649990Y4750010D01*
X11649990Y4750010D02*
X14699990Y4750010D01*
X14699990Y4750010D02*
X15250000Y4200000D01*
X15250000Y4200000D02*
X16000000Y4200000D01*
D24*
X1500000Y7500000D02*
X1500000Y5250000D01*
X1500000Y5250000D02*
X1500000Y2540000D01*
X1500000Y2540000D02*
X1540000Y2500000D01*
D23*
X34100000Y4150000D02*
X34100000Y4800000D01*
X34100000Y4800000D02*
X33400000Y5500000D01*
X33400000Y5500000D02*
X32600000Y5500000D01*
X32600000Y5500000D02*
X31950000Y5500000D01*
X47500000Y6000000D02*
X44000000Y6000000D01*
X44000000Y6000000D02*
X43000000Y5000000D01*
M02*
