G04 #@! TF.GenerationSoftware,KiCad,Pcbnew,no-vcs-found-2f9be81~58~ubuntu16.04.1*
G04 #@! TF.CreationDate,2017-04-05T21:19:04+02:00*
G04 #@! TF.ProjectId,peripheral-board,7065726970686572616C2D626F617264,rev?*
G04 #@! TF.FileFunction,Soldermask,Bot*
G04 #@! TF.FilePolarity,Negative*
%FSLAX46Y46*%
G04 Gerber Fmt 4.6, Leading zero omitted, Abs format (unit mm)*
G04 Created by KiCad (PCBNEW no-vcs-found-2f9be81~58~ubuntu16.04.1) date Wed Apr  5 21:19:04 2017*
%MOMM*%
%LPD*%
G01*
G04 APERTURE LIST*
%ADD10C,0.100000*%
%ADD11R,1.300000X2.100000*%
%ADD12R,1.200000X1.200000*%
%ADD13O,1.200000X1.200000*%
%ADD14R,1.700000X1.100000*%
%ADD15R,1.400000X1.650000*%
%ADD16R,1.650000X1.400000*%
%ADD17C,1.150000*%
%ADD18R,2.400000X3.400000*%
%ADD19R,1.400000X1.900000*%
%ADD20R,2.830000X2.770000*%
%ADD21R,2.800000X1.900000*%
%ADD22R,2.000000X1.400000*%
%ADD23C,1.670000*%
%ADD24C,2.400000*%
%ADD25R,2.400000X2.400000*%
%ADD26C,2.076400*%
%ADD27R,1.100000X1.700000*%
%ADD28R,2.000000X3.900000*%
%ADD29R,4.400500X2.000200*%
%ADD30R,3.999180X2.000200*%
%ADD31R,2.000200X3.999180*%
%ADD32R,5.800040X3.300680*%
%ADD33R,1.200000X1.300000*%
%ADD34C,1.950000*%
%ADD35R,2.400000X0.900000*%
%ADD36C,1.500000*%
%ADD37C,2.000000*%
%ADD38R,1.100000X1.900000*%
%ADD39O,5.200000X2.400000*%
%ADD40R,3.400000X5.200000*%
%ADD41C,5.200000*%
%ADD42R,1.400000X2.000000*%
%ADD43R,1.700000X2.100000*%
%ADD44R,0.850000X1.000000*%
%ADD45R,2.400000X1.500000*%
%ADD46R,1.200000X1.500000*%
%ADD47R,1.950000X1.000000*%
%ADD48R,1.290000X0.820000*%
%ADD49R,1.225000X1.112500*%
%ADD50R,1.050000X1.460000*%
%ADD51R,1.150000X1.200000*%
%ADD52R,3.400000X1.900000*%
%ADD53R,2.432000X2.127200*%
%ADD54O,2.432000X2.127200*%
G04 APERTURE END LIST*
D10*
D11*
X65350000Y30900000D03*
X68250000Y30900000D03*
X68450000Y27100000D03*
X65550000Y27100000D03*
D12*
X142600000Y81550000D03*
D13*
X142600000Y82800000D03*
X142600000Y84050000D03*
X142600000Y85300000D03*
X142600000Y86550000D03*
D12*
X159700000Y70700000D03*
D13*
X158450000Y70700000D03*
X157200000Y70700000D03*
X155950000Y70700000D03*
D14*
X45000000Y39950000D03*
X45000000Y38050000D03*
D15*
X61300000Y36200000D03*
X63300000Y36200000D03*
D16*
X58200000Y45300000D03*
X58200000Y43300000D03*
D17*
X61800000Y41810000D03*
D10*
G36*
X61192963Y41235000D02*
X60426297Y42385000D01*
X63173703Y42385000D01*
X62407037Y41235000D01*
X61192963Y41235000D01*
X61192963Y41235000D01*
G37*
D18*
X61800000Y43660000D03*
D19*
X60300000Y40700000D03*
X61800000Y40700000D03*
X63300000Y40700000D03*
D20*
X119000000Y79720000D03*
X119000000Y73480000D03*
X126700000Y91040000D03*
X126700000Y84800000D03*
D21*
X134500000Y74250000D03*
X134500000Y79750000D03*
X134100000Y93300000D03*
X134100000Y98800000D03*
D22*
X161500000Y85900000D03*
X161500000Y88900000D03*
D23*
X96230000Y31970000D03*
X98770000Y31970000D03*
D24*
X91000000Y96800000D03*
D25*
X88460000Y96800000D03*
X74000000Y96800000D03*
D24*
X76540000Y96800000D03*
D26*
X79920000Y96800000D03*
X82460000Y96800000D03*
X85000000Y96800000D03*
D27*
X93000000Y97600000D03*
X94900000Y97600000D03*
X71950000Y96400000D03*
X70050000Y96400000D03*
D28*
X131661600Y90300000D03*
X136538400Y90300000D03*
D29*
X161900000Y5200000D03*
X155798920Y5200000D03*
D30*
X160350820Y16999180D03*
X154849180Y16999180D03*
X160301640Y39250000D03*
X154800000Y39250000D03*
D31*
X111750820Y97500000D03*
X111750820Y91998360D03*
X104500000Y91998360D03*
X104500000Y97500000D03*
D32*
X107250820Y77798720D03*
X107250820Y87699640D03*
D29*
X161101080Y47500000D03*
X155000000Y47500000D03*
X161150540Y25250000D03*
X155049460Y25250000D03*
D33*
X132650000Y85300000D03*
X131700000Y83300000D03*
X133600000Y83300000D03*
D14*
X25100000Y32950000D03*
X25100000Y31050000D03*
D34*
X154400000Y75300000D03*
X154400000Y84900000D03*
D35*
X150300001Y83900000D03*
X150300001Y83100000D03*
X150300001Y82300000D03*
X150300001Y81500000D03*
X150300001Y80700000D03*
X150300001Y79900000D03*
X150300001Y79100000D03*
X150300001Y78300000D03*
X150300001Y77500000D03*
X150300001Y76700000D03*
X158500000Y76300000D03*
X158500000Y77100000D03*
X158500000Y77900000D03*
X158500000Y78700000D03*
X158500000Y79500000D03*
X158500000Y80300000D03*
X158500000Y81100000D03*
X158500000Y81900000D03*
X158500000Y82700000D03*
X158500000Y83500000D03*
D27*
X126450000Y75600000D03*
X128350000Y75600000D03*
X140500000Y87200000D03*
X138600000Y87200000D03*
X148250000Y92000000D03*
X146350000Y92000000D03*
X135350000Y87200000D03*
X137250000Y87200000D03*
D14*
X144700000Y93400000D03*
X144700000Y95300000D03*
D27*
X146350000Y94000000D03*
X148250000Y94000000D03*
D14*
X123700000Y71950000D03*
X123700000Y73850000D03*
D24*
X162850000Y67900000D03*
X159050000Y67900000D03*
X155250000Y67900000D03*
X162850000Y58500000D03*
X159050000Y58500000D03*
X155250000Y58500000D03*
D36*
X53400000Y33050000D03*
D37*
X32400000Y33050000D03*
D18*
X26080000Y8100000D03*
X56180000Y8100000D03*
D38*
X54030000Y35900000D03*
X52830000Y35900000D03*
D19*
X32400000Y35900000D03*
X51530000Y35900000D03*
X49830000Y35900000D03*
X47400000Y35900000D03*
X44900000Y35900000D03*
X42400000Y35900000D03*
X39900000Y35900000D03*
X37400000Y35900000D03*
X34900000Y35900000D03*
D39*
X156810000Y89920000D03*
D40*
X153000000Y95000000D03*
D41*
X159100000Y95000000D03*
D16*
X125700000Y71700000D03*
X125700000Y73700000D03*
D15*
X146000000Y89900000D03*
X144000000Y89900000D03*
D42*
X137500000Y85050000D03*
X140500000Y85050000D03*
D22*
X149800000Y98800000D03*
X149800000Y95800000D03*
X129400000Y95100000D03*
X129400000Y98100000D03*
D42*
X129500000Y82000000D03*
X126500000Y82000000D03*
X127500000Y72100000D03*
X130500000Y72100000D03*
D43*
X133750000Y87100000D03*
X130250000Y87100000D03*
D44*
X130000000Y76000000D03*
X130000000Y73900000D03*
D45*
X138900000Y97400000D03*
D46*
X140800000Y97400000D03*
D45*
X131700000Y81700000D03*
D46*
X133600000Y81700000D03*
X119750820Y82449180D03*
D45*
X117850820Y82449180D03*
X145150000Y96900000D03*
D46*
X147050000Y96900000D03*
D47*
X120750820Y84544180D03*
X120750820Y85814180D03*
X120750820Y87084180D03*
X120750820Y88354180D03*
X115350820Y88354180D03*
X115350820Y87084180D03*
X115350820Y85814180D03*
X115350820Y84544180D03*
D48*
X142592500Y95593750D03*
X142592500Y94943750D03*
X142592500Y94293750D03*
X142592500Y93643750D03*
X142592500Y92993750D03*
X142592500Y92343750D03*
X138382500Y92343750D03*
X138382500Y92993750D03*
X138382500Y93643750D03*
X138382500Y94293750D03*
X138382500Y94943750D03*
X138382500Y95593750D03*
D49*
X140075000Y92900000D03*
X140075000Y93612500D03*
X140075000Y94325000D03*
X140075000Y95037500D03*
X140900000Y92900000D03*
X140900000Y93612500D03*
X140900000Y94325000D03*
X140900000Y95037500D03*
D50*
X130450000Y79600000D03*
X128550000Y79600000D03*
X128550000Y77400000D03*
X129500000Y77400000D03*
X130450000Y77400000D03*
D51*
X98800000Y28850000D03*
X98800000Y30350000D03*
X96200000Y30350000D03*
X96200000Y28850000D03*
D24*
X93000000Y22250000D03*
X73000000Y20500000D03*
D52*
X71000000Y27000000D03*
X71000000Y29000000D03*
X71000000Y31000000D03*
X71000000Y33000000D03*
D53*
X2630000Y87160000D03*
D54*
X2630000Y84620000D03*
X2630000Y82080000D03*
X2630000Y79540000D03*
D53*
X2630000Y74460000D03*
D54*
X2630000Y71920000D03*
X2630000Y69380000D03*
X2630000Y66840000D03*
X2630000Y64300000D03*
X2630000Y61760000D03*
X2630000Y59220000D03*
X2630000Y56680000D03*
X2630000Y54140000D03*
X2630000Y51600000D03*
X2630000Y49060000D03*
X2630000Y46520000D03*
X2630000Y43980000D03*
X2630000Y41440000D03*
X2630000Y38900000D03*
X2630000Y36360000D03*
X2630000Y33820000D03*
X2630000Y31280000D03*
X2630000Y28740000D03*
X2630000Y26200000D03*
X2630000Y23660000D03*
X2630000Y21120000D03*
X2630000Y18580000D03*
X2630000Y16040000D03*
X2630000Y13500000D03*
X2630000Y10960000D03*
X2630000Y8420000D03*
X2630000Y5880000D03*
X2630000Y3340000D03*
M02*
