G04 #@! TF.GenerationSoftware,KiCad,Pcbnew,no-vcs-found-7652~57~ubuntu16.04.1*
G04 #@! TF.CreationDate,2017-02-21T14:31:34+01:00*
G04 #@! TF.ProjectId,peripheral-board,7065726970686572616C2D626F617264,rev?*
G04 #@! TF.FileFunction,Soldermask,Top*
G04 #@! TF.FilePolarity,Negative*
%FSLAX46Y46*%
G04 Gerber Fmt 4.6, Leading zero omitted, Abs format (unit mm)*
G04 Created by KiCad (PCBNEW no-vcs-found-7652~57~ubuntu16.04.1) date Tue Feb 21 14:31:34 2017*
%MOMM*%
%LPD*%
G01*
G04 APERTURE LIST*
%ADD10C,0.100000*%
%ADD11R,1.200000X1.200000*%
%ADD12O,1.200000X1.200000*%
%ADD13R,1.300000X2.100000*%
%ADD14R,1.650000X1.400000*%
%ADD15R,1.400000X1.650000*%
%ADD16R,2.000000X1.400000*%
%ADD17R,1.100000X1.700000*%
%ADD18R,2.100000X1.700000*%
%ADD19R,1.700000X2.100000*%
%ADD20R,1.700000X1.100000*%
%ADD21C,1.670000*%
%ADD22C,2.400000*%
%ADD23R,2.400000X2.400000*%
%ADD24C,2.076400*%
%ADD25R,1.200100X1.200100*%
%ADD26R,1.162000X0.831800*%
%ADD27C,1.950000*%
%ADD28R,2.000000X0.950000*%
%ADD29R,0.950000X2.000000*%
%ADD30R,1.950000X1.000000*%
%ADD31C,1.500000*%
%ADD32C,2.000000*%
%ADD33O,5.200000X2.400000*%
%ADD34R,3.400000X5.200000*%
%ADD35C,5.200000*%
%ADD36R,1.000000X1.950000*%
%ADD37R,2.200000X1.500000*%
%ADD38R,2.432000X2.127200*%
%ADD39O,2.432000X2.127200*%
%ADD40R,1.900000X1.000000*%
%ADD41R,1.000000X1.900000*%
%ADD42R,1.500000X2.200000*%
G04 APERTURE END LIST*
D10*
D11*
X142600000Y81550000D03*
D12*
X142600000Y82800000D03*
X142600000Y84050000D03*
X142600000Y85300000D03*
X142600000Y86550000D03*
D11*
X159700000Y70700000D03*
D12*
X158450000Y70700000D03*
X157200000Y70700000D03*
X155950000Y70700000D03*
D13*
X10350000Y76100000D03*
X7450000Y76100000D03*
D14*
X60700000Y17100000D03*
X60700000Y15100000D03*
D15*
X60600000Y32800000D03*
X62600000Y32800000D03*
D16*
X143800000Y14100000D03*
X143800000Y11100000D03*
X143700000Y33450000D03*
X143700000Y36450000D03*
D17*
X57200000Y17500000D03*
X59100000Y17500000D03*
X59100000Y15500000D03*
X57200000Y15500000D03*
X69750000Y24600000D03*
X71650000Y24600000D03*
D18*
X136500000Y85750000D03*
X136500000Y89250000D03*
X127500000Y89250000D03*
X127500000Y85750000D03*
X117500000Y85750000D03*
X117500000Y89250000D03*
X107500000Y89250000D03*
X107500000Y85750000D03*
X97500000Y85750000D03*
X97500000Y89250000D03*
X87500000Y89250000D03*
X87500000Y85750000D03*
X77500000Y85750000D03*
X77500000Y89250000D03*
X67500000Y89250000D03*
X67500000Y85750000D03*
X57500000Y85750000D03*
X57500000Y89250000D03*
X47500000Y89250000D03*
X47500000Y85750000D03*
X147500000Y85750000D03*
X147500000Y89250000D03*
X27500000Y89250000D03*
X27500000Y85750000D03*
X37500000Y55750000D03*
X37500000Y59250000D03*
D19*
X100750000Y7800000D03*
X97250000Y7800000D03*
D18*
X126500000Y57650000D03*
X126500000Y61150000D03*
X142500000Y59250000D03*
X142500000Y55750000D03*
X37500000Y85750000D03*
X37500000Y89250000D03*
X137500000Y51750000D03*
X137500000Y48250000D03*
X138300000Y75050000D03*
X138300000Y78550000D03*
X121500000Y31700000D03*
X121500000Y28200000D03*
X77500000Y7250000D03*
X77500000Y10750000D03*
X27500000Y79250000D03*
X27500000Y75750000D03*
X37500000Y75750000D03*
X37500000Y79250000D03*
X47500000Y79250000D03*
X47500000Y75750000D03*
X57500000Y75750000D03*
X57500000Y79250000D03*
X128000000Y79250000D03*
X128000000Y75750000D03*
X77500000Y75750000D03*
X77500000Y79250000D03*
X87500000Y79250000D03*
X87500000Y75750000D03*
X97500000Y75750000D03*
X97500000Y79250000D03*
X107500000Y79250000D03*
X107500000Y75750000D03*
X117500000Y75750000D03*
X117500000Y79250000D03*
D19*
X53250000Y46000000D03*
X56750000Y46000000D03*
X66750000Y46000000D03*
X63250000Y46000000D03*
X121850000Y46000000D03*
X125350000Y46000000D03*
D18*
X67500000Y75750000D03*
X67500000Y79250000D03*
X87500000Y10750000D03*
X87500000Y7250000D03*
X27500000Y65750000D03*
X27500000Y69250000D03*
X37500000Y69250000D03*
X37500000Y65750000D03*
X47500000Y65750000D03*
X47500000Y69250000D03*
X57500000Y69250000D03*
X57500000Y65750000D03*
X67500000Y65750000D03*
X67500000Y69250000D03*
X77500000Y69250000D03*
X77500000Y65750000D03*
X114900000Y15850000D03*
X114900000Y12350000D03*
X97500000Y69250000D03*
X97500000Y65750000D03*
X107500000Y65750000D03*
X107500000Y69250000D03*
X117500000Y69250000D03*
X117500000Y65750000D03*
X127500000Y65750000D03*
X127500000Y69250000D03*
X137500000Y69250000D03*
X137500000Y65750000D03*
X147400000Y48250000D03*
X147400000Y51750000D03*
D19*
X106350000Y46000000D03*
X109850000Y46000000D03*
D18*
X124900000Y15850000D03*
X124900000Y12350000D03*
X87500000Y69250000D03*
X87500000Y65750000D03*
D19*
X46750000Y46000000D03*
X43250000Y46000000D03*
X33250000Y46000000D03*
X36750000Y46000000D03*
D18*
X134900000Y15850000D03*
X134900000Y12350000D03*
D19*
X24950000Y46100000D03*
X28450000Y46100000D03*
D18*
X27500000Y55750000D03*
X27500000Y59250000D03*
D19*
X113250000Y46000000D03*
X116750000Y46000000D03*
D18*
X47500000Y55750000D03*
X47500000Y59250000D03*
X57500000Y59250000D03*
X57500000Y55750000D03*
X67500000Y55750000D03*
X67500000Y59250000D03*
X77500000Y59250000D03*
X77500000Y55750000D03*
X87500000Y55750000D03*
X87500000Y59250000D03*
X97500000Y59250000D03*
X97500000Y55750000D03*
X106500000Y57650000D03*
X106500000Y61150000D03*
X116500000Y61150000D03*
X116500000Y57650000D03*
X82500000Y51750000D03*
X82500000Y48250000D03*
X147500000Y70750000D03*
X147500000Y74250000D03*
D20*
X68800000Y38150000D03*
X68800000Y36250000D03*
D21*
X96230000Y31970000D03*
X98770000Y31970000D03*
D22*
X91000000Y96800000D03*
D23*
X88460000Y96800000D03*
X74000000Y96800000D03*
D22*
X76540000Y96800000D03*
D24*
X79920000Y96800000D03*
X82460000Y96800000D03*
X85000000Y96800000D03*
D25*
X5499240Y26050000D03*
X5499240Y24150000D03*
X7498220Y25100000D03*
D14*
X143700000Y40200000D03*
X143700000Y38200000D03*
X143800000Y15700000D03*
X143800000Y17700000D03*
D17*
X56450000Y10800000D03*
X58350000Y10800000D03*
D20*
X22700000Y26250000D03*
X22700000Y28150000D03*
D26*
X70038000Y48601120D03*
X70038000Y50998880D03*
X71562000Y50998880D03*
X71562000Y48601120D03*
X70038000Y50198780D03*
X71562000Y50198780D03*
X70038000Y49401220D03*
X71562000Y49401220D03*
D27*
X154400000Y75300000D03*
X154400000Y84900000D03*
D28*
X66250000Y27950000D03*
X66250000Y27150000D03*
X66250000Y26350000D03*
X66250000Y25550000D03*
X66250000Y24750000D03*
X66250000Y23950000D03*
X66250000Y23150000D03*
X66250000Y22350000D03*
D29*
X64800000Y20900000D03*
X64000000Y20900000D03*
X63200000Y20900000D03*
X62400000Y20900000D03*
X61600000Y20900000D03*
X60800000Y20900000D03*
X60000000Y20900000D03*
X59200000Y20900000D03*
D28*
X57750000Y22350000D03*
X57750000Y23150000D03*
X57750000Y23950000D03*
X57750000Y24750000D03*
X57750000Y25550000D03*
X57750000Y26350000D03*
X57750000Y27150000D03*
X57750000Y27950000D03*
D29*
X59200000Y29400000D03*
X60000000Y29400000D03*
X60800000Y29400000D03*
X61600000Y29400000D03*
X62400000Y29400000D03*
X63200000Y29400000D03*
X64000000Y29400000D03*
X64800000Y29400000D03*
D17*
X106250000Y96300000D03*
X108150000Y96300000D03*
X108150000Y98700000D03*
X106250000Y98700000D03*
X155250000Y92100000D03*
X157150000Y92100000D03*
D15*
X157300000Y47400000D03*
X159300000Y47400000D03*
X156600000Y39700000D03*
X158600000Y39700000D03*
D14*
X151500000Y21300000D03*
X151500000Y23300000D03*
X160450000Y40000000D03*
X160450000Y38000000D03*
X151500000Y45800000D03*
X151500000Y43800000D03*
D15*
X158550000Y17200000D03*
X156550000Y17200000D03*
X159300000Y25200000D03*
X157300000Y25200000D03*
D14*
X160400000Y15800000D03*
X160400000Y17800000D03*
D15*
X42200000Y33600000D03*
X40200000Y33600000D03*
X45400000Y35800000D03*
X47400000Y35800000D03*
X42200000Y35700000D03*
X40200000Y35700000D03*
D30*
X161000000Y23300000D03*
X161000000Y22030000D03*
X161000000Y20760000D03*
X161000000Y19490000D03*
X155600000Y19490000D03*
X155600000Y20760000D03*
X155600000Y22030000D03*
X155600000Y23300000D03*
X151400000Y40100000D03*
X151400000Y38830000D03*
X151400000Y37560000D03*
X151400000Y36290000D03*
X146000000Y36290000D03*
X146000000Y37560000D03*
X146000000Y38830000D03*
X146000000Y40100000D03*
X161000000Y45505000D03*
X161000000Y44235000D03*
X161000000Y42965000D03*
X161000000Y41695000D03*
X155600000Y41695000D03*
X155600000Y42965000D03*
X155600000Y44235000D03*
X155600000Y45505000D03*
X146100000Y17605000D03*
X146100000Y16335000D03*
X146100000Y15065000D03*
X146100000Y13795000D03*
X151500000Y13795000D03*
X151500000Y15065000D03*
X151500000Y16335000D03*
X151500000Y17605000D03*
D17*
X55550000Y29600000D03*
X53650000Y29600000D03*
X148800000Y42000000D03*
X150700000Y42000000D03*
X149950000Y19500000D03*
X151850000Y19500000D03*
X156850000Y15200000D03*
X158750000Y15200000D03*
X158800000Y37700000D03*
X156900000Y37700000D03*
D20*
X153500000Y22350000D03*
X153500000Y20450000D03*
D17*
X56450000Y12800000D03*
X58350000Y12800000D03*
D20*
X153500000Y44450000D03*
X153500000Y42550000D03*
D22*
X162850000Y67900000D03*
X159050000Y67900000D03*
X155250000Y67900000D03*
X162850000Y58500000D03*
X159050000Y58500000D03*
X155250000Y58500000D03*
D31*
X53400000Y33050000D03*
D32*
X32400000Y33050000D03*
D33*
X156810000Y89920000D03*
D34*
X153000000Y95000000D03*
D35*
X159100000Y95000000D03*
D36*
X98905000Y24600000D03*
X97635000Y24600000D03*
X96365000Y24600000D03*
X95095000Y24600000D03*
X95095000Y30000000D03*
X96365000Y30000000D03*
X97635000Y30000000D03*
X98905000Y30000000D03*
D17*
X98650000Y18700000D03*
X96750000Y18700000D03*
X95550000Y22300000D03*
X97450000Y22300000D03*
D37*
X155900000Y78150000D03*
X155900000Y81850000D03*
X161100000Y78150000D03*
X161100000Y81850000D03*
D22*
X93000000Y22250000D03*
X73000000Y20500000D03*
D37*
X84900000Y48150000D03*
X84900000Y51850000D03*
X90100000Y48150000D03*
X90100000Y51850000D03*
D38*
X2630000Y87160000D03*
D39*
X2630000Y84620000D03*
X2630000Y82080000D03*
X2630000Y79540000D03*
D38*
X2630000Y74460000D03*
D39*
X2630000Y71920000D03*
X2630000Y69380000D03*
X2630000Y66840000D03*
X2630000Y64300000D03*
X2630000Y61760000D03*
X2630000Y59220000D03*
X2630000Y56680000D03*
X2630000Y54140000D03*
X2630000Y51600000D03*
X2630000Y49060000D03*
X2630000Y46520000D03*
X2630000Y43980000D03*
X2630000Y41440000D03*
X2630000Y38900000D03*
X2630000Y36360000D03*
X2630000Y33820000D03*
X2630000Y31280000D03*
X2630000Y28740000D03*
X2630000Y26200000D03*
X2630000Y23660000D03*
X2630000Y21120000D03*
X2630000Y18580000D03*
X2630000Y16040000D03*
X2630000Y13500000D03*
X2630000Y10960000D03*
X2630000Y8420000D03*
X2630000Y5880000D03*
X2630000Y3340000D03*
D40*
X6600000Y85950000D03*
X6600000Y84680000D03*
X6600000Y83410000D03*
X6600000Y82140000D03*
X6600000Y80870000D03*
X6600000Y79600000D03*
X6600000Y78330000D03*
X12000000Y78330000D03*
X12000000Y79600000D03*
X12000000Y80870000D03*
X12000000Y82140000D03*
X12000000Y83410000D03*
X12000000Y84680000D03*
X12000000Y85950000D03*
D41*
X118120000Y30700000D03*
X116850000Y30700000D03*
X115580000Y30700000D03*
X114310000Y30700000D03*
X113040000Y30700000D03*
X111770000Y30700000D03*
X110500000Y30700000D03*
X109230000Y30700000D03*
X109230000Y36100000D03*
X110500000Y36100000D03*
X111770000Y36100000D03*
X113040000Y36100000D03*
X114310000Y36100000D03*
X115580000Y36100000D03*
X116850000Y36100000D03*
X118120000Y36100000D03*
D40*
X12000000Y88755000D03*
X12000000Y90025000D03*
X12000000Y91295000D03*
X12000000Y92565000D03*
X12000000Y93835000D03*
X12000000Y95105000D03*
X12000000Y96375000D03*
X12000000Y97645000D03*
X6600000Y97645000D03*
X6600000Y96375000D03*
X6600000Y95105000D03*
X6600000Y93835000D03*
X6600000Y92565000D03*
X6600000Y91295000D03*
X6600000Y90025000D03*
X6600000Y88755000D03*
D42*
X20650000Y92600000D03*
X24350000Y92600000D03*
X20650000Y87400000D03*
X24350000Y87400000D03*
X34350000Y87400000D03*
X30650000Y87400000D03*
X34350000Y92600000D03*
X30650000Y92600000D03*
X40650000Y92600000D03*
X44350000Y92600000D03*
X40650000Y87400000D03*
X44350000Y87400000D03*
X54350000Y87400000D03*
X50650000Y87400000D03*
X54350000Y92600000D03*
X50650000Y92600000D03*
X60650000Y92600000D03*
X64350000Y92600000D03*
X60650000Y87400000D03*
X64350000Y87400000D03*
X74350000Y87400000D03*
X70650000Y87400000D03*
X74350000Y92600000D03*
X70650000Y92600000D03*
X80650000Y92600000D03*
X84350000Y92600000D03*
X80650000Y87400000D03*
X84350000Y87400000D03*
X104350000Y87400000D03*
X100650000Y87400000D03*
X104350000Y92600000D03*
X100650000Y92600000D03*
X20650000Y72600000D03*
X24350000Y72600000D03*
X20650000Y67400000D03*
X24350000Y67400000D03*
X114350000Y87400000D03*
X110650000Y87400000D03*
X114350000Y92600000D03*
X110650000Y92600000D03*
X120650000Y92600000D03*
X124350000Y92600000D03*
X120650000Y87400000D03*
X124350000Y87400000D03*
X134350000Y87400000D03*
X130650000Y87400000D03*
X134350000Y92600000D03*
X130650000Y92600000D03*
X140650000Y92600000D03*
X144350000Y92600000D03*
X140650000Y87400000D03*
X144350000Y87400000D03*
D37*
X119900000Y48150000D03*
X119900000Y51850000D03*
X125100000Y48150000D03*
X125100000Y51850000D03*
X65100000Y51850000D03*
X65100000Y48150000D03*
X59900000Y51850000D03*
X59900000Y48150000D03*
D42*
X94350000Y87400000D03*
X90650000Y87400000D03*
X94350000Y92600000D03*
X90650000Y92600000D03*
D37*
X130100000Y31850000D03*
X130100000Y28150000D03*
X124900000Y31850000D03*
X124900000Y28150000D03*
D42*
X34350000Y77400000D03*
X30650000Y77400000D03*
X34350000Y82600000D03*
X30650000Y82600000D03*
X40650000Y82600000D03*
X44350000Y82600000D03*
X40650000Y77400000D03*
X44350000Y77400000D03*
X54350000Y77400000D03*
X50650000Y77400000D03*
X54350000Y82600000D03*
X50650000Y82600000D03*
X60650000Y82600000D03*
X64350000Y82600000D03*
X60650000Y77400000D03*
X64350000Y77400000D03*
X74350000Y77400000D03*
X70650000Y77400000D03*
X74350000Y82600000D03*
X70650000Y82600000D03*
X80650000Y82600000D03*
X84350000Y82600000D03*
X80650000Y77400000D03*
X84350000Y77400000D03*
D37*
X114900000Y18150000D03*
X114900000Y21850000D03*
X120100000Y18150000D03*
X120100000Y21850000D03*
X95100000Y11850000D03*
X95100000Y8150000D03*
X89900000Y11850000D03*
X89900000Y8150000D03*
D42*
X114350000Y77400000D03*
X110650000Y77400000D03*
X114350000Y82600000D03*
X110650000Y82600000D03*
X120650000Y82600000D03*
X124350000Y82600000D03*
X120650000Y77400000D03*
X124350000Y77400000D03*
X134350000Y77400000D03*
X130650000Y77400000D03*
X134350000Y82600000D03*
X130650000Y82600000D03*
X140650000Y77600000D03*
X144350000Y77600000D03*
X140650000Y72400000D03*
X144350000Y72400000D03*
D37*
X109900000Y48150000D03*
X109900000Y51850000D03*
X115100000Y48150000D03*
X115100000Y51850000D03*
X55100000Y51850000D03*
X55100000Y48150000D03*
X49900000Y51850000D03*
X49900000Y48150000D03*
X79900000Y8150000D03*
X79900000Y11850000D03*
X85100000Y8150000D03*
X85100000Y11850000D03*
D42*
X90650000Y82600000D03*
X94350000Y82600000D03*
X90650000Y77400000D03*
X94350000Y77400000D03*
X44350000Y67400000D03*
X40650000Y67400000D03*
X44350000Y72600000D03*
X40650000Y72600000D03*
X50650000Y72600000D03*
X54350000Y72600000D03*
X50650000Y67400000D03*
X54350000Y67400000D03*
X64350000Y67400000D03*
X60650000Y67400000D03*
X64350000Y72600000D03*
X60650000Y72600000D03*
X70650000Y72600000D03*
X74350000Y72600000D03*
X70650000Y67400000D03*
X74350000Y67400000D03*
X84250000Y67400000D03*
X80550000Y67400000D03*
X84250000Y72600000D03*
X80550000Y72600000D03*
X90650000Y72600000D03*
X94350000Y72600000D03*
X90650000Y67400000D03*
X94350000Y67400000D03*
X104350000Y67400000D03*
X100650000Y67400000D03*
X104350000Y72600000D03*
X100650000Y72600000D03*
X20650000Y82600000D03*
X24350000Y82600000D03*
X20650000Y77400000D03*
X24350000Y77400000D03*
X124350000Y67400000D03*
X120650000Y67400000D03*
X124350000Y72600000D03*
X120650000Y72600000D03*
X130650000Y72600000D03*
X134350000Y72600000D03*
X130650000Y67400000D03*
X134350000Y67400000D03*
D37*
X139900000Y48150000D03*
X139900000Y51850000D03*
X145100000Y48150000D03*
X145100000Y51850000D03*
X105100000Y51850000D03*
X105100000Y48150000D03*
X99900000Y51850000D03*
X99900000Y48150000D03*
X39900000Y48150000D03*
X39900000Y51850000D03*
X45100000Y48150000D03*
X45100000Y51850000D03*
X130100000Y21850000D03*
X130100000Y18150000D03*
X124900000Y21850000D03*
X124900000Y18150000D03*
D42*
X24350000Y57400000D03*
X20650000Y57400000D03*
X24350000Y62600000D03*
X20650000Y62600000D03*
X100650000Y82600000D03*
X104350000Y82600000D03*
X100650000Y77400000D03*
X104350000Y77400000D03*
X114350000Y67400000D03*
X110650000Y67400000D03*
X114350000Y72600000D03*
X110650000Y72600000D03*
X110650000Y62600000D03*
X114350000Y62600000D03*
X110650000Y57400000D03*
X114350000Y57400000D03*
X34350000Y57400000D03*
X30650000Y57400000D03*
X34350000Y62600000D03*
X30650000Y62600000D03*
X40650000Y62600000D03*
X44350000Y62600000D03*
X40650000Y57400000D03*
X44350000Y57400000D03*
X54350000Y57400000D03*
X50650000Y57400000D03*
X54350000Y62600000D03*
X50650000Y62600000D03*
X60650000Y62600000D03*
X64350000Y62600000D03*
X60650000Y57400000D03*
X64350000Y57400000D03*
X74350000Y57400000D03*
X70650000Y57400000D03*
X74350000Y62600000D03*
X70650000Y62600000D03*
X80650000Y62600000D03*
X84350000Y62600000D03*
X80650000Y57400000D03*
X84350000Y57400000D03*
X94350000Y57400000D03*
X90650000Y57400000D03*
X94350000Y62600000D03*
X90650000Y62600000D03*
D37*
X75100000Y11850000D03*
X75100000Y8150000D03*
X69900000Y11850000D03*
X69900000Y8150000D03*
D42*
X34350000Y67400000D03*
X30650000Y67400000D03*
X34350000Y72600000D03*
X30650000Y72600000D03*
X120650000Y62600000D03*
X124350000Y62600000D03*
X120650000Y57400000D03*
X124350000Y57400000D03*
X139350000Y57400000D03*
X135650000Y57400000D03*
X139350000Y62600000D03*
X135650000Y62600000D03*
D37*
X135100000Y51850000D03*
X135100000Y48150000D03*
X129900000Y51850000D03*
X129900000Y48150000D03*
X74900000Y48150000D03*
X74900000Y51850000D03*
X80100000Y48150000D03*
X80100000Y51850000D03*
X35100000Y51850000D03*
X35100000Y48150000D03*
X29900000Y51850000D03*
X29900000Y48150000D03*
X134900000Y18150000D03*
X134900000Y21850000D03*
X140100000Y18150000D03*
X140100000Y21850000D03*
X25100000Y51850000D03*
X25100000Y48150000D03*
X19900000Y51850000D03*
X19900000Y48150000D03*
D42*
X104350000Y57400000D03*
X100650000Y57400000D03*
X104350000Y62600000D03*
X100650000Y62600000D03*
M02*
