M48
;DRILL file {KiCad 0.201602141416+6556~42~ubuntu14.04.1-product} date ons 24 feb 2016 10:38:39
;FORMAT={-:-/ absolute / inch / decimal}
FMAT,2
INCH,TZ
T1C0.016
T2C0.040
T3C0.098
T4C0.120
%
G90
G05
M72
T1
X3.5256Y-2.5039
X3.5945Y-3.5335
X3.6043Y-3.6417
X3.6043Y-3.8602
X3.6122Y-3.9469
X3.6122Y-4.0138
X3.6142Y-3.3209
X3.6299Y-5.2854
X3.6457Y-3.0827
X3.651Y-3.9555
X3.6988Y-3.9606
X3.6988Y-5.3878
X3.7067Y-3.8642
X3.7069Y-2.9174
X3.7106Y-2.4567
X3.715Y-4.0086
X3.7283Y-4.1339
X3.7302Y-4.3615
X3.7323Y-5.185
X3.7382Y-3.9113
X3.752Y-3.1063
X3.7598Y-2.811
X3.7598Y-5.4547
X3.7814Y-5.1142
X3.7972Y-2.0335
X3.8031Y-5.2756
X3.8071Y-5.4488
X3.81Y-3.3676
X3.8393Y-3.7463
X3.8445Y-2.5236
X3.872Y-2.6732
X3.874Y-3.5354
X3.876Y-4.7894
X3.9134Y-3.1339
X3.9193Y-2.9764
X3.9291Y-5.3425
X3.9429Y-5.1929
X3.9685Y-5.0118
X3.9705Y-5.2461
X3.9705Y-5.3031
X3.9902Y-3.3229
X4.0433Y-5.4685
X4.061Y-3.5748
X4.0709Y-3.2953
X4.0787Y-3.2579
X4.0807Y-3.5354
X4.0886Y-3.1594
X4.1142Y-5.0571
X4.1772Y-3.002
X4.1791Y-3.9272
X4.1811Y-3.6909
X4.185Y-3.8504
X4.1852Y-4.0078
X4.189Y-4.8268
X4.1909Y-3.9646
X4.1988Y-3.5984
X4.2037Y-4.033
X4.2047Y-3.8031
X4.2061Y-3.4701
X4.2067Y-4.4508
X4.2113Y-3.8915
X4.2126Y-5.4055
X4.2205Y-5.2559
X4.2264Y-2.9114
X4.2269Y-3.4465
X4.2269Y-4.8391
X4.2402Y-4.4882
X4.2421Y-2.2303
X4.2421Y-4.4508
X4.25Y-2.9665
X4.2638Y-3.4075
X4.2677Y-2.6634
X4.2717Y-2.4882
X4.2756Y-3.0335
X4.3282Y-4.2436
X4.3307Y-3.8071
X4.3422Y-2.775
X4.3615Y-2.7981
X4.3859Y-2.8158
X4.4056Y-2.8406
X4.4272Y-2.8622
X4.4291Y-4.1772
X4.4291Y-4.8957
X4.4331Y-2.4882
X4.439Y-2.2244
X4.4469Y-2.6732
X4.4641Y-2.775
X4.4843Y-2.7972
X4.504Y-2.8209
X4.5177Y-3.1083
X4.5256Y-2.8465
X4.5433Y-4.0748
X4.5472Y-2.6732
X4.5625Y-2.773
X4.5768Y-4.8524
X4.5828Y-2.7953
X4.6025Y-2.8189
X4.624Y-2.8425
X4.6496Y-4.8425
X4.6535Y-2.7795
X4.6614Y-4.0787
X4.6654Y-3.252
X4.6693Y-4.8917
X4.7441Y-2.7756
X4.7441Y-4.1929
X4.7539Y-4.0768
X4.7638Y-3.9724
X4.8031Y-3.9724
X4.8071Y-3.2598
X4.8228Y-4.0709
X4.8425Y-2.7717
X4.8425Y-3.9724
X4.8541Y-3.4082
X4.8583Y-4.25
X4.8819Y-3.9685
X4.8898Y-2.1811
X4.9029Y-3.4983
X4.9134Y-2.3248
X4.9173Y-3.9685
X4.937Y-2.7756
X4.9488Y-3.4829
X4.9488Y-4.7756
X4.9528Y-3.9685
X4.9567Y-4.248
X4.9724Y-4.7953
X4.9744Y-3.0906
X4.9882Y-3.9685
X4.9961Y-3.4685
X5.0098Y-3.0906
X5.0236Y-3.9685
X5.0354Y-2.7717
X5.0512Y-2.2165
X5.0512Y-3.0945
X5.0571Y-4.3189
X5.0591Y-3.9685
X5.0945Y-3.9685
X5.126Y-3.9685
X5.1299Y-3.5079
X5.1339Y-2.1831
X5.1378Y-2.7717
X5.1555Y-4.313
X5.2165Y-5.4134
X5.2412Y-2.7737
X5.252Y-4.3169
X5.255Y-4.0639
X5.2872Y-4.0656
X5.2874Y-4.0354
X5.311Y-2.7835
X5.3222Y-4.0092
X5.3224Y-4.0398
X5.3425Y-2.7775
X5.3541Y-4.0106
X5.3543Y-3.9803
X5.3543Y-4.3583
X5.3583Y-4.3898
X5.378Y-3.7874
X5.3799Y-3.9547
X5.3898Y-5.6378
X5.3898Y-5.7343
X5.4016Y-3.3937
X5.4386Y-2.7429
X5.4528Y-2.7126
X5.4606Y-3.2579
X5.4724Y-3.6909
X5.4829Y-3.4668
X5.4843Y-3.1575
X5.4857Y-3.5788
X5.4862Y-3.3169
X5.4862Y-3.8484
X5.4882Y-2.752
X5.4893Y-3.3722
X5.563Y-5.2717
X5.5716Y-3.7551
X5.5745Y-3.1527
X5.5758Y-3.7984
X5.5768Y-4.6083
X5.578Y-3.7095
X5.5787Y-3.876
X5.5791Y-3.844
X5.5846Y-2.9882
X5.5866Y-4.8563
X5.5866Y-5.0354
X5.5886Y-4.7047
X5.5886Y-4.937
X5.5906Y-3.6555
X5.5925Y-2.7362
X5.5925Y-5.3799
X5.5945Y-5.1969
X5.5949Y-3.7344
X5.5965Y-5.5295
X5.597Y-3.6861
X5.5981Y-3.8206
X5.5984Y-5.2992
X5.5984Y-5.4528
X5.599Y-3.7775
X5.6147Y-3.117
X5.6161Y-4.1398
X5.6201Y-3.5276
X5.6212Y-3.0551
X5.6417Y-2.4134
X5.6437Y-3.1673
X5.6681Y-3.2661
X5.7047Y-3.2638
X5.75Y-3.7402
X5.7559Y-5.5748
X5.7579Y-2.9803
X5.759Y-3.0958
X5.7655Y-2.7393
X5.7657Y-2.8996
X5.7677Y-3.7067
X5.7717Y-2.8228
X5.7737Y-2.6753
X5.7795Y-3.0412
X5.7795Y-5.1181
X5.7835Y-4.7874
X5.7874Y-4.937
X5.7933Y-3.685
X5.802Y-2.9981
X5.8031Y-5.8543
X5.8091Y-4.2028
X5.8145Y-2.645
X5.8163Y-2.7263
X5.8304Y-2.9351
X5.8327Y-4.1713
X5.8346Y-3.6929
X5.8386Y-5.874
X5.8425Y-4.3701
X5.8502Y-5.6885
X5.8543Y-2.8838
X5.8547Y-2.6238
X5.876Y-3.7047
X5.8762Y-2.8406
X5.8874Y-2.587
X5.8957Y-4.411
X5.8958Y-3.6804
X5.9055Y-5.561
X5.9181Y-2.8781
X5.9219Y-2.5591
X5.9291Y-2.9213
X5.9393Y-3.6928
X5.9449Y-5.6929
X5.9488Y-4.3563
X5.9567Y-2.9704
X5.9626Y-5.439
X5.9665Y-5.5098
X5.9685Y-2.5335
X5.9685Y-5.7953
X5.9803Y-3.7028
X5.9843Y-3.0294
X5.9941Y-2.4921
X6.Y-3.6791
X6.0079Y-3.0748
X6.0138Y-3.998
X6.0197Y-2.9823
X6.0315Y-3.122
X6.0354Y-2.4606
X6.0394Y-5.5551
X6.0472Y-2.8346
X6.0546Y-3.2322
X6.0546Y-3.1692
X6.0571Y-3.0768
X6.0591Y-4.3976
X6.061Y-3.6949
X6.063Y-5.5748
X6.0906Y-5.5551
X6.0906Y-3.6711
X6.1142Y-5.5748
X6.1181Y-5.8543
X6.1319Y-3.6831
X6.1417Y-5.5433
X6.1673Y-3.6772
X6.1673Y-5.6988
X6.1693Y-3.2402
X6.1693Y-4.2008
X6.1791Y-2.4213
X6.1811Y-2.9685
X6.187Y-4.1437
X6.1929Y-5.5719
X6.2008Y-5.6988
X6.2067Y-3.7008
X6.2205Y-2.8701
X6.2264Y-2.9173
X6.2329Y-3.6763
X6.2382Y-3.0315
X6.2402Y-2.815
X6.2402Y-3.0669
X6.2421Y-3.1083
X6.2421Y-3.1732
X6.2426Y-3.1412
X6.2441Y-5.5787
X6.2446Y-2.9661
X6.2579Y-2.8701
X6.2649Y-3.676
X6.2697Y-3.2579
X6.2697Y-4.2087
X6.2717Y-3.0531
X6.2717Y-3.3228
X6.2717Y-5.5472
X6.2736Y-3.4331
X6.2736Y-3.6083
X6.2756Y-2.4252
X6.2756Y-3.5295
X6.311Y-5.811
X6.3223Y-5.5717
X6.3287Y-2.8386
X6.3465Y-4.2126
X6.3588Y-3.774
X6.3661Y-3.7008
X6.3701Y-5.5748
X6.3904Y-3.6082
X6.3934Y-3.7717
X6.3976Y-3.2579
X6.4025Y-3.5611
X6.417Y-3.5184
X6.4232Y-4.2106
X6.439Y-3.7776
X6.4437Y-3.4706
X6.4488Y-5.5669
X6.4626Y-5.7244
X6.4816Y-3.4352
X6.4921Y-3.7854
X6.5Y-4.2047
X6.5053Y-3.3838
X6.5236Y-5.5748
X6.5256Y-4.3406
X6.5281Y-3.337
X6.5335Y-3.7933
X6.5551Y-3.2835
X6.5591Y-5.563
X6.5709Y-3.7913
X6.5787Y-3.311
X6.5965Y-2.3543
X6.5965Y-5.565
X6.6004Y-2.503
X6.6024Y-4.3425
X6.6102Y-3.4152
X6.6131Y-3.7998
X6.6181Y-3.3622
X6.628Y-3.7736
X6.6303Y-3.6723
X6.6433Y-3.6043
X6.6496Y-3.2598
X6.6563Y-3.5484
X6.666Y-3.5004
X6.6745Y-3.786
X6.6772Y-5.5591
X6.6791Y-3.315
X6.6811Y-4.2047
X6.6844Y-3.4584
X6.7047Y-5.5748
X6.7224Y-3.7972
X6.7244Y-3.7618
X6.7283Y-4.2047
X6.7362Y-2.8307
X6.7559Y-5.5669
X6.7815Y-4.3406
X6.7913Y-5.8465
X6.7992Y-3.4252
X6.8031Y-3.6949
X6.8071Y-3.5236
X6.8189Y-5.5591
X6.8425Y-2.9154
X6.8524Y-3.7539
X6.8583Y-4.3366
X6.8819Y-5.5709
X6.8858Y-4.2087
X6.9075Y-2.499
X6.9094Y-2.3543
X6.9173Y-4.8386
X6.9193Y-4.685
X6.9193Y-4.7598
X6.9272Y-4.6083
X6.9291Y-5.0433
X6.937Y-5.4685
X6.937Y-5.6535
X6.9382Y-4.9136
X6.9409Y-4.9764
X6.9449Y-4.5669
X6.9449Y-4.7874
X6.9449Y-4.8642
X6.9449Y-5.1457
X6.9449Y-5.2992
X6.9488Y-4.4803
X6.9488Y-4.6339
X6.9488Y-4.7106
X6.9488Y-5.0157
X6.9488Y-5.0945
X6.9488Y-5.1929
X6.9488Y-5.248
X6.9488Y-5.3504
X6.9488Y-5.4016
X6.9488Y-5.5039
X6.9508Y-4.9409
X6.9528Y-4.4035
X7.0551Y-3.311
X7.0571Y-3.4724
X7.0709Y-4.811
X7.0709Y-5.0689
X7.0709Y-5.2224
X7.0748Y-4.6575
X7.0748Y-4.7362
X7.0748Y-4.8898
X7.0748Y-4.9921
X7.0768Y-4.5551
X7.0787Y-5.3268
X7.0906Y-3.5217
X7.1161Y-3.565
X7.1398Y-3.126
X7.1417Y-3.6122
X7.1713Y-3.685
X7.1791Y-2.3583
X7.1791Y-2.4252
X7.2283Y-5.4882
T2
X3.45Y-2.1
X3.45Y-2.2
X3.45Y-2.3
X3.45Y-2.4
X3.45Y-2.5
X3.45Y-2.6
X3.45Y-2.7
X3.45Y-2.8
X3.45Y-2.9
X3.45Y-3.
X3.45Y-3.1
X3.45Y-3.2
X3.45Y-3.3
X3.45Y-3.4
X3.45Y-3.5
X3.45Y-3.6
X3.45Y-3.7
X3.45Y-3.8
X3.45Y-3.9
X3.45Y-4.
X3.45Y-4.1
X3.45Y-4.2
X3.45Y-4.3
X3.45Y-4.4
X3.45Y-4.5
X3.45Y-4.6
X3.45Y-4.7
X3.45Y-4.8
X3.45Y-4.9
X3.45Y-5.1
X3.45Y-5.2
X3.45Y-5.3
X3.45Y-5.4
X3.8756Y-5.6614
X3.8756Y-5.7614
X3.9756Y-5.6614
X3.9756Y-5.7614
X4.0756Y-5.6614
X4.0756Y-5.7614
X4.1756Y-5.6614
X4.1756Y-5.7614
X4.2756Y-5.6614
X4.2756Y-5.7614
X4.922Y-5.6614
X4.922Y-5.7614
X5.022Y-5.6614
X5.022Y-5.7614
X5.122Y-5.6614
X5.122Y-5.7614
X5.222Y-5.6614
X5.222Y-5.7614
X5.322Y-5.6614
X5.322Y-5.7614
X6.6634Y-2.0768
X6.7634Y-2.0768
X6.8634Y-2.0768
X6.9634Y-2.0768
X7.0634Y-2.0768
X7.1634Y-2.0768
T3
X4.0157Y-2.6378
T4
X4.5276Y-5.748
X7.126Y-2.7559
X7.126Y-5.748
T0
M30
