G04 #@! TF.FileFunction,Legend,Bot*
%FSLAX46Y46*%
G04 Gerber Fmt 4.6, Leading zero omitted, Abs format (unit mm)*
G04 Created by KiCad (PCBNEW 0.201602141416+6556~42~ubuntu14.04.1-product) date ons 24 feb 2016 10:42:23*
%MOMM*%
G01*
G04 APERTURE LIST*
%ADD10C,0.100000*%
%ADD11C,0.150000*%
%ADD12C,0.125000*%
G04 APERTURE END LIST*
D10*
D11*
X103590000Y-84175000D02*
G75*
G03X103590000Y-84175000I-200000J0D01*
G01*
X104190000Y-88175000D02*
X101190000Y-88175000D01*
X126690000Y-88175000D02*
X123690000Y-88175000D01*
X123690000Y-88175000D02*
X104190000Y-88175000D01*
X101190000Y-84675000D02*
X103690000Y-84675000D01*
X101190000Y-88175000D02*
X101190000Y-84675000D01*
X99690000Y-88175000D02*
X101190000Y-88175000D01*
X99690000Y-89675000D02*
X99690000Y-88175000D01*
X128190000Y-89675000D02*
X99690000Y-89675000D01*
X128190000Y-88175000D02*
X128190000Y-89675000D01*
X126690000Y-88175000D02*
X128190000Y-88175000D01*
X126690000Y-84675000D02*
X126690000Y-88175000D01*
X124190000Y-84675000D02*
X126690000Y-84675000D01*
X96950800Y-88200180D02*
X96249760Y-88200180D01*
X96249760Y-88200180D02*
X96249760Y-88449100D01*
X96249760Y-90999160D02*
X96249760Y-91199820D01*
X96249760Y-91199820D02*
X96950800Y-91199820D01*
X96849200Y-87899820D02*
X97550240Y-87899820D01*
X97550240Y-87899820D02*
X97550240Y-87650900D01*
X97550240Y-85100840D02*
X97550240Y-84900180D01*
X97550240Y-84900180D02*
X96849200Y-84900180D01*
X94325000Y-81250000D02*
X94325000Y-82450000D01*
X96075000Y-82450000D02*
X96075000Y-81250000D01*
X90900000Y-90575000D02*
X92100000Y-90575000D01*
X92100000Y-88825000D02*
X90900000Y-88825000D01*
X97700000Y-91525000D02*
X96500000Y-91525000D01*
X96500000Y-93275000D02*
X97700000Y-93275000D01*
X98875000Y-82400000D02*
X98875000Y-81200000D01*
X97125000Y-81200000D02*
X97125000Y-82400000D01*
X150625000Y-139150000D02*
X150625000Y-140350000D01*
X152375000Y-140350000D02*
X152375000Y-139150000D01*
X102649200Y-82999820D02*
X103350240Y-82999820D01*
X103350240Y-82999820D02*
X103350240Y-82750900D01*
X103350240Y-80200840D02*
X103350240Y-80000180D01*
X103350240Y-80000180D02*
X102649200Y-80000180D01*
X93100000Y-134950000D02*
X93100000Y-133950000D01*
X94800000Y-133950000D02*
X94800000Y-134950000D01*
X94550000Y-98500000D02*
X93550000Y-98500000D01*
X93550000Y-96800000D02*
X94550000Y-96800000D01*
X124900000Y-57400000D02*
X124900000Y-56400000D01*
X126600000Y-56400000D02*
X126600000Y-57400000D01*
X93800000Y-74850000D02*
X93800000Y-75850000D01*
X92100000Y-75850000D02*
X92100000Y-74850000D01*
X99100000Y-76350000D02*
X99100000Y-77350000D01*
X97400000Y-77350000D02*
X97400000Y-76350000D01*
X157500000Y-62350000D02*
X156500000Y-62350000D01*
X156500000Y-60650000D02*
X157500000Y-60650000D01*
X157250000Y-83150000D02*
X156250000Y-83150000D01*
X156250000Y-81450000D02*
X157250000Y-81450000D01*
X146250000Y-72350000D02*
X146250000Y-73350000D01*
X144550000Y-73350000D02*
X144550000Y-72350000D01*
X158950000Y-77300000D02*
X157950000Y-77300000D01*
X157950000Y-75600000D02*
X158950000Y-75600000D01*
X173000000Y-73850000D02*
X172000000Y-73850000D01*
X172000000Y-72150000D02*
X173000000Y-72150000D01*
X165250000Y-81350000D02*
X166250000Y-81350000D01*
X166250000Y-83050000D02*
X165250000Y-83050000D01*
X173350000Y-95200000D02*
X172350000Y-95200000D01*
X172350000Y-93500000D02*
X173350000Y-93500000D01*
X161450000Y-87400000D02*
X161450000Y-88400000D01*
X159750000Y-88400000D02*
X159750000Y-87400000D01*
X118000000Y-123400000D02*
X119000000Y-123400000D01*
X119000000Y-125100000D02*
X118000000Y-125100000D01*
X110800000Y-124300000D02*
X109800000Y-124300000D01*
X109800000Y-122600000D02*
X110800000Y-122600000D01*
X124700000Y-70050000D02*
X123700000Y-70050000D01*
X123700000Y-68350000D02*
X124700000Y-68350000D01*
X135250000Y-66450000D02*
X136250000Y-66450000D01*
X136250000Y-68150000D02*
X135250000Y-68150000D01*
X110200000Y-68350000D02*
X111200000Y-68350000D01*
X111200000Y-70050000D02*
X110200000Y-70050000D01*
X104050000Y-96150000D02*
X104050000Y-95150000D01*
X105750000Y-95150000D02*
X105750000Y-96150000D01*
X141300000Y-77650000D02*
X141300000Y-78650000D01*
X139600000Y-78650000D02*
X139600000Y-77650000D01*
X141350000Y-84550000D02*
X141350000Y-85550000D01*
X139650000Y-85550000D02*
X139650000Y-84550000D01*
X117150000Y-70100000D02*
X116150000Y-70100000D01*
X116150000Y-68400000D02*
X117150000Y-68400000D01*
X111900000Y-106900000D02*
X112900000Y-106900000D01*
X112900000Y-108600000D02*
X111900000Y-108600000D01*
X115700000Y-105800000D02*
X114700000Y-105800000D01*
X114700000Y-104100000D02*
X115700000Y-104100000D01*
X104050000Y-78600000D02*
X104050000Y-77600000D01*
X105750000Y-77600000D02*
X105750000Y-78600000D01*
X139650000Y-90150000D02*
X139650000Y-89150000D01*
X141350000Y-89150000D02*
X141350000Y-90150000D01*
X139650000Y-95950000D02*
X139650000Y-94950000D01*
X141350000Y-94950000D02*
X141350000Y-95950000D01*
X129750000Y-70150000D02*
X128750000Y-70150000D01*
X128750000Y-68450000D02*
X129750000Y-68450000D01*
X118700000Y-101500000D02*
X119700000Y-101500000D01*
X119700000Y-103200000D02*
X118700000Y-103200000D01*
X133400000Y-68450000D02*
X134400000Y-68450000D01*
X134400000Y-70150000D02*
X133400000Y-70150000D01*
X125150000Y-109850000D02*
X124150000Y-109850000D01*
X124150000Y-108150000D02*
X125150000Y-108150000D01*
X136850000Y-99200000D02*
X136850000Y-98200000D01*
X138550000Y-98200000D02*
X138550000Y-99200000D01*
X130250000Y-111650000D02*
X129250000Y-111650000D01*
X129250000Y-109950000D02*
X130250000Y-109950000D01*
X148000000Y-108400000D02*
X147000000Y-108400000D01*
X147000000Y-106700000D02*
X148000000Y-106700000D01*
X142400000Y-140200000D02*
X142400000Y-139200000D01*
X144100000Y-139200000D02*
X144100000Y-140200000D01*
X155250000Y-103400000D02*
X154250000Y-103400000D01*
X154250000Y-101700000D02*
X155250000Y-101700000D01*
X149750000Y-110100000D02*
X148750000Y-110100000D01*
X148750000Y-108400000D02*
X149750000Y-108400000D01*
X141650000Y-134750000D02*
X142650000Y-134750000D01*
X142650000Y-136450000D02*
X141650000Y-136450000D01*
X179250000Y-118450000D02*
X180250000Y-118450000D01*
X180250000Y-120150000D02*
X179250000Y-120150000D01*
X146350000Y-129700000D02*
X145350000Y-129700000D01*
X145350000Y-128000000D02*
X146350000Y-128000000D01*
X143100000Y-118900000D02*
X143100000Y-119900000D01*
X141400000Y-119900000D02*
X141400000Y-118900000D01*
X156950000Y-105800000D02*
X156950000Y-104800000D01*
X158650000Y-104800000D02*
X158650000Y-105800000D01*
X161050000Y-106450000D02*
X161050000Y-107450000D01*
X159350000Y-107450000D02*
X159350000Y-106450000D01*
X163600000Y-107300000D02*
X164600000Y-107300000D01*
X164600000Y-109000000D02*
X163600000Y-109000000D01*
X145350000Y-125650000D02*
X146350000Y-125650000D01*
X146350000Y-127350000D02*
X145350000Y-127350000D01*
X175400000Y-143300000D02*
X174400000Y-143300000D01*
X174400000Y-141600000D02*
X175400000Y-141600000D01*
X162250000Y-143800000D02*
X161250000Y-143800000D01*
X161250000Y-142100000D02*
X162250000Y-142100000D01*
X146350000Y-123550000D02*
X145350000Y-123550000D01*
X145350000Y-121850000D02*
X146350000Y-121850000D01*
X150250000Y-144300000D02*
X149250000Y-144300000D01*
X149250000Y-142600000D02*
X150250000Y-142600000D01*
X179250000Y-122400000D02*
X180250000Y-122400000D01*
X180250000Y-124100000D02*
X179250000Y-124100000D01*
X168500000Y-141950000D02*
X169500000Y-141950000D01*
X169500000Y-143650000D02*
X168500000Y-143650000D01*
X169450000Y-107250000D02*
X169450000Y-108250000D01*
X167750000Y-108250000D02*
X167750000Y-107250000D01*
X178600000Y-137550000D02*
X178600000Y-138550000D01*
X176900000Y-138550000D02*
X176900000Y-137550000D01*
X178900000Y-129400000D02*
X178900000Y-130400000D01*
X177200000Y-130400000D02*
X177200000Y-129400000D01*
X171200000Y-108250000D02*
X171200000Y-107250000D01*
X172900000Y-107250000D02*
X172900000Y-108250000D01*
X158950000Y-140500000D02*
X157950000Y-140500000D01*
X157950000Y-138800000D02*
X158950000Y-138800000D01*
X179600000Y-126650000D02*
X178600000Y-126650000D01*
X178600000Y-124950000D02*
X179600000Y-124950000D01*
X178550000Y-115900000D02*
X179550000Y-115900000D01*
X179550000Y-117600000D02*
X178550000Y-117600000D01*
X176950000Y-113000000D02*
X176950000Y-112000000D01*
X178650000Y-112000000D02*
X178650000Y-113000000D01*
X157650000Y-144450000D02*
X156650000Y-144450000D01*
X156650000Y-142750000D02*
X157650000Y-142750000D01*
X178600000Y-133400000D02*
X179600000Y-133400000D01*
X179600000Y-135100000D02*
X178600000Y-135100000D01*
X176200000Y-108850000D02*
X176200000Y-109850000D01*
X174500000Y-109850000D02*
X174500000Y-108850000D01*
X151600000Y-111800000D02*
X150600000Y-111800000D01*
X150600000Y-110100000D02*
X151600000Y-110100000D01*
X174400000Y-136400000D02*
X174400000Y-135400000D01*
X176100000Y-135400000D02*
X176100000Y-136400000D01*
X162250000Y-145800000D02*
X161250000Y-145800000D01*
X161250000Y-144100000D02*
X162250000Y-144100000D01*
X176200000Y-113450000D02*
X176200000Y-114450000D01*
X174500000Y-114450000D02*
X174500000Y-113450000D01*
X140250000Y-140200000D02*
X140250000Y-139200000D01*
X141950000Y-139200000D02*
X141950000Y-140200000D01*
X138575000Y-94600000D02*
X138575000Y-93400000D01*
X136825000Y-93400000D02*
X136825000Y-94600000D01*
X107500000Y-96375000D02*
X108700000Y-96375000D01*
X108700000Y-94625000D02*
X107500000Y-94625000D01*
X137500000Y-78325000D02*
X136300000Y-78325000D01*
X136300000Y-80075000D02*
X137500000Y-80075000D01*
X126188095Y-84152381D02*
X126188095Y-83152381D01*
X125807142Y-83152381D01*
X125711904Y-83200000D01*
X125664285Y-83247619D01*
X125616666Y-83342857D01*
X125616666Y-83485714D01*
X125664285Y-83580952D01*
X125711904Y-83628571D01*
X125807142Y-83676190D01*
X126188095Y-83676190D01*
X124759523Y-83485714D02*
X124759523Y-84152381D01*
X124997619Y-83104762D02*
X125235714Y-83819048D01*
X124616666Y-83819048D01*
X100595238Y-91047619D02*
X100690476Y-91000000D01*
X100785714Y-90904762D01*
X100928571Y-90761905D01*
X101023810Y-90714286D01*
X101119048Y-90714286D01*
X101071429Y-90952381D02*
X101166667Y-90904762D01*
X101261905Y-90809524D01*
X101309524Y-90619048D01*
X101309524Y-90285714D01*
X101261905Y-90095238D01*
X101166667Y-90000000D01*
X101071429Y-89952381D01*
X100880952Y-89952381D01*
X100785714Y-90000000D01*
X100690476Y-90095238D01*
X100642857Y-90285714D01*
X100642857Y-90619048D01*
X100690476Y-90809524D01*
X100785714Y-90904762D01*
X100880952Y-90952381D01*
X101071429Y-90952381D01*
X99690476Y-90952381D02*
X100261905Y-90952381D01*
X99976191Y-90952381D02*
X99976191Y-89952381D01*
X100071429Y-90095238D01*
X100166667Y-90190476D01*
X100261905Y-90238095D01*
X93095238Y-87047619D02*
X93190476Y-87000000D01*
X93285714Y-86904762D01*
X93428571Y-86761905D01*
X93523810Y-86714286D01*
X93619048Y-86714286D01*
X93571429Y-86952381D02*
X93666667Y-86904762D01*
X93761905Y-86809524D01*
X93809524Y-86619048D01*
X93809524Y-86285714D01*
X93761905Y-86095238D01*
X93666667Y-86000000D01*
X93571429Y-85952381D01*
X93380952Y-85952381D01*
X93285714Y-86000000D01*
X93190476Y-86095238D01*
X93142857Y-86285714D01*
X93142857Y-86619048D01*
X93190476Y-86809524D01*
X93285714Y-86904762D01*
X93380952Y-86952381D01*
X93571429Y-86952381D01*
X92761905Y-86047619D02*
X92714286Y-86000000D01*
X92619048Y-85952381D01*
X92380952Y-85952381D01*
X92285714Y-86000000D01*
X92238095Y-86047619D01*
X92190476Y-86142857D01*
X92190476Y-86238095D01*
X92238095Y-86380952D01*
X92809524Y-86952381D01*
X92190476Y-86952381D01*
X99952381Y-80857143D02*
X99476190Y-80523809D01*
X99952381Y-80285714D02*
X98952381Y-80285714D01*
X98952381Y-80666667D01*
X99000000Y-80761905D01*
X99047619Y-80809524D01*
X99142857Y-80857143D01*
X99285714Y-80857143D01*
X99380952Y-80809524D01*
X99428571Y-80761905D01*
X99476190Y-80666667D01*
X99476190Y-80285714D01*
X99952381Y-81809524D02*
X99952381Y-81238095D01*
X99952381Y-81523809D02*
X98952381Y-81523809D01*
X99095238Y-81428571D01*
X99190476Y-81333333D01*
X99238095Y-81238095D01*
X99047619Y-82190476D02*
X99000000Y-82238095D01*
X98952381Y-82333333D01*
X98952381Y-82571429D01*
X99000000Y-82666667D01*
X99047619Y-82714286D01*
X99142857Y-82761905D01*
X99238095Y-82761905D01*
X99380952Y-82714286D01*
X99952381Y-82142857D01*
X99952381Y-82761905D01*
X92142857Y-91952381D02*
X92476191Y-91476190D01*
X92714286Y-91952381D02*
X92714286Y-90952381D01*
X92333333Y-90952381D01*
X92238095Y-91000000D01*
X92190476Y-91047619D01*
X92142857Y-91142857D01*
X92142857Y-91285714D01*
X92190476Y-91380952D01*
X92238095Y-91428571D01*
X92333333Y-91476190D01*
X92714286Y-91476190D01*
X91190476Y-91952381D02*
X91761905Y-91952381D01*
X91476191Y-91952381D02*
X91476191Y-90952381D01*
X91571429Y-91095238D01*
X91666667Y-91190476D01*
X91761905Y-91238095D01*
X90857143Y-90952381D02*
X90238095Y-90952381D01*
X90571429Y-91333333D01*
X90428571Y-91333333D01*
X90333333Y-91380952D01*
X90285714Y-91428571D01*
X90238095Y-91523810D01*
X90238095Y-91761905D01*
X90285714Y-91857143D01*
X90333333Y-91904762D01*
X90428571Y-91952381D01*
X90714286Y-91952381D01*
X90809524Y-91904762D01*
X90857143Y-91857143D01*
X97742857Y-94952381D02*
X98076191Y-94476190D01*
X98314286Y-94952381D02*
X98314286Y-93952381D01*
X97933333Y-93952381D01*
X97838095Y-94000000D01*
X97790476Y-94047619D01*
X97742857Y-94142857D01*
X97742857Y-94285714D01*
X97790476Y-94380952D01*
X97838095Y-94428571D01*
X97933333Y-94476190D01*
X98314286Y-94476190D01*
X96790476Y-94952381D02*
X97361905Y-94952381D01*
X97076191Y-94952381D02*
X97076191Y-93952381D01*
X97171429Y-94095238D01*
X97266667Y-94190476D01*
X97361905Y-94238095D01*
X95933333Y-94285714D02*
X95933333Y-94952381D01*
X96171429Y-93904762D02*
X96409524Y-94619048D01*
X95790476Y-94619048D01*
X93952381Y-80857143D02*
X93476190Y-80523809D01*
X93952381Y-80285714D02*
X92952381Y-80285714D01*
X92952381Y-80666667D01*
X93000000Y-80761905D01*
X93047619Y-80809524D01*
X93142857Y-80857143D01*
X93285714Y-80857143D01*
X93380952Y-80809524D01*
X93428571Y-80761905D01*
X93476190Y-80666667D01*
X93476190Y-80285714D01*
X93952381Y-81809524D02*
X93952381Y-81238095D01*
X93952381Y-81523809D02*
X92952381Y-81523809D01*
X93095238Y-81428571D01*
X93190476Y-81333333D01*
X93238095Y-81238095D01*
X92952381Y-82714286D02*
X92952381Y-82238095D01*
X93428571Y-82190476D01*
X93380952Y-82238095D01*
X93333333Y-82333333D01*
X93333333Y-82571429D01*
X93380952Y-82666667D01*
X93428571Y-82714286D01*
X93523810Y-82761905D01*
X93761905Y-82761905D01*
X93857143Y-82714286D01*
X93904762Y-82666667D01*
X93952381Y-82571429D01*
X93952381Y-82333333D01*
X93904762Y-82238095D01*
X93857143Y-82190476D01*
X154138095Y-140202381D02*
X154138095Y-139202381D01*
X153757142Y-139202381D01*
X153661904Y-139250000D01*
X153614285Y-139297619D01*
X153566666Y-139392857D01*
X153566666Y-139535714D01*
X153614285Y-139630952D01*
X153661904Y-139678571D01*
X153757142Y-139726190D01*
X154138095Y-139726190D01*
X153185714Y-139297619D02*
X153138095Y-139250000D01*
X153042857Y-139202381D01*
X152804761Y-139202381D01*
X152709523Y-139250000D01*
X152661904Y-139297619D01*
X152614285Y-139392857D01*
X152614285Y-139488095D01*
X152661904Y-139630952D01*
X153233333Y-140202381D01*
X152614285Y-140202381D01*
D12*
X149842857Y-139452381D02*
X150271428Y-140095238D01*
X149390475Y-139928571D02*
X149414285Y-139952381D01*
X149485713Y-139976190D01*
X149533332Y-139976190D01*
X149604761Y-139952381D01*
X149652380Y-139904762D01*
X149676189Y-139857143D01*
X149699999Y-139761905D01*
X149699999Y-139690476D01*
X149676189Y-139595238D01*
X149652380Y-139547619D01*
X149604761Y-139500000D01*
X149533332Y-139476190D01*
X149485713Y-139476190D01*
X149414285Y-139500000D01*
X149390475Y-139523810D01*
X149176189Y-139976190D02*
X149176189Y-139476190D01*
X149057142Y-139476190D01*
X148985713Y-139500000D01*
X148938094Y-139547619D01*
X148914285Y-139595238D01*
X148890475Y-139690476D01*
X148890475Y-139761905D01*
X148914285Y-139857143D01*
X148938094Y-139904762D01*
X148985713Y-139952381D01*
X149057142Y-139976190D01*
X149176189Y-139976190D01*
X148676189Y-139976190D02*
X148676189Y-139476190D01*
X148461904Y-139952381D02*
X148390475Y-139976190D01*
X148271428Y-139976190D01*
X148223809Y-139952381D01*
X148199999Y-139928571D01*
X148176190Y-139880952D01*
X148176190Y-139833333D01*
X148199999Y-139785714D01*
X148223809Y-139761905D01*
X148271428Y-139738095D01*
X148366666Y-139714286D01*
X148414285Y-139690476D01*
X148438094Y-139666667D01*
X148461904Y-139619048D01*
X148461904Y-139571429D01*
X148438094Y-139523810D01*
X148414285Y-139500000D01*
X148366666Y-139476190D01*
X148247618Y-139476190D01*
X148176190Y-139500000D01*
D11*
X106595238Y-82047619D02*
X106690476Y-82000000D01*
X106785714Y-81904762D01*
X106928571Y-81761905D01*
X107023810Y-81714286D01*
X107119048Y-81714286D01*
X107071429Y-81952381D02*
X107166667Y-81904762D01*
X107261905Y-81809524D01*
X107309524Y-81619048D01*
X107309524Y-81285714D01*
X107261905Y-81095238D01*
X107166667Y-81000000D01*
X107071429Y-80952381D01*
X106880952Y-80952381D01*
X106785714Y-81000000D01*
X106690476Y-81095238D01*
X106642857Y-81285714D01*
X106642857Y-81619048D01*
X106690476Y-81809524D01*
X106785714Y-81904762D01*
X106880952Y-81952381D01*
X107071429Y-81952381D01*
X106309524Y-80952381D02*
X105690476Y-80952381D01*
X106023810Y-81333333D01*
X105880952Y-81333333D01*
X105785714Y-81380952D01*
X105738095Y-81428571D01*
X105690476Y-81523810D01*
X105690476Y-81761905D01*
X105738095Y-81857143D01*
X105785714Y-81904762D01*
X105880952Y-81952381D01*
X106166667Y-81952381D01*
X106261905Y-81904762D01*
X106309524Y-81857143D01*
X92166666Y-135857143D02*
X92214285Y-135904762D01*
X92357142Y-135952381D01*
X92452380Y-135952381D01*
X92595238Y-135904762D01*
X92690476Y-135809524D01*
X92738095Y-135714286D01*
X92785714Y-135523810D01*
X92785714Y-135380952D01*
X92738095Y-135190476D01*
X92690476Y-135095238D01*
X92595238Y-135000000D01*
X92452380Y-134952381D01*
X92357142Y-134952381D01*
X92214285Y-135000000D01*
X92166666Y-135047619D01*
X91833333Y-134952381D02*
X91214285Y-134952381D01*
X91547619Y-135333333D01*
X91404761Y-135333333D01*
X91309523Y-135380952D01*
X91261904Y-135428571D01*
X91214285Y-135523810D01*
X91214285Y-135761905D01*
X91261904Y-135857143D01*
X91309523Y-135904762D01*
X91404761Y-135952381D01*
X91690476Y-135952381D01*
X91785714Y-135904762D01*
X91833333Y-135857143D01*
X94216666Y-100107143D02*
X94264285Y-100154762D01*
X94407142Y-100202381D01*
X94502380Y-100202381D01*
X94645238Y-100154762D01*
X94740476Y-100059524D01*
X94788095Y-99964286D01*
X94835714Y-99773810D01*
X94835714Y-99630952D01*
X94788095Y-99440476D01*
X94740476Y-99345238D01*
X94645238Y-99250000D01*
X94502380Y-99202381D01*
X94407142Y-99202381D01*
X94264285Y-99250000D01*
X94216666Y-99297619D01*
X93359523Y-99535714D02*
X93359523Y-100202381D01*
X93597619Y-99154762D02*
X93835714Y-99869048D01*
X93216666Y-99869048D01*
X125666666Y-54357143D02*
X125714285Y-54404762D01*
X125857142Y-54452381D01*
X125952380Y-54452381D01*
X126095238Y-54404762D01*
X126190476Y-54309524D01*
X126238095Y-54214286D01*
X126285714Y-54023810D01*
X126285714Y-53880952D01*
X126238095Y-53690476D01*
X126190476Y-53595238D01*
X126095238Y-53500000D01*
X125952380Y-53452381D01*
X125857142Y-53452381D01*
X125714285Y-53500000D01*
X125666666Y-53547619D01*
X124761904Y-53452381D02*
X125238095Y-53452381D01*
X125285714Y-53928571D01*
X125238095Y-53880952D01*
X125142857Y-53833333D01*
X124904761Y-53833333D01*
X124809523Y-53880952D01*
X124761904Y-53928571D01*
X124714285Y-54023810D01*
X124714285Y-54261905D01*
X124761904Y-54357143D01*
X124809523Y-54404762D01*
X124904761Y-54452381D01*
X125142857Y-54452381D01*
X125238095Y-54404762D01*
X125285714Y-54357143D01*
X95216666Y-75707143D02*
X95264285Y-75754762D01*
X95407142Y-75802381D01*
X95502380Y-75802381D01*
X95645238Y-75754762D01*
X95740476Y-75659524D01*
X95788095Y-75564286D01*
X95835714Y-75373810D01*
X95835714Y-75230952D01*
X95788095Y-75040476D01*
X95740476Y-74945238D01*
X95645238Y-74850000D01*
X95502380Y-74802381D01*
X95407142Y-74802381D01*
X95264285Y-74850000D01*
X95216666Y-74897619D01*
X94359523Y-74802381D02*
X94550000Y-74802381D01*
X94645238Y-74850000D01*
X94692857Y-74897619D01*
X94788095Y-75040476D01*
X94835714Y-75230952D01*
X94835714Y-75611905D01*
X94788095Y-75707143D01*
X94740476Y-75754762D01*
X94645238Y-75802381D01*
X94454761Y-75802381D01*
X94359523Y-75754762D01*
X94311904Y-75707143D01*
X94264285Y-75611905D01*
X94264285Y-75373810D01*
X94311904Y-75278571D01*
X94359523Y-75230952D01*
X94454761Y-75183333D01*
X94645238Y-75183333D01*
X94740476Y-75230952D01*
X94788095Y-75278571D01*
X94835714Y-75373810D01*
X100516666Y-77207143D02*
X100564285Y-77254762D01*
X100707142Y-77302381D01*
X100802380Y-77302381D01*
X100945238Y-77254762D01*
X101040476Y-77159524D01*
X101088095Y-77064286D01*
X101135714Y-76873810D01*
X101135714Y-76730952D01*
X101088095Y-76540476D01*
X101040476Y-76445238D01*
X100945238Y-76350000D01*
X100802380Y-76302381D01*
X100707142Y-76302381D01*
X100564285Y-76350000D01*
X100516666Y-76397619D01*
X100183333Y-76302381D02*
X99516666Y-76302381D01*
X99945238Y-77302381D01*
X157166666Y-63957143D02*
X157214285Y-64004762D01*
X157357142Y-64052381D01*
X157452380Y-64052381D01*
X157595238Y-64004762D01*
X157690476Y-63909524D01*
X157738095Y-63814286D01*
X157785714Y-63623810D01*
X157785714Y-63480952D01*
X157738095Y-63290476D01*
X157690476Y-63195238D01*
X157595238Y-63100000D01*
X157452380Y-63052381D01*
X157357142Y-63052381D01*
X157214285Y-63100000D01*
X157166666Y-63147619D01*
X156595238Y-63480952D02*
X156690476Y-63433333D01*
X156738095Y-63385714D01*
X156785714Y-63290476D01*
X156785714Y-63242857D01*
X156738095Y-63147619D01*
X156690476Y-63100000D01*
X156595238Y-63052381D01*
X156404761Y-63052381D01*
X156309523Y-63100000D01*
X156261904Y-63147619D01*
X156214285Y-63242857D01*
X156214285Y-63290476D01*
X156261904Y-63385714D01*
X156309523Y-63433333D01*
X156404761Y-63480952D01*
X156595238Y-63480952D01*
X156690476Y-63528571D01*
X156738095Y-63576190D01*
X156785714Y-63671429D01*
X156785714Y-63861905D01*
X156738095Y-63957143D01*
X156690476Y-64004762D01*
X156595238Y-64052381D01*
X156404761Y-64052381D01*
X156309523Y-64004762D01*
X156261904Y-63957143D01*
X156214285Y-63861905D01*
X156214285Y-63671429D01*
X156261904Y-63576190D01*
X156309523Y-63528571D01*
X156404761Y-63480952D01*
X156916666Y-84757143D02*
X156964285Y-84804762D01*
X157107142Y-84852381D01*
X157202380Y-84852381D01*
X157345238Y-84804762D01*
X157440476Y-84709524D01*
X157488095Y-84614286D01*
X157535714Y-84423810D01*
X157535714Y-84280952D01*
X157488095Y-84090476D01*
X157440476Y-83995238D01*
X157345238Y-83900000D01*
X157202380Y-83852381D01*
X157107142Y-83852381D01*
X156964285Y-83900000D01*
X156916666Y-83947619D01*
X156440476Y-84852381D02*
X156250000Y-84852381D01*
X156154761Y-84804762D01*
X156107142Y-84757143D01*
X156011904Y-84614286D01*
X155964285Y-84423810D01*
X155964285Y-84042857D01*
X156011904Y-83947619D01*
X156059523Y-83900000D01*
X156154761Y-83852381D01*
X156345238Y-83852381D01*
X156440476Y-83900000D01*
X156488095Y-83947619D01*
X156535714Y-84042857D01*
X156535714Y-84280952D01*
X156488095Y-84376190D01*
X156440476Y-84423810D01*
X156345238Y-84471429D01*
X156154761Y-84471429D01*
X156059523Y-84423810D01*
X156011904Y-84376190D01*
X155964285Y-84280952D01*
X145142857Y-76357143D02*
X145190476Y-76404762D01*
X145333333Y-76452381D01*
X145428571Y-76452381D01*
X145571429Y-76404762D01*
X145666667Y-76309524D01*
X145714286Y-76214286D01*
X145761905Y-76023810D01*
X145761905Y-75880952D01*
X145714286Y-75690476D01*
X145666667Y-75595238D01*
X145571429Y-75500000D01*
X145428571Y-75452381D01*
X145333333Y-75452381D01*
X145190476Y-75500000D01*
X145142857Y-75547619D01*
X144190476Y-76452381D02*
X144761905Y-76452381D01*
X144476191Y-76452381D02*
X144476191Y-75452381D01*
X144571429Y-75595238D01*
X144666667Y-75690476D01*
X144761905Y-75738095D01*
X143571429Y-75452381D02*
X143476190Y-75452381D01*
X143380952Y-75500000D01*
X143333333Y-75547619D01*
X143285714Y-75642857D01*
X143238095Y-75833333D01*
X143238095Y-76071429D01*
X143285714Y-76261905D01*
X143333333Y-76357143D01*
X143380952Y-76404762D01*
X143476190Y-76452381D01*
X143571429Y-76452381D01*
X143666667Y-76404762D01*
X143714286Y-76357143D01*
X143761905Y-76261905D01*
X143809524Y-76071429D01*
X143809524Y-75833333D01*
X143761905Y-75642857D01*
X143714286Y-75547619D01*
X143666667Y-75500000D01*
X143571429Y-75452381D01*
X162642857Y-76857143D02*
X162690476Y-76904762D01*
X162833333Y-76952381D01*
X162928571Y-76952381D01*
X163071429Y-76904762D01*
X163166667Y-76809524D01*
X163214286Y-76714286D01*
X163261905Y-76523810D01*
X163261905Y-76380952D01*
X163214286Y-76190476D01*
X163166667Y-76095238D01*
X163071429Y-76000000D01*
X162928571Y-75952381D01*
X162833333Y-75952381D01*
X162690476Y-76000000D01*
X162642857Y-76047619D01*
X161690476Y-76952381D02*
X162261905Y-76952381D01*
X161976191Y-76952381D02*
X161976191Y-75952381D01*
X162071429Y-76095238D01*
X162166667Y-76190476D01*
X162261905Y-76238095D01*
X160738095Y-76952381D02*
X161309524Y-76952381D01*
X161023810Y-76952381D02*
X161023810Y-75952381D01*
X161119048Y-76095238D01*
X161214286Y-76190476D01*
X161309524Y-76238095D01*
X173142857Y-75457143D02*
X173190476Y-75504762D01*
X173333333Y-75552381D01*
X173428571Y-75552381D01*
X173571429Y-75504762D01*
X173666667Y-75409524D01*
X173714286Y-75314286D01*
X173761905Y-75123810D01*
X173761905Y-74980952D01*
X173714286Y-74790476D01*
X173666667Y-74695238D01*
X173571429Y-74600000D01*
X173428571Y-74552381D01*
X173333333Y-74552381D01*
X173190476Y-74600000D01*
X173142857Y-74647619D01*
X172190476Y-75552381D02*
X172761905Y-75552381D01*
X172476191Y-75552381D02*
X172476191Y-74552381D01*
X172571429Y-74695238D01*
X172666667Y-74790476D01*
X172761905Y-74838095D01*
X171809524Y-74647619D02*
X171761905Y-74600000D01*
X171666667Y-74552381D01*
X171428571Y-74552381D01*
X171333333Y-74600000D01*
X171285714Y-74647619D01*
X171238095Y-74742857D01*
X171238095Y-74838095D01*
X171285714Y-74980952D01*
X171857143Y-75552381D01*
X171238095Y-75552381D01*
X170642857Y-82357143D02*
X170690476Y-82404762D01*
X170833333Y-82452381D01*
X170928571Y-82452381D01*
X171071429Y-82404762D01*
X171166667Y-82309524D01*
X171214286Y-82214286D01*
X171261905Y-82023810D01*
X171261905Y-81880952D01*
X171214286Y-81690476D01*
X171166667Y-81595238D01*
X171071429Y-81500000D01*
X170928571Y-81452381D01*
X170833333Y-81452381D01*
X170690476Y-81500000D01*
X170642857Y-81547619D01*
X169690476Y-82452381D02*
X170261905Y-82452381D01*
X169976191Y-82452381D02*
X169976191Y-81452381D01*
X170071429Y-81595238D01*
X170166667Y-81690476D01*
X170261905Y-81738095D01*
X169357143Y-81452381D02*
X168738095Y-81452381D01*
X169071429Y-81833333D01*
X168928571Y-81833333D01*
X168833333Y-81880952D01*
X168785714Y-81928571D01*
X168738095Y-82023810D01*
X168738095Y-82261905D01*
X168785714Y-82357143D01*
X168833333Y-82404762D01*
X168928571Y-82452381D01*
X169214286Y-82452381D01*
X169309524Y-82404762D01*
X169357143Y-82357143D01*
X173492857Y-96807143D02*
X173540476Y-96854762D01*
X173683333Y-96902381D01*
X173778571Y-96902381D01*
X173921429Y-96854762D01*
X174016667Y-96759524D01*
X174064286Y-96664286D01*
X174111905Y-96473810D01*
X174111905Y-96330952D01*
X174064286Y-96140476D01*
X174016667Y-96045238D01*
X173921429Y-95950000D01*
X173778571Y-95902381D01*
X173683333Y-95902381D01*
X173540476Y-95950000D01*
X173492857Y-95997619D01*
X172540476Y-96902381D02*
X173111905Y-96902381D01*
X172826191Y-96902381D02*
X172826191Y-95902381D01*
X172921429Y-96045238D01*
X173016667Y-96140476D01*
X173111905Y-96188095D01*
X171683333Y-96235714D02*
X171683333Y-96902381D01*
X171921429Y-95854762D02*
X172159524Y-96569048D01*
X171540476Y-96569048D01*
X158642857Y-89357143D02*
X158690476Y-89404762D01*
X158833333Y-89452381D01*
X158928571Y-89452381D01*
X159071429Y-89404762D01*
X159166667Y-89309524D01*
X159214286Y-89214286D01*
X159261905Y-89023810D01*
X159261905Y-88880952D01*
X159214286Y-88690476D01*
X159166667Y-88595238D01*
X159071429Y-88500000D01*
X158928571Y-88452381D01*
X158833333Y-88452381D01*
X158690476Y-88500000D01*
X158642857Y-88547619D01*
X157690476Y-89452381D02*
X158261905Y-89452381D01*
X157976191Y-89452381D02*
X157976191Y-88452381D01*
X158071429Y-88595238D01*
X158166667Y-88690476D01*
X158261905Y-88738095D01*
X156785714Y-88452381D02*
X157261905Y-88452381D01*
X157309524Y-88928571D01*
X157261905Y-88880952D01*
X157166667Y-88833333D01*
X156928571Y-88833333D01*
X156833333Y-88880952D01*
X156785714Y-88928571D01*
X156738095Y-89023810D01*
X156738095Y-89261905D01*
X156785714Y-89357143D01*
X156833333Y-89404762D01*
X156928571Y-89452381D01*
X157166667Y-89452381D01*
X157261905Y-89404762D01*
X157309524Y-89357143D01*
X119142857Y-126357143D02*
X119190476Y-126404762D01*
X119333333Y-126452381D01*
X119428571Y-126452381D01*
X119571429Y-126404762D01*
X119666667Y-126309524D01*
X119714286Y-126214286D01*
X119761905Y-126023810D01*
X119761905Y-125880952D01*
X119714286Y-125690476D01*
X119666667Y-125595238D01*
X119571429Y-125500000D01*
X119428571Y-125452381D01*
X119333333Y-125452381D01*
X119190476Y-125500000D01*
X119142857Y-125547619D01*
X118190476Y-126452381D02*
X118761905Y-126452381D01*
X118476191Y-126452381D02*
X118476191Y-125452381D01*
X118571429Y-125595238D01*
X118666667Y-125690476D01*
X118761905Y-125738095D01*
X117333333Y-125452381D02*
X117523810Y-125452381D01*
X117619048Y-125500000D01*
X117666667Y-125547619D01*
X117761905Y-125690476D01*
X117809524Y-125880952D01*
X117809524Y-126261905D01*
X117761905Y-126357143D01*
X117714286Y-126404762D01*
X117619048Y-126452381D01*
X117428571Y-126452381D01*
X117333333Y-126404762D01*
X117285714Y-126357143D01*
X117238095Y-126261905D01*
X117238095Y-126023810D01*
X117285714Y-125928571D01*
X117333333Y-125880952D01*
X117428571Y-125833333D01*
X117619048Y-125833333D01*
X117714286Y-125880952D01*
X117761905Y-125928571D01*
X117809524Y-126023810D01*
X110942857Y-125907143D02*
X110990476Y-125954762D01*
X111133333Y-126002381D01*
X111228571Y-126002381D01*
X111371429Y-125954762D01*
X111466667Y-125859524D01*
X111514286Y-125764286D01*
X111561905Y-125573810D01*
X111561905Y-125430952D01*
X111514286Y-125240476D01*
X111466667Y-125145238D01*
X111371429Y-125050000D01*
X111228571Y-125002381D01*
X111133333Y-125002381D01*
X110990476Y-125050000D01*
X110942857Y-125097619D01*
X109990476Y-126002381D02*
X110561905Y-126002381D01*
X110276191Y-126002381D02*
X110276191Y-125002381D01*
X110371429Y-125145238D01*
X110466667Y-125240476D01*
X110561905Y-125288095D01*
X109657143Y-125002381D02*
X108990476Y-125002381D01*
X109419048Y-126002381D01*
X125142857Y-67857143D02*
X125190476Y-67904762D01*
X125333333Y-67952381D01*
X125428571Y-67952381D01*
X125571429Y-67904762D01*
X125666667Y-67809524D01*
X125714286Y-67714286D01*
X125761905Y-67523810D01*
X125761905Y-67380952D01*
X125714286Y-67190476D01*
X125666667Y-67095238D01*
X125571429Y-67000000D01*
X125428571Y-66952381D01*
X125333333Y-66952381D01*
X125190476Y-67000000D01*
X125142857Y-67047619D01*
X124190476Y-67952381D02*
X124761905Y-67952381D01*
X124476191Y-67952381D02*
X124476191Y-66952381D01*
X124571429Y-67095238D01*
X124666667Y-67190476D01*
X124761905Y-67238095D01*
X123619048Y-67380952D02*
X123714286Y-67333333D01*
X123761905Y-67285714D01*
X123809524Y-67190476D01*
X123809524Y-67142857D01*
X123761905Y-67047619D01*
X123714286Y-67000000D01*
X123619048Y-66952381D01*
X123428571Y-66952381D01*
X123333333Y-67000000D01*
X123285714Y-67047619D01*
X123238095Y-67142857D01*
X123238095Y-67190476D01*
X123285714Y-67285714D01*
X123333333Y-67333333D01*
X123428571Y-67380952D01*
X123619048Y-67380952D01*
X123714286Y-67428571D01*
X123761905Y-67476190D01*
X123809524Y-67571429D01*
X123809524Y-67761905D01*
X123761905Y-67857143D01*
X123714286Y-67904762D01*
X123619048Y-67952381D01*
X123428571Y-67952381D01*
X123333333Y-67904762D01*
X123285714Y-67857143D01*
X123238095Y-67761905D01*
X123238095Y-67571429D01*
X123285714Y-67476190D01*
X123333333Y-67428571D01*
X123428571Y-67380952D01*
X137142857Y-65857143D02*
X137190476Y-65904762D01*
X137333333Y-65952381D01*
X137428571Y-65952381D01*
X137571429Y-65904762D01*
X137666667Y-65809524D01*
X137714286Y-65714286D01*
X137761905Y-65523810D01*
X137761905Y-65380952D01*
X137714286Y-65190476D01*
X137666667Y-65095238D01*
X137571429Y-65000000D01*
X137428571Y-64952381D01*
X137333333Y-64952381D01*
X137190476Y-65000000D01*
X137142857Y-65047619D01*
X136190476Y-65952381D02*
X136761905Y-65952381D01*
X136476191Y-65952381D02*
X136476191Y-64952381D01*
X136571429Y-65095238D01*
X136666667Y-65190476D01*
X136761905Y-65238095D01*
X135714286Y-65952381D02*
X135523810Y-65952381D01*
X135428571Y-65904762D01*
X135380952Y-65857143D01*
X135285714Y-65714286D01*
X135238095Y-65523810D01*
X135238095Y-65142857D01*
X135285714Y-65047619D01*
X135333333Y-65000000D01*
X135428571Y-64952381D01*
X135619048Y-64952381D01*
X135714286Y-65000000D01*
X135761905Y-65047619D01*
X135809524Y-65142857D01*
X135809524Y-65380952D01*
X135761905Y-65476190D01*
X135714286Y-65523810D01*
X135619048Y-65571429D01*
X135428571Y-65571429D01*
X135333333Y-65523810D01*
X135285714Y-65476190D01*
X135238095Y-65380952D01*
X111642857Y-67857143D02*
X111690476Y-67904762D01*
X111833333Y-67952381D01*
X111928571Y-67952381D01*
X112071429Y-67904762D01*
X112166667Y-67809524D01*
X112214286Y-67714286D01*
X112261905Y-67523810D01*
X112261905Y-67380952D01*
X112214286Y-67190476D01*
X112166667Y-67095238D01*
X112071429Y-67000000D01*
X111928571Y-66952381D01*
X111833333Y-66952381D01*
X111690476Y-67000000D01*
X111642857Y-67047619D01*
X111261905Y-67047619D02*
X111214286Y-67000000D01*
X111119048Y-66952381D01*
X110880952Y-66952381D01*
X110785714Y-67000000D01*
X110738095Y-67047619D01*
X110690476Y-67142857D01*
X110690476Y-67238095D01*
X110738095Y-67380952D01*
X111309524Y-67952381D01*
X110690476Y-67952381D01*
X109738095Y-67952381D02*
X110309524Y-67952381D01*
X110023810Y-67952381D02*
X110023810Y-66952381D01*
X110119048Y-67095238D01*
X110214286Y-67190476D01*
X110309524Y-67238095D01*
X102642857Y-97357143D02*
X102690476Y-97404762D01*
X102833333Y-97452381D01*
X102928571Y-97452381D01*
X103071429Y-97404762D01*
X103166667Y-97309524D01*
X103214286Y-97214286D01*
X103261905Y-97023810D01*
X103261905Y-96880952D01*
X103214286Y-96690476D01*
X103166667Y-96595238D01*
X103071429Y-96500000D01*
X102928571Y-96452381D01*
X102833333Y-96452381D01*
X102690476Y-96500000D01*
X102642857Y-96547619D01*
X102261905Y-96547619D02*
X102214286Y-96500000D01*
X102119048Y-96452381D01*
X101880952Y-96452381D01*
X101785714Y-96500000D01*
X101738095Y-96547619D01*
X101690476Y-96642857D01*
X101690476Y-96738095D01*
X101738095Y-96880952D01*
X102309524Y-97452381D01*
X101690476Y-97452381D01*
X101309524Y-96547619D02*
X101261905Y-96500000D01*
X101166667Y-96452381D01*
X100928571Y-96452381D01*
X100833333Y-96500000D01*
X100785714Y-96547619D01*
X100738095Y-96642857D01*
X100738095Y-96738095D01*
X100785714Y-96880952D01*
X101357143Y-97452381D01*
X100738095Y-97452381D01*
X141642857Y-81857143D02*
X141690476Y-81904762D01*
X141833333Y-81952381D01*
X141928571Y-81952381D01*
X142071429Y-81904762D01*
X142166667Y-81809524D01*
X142214286Y-81714286D01*
X142261905Y-81523810D01*
X142261905Y-81380952D01*
X142214286Y-81190476D01*
X142166667Y-81095238D01*
X142071429Y-81000000D01*
X141928571Y-80952381D01*
X141833333Y-80952381D01*
X141690476Y-81000000D01*
X141642857Y-81047619D01*
X141261905Y-81047619D02*
X141214286Y-81000000D01*
X141119048Y-80952381D01*
X140880952Y-80952381D01*
X140785714Y-81000000D01*
X140738095Y-81047619D01*
X140690476Y-81142857D01*
X140690476Y-81238095D01*
X140738095Y-81380952D01*
X141309524Y-81952381D01*
X140690476Y-81952381D01*
X140357143Y-80952381D02*
X139738095Y-80952381D01*
X140071429Y-81333333D01*
X139928571Y-81333333D01*
X139833333Y-81380952D01*
X139785714Y-81428571D01*
X139738095Y-81523810D01*
X139738095Y-81761905D01*
X139785714Y-81857143D01*
X139833333Y-81904762D01*
X139928571Y-81952381D01*
X140214286Y-81952381D01*
X140309524Y-81904762D01*
X140357143Y-81857143D01*
X138142857Y-84857143D02*
X138190476Y-84904762D01*
X138333333Y-84952381D01*
X138428571Y-84952381D01*
X138571429Y-84904762D01*
X138666667Y-84809524D01*
X138714286Y-84714286D01*
X138761905Y-84523810D01*
X138761905Y-84380952D01*
X138714286Y-84190476D01*
X138666667Y-84095238D01*
X138571429Y-84000000D01*
X138428571Y-83952381D01*
X138333333Y-83952381D01*
X138190476Y-84000000D01*
X138142857Y-84047619D01*
X137761905Y-84047619D02*
X137714286Y-84000000D01*
X137619048Y-83952381D01*
X137380952Y-83952381D01*
X137285714Y-84000000D01*
X137238095Y-84047619D01*
X137190476Y-84142857D01*
X137190476Y-84238095D01*
X137238095Y-84380952D01*
X137809524Y-84952381D01*
X137190476Y-84952381D01*
X136333333Y-84285714D02*
X136333333Y-84952381D01*
X136571429Y-83904762D02*
X136809524Y-84619048D01*
X136190476Y-84619048D01*
X118142857Y-67857143D02*
X118190476Y-67904762D01*
X118333333Y-67952381D01*
X118428571Y-67952381D01*
X118571429Y-67904762D01*
X118666667Y-67809524D01*
X118714286Y-67714286D01*
X118761905Y-67523810D01*
X118761905Y-67380952D01*
X118714286Y-67190476D01*
X118666667Y-67095238D01*
X118571429Y-67000000D01*
X118428571Y-66952381D01*
X118333333Y-66952381D01*
X118190476Y-67000000D01*
X118142857Y-67047619D01*
X117761905Y-67047619D02*
X117714286Y-67000000D01*
X117619048Y-66952381D01*
X117380952Y-66952381D01*
X117285714Y-67000000D01*
X117238095Y-67047619D01*
X117190476Y-67142857D01*
X117190476Y-67238095D01*
X117238095Y-67380952D01*
X117809524Y-67952381D01*
X117190476Y-67952381D01*
X116285714Y-66952381D02*
X116761905Y-66952381D01*
X116809524Y-67428571D01*
X116761905Y-67380952D01*
X116666667Y-67333333D01*
X116428571Y-67333333D01*
X116333333Y-67380952D01*
X116285714Y-67428571D01*
X116238095Y-67523810D01*
X116238095Y-67761905D01*
X116285714Y-67857143D01*
X116333333Y-67904762D01*
X116428571Y-67952381D01*
X116666667Y-67952381D01*
X116761905Y-67904762D01*
X116809524Y-67857143D01*
X117142857Y-108357143D02*
X117190476Y-108404762D01*
X117333333Y-108452381D01*
X117428571Y-108452381D01*
X117571429Y-108404762D01*
X117666667Y-108309524D01*
X117714286Y-108214286D01*
X117761905Y-108023810D01*
X117761905Y-107880952D01*
X117714286Y-107690476D01*
X117666667Y-107595238D01*
X117571429Y-107500000D01*
X117428571Y-107452381D01*
X117333333Y-107452381D01*
X117190476Y-107500000D01*
X117142857Y-107547619D01*
X116761905Y-107547619D02*
X116714286Y-107500000D01*
X116619048Y-107452381D01*
X116380952Y-107452381D01*
X116285714Y-107500000D01*
X116238095Y-107547619D01*
X116190476Y-107642857D01*
X116190476Y-107738095D01*
X116238095Y-107880952D01*
X116809524Y-108452381D01*
X116190476Y-108452381D01*
X115333333Y-107452381D02*
X115523810Y-107452381D01*
X115619048Y-107500000D01*
X115666667Y-107547619D01*
X115761905Y-107690476D01*
X115809524Y-107880952D01*
X115809524Y-108261905D01*
X115761905Y-108357143D01*
X115714286Y-108404762D01*
X115619048Y-108452381D01*
X115428571Y-108452381D01*
X115333333Y-108404762D01*
X115285714Y-108357143D01*
X115238095Y-108261905D01*
X115238095Y-108023810D01*
X115285714Y-107928571D01*
X115333333Y-107880952D01*
X115428571Y-107833333D01*
X115619048Y-107833333D01*
X115714286Y-107880952D01*
X115761905Y-107928571D01*
X115809524Y-108023810D01*
X119642857Y-105357143D02*
X119690476Y-105404762D01*
X119833333Y-105452381D01*
X119928571Y-105452381D01*
X120071429Y-105404762D01*
X120166667Y-105309524D01*
X120214286Y-105214286D01*
X120261905Y-105023810D01*
X120261905Y-104880952D01*
X120214286Y-104690476D01*
X120166667Y-104595238D01*
X120071429Y-104500000D01*
X119928571Y-104452381D01*
X119833333Y-104452381D01*
X119690476Y-104500000D01*
X119642857Y-104547619D01*
X119261905Y-104547619D02*
X119214286Y-104500000D01*
X119119048Y-104452381D01*
X118880952Y-104452381D01*
X118785714Y-104500000D01*
X118738095Y-104547619D01*
X118690476Y-104642857D01*
X118690476Y-104738095D01*
X118738095Y-104880952D01*
X119309524Y-105452381D01*
X118690476Y-105452381D01*
X118357143Y-104452381D02*
X117690476Y-104452381D01*
X118119048Y-105452381D01*
X108142857Y-78857143D02*
X108190476Y-78904762D01*
X108333333Y-78952381D01*
X108428571Y-78952381D01*
X108571429Y-78904762D01*
X108666667Y-78809524D01*
X108714286Y-78714286D01*
X108761905Y-78523810D01*
X108761905Y-78380952D01*
X108714286Y-78190476D01*
X108666667Y-78095238D01*
X108571429Y-78000000D01*
X108428571Y-77952381D01*
X108333333Y-77952381D01*
X108190476Y-78000000D01*
X108142857Y-78047619D01*
X107761905Y-78047619D02*
X107714286Y-78000000D01*
X107619048Y-77952381D01*
X107380952Y-77952381D01*
X107285714Y-78000000D01*
X107238095Y-78047619D01*
X107190476Y-78142857D01*
X107190476Y-78238095D01*
X107238095Y-78380952D01*
X107809524Y-78952381D01*
X107190476Y-78952381D01*
X106619048Y-78380952D02*
X106714286Y-78333333D01*
X106761905Y-78285714D01*
X106809524Y-78190476D01*
X106809524Y-78142857D01*
X106761905Y-78047619D01*
X106714286Y-78000000D01*
X106619048Y-77952381D01*
X106428571Y-77952381D01*
X106333333Y-78000000D01*
X106285714Y-78047619D01*
X106238095Y-78142857D01*
X106238095Y-78190476D01*
X106285714Y-78285714D01*
X106333333Y-78333333D01*
X106428571Y-78380952D01*
X106619048Y-78380952D01*
X106714286Y-78428571D01*
X106761905Y-78476190D01*
X106809524Y-78571429D01*
X106809524Y-78761905D01*
X106761905Y-78857143D01*
X106714286Y-78904762D01*
X106619048Y-78952381D01*
X106428571Y-78952381D01*
X106333333Y-78904762D01*
X106285714Y-78857143D01*
X106238095Y-78761905D01*
X106238095Y-78571429D01*
X106285714Y-78476190D01*
X106333333Y-78428571D01*
X106428571Y-78380952D01*
X138142857Y-88857143D02*
X138190476Y-88904762D01*
X138333333Y-88952381D01*
X138428571Y-88952381D01*
X138571429Y-88904762D01*
X138666667Y-88809524D01*
X138714286Y-88714286D01*
X138761905Y-88523810D01*
X138761905Y-88380952D01*
X138714286Y-88190476D01*
X138666667Y-88095238D01*
X138571429Y-88000000D01*
X138428571Y-87952381D01*
X138333333Y-87952381D01*
X138190476Y-88000000D01*
X138142857Y-88047619D01*
X137761905Y-88047619D02*
X137714286Y-88000000D01*
X137619048Y-87952381D01*
X137380952Y-87952381D01*
X137285714Y-88000000D01*
X137238095Y-88047619D01*
X137190476Y-88142857D01*
X137190476Y-88238095D01*
X137238095Y-88380952D01*
X137809524Y-88952381D01*
X137190476Y-88952381D01*
X136714286Y-88952381D02*
X136523810Y-88952381D01*
X136428571Y-88904762D01*
X136380952Y-88857143D01*
X136285714Y-88714286D01*
X136238095Y-88523810D01*
X136238095Y-88142857D01*
X136285714Y-88047619D01*
X136333333Y-88000000D01*
X136428571Y-87952381D01*
X136619048Y-87952381D01*
X136714286Y-88000000D01*
X136761905Y-88047619D01*
X136809524Y-88142857D01*
X136809524Y-88380952D01*
X136761905Y-88476190D01*
X136714286Y-88523810D01*
X136619048Y-88571429D01*
X136428571Y-88571429D01*
X136333333Y-88523810D01*
X136285714Y-88476190D01*
X136238095Y-88380952D01*
X144642857Y-96357143D02*
X144690476Y-96404762D01*
X144833333Y-96452381D01*
X144928571Y-96452381D01*
X145071429Y-96404762D01*
X145166667Y-96309524D01*
X145214286Y-96214286D01*
X145261905Y-96023810D01*
X145261905Y-95880952D01*
X145214286Y-95690476D01*
X145166667Y-95595238D01*
X145071429Y-95500000D01*
X144928571Y-95452381D01*
X144833333Y-95452381D01*
X144690476Y-95500000D01*
X144642857Y-95547619D01*
X144309524Y-95452381D02*
X143690476Y-95452381D01*
X144023810Y-95833333D01*
X143880952Y-95833333D01*
X143785714Y-95880952D01*
X143738095Y-95928571D01*
X143690476Y-96023810D01*
X143690476Y-96261905D01*
X143738095Y-96357143D01*
X143785714Y-96404762D01*
X143880952Y-96452381D01*
X144166667Y-96452381D01*
X144261905Y-96404762D01*
X144309524Y-96357143D01*
X143071429Y-95452381D02*
X142976190Y-95452381D01*
X142880952Y-95500000D01*
X142833333Y-95547619D01*
X142785714Y-95642857D01*
X142738095Y-95833333D01*
X142738095Y-96071429D01*
X142785714Y-96261905D01*
X142833333Y-96357143D01*
X142880952Y-96404762D01*
X142976190Y-96452381D01*
X143071429Y-96452381D01*
X143166667Y-96404762D01*
X143214286Y-96357143D01*
X143261905Y-96261905D01*
X143309524Y-96071429D01*
X143309524Y-95833333D01*
X143261905Y-95642857D01*
X143214286Y-95547619D01*
X143166667Y-95500000D01*
X143071429Y-95452381D01*
X130142857Y-67857143D02*
X130190476Y-67904762D01*
X130333333Y-67952381D01*
X130428571Y-67952381D01*
X130571429Y-67904762D01*
X130666667Y-67809524D01*
X130714286Y-67714286D01*
X130761905Y-67523810D01*
X130761905Y-67380952D01*
X130714286Y-67190476D01*
X130666667Y-67095238D01*
X130571429Y-67000000D01*
X130428571Y-66952381D01*
X130333333Y-66952381D01*
X130190476Y-67000000D01*
X130142857Y-67047619D01*
X129809524Y-66952381D02*
X129190476Y-66952381D01*
X129523810Y-67333333D01*
X129380952Y-67333333D01*
X129285714Y-67380952D01*
X129238095Y-67428571D01*
X129190476Y-67523810D01*
X129190476Y-67761905D01*
X129238095Y-67857143D01*
X129285714Y-67904762D01*
X129380952Y-67952381D01*
X129666667Y-67952381D01*
X129761905Y-67904762D01*
X129809524Y-67857143D01*
X128238095Y-67952381D02*
X128809524Y-67952381D01*
X128523810Y-67952381D02*
X128523810Y-66952381D01*
X128619048Y-67095238D01*
X128714286Y-67190476D01*
X128809524Y-67238095D01*
X123642857Y-102857143D02*
X123690476Y-102904762D01*
X123833333Y-102952381D01*
X123928571Y-102952381D01*
X124071429Y-102904762D01*
X124166667Y-102809524D01*
X124214286Y-102714286D01*
X124261905Y-102523810D01*
X124261905Y-102380952D01*
X124214286Y-102190476D01*
X124166667Y-102095238D01*
X124071429Y-102000000D01*
X123928571Y-101952381D01*
X123833333Y-101952381D01*
X123690476Y-102000000D01*
X123642857Y-102047619D01*
X123309524Y-101952381D02*
X122690476Y-101952381D01*
X123023810Y-102333333D01*
X122880952Y-102333333D01*
X122785714Y-102380952D01*
X122738095Y-102428571D01*
X122690476Y-102523810D01*
X122690476Y-102761905D01*
X122738095Y-102857143D01*
X122785714Y-102904762D01*
X122880952Y-102952381D01*
X123166667Y-102952381D01*
X123261905Y-102904762D01*
X123309524Y-102857143D01*
X122309524Y-102047619D02*
X122261905Y-102000000D01*
X122166667Y-101952381D01*
X121928571Y-101952381D01*
X121833333Y-102000000D01*
X121785714Y-102047619D01*
X121738095Y-102142857D01*
X121738095Y-102238095D01*
X121785714Y-102380952D01*
X122357143Y-102952381D01*
X121738095Y-102952381D01*
X133642857Y-71857143D02*
X133690476Y-71904762D01*
X133833333Y-71952381D01*
X133928571Y-71952381D01*
X134071429Y-71904762D01*
X134166667Y-71809524D01*
X134214286Y-71714286D01*
X134261905Y-71523810D01*
X134261905Y-71380952D01*
X134214286Y-71190476D01*
X134166667Y-71095238D01*
X134071429Y-71000000D01*
X133928571Y-70952381D01*
X133833333Y-70952381D01*
X133690476Y-71000000D01*
X133642857Y-71047619D01*
X133309524Y-70952381D02*
X132690476Y-70952381D01*
X133023810Y-71333333D01*
X132880952Y-71333333D01*
X132785714Y-71380952D01*
X132738095Y-71428571D01*
X132690476Y-71523810D01*
X132690476Y-71761905D01*
X132738095Y-71857143D01*
X132785714Y-71904762D01*
X132880952Y-71952381D01*
X133166667Y-71952381D01*
X133261905Y-71904762D01*
X133309524Y-71857143D01*
X132357143Y-70952381D02*
X131738095Y-70952381D01*
X132071429Y-71333333D01*
X131928571Y-71333333D01*
X131833333Y-71380952D01*
X131785714Y-71428571D01*
X131738095Y-71523810D01*
X131738095Y-71761905D01*
X131785714Y-71857143D01*
X131833333Y-71904762D01*
X131928571Y-71952381D01*
X132214286Y-71952381D01*
X132309524Y-71904762D01*
X132357143Y-71857143D01*
X125292857Y-111457143D02*
X125340476Y-111504762D01*
X125483333Y-111552381D01*
X125578571Y-111552381D01*
X125721429Y-111504762D01*
X125816667Y-111409524D01*
X125864286Y-111314286D01*
X125911905Y-111123810D01*
X125911905Y-110980952D01*
X125864286Y-110790476D01*
X125816667Y-110695238D01*
X125721429Y-110600000D01*
X125578571Y-110552381D01*
X125483333Y-110552381D01*
X125340476Y-110600000D01*
X125292857Y-110647619D01*
X124959524Y-110552381D02*
X124340476Y-110552381D01*
X124673810Y-110933333D01*
X124530952Y-110933333D01*
X124435714Y-110980952D01*
X124388095Y-111028571D01*
X124340476Y-111123810D01*
X124340476Y-111361905D01*
X124388095Y-111457143D01*
X124435714Y-111504762D01*
X124530952Y-111552381D01*
X124816667Y-111552381D01*
X124911905Y-111504762D01*
X124959524Y-111457143D01*
X123483333Y-110885714D02*
X123483333Y-111552381D01*
X123721429Y-110504762D02*
X123959524Y-111219048D01*
X123340476Y-111219048D01*
X135642857Y-97857143D02*
X135690476Y-97904762D01*
X135833333Y-97952381D01*
X135928571Y-97952381D01*
X136071429Y-97904762D01*
X136166667Y-97809524D01*
X136214286Y-97714286D01*
X136261905Y-97523810D01*
X136261905Y-97380952D01*
X136214286Y-97190476D01*
X136166667Y-97095238D01*
X136071429Y-97000000D01*
X135928571Y-96952381D01*
X135833333Y-96952381D01*
X135690476Y-97000000D01*
X135642857Y-97047619D01*
X135309524Y-96952381D02*
X134690476Y-96952381D01*
X135023810Y-97333333D01*
X134880952Y-97333333D01*
X134785714Y-97380952D01*
X134738095Y-97428571D01*
X134690476Y-97523810D01*
X134690476Y-97761905D01*
X134738095Y-97857143D01*
X134785714Y-97904762D01*
X134880952Y-97952381D01*
X135166667Y-97952381D01*
X135261905Y-97904762D01*
X135309524Y-97857143D01*
X133785714Y-96952381D02*
X134261905Y-96952381D01*
X134309524Y-97428571D01*
X134261905Y-97380952D01*
X134166667Y-97333333D01*
X133928571Y-97333333D01*
X133833333Y-97380952D01*
X133785714Y-97428571D01*
X133738095Y-97523810D01*
X133738095Y-97761905D01*
X133785714Y-97857143D01*
X133833333Y-97904762D01*
X133928571Y-97952381D01*
X134166667Y-97952381D01*
X134261905Y-97904762D01*
X134309524Y-97857143D01*
X130392857Y-113257143D02*
X130440476Y-113304762D01*
X130583333Y-113352381D01*
X130678571Y-113352381D01*
X130821429Y-113304762D01*
X130916667Y-113209524D01*
X130964286Y-113114286D01*
X131011905Y-112923810D01*
X131011905Y-112780952D01*
X130964286Y-112590476D01*
X130916667Y-112495238D01*
X130821429Y-112400000D01*
X130678571Y-112352381D01*
X130583333Y-112352381D01*
X130440476Y-112400000D01*
X130392857Y-112447619D01*
X130059524Y-112352381D02*
X129440476Y-112352381D01*
X129773810Y-112733333D01*
X129630952Y-112733333D01*
X129535714Y-112780952D01*
X129488095Y-112828571D01*
X129440476Y-112923810D01*
X129440476Y-113161905D01*
X129488095Y-113257143D01*
X129535714Y-113304762D01*
X129630952Y-113352381D01*
X129916667Y-113352381D01*
X130011905Y-113304762D01*
X130059524Y-113257143D01*
X128583333Y-112352381D02*
X128773810Y-112352381D01*
X128869048Y-112400000D01*
X128916667Y-112447619D01*
X129011905Y-112590476D01*
X129059524Y-112780952D01*
X129059524Y-113161905D01*
X129011905Y-113257143D01*
X128964286Y-113304762D01*
X128869048Y-113352381D01*
X128678571Y-113352381D01*
X128583333Y-113304762D01*
X128535714Y-113257143D01*
X128488095Y-113161905D01*
X128488095Y-112923810D01*
X128535714Y-112828571D01*
X128583333Y-112780952D01*
X128678571Y-112733333D01*
X128869048Y-112733333D01*
X128964286Y-112780952D01*
X129011905Y-112828571D01*
X129059524Y-112923810D01*
X152142857Y-107857143D02*
X152190476Y-107904762D01*
X152333333Y-107952381D01*
X152428571Y-107952381D01*
X152571429Y-107904762D01*
X152666667Y-107809524D01*
X152714286Y-107714286D01*
X152761905Y-107523810D01*
X152761905Y-107380952D01*
X152714286Y-107190476D01*
X152666667Y-107095238D01*
X152571429Y-107000000D01*
X152428571Y-106952381D01*
X152333333Y-106952381D01*
X152190476Y-107000000D01*
X152142857Y-107047619D01*
X151809524Y-106952381D02*
X151190476Y-106952381D01*
X151523810Y-107333333D01*
X151380952Y-107333333D01*
X151285714Y-107380952D01*
X151238095Y-107428571D01*
X151190476Y-107523810D01*
X151190476Y-107761905D01*
X151238095Y-107857143D01*
X151285714Y-107904762D01*
X151380952Y-107952381D01*
X151666667Y-107952381D01*
X151761905Y-107904762D01*
X151809524Y-107857143D01*
X150857143Y-106952381D02*
X150190476Y-106952381D01*
X150619048Y-107952381D01*
X144642857Y-143357143D02*
X144690476Y-143404762D01*
X144833333Y-143452381D01*
X144928571Y-143452381D01*
X145071429Y-143404762D01*
X145166667Y-143309524D01*
X145214286Y-143214286D01*
X145261905Y-143023810D01*
X145261905Y-142880952D01*
X145214286Y-142690476D01*
X145166667Y-142595238D01*
X145071429Y-142500000D01*
X144928571Y-142452381D01*
X144833333Y-142452381D01*
X144690476Y-142500000D01*
X144642857Y-142547619D01*
X144309524Y-142452381D02*
X143690476Y-142452381D01*
X144023810Y-142833333D01*
X143880952Y-142833333D01*
X143785714Y-142880952D01*
X143738095Y-142928571D01*
X143690476Y-143023810D01*
X143690476Y-143261905D01*
X143738095Y-143357143D01*
X143785714Y-143404762D01*
X143880952Y-143452381D01*
X144166667Y-143452381D01*
X144261905Y-143404762D01*
X144309524Y-143357143D01*
X143119048Y-142880952D02*
X143214286Y-142833333D01*
X143261905Y-142785714D01*
X143309524Y-142690476D01*
X143309524Y-142642857D01*
X143261905Y-142547619D01*
X143214286Y-142500000D01*
X143119048Y-142452381D01*
X142928571Y-142452381D01*
X142833333Y-142500000D01*
X142785714Y-142547619D01*
X142738095Y-142642857D01*
X142738095Y-142690476D01*
X142785714Y-142785714D01*
X142833333Y-142833333D01*
X142928571Y-142880952D01*
X143119048Y-142880952D01*
X143214286Y-142928571D01*
X143261905Y-142976190D01*
X143309524Y-143071429D01*
X143309524Y-143261905D01*
X143261905Y-143357143D01*
X143214286Y-143404762D01*
X143119048Y-143452381D01*
X142928571Y-143452381D01*
X142833333Y-143404762D01*
X142785714Y-143357143D01*
X142738095Y-143261905D01*
X142738095Y-143071429D01*
X142785714Y-142976190D01*
X142833333Y-142928571D01*
X142928571Y-142880952D01*
X151142857Y-102857143D02*
X151190476Y-102904762D01*
X151333333Y-102952381D01*
X151428571Y-102952381D01*
X151571429Y-102904762D01*
X151666667Y-102809524D01*
X151714286Y-102714286D01*
X151761905Y-102523810D01*
X151761905Y-102380952D01*
X151714286Y-102190476D01*
X151666667Y-102095238D01*
X151571429Y-102000000D01*
X151428571Y-101952381D01*
X151333333Y-101952381D01*
X151190476Y-102000000D01*
X151142857Y-102047619D01*
X150809524Y-101952381D02*
X150190476Y-101952381D01*
X150523810Y-102333333D01*
X150380952Y-102333333D01*
X150285714Y-102380952D01*
X150238095Y-102428571D01*
X150190476Y-102523810D01*
X150190476Y-102761905D01*
X150238095Y-102857143D01*
X150285714Y-102904762D01*
X150380952Y-102952381D01*
X150666667Y-102952381D01*
X150761905Y-102904762D01*
X150809524Y-102857143D01*
X149714286Y-102952381D02*
X149523810Y-102952381D01*
X149428571Y-102904762D01*
X149380952Y-102857143D01*
X149285714Y-102714286D01*
X149238095Y-102523810D01*
X149238095Y-102142857D01*
X149285714Y-102047619D01*
X149333333Y-102000000D01*
X149428571Y-101952381D01*
X149619048Y-101952381D01*
X149714286Y-102000000D01*
X149761905Y-102047619D01*
X149809524Y-102142857D01*
X149809524Y-102380952D01*
X149761905Y-102476190D01*
X149714286Y-102523810D01*
X149619048Y-102571429D01*
X149428571Y-102571429D01*
X149333333Y-102523810D01*
X149285714Y-102476190D01*
X149238095Y-102380952D01*
X153642857Y-109357143D02*
X153690476Y-109404762D01*
X153833333Y-109452381D01*
X153928571Y-109452381D01*
X154071429Y-109404762D01*
X154166667Y-109309524D01*
X154214286Y-109214286D01*
X154261905Y-109023810D01*
X154261905Y-108880952D01*
X154214286Y-108690476D01*
X154166667Y-108595238D01*
X154071429Y-108500000D01*
X153928571Y-108452381D01*
X153833333Y-108452381D01*
X153690476Y-108500000D01*
X153642857Y-108547619D01*
X152785714Y-108785714D02*
X152785714Y-109452381D01*
X153023810Y-108404762D02*
X153261905Y-109119048D01*
X152642857Y-109119048D01*
X151738095Y-109452381D02*
X152309524Y-109452381D01*
X152023810Y-109452381D02*
X152023810Y-108452381D01*
X152119048Y-108595238D01*
X152214286Y-108690476D01*
X152309524Y-108738095D01*
X142792857Y-133857143D02*
X142840476Y-133904762D01*
X142983333Y-133952381D01*
X143078571Y-133952381D01*
X143221429Y-133904762D01*
X143316667Y-133809524D01*
X143364286Y-133714286D01*
X143411905Y-133523810D01*
X143411905Y-133380952D01*
X143364286Y-133190476D01*
X143316667Y-133095238D01*
X143221429Y-133000000D01*
X143078571Y-132952381D01*
X142983333Y-132952381D01*
X142840476Y-133000000D01*
X142792857Y-133047619D01*
X141935714Y-133285714D02*
X141935714Y-133952381D01*
X142173810Y-132904762D02*
X142411905Y-133619048D01*
X141792857Y-133619048D01*
X141459524Y-133047619D02*
X141411905Y-133000000D01*
X141316667Y-132952381D01*
X141078571Y-132952381D01*
X140983333Y-133000000D01*
X140935714Y-133047619D01*
X140888095Y-133142857D01*
X140888095Y-133238095D01*
X140935714Y-133380952D01*
X141507143Y-133952381D01*
X140888095Y-133952381D01*
X184142857Y-119857143D02*
X184190476Y-119904762D01*
X184333333Y-119952381D01*
X184428571Y-119952381D01*
X184571429Y-119904762D01*
X184666667Y-119809524D01*
X184714286Y-119714286D01*
X184761905Y-119523810D01*
X184761905Y-119380952D01*
X184714286Y-119190476D01*
X184666667Y-119095238D01*
X184571429Y-119000000D01*
X184428571Y-118952381D01*
X184333333Y-118952381D01*
X184190476Y-119000000D01*
X184142857Y-119047619D01*
X183285714Y-119285714D02*
X183285714Y-119952381D01*
X183523810Y-118904762D02*
X183761905Y-119619048D01*
X183142857Y-119619048D01*
X182857143Y-118952381D02*
X182238095Y-118952381D01*
X182571429Y-119333333D01*
X182428571Y-119333333D01*
X182333333Y-119380952D01*
X182285714Y-119428571D01*
X182238095Y-119523810D01*
X182238095Y-119761905D01*
X182285714Y-119857143D01*
X182333333Y-119904762D01*
X182428571Y-119952381D01*
X182714286Y-119952381D01*
X182809524Y-119904762D01*
X182857143Y-119857143D01*
X150642857Y-129357143D02*
X150690476Y-129404762D01*
X150833333Y-129452381D01*
X150928571Y-129452381D01*
X151071429Y-129404762D01*
X151166667Y-129309524D01*
X151214286Y-129214286D01*
X151261905Y-129023810D01*
X151261905Y-128880952D01*
X151214286Y-128690476D01*
X151166667Y-128595238D01*
X151071429Y-128500000D01*
X150928571Y-128452381D01*
X150833333Y-128452381D01*
X150690476Y-128500000D01*
X150642857Y-128547619D01*
X149785714Y-128785714D02*
X149785714Y-129452381D01*
X150023810Y-128404762D02*
X150261905Y-129119048D01*
X149642857Y-129119048D01*
X148833333Y-128785714D02*
X148833333Y-129452381D01*
X149071429Y-128404762D02*
X149309524Y-129119048D01*
X148690476Y-129119048D01*
X145642857Y-119357143D02*
X145690476Y-119404762D01*
X145833333Y-119452381D01*
X145928571Y-119452381D01*
X146071429Y-119404762D01*
X146166667Y-119309524D01*
X146214286Y-119214286D01*
X146261905Y-119023810D01*
X146261905Y-118880952D01*
X146214286Y-118690476D01*
X146166667Y-118595238D01*
X146071429Y-118500000D01*
X145928571Y-118452381D01*
X145833333Y-118452381D01*
X145690476Y-118500000D01*
X145642857Y-118547619D01*
X144785714Y-118785714D02*
X144785714Y-119452381D01*
X145023810Y-118404762D02*
X145261905Y-119119048D01*
X144642857Y-119119048D01*
X143785714Y-118452381D02*
X144261905Y-118452381D01*
X144309524Y-118928571D01*
X144261905Y-118880952D01*
X144166667Y-118833333D01*
X143928571Y-118833333D01*
X143833333Y-118880952D01*
X143785714Y-118928571D01*
X143738095Y-119023810D01*
X143738095Y-119261905D01*
X143785714Y-119357143D01*
X143833333Y-119404762D01*
X143928571Y-119452381D01*
X144166667Y-119452381D01*
X144261905Y-119404762D01*
X144309524Y-119357143D01*
X155642857Y-106857143D02*
X155690476Y-106904762D01*
X155833333Y-106952381D01*
X155928571Y-106952381D01*
X156071429Y-106904762D01*
X156166667Y-106809524D01*
X156214286Y-106714286D01*
X156261905Y-106523810D01*
X156261905Y-106380952D01*
X156214286Y-106190476D01*
X156166667Y-106095238D01*
X156071429Y-106000000D01*
X155928571Y-105952381D01*
X155833333Y-105952381D01*
X155690476Y-106000000D01*
X155642857Y-106047619D01*
X154785714Y-106285714D02*
X154785714Y-106952381D01*
X155023810Y-105904762D02*
X155261905Y-106619048D01*
X154642857Y-106619048D01*
X153833333Y-105952381D02*
X154023810Y-105952381D01*
X154119048Y-106000000D01*
X154166667Y-106047619D01*
X154261905Y-106190476D01*
X154309524Y-106380952D01*
X154309524Y-106761905D01*
X154261905Y-106857143D01*
X154214286Y-106904762D01*
X154119048Y-106952381D01*
X153928571Y-106952381D01*
X153833333Y-106904762D01*
X153785714Y-106857143D01*
X153738095Y-106761905D01*
X153738095Y-106523810D01*
X153785714Y-106428571D01*
X153833333Y-106380952D01*
X153928571Y-106333333D01*
X154119048Y-106333333D01*
X154214286Y-106380952D01*
X154261905Y-106428571D01*
X154309524Y-106523810D01*
X160642857Y-110857143D02*
X160690476Y-110904762D01*
X160833333Y-110952381D01*
X160928571Y-110952381D01*
X161071429Y-110904762D01*
X161166667Y-110809524D01*
X161214286Y-110714286D01*
X161261905Y-110523810D01*
X161261905Y-110380952D01*
X161214286Y-110190476D01*
X161166667Y-110095238D01*
X161071429Y-110000000D01*
X160928571Y-109952381D01*
X160833333Y-109952381D01*
X160690476Y-110000000D01*
X160642857Y-110047619D01*
X159785714Y-110285714D02*
X159785714Y-110952381D01*
X160023810Y-109904762D02*
X160261905Y-110619048D01*
X159642857Y-110619048D01*
X159357143Y-109952381D02*
X158690476Y-109952381D01*
X159119048Y-110952381D01*
X164642857Y-106357143D02*
X164690476Y-106404762D01*
X164833333Y-106452381D01*
X164928571Y-106452381D01*
X165071429Y-106404762D01*
X165166667Y-106309524D01*
X165214286Y-106214286D01*
X165261905Y-106023810D01*
X165261905Y-105880952D01*
X165214286Y-105690476D01*
X165166667Y-105595238D01*
X165071429Y-105500000D01*
X164928571Y-105452381D01*
X164833333Y-105452381D01*
X164690476Y-105500000D01*
X164642857Y-105547619D01*
X163785714Y-105785714D02*
X163785714Y-106452381D01*
X164023810Y-105404762D02*
X164261905Y-106119048D01*
X163642857Y-106119048D01*
X163119048Y-105880952D02*
X163214286Y-105833333D01*
X163261905Y-105785714D01*
X163309524Y-105690476D01*
X163309524Y-105642857D01*
X163261905Y-105547619D01*
X163214286Y-105500000D01*
X163119048Y-105452381D01*
X162928571Y-105452381D01*
X162833333Y-105500000D01*
X162785714Y-105547619D01*
X162738095Y-105642857D01*
X162738095Y-105690476D01*
X162785714Y-105785714D01*
X162833333Y-105833333D01*
X162928571Y-105880952D01*
X163119048Y-105880952D01*
X163214286Y-105928571D01*
X163261905Y-105976190D01*
X163309524Y-106071429D01*
X163309524Y-106261905D01*
X163261905Y-106357143D01*
X163214286Y-106404762D01*
X163119048Y-106452381D01*
X162928571Y-106452381D01*
X162833333Y-106404762D01*
X162785714Y-106357143D01*
X162738095Y-106261905D01*
X162738095Y-106071429D01*
X162785714Y-105976190D01*
X162833333Y-105928571D01*
X162928571Y-105880952D01*
X150642857Y-126857143D02*
X150690476Y-126904762D01*
X150833333Y-126952381D01*
X150928571Y-126952381D01*
X151071429Y-126904762D01*
X151166667Y-126809524D01*
X151214286Y-126714286D01*
X151261905Y-126523810D01*
X151261905Y-126380952D01*
X151214286Y-126190476D01*
X151166667Y-126095238D01*
X151071429Y-126000000D01*
X150928571Y-125952381D01*
X150833333Y-125952381D01*
X150690476Y-126000000D01*
X150642857Y-126047619D01*
X149785714Y-126285714D02*
X149785714Y-126952381D01*
X150023810Y-125904762D02*
X150261905Y-126619048D01*
X149642857Y-126619048D01*
X149214286Y-126952381D02*
X149023810Y-126952381D01*
X148928571Y-126904762D01*
X148880952Y-126857143D01*
X148785714Y-126714286D01*
X148738095Y-126523810D01*
X148738095Y-126142857D01*
X148785714Y-126047619D01*
X148833333Y-126000000D01*
X148928571Y-125952381D01*
X149119048Y-125952381D01*
X149214286Y-126000000D01*
X149261905Y-126047619D01*
X149309524Y-126142857D01*
X149309524Y-126380952D01*
X149261905Y-126476190D01*
X149214286Y-126523810D01*
X149119048Y-126571429D01*
X148928571Y-126571429D01*
X148833333Y-126523810D01*
X148785714Y-126476190D01*
X148738095Y-126380952D01*
X175542857Y-144907143D02*
X175590476Y-144954762D01*
X175733333Y-145002381D01*
X175828571Y-145002381D01*
X175971429Y-144954762D01*
X176066667Y-144859524D01*
X176114286Y-144764286D01*
X176161905Y-144573810D01*
X176161905Y-144430952D01*
X176114286Y-144240476D01*
X176066667Y-144145238D01*
X175971429Y-144050000D01*
X175828571Y-144002381D01*
X175733333Y-144002381D01*
X175590476Y-144050000D01*
X175542857Y-144097619D01*
X174638095Y-144002381D02*
X175114286Y-144002381D01*
X175161905Y-144478571D01*
X175114286Y-144430952D01*
X175019048Y-144383333D01*
X174780952Y-144383333D01*
X174685714Y-144430952D01*
X174638095Y-144478571D01*
X174590476Y-144573810D01*
X174590476Y-144811905D01*
X174638095Y-144907143D01*
X174685714Y-144954762D01*
X174780952Y-145002381D01*
X175019048Y-145002381D01*
X175114286Y-144954762D01*
X175161905Y-144907143D01*
X173971429Y-144002381D02*
X173876190Y-144002381D01*
X173780952Y-144050000D01*
X173733333Y-144097619D01*
X173685714Y-144192857D01*
X173638095Y-144383333D01*
X173638095Y-144621429D01*
X173685714Y-144811905D01*
X173733333Y-144907143D01*
X173780952Y-144954762D01*
X173876190Y-145002381D01*
X173971429Y-145002381D01*
X174066667Y-144954762D01*
X174114286Y-144907143D01*
X174161905Y-144811905D01*
X174209524Y-144621429D01*
X174209524Y-144383333D01*
X174161905Y-144192857D01*
X174114286Y-144097619D01*
X174066667Y-144050000D01*
X173971429Y-144002381D01*
X162142857Y-141357143D02*
X162190476Y-141404762D01*
X162333333Y-141452381D01*
X162428571Y-141452381D01*
X162571429Y-141404762D01*
X162666667Y-141309524D01*
X162714286Y-141214286D01*
X162761905Y-141023810D01*
X162761905Y-140880952D01*
X162714286Y-140690476D01*
X162666667Y-140595238D01*
X162571429Y-140500000D01*
X162428571Y-140452381D01*
X162333333Y-140452381D01*
X162190476Y-140500000D01*
X162142857Y-140547619D01*
X161238095Y-140452381D02*
X161714286Y-140452381D01*
X161761905Y-140928571D01*
X161714286Y-140880952D01*
X161619048Y-140833333D01*
X161380952Y-140833333D01*
X161285714Y-140880952D01*
X161238095Y-140928571D01*
X161190476Y-141023810D01*
X161190476Y-141261905D01*
X161238095Y-141357143D01*
X161285714Y-141404762D01*
X161380952Y-141452381D01*
X161619048Y-141452381D01*
X161714286Y-141404762D01*
X161761905Y-141357143D01*
X160238095Y-141452381D02*
X160809524Y-141452381D01*
X160523810Y-141452381D02*
X160523810Y-140452381D01*
X160619048Y-140595238D01*
X160714286Y-140690476D01*
X160809524Y-140738095D01*
X150642857Y-123357143D02*
X150690476Y-123404762D01*
X150833333Y-123452381D01*
X150928571Y-123452381D01*
X151071429Y-123404762D01*
X151166667Y-123309524D01*
X151214286Y-123214286D01*
X151261905Y-123023810D01*
X151261905Y-122880952D01*
X151214286Y-122690476D01*
X151166667Y-122595238D01*
X151071429Y-122500000D01*
X150928571Y-122452381D01*
X150833333Y-122452381D01*
X150690476Y-122500000D01*
X150642857Y-122547619D01*
X149738095Y-122452381D02*
X150214286Y-122452381D01*
X150261905Y-122928571D01*
X150214286Y-122880952D01*
X150119048Y-122833333D01*
X149880952Y-122833333D01*
X149785714Y-122880952D01*
X149738095Y-122928571D01*
X149690476Y-123023810D01*
X149690476Y-123261905D01*
X149738095Y-123357143D01*
X149785714Y-123404762D01*
X149880952Y-123452381D01*
X150119048Y-123452381D01*
X150214286Y-123404762D01*
X150261905Y-123357143D01*
X149309524Y-122547619D02*
X149261905Y-122500000D01*
X149166667Y-122452381D01*
X148928571Y-122452381D01*
X148833333Y-122500000D01*
X148785714Y-122547619D01*
X148738095Y-122642857D01*
X148738095Y-122738095D01*
X148785714Y-122880952D01*
X149357143Y-123452381D01*
X148738095Y-123452381D01*
X150392857Y-145907143D02*
X150440476Y-145954762D01*
X150583333Y-146002381D01*
X150678571Y-146002381D01*
X150821429Y-145954762D01*
X150916667Y-145859524D01*
X150964286Y-145764286D01*
X151011905Y-145573810D01*
X151011905Y-145430952D01*
X150964286Y-145240476D01*
X150916667Y-145145238D01*
X150821429Y-145050000D01*
X150678571Y-145002381D01*
X150583333Y-145002381D01*
X150440476Y-145050000D01*
X150392857Y-145097619D01*
X149488095Y-145002381D02*
X149964286Y-145002381D01*
X150011905Y-145478571D01*
X149964286Y-145430952D01*
X149869048Y-145383333D01*
X149630952Y-145383333D01*
X149535714Y-145430952D01*
X149488095Y-145478571D01*
X149440476Y-145573810D01*
X149440476Y-145811905D01*
X149488095Y-145907143D01*
X149535714Y-145954762D01*
X149630952Y-146002381D01*
X149869048Y-146002381D01*
X149964286Y-145954762D01*
X150011905Y-145907143D01*
X149107143Y-145002381D02*
X148488095Y-145002381D01*
X148821429Y-145383333D01*
X148678571Y-145383333D01*
X148583333Y-145430952D01*
X148535714Y-145478571D01*
X148488095Y-145573810D01*
X148488095Y-145811905D01*
X148535714Y-145907143D01*
X148583333Y-145954762D01*
X148678571Y-146002381D01*
X148964286Y-146002381D01*
X149059524Y-145954762D01*
X149107143Y-145907143D01*
X184142857Y-123857143D02*
X184190476Y-123904762D01*
X184333333Y-123952381D01*
X184428571Y-123952381D01*
X184571429Y-123904762D01*
X184666667Y-123809524D01*
X184714286Y-123714286D01*
X184761905Y-123523810D01*
X184761905Y-123380952D01*
X184714286Y-123190476D01*
X184666667Y-123095238D01*
X184571429Y-123000000D01*
X184428571Y-122952381D01*
X184333333Y-122952381D01*
X184190476Y-123000000D01*
X184142857Y-123047619D01*
X183238095Y-122952381D02*
X183714286Y-122952381D01*
X183761905Y-123428571D01*
X183714286Y-123380952D01*
X183619048Y-123333333D01*
X183380952Y-123333333D01*
X183285714Y-123380952D01*
X183238095Y-123428571D01*
X183190476Y-123523810D01*
X183190476Y-123761905D01*
X183238095Y-123857143D01*
X183285714Y-123904762D01*
X183380952Y-123952381D01*
X183619048Y-123952381D01*
X183714286Y-123904762D01*
X183761905Y-123857143D01*
X182333333Y-123285714D02*
X182333333Y-123952381D01*
X182571429Y-122904762D02*
X182809524Y-123619048D01*
X182190476Y-123619048D01*
X169642857Y-145357143D02*
X169690476Y-145404762D01*
X169833333Y-145452381D01*
X169928571Y-145452381D01*
X170071429Y-145404762D01*
X170166667Y-145309524D01*
X170214286Y-145214286D01*
X170261905Y-145023810D01*
X170261905Y-144880952D01*
X170214286Y-144690476D01*
X170166667Y-144595238D01*
X170071429Y-144500000D01*
X169928571Y-144452381D01*
X169833333Y-144452381D01*
X169690476Y-144500000D01*
X169642857Y-144547619D01*
X168738095Y-144452381D02*
X169214286Y-144452381D01*
X169261905Y-144928571D01*
X169214286Y-144880952D01*
X169119048Y-144833333D01*
X168880952Y-144833333D01*
X168785714Y-144880952D01*
X168738095Y-144928571D01*
X168690476Y-145023810D01*
X168690476Y-145261905D01*
X168738095Y-145357143D01*
X168785714Y-145404762D01*
X168880952Y-145452381D01*
X169119048Y-145452381D01*
X169214286Y-145404762D01*
X169261905Y-145357143D01*
X167785714Y-144452381D02*
X168261905Y-144452381D01*
X168309524Y-144928571D01*
X168261905Y-144880952D01*
X168166667Y-144833333D01*
X167928571Y-144833333D01*
X167833333Y-144880952D01*
X167785714Y-144928571D01*
X167738095Y-145023810D01*
X167738095Y-145261905D01*
X167785714Y-145357143D01*
X167833333Y-145404762D01*
X167928571Y-145452381D01*
X168166667Y-145452381D01*
X168261905Y-145404762D01*
X168309524Y-145357143D01*
X169142857Y-111857143D02*
X169190476Y-111904762D01*
X169333333Y-111952381D01*
X169428571Y-111952381D01*
X169571429Y-111904762D01*
X169666667Y-111809524D01*
X169714286Y-111714286D01*
X169761905Y-111523810D01*
X169761905Y-111380952D01*
X169714286Y-111190476D01*
X169666667Y-111095238D01*
X169571429Y-111000000D01*
X169428571Y-110952381D01*
X169333333Y-110952381D01*
X169190476Y-111000000D01*
X169142857Y-111047619D01*
X168238095Y-110952381D02*
X168714286Y-110952381D01*
X168761905Y-111428571D01*
X168714286Y-111380952D01*
X168619048Y-111333333D01*
X168380952Y-111333333D01*
X168285714Y-111380952D01*
X168238095Y-111428571D01*
X168190476Y-111523810D01*
X168190476Y-111761905D01*
X168238095Y-111857143D01*
X168285714Y-111904762D01*
X168380952Y-111952381D01*
X168619048Y-111952381D01*
X168714286Y-111904762D01*
X168761905Y-111857143D01*
X167333333Y-110952381D02*
X167523810Y-110952381D01*
X167619048Y-111000000D01*
X167666667Y-111047619D01*
X167761905Y-111190476D01*
X167809524Y-111380952D01*
X167809524Y-111761905D01*
X167761905Y-111857143D01*
X167714286Y-111904762D01*
X167619048Y-111952381D01*
X167428571Y-111952381D01*
X167333333Y-111904762D01*
X167285714Y-111857143D01*
X167238095Y-111761905D01*
X167238095Y-111523810D01*
X167285714Y-111428571D01*
X167333333Y-111380952D01*
X167428571Y-111333333D01*
X167619048Y-111333333D01*
X167714286Y-111380952D01*
X167761905Y-111428571D01*
X167809524Y-111523810D01*
X181142857Y-138357143D02*
X181190476Y-138404762D01*
X181333333Y-138452381D01*
X181428571Y-138452381D01*
X181571429Y-138404762D01*
X181666667Y-138309524D01*
X181714286Y-138214286D01*
X181761905Y-138023810D01*
X181761905Y-137880952D01*
X181714286Y-137690476D01*
X181666667Y-137595238D01*
X181571429Y-137500000D01*
X181428571Y-137452381D01*
X181333333Y-137452381D01*
X181190476Y-137500000D01*
X181142857Y-137547619D01*
X180238095Y-137452381D02*
X180714286Y-137452381D01*
X180761905Y-137928571D01*
X180714286Y-137880952D01*
X180619048Y-137833333D01*
X180380952Y-137833333D01*
X180285714Y-137880952D01*
X180238095Y-137928571D01*
X180190476Y-138023810D01*
X180190476Y-138261905D01*
X180238095Y-138357143D01*
X180285714Y-138404762D01*
X180380952Y-138452381D01*
X180619048Y-138452381D01*
X180714286Y-138404762D01*
X180761905Y-138357143D01*
X179857143Y-137452381D02*
X179190476Y-137452381D01*
X179619048Y-138452381D01*
X181642857Y-130357143D02*
X181690476Y-130404762D01*
X181833333Y-130452381D01*
X181928571Y-130452381D01*
X182071429Y-130404762D01*
X182166667Y-130309524D01*
X182214286Y-130214286D01*
X182261905Y-130023810D01*
X182261905Y-129880952D01*
X182214286Y-129690476D01*
X182166667Y-129595238D01*
X182071429Y-129500000D01*
X181928571Y-129452381D01*
X181833333Y-129452381D01*
X181690476Y-129500000D01*
X181642857Y-129547619D01*
X180738095Y-129452381D02*
X181214286Y-129452381D01*
X181261905Y-129928571D01*
X181214286Y-129880952D01*
X181119048Y-129833333D01*
X180880952Y-129833333D01*
X180785714Y-129880952D01*
X180738095Y-129928571D01*
X180690476Y-130023810D01*
X180690476Y-130261905D01*
X180738095Y-130357143D01*
X180785714Y-130404762D01*
X180880952Y-130452381D01*
X181119048Y-130452381D01*
X181214286Y-130404762D01*
X181261905Y-130357143D01*
X180119048Y-129880952D02*
X180214286Y-129833333D01*
X180261905Y-129785714D01*
X180309524Y-129690476D01*
X180309524Y-129642857D01*
X180261905Y-129547619D01*
X180214286Y-129500000D01*
X180119048Y-129452381D01*
X179928571Y-129452381D01*
X179833333Y-129500000D01*
X179785714Y-129547619D01*
X179738095Y-129642857D01*
X179738095Y-129690476D01*
X179785714Y-129785714D01*
X179833333Y-129833333D01*
X179928571Y-129880952D01*
X180119048Y-129880952D01*
X180214286Y-129928571D01*
X180261905Y-129976190D01*
X180309524Y-130071429D01*
X180309524Y-130261905D01*
X180261905Y-130357143D01*
X180214286Y-130404762D01*
X180119048Y-130452381D01*
X179928571Y-130452381D01*
X179833333Y-130404762D01*
X179785714Y-130357143D01*
X179738095Y-130261905D01*
X179738095Y-130071429D01*
X179785714Y-129976190D01*
X179833333Y-129928571D01*
X179928571Y-129880952D01*
X172642857Y-111857143D02*
X172690476Y-111904762D01*
X172833333Y-111952381D01*
X172928571Y-111952381D01*
X173071429Y-111904762D01*
X173166667Y-111809524D01*
X173214286Y-111714286D01*
X173261905Y-111523810D01*
X173261905Y-111380952D01*
X173214286Y-111190476D01*
X173166667Y-111095238D01*
X173071429Y-111000000D01*
X172928571Y-110952381D01*
X172833333Y-110952381D01*
X172690476Y-111000000D01*
X172642857Y-111047619D01*
X171738095Y-110952381D02*
X172214286Y-110952381D01*
X172261905Y-111428571D01*
X172214286Y-111380952D01*
X172119048Y-111333333D01*
X171880952Y-111333333D01*
X171785714Y-111380952D01*
X171738095Y-111428571D01*
X171690476Y-111523810D01*
X171690476Y-111761905D01*
X171738095Y-111857143D01*
X171785714Y-111904762D01*
X171880952Y-111952381D01*
X172119048Y-111952381D01*
X172214286Y-111904762D01*
X172261905Y-111857143D01*
X171214286Y-111952381D02*
X171023810Y-111952381D01*
X170928571Y-111904762D01*
X170880952Y-111857143D01*
X170785714Y-111714286D01*
X170738095Y-111523810D01*
X170738095Y-111142857D01*
X170785714Y-111047619D01*
X170833333Y-111000000D01*
X170928571Y-110952381D01*
X171119048Y-110952381D01*
X171214286Y-111000000D01*
X171261905Y-111047619D01*
X171309524Y-111142857D01*
X171309524Y-111380952D01*
X171261905Y-111476190D01*
X171214286Y-111523810D01*
X171119048Y-111571429D01*
X170928571Y-111571429D01*
X170833333Y-111523810D01*
X170785714Y-111476190D01*
X170738095Y-111380952D01*
X159142857Y-138357143D02*
X159190476Y-138404762D01*
X159333333Y-138452381D01*
X159428571Y-138452381D01*
X159571429Y-138404762D01*
X159666667Y-138309524D01*
X159714286Y-138214286D01*
X159761905Y-138023810D01*
X159761905Y-137880952D01*
X159714286Y-137690476D01*
X159666667Y-137595238D01*
X159571429Y-137500000D01*
X159428571Y-137452381D01*
X159333333Y-137452381D01*
X159190476Y-137500000D01*
X159142857Y-137547619D01*
X158285714Y-137452381D02*
X158476191Y-137452381D01*
X158571429Y-137500000D01*
X158619048Y-137547619D01*
X158714286Y-137690476D01*
X158761905Y-137880952D01*
X158761905Y-138261905D01*
X158714286Y-138357143D01*
X158666667Y-138404762D01*
X158571429Y-138452381D01*
X158380952Y-138452381D01*
X158285714Y-138404762D01*
X158238095Y-138357143D01*
X158190476Y-138261905D01*
X158190476Y-138023810D01*
X158238095Y-137928571D01*
X158285714Y-137880952D01*
X158380952Y-137833333D01*
X158571429Y-137833333D01*
X158666667Y-137880952D01*
X158714286Y-137928571D01*
X158761905Y-138023810D01*
X157571429Y-137452381D02*
X157476190Y-137452381D01*
X157380952Y-137500000D01*
X157333333Y-137547619D01*
X157285714Y-137642857D01*
X157238095Y-137833333D01*
X157238095Y-138071429D01*
X157285714Y-138261905D01*
X157333333Y-138357143D01*
X157380952Y-138404762D01*
X157476190Y-138452381D01*
X157571429Y-138452381D01*
X157666667Y-138404762D01*
X157714286Y-138357143D01*
X157761905Y-138261905D01*
X157809524Y-138071429D01*
X157809524Y-137833333D01*
X157761905Y-137642857D01*
X157714286Y-137547619D01*
X157666667Y-137500000D01*
X157571429Y-137452381D01*
X183642857Y-126357143D02*
X183690476Y-126404762D01*
X183833333Y-126452381D01*
X183928571Y-126452381D01*
X184071429Y-126404762D01*
X184166667Y-126309524D01*
X184214286Y-126214286D01*
X184261905Y-126023810D01*
X184261905Y-125880952D01*
X184214286Y-125690476D01*
X184166667Y-125595238D01*
X184071429Y-125500000D01*
X183928571Y-125452381D01*
X183833333Y-125452381D01*
X183690476Y-125500000D01*
X183642857Y-125547619D01*
X182785714Y-125452381D02*
X182976191Y-125452381D01*
X183071429Y-125500000D01*
X183119048Y-125547619D01*
X183214286Y-125690476D01*
X183261905Y-125880952D01*
X183261905Y-126261905D01*
X183214286Y-126357143D01*
X183166667Y-126404762D01*
X183071429Y-126452381D01*
X182880952Y-126452381D01*
X182785714Y-126404762D01*
X182738095Y-126357143D01*
X182690476Y-126261905D01*
X182690476Y-126023810D01*
X182738095Y-125928571D01*
X182785714Y-125880952D01*
X182880952Y-125833333D01*
X183071429Y-125833333D01*
X183166667Y-125880952D01*
X183214286Y-125928571D01*
X183261905Y-126023810D01*
X181738095Y-126452381D02*
X182309524Y-126452381D01*
X182023810Y-126452381D02*
X182023810Y-125452381D01*
X182119048Y-125595238D01*
X182214286Y-125690476D01*
X182309524Y-125738095D01*
X183642857Y-116857143D02*
X183690476Y-116904762D01*
X183833333Y-116952381D01*
X183928571Y-116952381D01*
X184071429Y-116904762D01*
X184166667Y-116809524D01*
X184214286Y-116714286D01*
X184261905Y-116523810D01*
X184261905Y-116380952D01*
X184214286Y-116190476D01*
X184166667Y-116095238D01*
X184071429Y-116000000D01*
X183928571Y-115952381D01*
X183833333Y-115952381D01*
X183690476Y-116000000D01*
X183642857Y-116047619D01*
X182785714Y-115952381D02*
X182976191Y-115952381D01*
X183071429Y-116000000D01*
X183119048Y-116047619D01*
X183214286Y-116190476D01*
X183261905Y-116380952D01*
X183261905Y-116761905D01*
X183214286Y-116857143D01*
X183166667Y-116904762D01*
X183071429Y-116952381D01*
X182880952Y-116952381D01*
X182785714Y-116904762D01*
X182738095Y-116857143D01*
X182690476Y-116761905D01*
X182690476Y-116523810D01*
X182738095Y-116428571D01*
X182785714Y-116380952D01*
X182880952Y-116333333D01*
X183071429Y-116333333D01*
X183166667Y-116380952D01*
X183214286Y-116428571D01*
X183261905Y-116523810D01*
X182309524Y-116047619D02*
X182261905Y-116000000D01*
X182166667Y-115952381D01*
X181928571Y-115952381D01*
X181833333Y-116000000D01*
X181785714Y-116047619D01*
X181738095Y-116142857D01*
X181738095Y-116238095D01*
X181785714Y-116380952D01*
X182357143Y-116952381D01*
X181738095Y-116952381D01*
X180642857Y-111857143D02*
X180690476Y-111904762D01*
X180833333Y-111952381D01*
X180928571Y-111952381D01*
X181071429Y-111904762D01*
X181166667Y-111809524D01*
X181214286Y-111714286D01*
X181261905Y-111523810D01*
X181261905Y-111380952D01*
X181214286Y-111190476D01*
X181166667Y-111095238D01*
X181071429Y-111000000D01*
X180928571Y-110952381D01*
X180833333Y-110952381D01*
X180690476Y-111000000D01*
X180642857Y-111047619D01*
X179785714Y-110952381D02*
X179976191Y-110952381D01*
X180071429Y-111000000D01*
X180119048Y-111047619D01*
X180214286Y-111190476D01*
X180261905Y-111380952D01*
X180261905Y-111761905D01*
X180214286Y-111857143D01*
X180166667Y-111904762D01*
X180071429Y-111952381D01*
X179880952Y-111952381D01*
X179785714Y-111904762D01*
X179738095Y-111857143D01*
X179690476Y-111761905D01*
X179690476Y-111523810D01*
X179738095Y-111428571D01*
X179785714Y-111380952D01*
X179880952Y-111333333D01*
X180071429Y-111333333D01*
X180166667Y-111380952D01*
X180214286Y-111428571D01*
X180261905Y-111523810D01*
X179357143Y-110952381D02*
X178738095Y-110952381D01*
X179071429Y-111333333D01*
X178928571Y-111333333D01*
X178833333Y-111380952D01*
X178785714Y-111428571D01*
X178738095Y-111523810D01*
X178738095Y-111761905D01*
X178785714Y-111857143D01*
X178833333Y-111904762D01*
X178928571Y-111952381D01*
X179214286Y-111952381D01*
X179309524Y-111904762D01*
X179357143Y-111857143D01*
X157792857Y-146057143D02*
X157840476Y-146104762D01*
X157983333Y-146152381D01*
X158078571Y-146152381D01*
X158221429Y-146104762D01*
X158316667Y-146009524D01*
X158364286Y-145914286D01*
X158411905Y-145723810D01*
X158411905Y-145580952D01*
X158364286Y-145390476D01*
X158316667Y-145295238D01*
X158221429Y-145200000D01*
X158078571Y-145152381D01*
X157983333Y-145152381D01*
X157840476Y-145200000D01*
X157792857Y-145247619D01*
X156935714Y-145152381D02*
X157126191Y-145152381D01*
X157221429Y-145200000D01*
X157269048Y-145247619D01*
X157364286Y-145390476D01*
X157411905Y-145580952D01*
X157411905Y-145961905D01*
X157364286Y-146057143D01*
X157316667Y-146104762D01*
X157221429Y-146152381D01*
X157030952Y-146152381D01*
X156935714Y-146104762D01*
X156888095Y-146057143D01*
X156840476Y-145961905D01*
X156840476Y-145723810D01*
X156888095Y-145628571D01*
X156935714Y-145580952D01*
X157030952Y-145533333D01*
X157221429Y-145533333D01*
X157316667Y-145580952D01*
X157364286Y-145628571D01*
X157411905Y-145723810D01*
X155983333Y-145485714D02*
X155983333Y-146152381D01*
X156221429Y-145104762D02*
X156459524Y-145819048D01*
X155840476Y-145819048D01*
X183642857Y-134857143D02*
X183690476Y-134904762D01*
X183833333Y-134952381D01*
X183928571Y-134952381D01*
X184071429Y-134904762D01*
X184166667Y-134809524D01*
X184214286Y-134714286D01*
X184261905Y-134523810D01*
X184261905Y-134380952D01*
X184214286Y-134190476D01*
X184166667Y-134095238D01*
X184071429Y-134000000D01*
X183928571Y-133952381D01*
X183833333Y-133952381D01*
X183690476Y-134000000D01*
X183642857Y-134047619D01*
X182785714Y-133952381D02*
X182976191Y-133952381D01*
X183071429Y-134000000D01*
X183119048Y-134047619D01*
X183214286Y-134190476D01*
X183261905Y-134380952D01*
X183261905Y-134761905D01*
X183214286Y-134857143D01*
X183166667Y-134904762D01*
X183071429Y-134952381D01*
X182880952Y-134952381D01*
X182785714Y-134904762D01*
X182738095Y-134857143D01*
X182690476Y-134761905D01*
X182690476Y-134523810D01*
X182738095Y-134428571D01*
X182785714Y-134380952D01*
X182880952Y-134333333D01*
X183071429Y-134333333D01*
X183166667Y-134380952D01*
X183214286Y-134428571D01*
X183261905Y-134523810D01*
X181785714Y-133952381D02*
X182261905Y-133952381D01*
X182309524Y-134428571D01*
X182261905Y-134380952D01*
X182166667Y-134333333D01*
X181928571Y-134333333D01*
X181833333Y-134380952D01*
X181785714Y-134428571D01*
X181738095Y-134523810D01*
X181738095Y-134761905D01*
X181785714Y-134857143D01*
X181833333Y-134904762D01*
X181928571Y-134952381D01*
X182166667Y-134952381D01*
X182261905Y-134904762D01*
X182309524Y-134857143D01*
X178642857Y-109357143D02*
X178690476Y-109404762D01*
X178833333Y-109452381D01*
X178928571Y-109452381D01*
X179071429Y-109404762D01*
X179166667Y-109309524D01*
X179214286Y-109214286D01*
X179261905Y-109023810D01*
X179261905Y-108880952D01*
X179214286Y-108690476D01*
X179166667Y-108595238D01*
X179071429Y-108500000D01*
X178928571Y-108452381D01*
X178833333Y-108452381D01*
X178690476Y-108500000D01*
X178642857Y-108547619D01*
X177785714Y-108452381D02*
X177976191Y-108452381D01*
X178071429Y-108500000D01*
X178119048Y-108547619D01*
X178214286Y-108690476D01*
X178261905Y-108880952D01*
X178261905Y-109261905D01*
X178214286Y-109357143D01*
X178166667Y-109404762D01*
X178071429Y-109452381D01*
X177880952Y-109452381D01*
X177785714Y-109404762D01*
X177738095Y-109357143D01*
X177690476Y-109261905D01*
X177690476Y-109023810D01*
X177738095Y-108928571D01*
X177785714Y-108880952D01*
X177880952Y-108833333D01*
X178071429Y-108833333D01*
X178166667Y-108880952D01*
X178214286Y-108928571D01*
X178261905Y-109023810D01*
X176833333Y-108452381D02*
X177023810Y-108452381D01*
X177119048Y-108500000D01*
X177166667Y-108547619D01*
X177261905Y-108690476D01*
X177309524Y-108880952D01*
X177309524Y-109261905D01*
X177261905Y-109357143D01*
X177214286Y-109404762D01*
X177119048Y-109452381D01*
X176928571Y-109452381D01*
X176833333Y-109404762D01*
X176785714Y-109357143D01*
X176738095Y-109261905D01*
X176738095Y-109023810D01*
X176785714Y-108928571D01*
X176833333Y-108880952D01*
X176928571Y-108833333D01*
X177119048Y-108833333D01*
X177214286Y-108880952D01*
X177261905Y-108928571D01*
X177309524Y-109023810D01*
X155642857Y-111357143D02*
X155690476Y-111404762D01*
X155833333Y-111452381D01*
X155928571Y-111452381D01*
X156071429Y-111404762D01*
X156166667Y-111309524D01*
X156214286Y-111214286D01*
X156261905Y-111023810D01*
X156261905Y-110880952D01*
X156214286Y-110690476D01*
X156166667Y-110595238D01*
X156071429Y-110500000D01*
X155928571Y-110452381D01*
X155833333Y-110452381D01*
X155690476Y-110500000D01*
X155642857Y-110547619D01*
X154785714Y-110452381D02*
X154976191Y-110452381D01*
X155071429Y-110500000D01*
X155119048Y-110547619D01*
X155214286Y-110690476D01*
X155261905Y-110880952D01*
X155261905Y-111261905D01*
X155214286Y-111357143D01*
X155166667Y-111404762D01*
X155071429Y-111452381D01*
X154880952Y-111452381D01*
X154785714Y-111404762D01*
X154738095Y-111357143D01*
X154690476Y-111261905D01*
X154690476Y-111023810D01*
X154738095Y-110928571D01*
X154785714Y-110880952D01*
X154880952Y-110833333D01*
X155071429Y-110833333D01*
X155166667Y-110880952D01*
X155214286Y-110928571D01*
X155261905Y-111023810D01*
X154357143Y-110452381D02*
X153690476Y-110452381D01*
X154119048Y-111452381D01*
X173142857Y-136357143D02*
X173190476Y-136404762D01*
X173333333Y-136452381D01*
X173428571Y-136452381D01*
X173571429Y-136404762D01*
X173666667Y-136309524D01*
X173714286Y-136214286D01*
X173761905Y-136023810D01*
X173761905Y-135880952D01*
X173714286Y-135690476D01*
X173666667Y-135595238D01*
X173571429Y-135500000D01*
X173428571Y-135452381D01*
X173333333Y-135452381D01*
X173190476Y-135500000D01*
X173142857Y-135547619D01*
X172285714Y-135452381D02*
X172476191Y-135452381D01*
X172571429Y-135500000D01*
X172619048Y-135547619D01*
X172714286Y-135690476D01*
X172761905Y-135880952D01*
X172761905Y-136261905D01*
X172714286Y-136357143D01*
X172666667Y-136404762D01*
X172571429Y-136452381D01*
X172380952Y-136452381D01*
X172285714Y-136404762D01*
X172238095Y-136357143D01*
X172190476Y-136261905D01*
X172190476Y-136023810D01*
X172238095Y-135928571D01*
X172285714Y-135880952D01*
X172380952Y-135833333D01*
X172571429Y-135833333D01*
X172666667Y-135880952D01*
X172714286Y-135928571D01*
X172761905Y-136023810D01*
X171619048Y-135880952D02*
X171714286Y-135833333D01*
X171761905Y-135785714D01*
X171809524Y-135690476D01*
X171809524Y-135642857D01*
X171761905Y-135547619D01*
X171714286Y-135500000D01*
X171619048Y-135452381D01*
X171428571Y-135452381D01*
X171333333Y-135500000D01*
X171285714Y-135547619D01*
X171238095Y-135642857D01*
X171238095Y-135690476D01*
X171285714Y-135785714D01*
X171333333Y-135833333D01*
X171428571Y-135880952D01*
X171619048Y-135880952D01*
X171714286Y-135928571D01*
X171761905Y-135976190D01*
X171809524Y-136071429D01*
X171809524Y-136261905D01*
X171761905Y-136357143D01*
X171714286Y-136404762D01*
X171619048Y-136452381D01*
X171428571Y-136452381D01*
X171333333Y-136404762D01*
X171285714Y-136357143D01*
X171238095Y-136261905D01*
X171238095Y-136071429D01*
X171285714Y-135976190D01*
X171333333Y-135928571D01*
X171428571Y-135880952D01*
X162392857Y-147407143D02*
X162440476Y-147454762D01*
X162583333Y-147502381D01*
X162678571Y-147502381D01*
X162821429Y-147454762D01*
X162916667Y-147359524D01*
X162964286Y-147264286D01*
X163011905Y-147073810D01*
X163011905Y-146930952D01*
X162964286Y-146740476D01*
X162916667Y-146645238D01*
X162821429Y-146550000D01*
X162678571Y-146502381D01*
X162583333Y-146502381D01*
X162440476Y-146550000D01*
X162392857Y-146597619D01*
X161535714Y-146502381D02*
X161726191Y-146502381D01*
X161821429Y-146550000D01*
X161869048Y-146597619D01*
X161964286Y-146740476D01*
X162011905Y-146930952D01*
X162011905Y-147311905D01*
X161964286Y-147407143D01*
X161916667Y-147454762D01*
X161821429Y-147502381D01*
X161630952Y-147502381D01*
X161535714Y-147454762D01*
X161488095Y-147407143D01*
X161440476Y-147311905D01*
X161440476Y-147073810D01*
X161488095Y-146978571D01*
X161535714Y-146930952D01*
X161630952Y-146883333D01*
X161821429Y-146883333D01*
X161916667Y-146930952D01*
X161964286Y-146978571D01*
X162011905Y-147073810D01*
X160964286Y-147502381D02*
X160773810Y-147502381D01*
X160678571Y-147454762D01*
X160630952Y-147407143D01*
X160535714Y-147264286D01*
X160488095Y-147073810D01*
X160488095Y-146692857D01*
X160535714Y-146597619D01*
X160583333Y-146550000D01*
X160678571Y-146502381D01*
X160869048Y-146502381D01*
X160964286Y-146550000D01*
X161011905Y-146597619D01*
X161059524Y-146692857D01*
X161059524Y-146930952D01*
X161011905Y-147026190D01*
X160964286Y-147073810D01*
X160869048Y-147121429D01*
X160678571Y-147121429D01*
X160583333Y-147073810D01*
X160535714Y-147026190D01*
X160488095Y-146930952D01*
X173642857Y-113857143D02*
X173690476Y-113904762D01*
X173833333Y-113952381D01*
X173928571Y-113952381D01*
X174071429Y-113904762D01*
X174166667Y-113809524D01*
X174214286Y-113714286D01*
X174261905Y-113523810D01*
X174261905Y-113380952D01*
X174214286Y-113190476D01*
X174166667Y-113095238D01*
X174071429Y-113000000D01*
X173928571Y-112952381D01*
X173833333Y-112952381D01*
X173690476Y-113000000D01*
X173642857Y-113047619D01*
X173309524Y-112952381D02*
X172642857Y-112952381D01*
X173071429Y-113952381D01*
X172071429Y-112952381D02*
X171976190Y-112952381D01*
X171880952Y-113000000D01*
X171833333Y-113047619D01*
X171785714Y-113142857D01*
X171738095Y-113333333D01*
X171738095Y-113571429D01*
X171785714Y-113761905D01*
X171833333Y-113857143D01*
X171880952Y-113904762D01*
X171976190Y-113952381D01*
X172071429Y-113952381D01*
X172166667Y-113904762D01*
X172214286Y-113857143D01*
X172261905Y-113761905D01*
X172309524Y-113571429D01*
X172309524Y-113333333D01*
X172261905Y-113142857D01*
X172214286Y-113047619D01*
X172166667Y-113000000D01*
X172071429Y-112952381D01*
X141142857Y-143357143D02*
X141190476Y-143404762D01*
X141333333Y-143452381D01*
X141428571Y-143452381D01*
X141571429Y-143404762D01*
X141666667Y-143309524D01*
X141714286Y-143214286D01*
X141761905Y-143023810D01*
X141761905Y-142880952D01*
X141714286Y-142690476D01*
X141666667Y-142595238D01*
X141571429Y-142500000D01*
X141428571Y-142452381D01*
X141333333Y-142452381D01*
X141190476Y-142500000D01*
X141142857Y-142547619D01*
X140809524Y-142452381D02*
X140142857Y-142452381D01*
X140571429Y-143452381D01*
X139238095Y-143452381D02*
X139809524Y-143452381D01*
X139523810Y-143452381D02*
X139523810Y-142452381D01*
X139619048Y-142595238D01*
X139714286Y-142690476D01*
X139809524Y-142738095D01*
X135642857Y-93452381D02*
X135976191Y-92976190D01*
X136214286Y-93452381D02*
X136214286Y-92452381D01*
X135833333Y-92452381D01*
X135738095Y-92500000D01*
X135690476Y-92547619D01*
X135642857Y-92642857D01*
X135642857Y-92785714D01*
X135690476Y-92880952D01*
X135738095Y-92928571D01*
X135833333Y-92976190D01*
X136214286Y-92976190D01*
X135309524Y-92452381D02*
X134690476Y-92452381D01*
X135023810Y-92833333D01*
X134880952Y-92833333D01*
X134785714Y-92880952D01*
X134738095Y-92928571D01*
X134690476Y-93023810D01*
X134690476Y-93261905D01*
X134738095Y-93357143D01*
X134785714Y-93404762D01*
X134880952Y-93452381D01*
X135166667Y-93452381D01*
X135261905Y-93404762D01*
X135309524Y-93357143D01*
X133833333Y-92785714D02*
X133833333Y-93452381D01*
X134071429Y-92404762D02*
X134309524Y-93119048D01*
X133690476Y-93119048D01*
X108742857Y-93852381D02*
X109076191Y-93376190D01*
X109314286Y-93852381D02*
X109314286Y-92852381D01*
X108933333Y-92852381D01*
X108838095Y-92900000D01*
X108790476Y-92947619D01*
X108742857Y-93042857D01*
X108742857Y-93185714D01*
X108790476Y-93280952D01*
X108838095Y-93328571D01*
X108933333Y-93376190D01*
X109314286Y-93376190D01*
X108409524Y-92852381D02*
X107790476Y-92852381D01*
X108123810Y-93233333D01*
X107980952Y-93233333D01*
X107885714Y-93280952D01*
X107838095Y-93328571D01*
X107790476Y-93423810D01*
X107790476Y-93661905D01*
X107838095Y-93757143D01*
X107885714Y-93804762D01*
X107980952Y-93852381D01*
X108266667Y-93852381D01*
X108361905Y-93804762D01*
X108409524Y-93757143D01*
X106885714Y-92852381D02*
X107361905Y-92852381D01*
X107409524Y-93328571D01*
X107361905Y-93280952D01*
X107266667Y-93233333D01*
X107028571Y-93233333D01*
X106933333Y-93280952D01*
X106885714Y-93328571D01*
X106838095Y-93423810D01*
X106838095Y-93661905D01*
X106885714Y-93757143D01*
X106933333Y-93804762D01*
X107028571Y-93852381D01*
X107266667Y-93852381D01*
X107361905Y-93804762D01*
X107409524Y-93757143D01*
X137642857Y-81952381D02*
X137976191Y-81476190D01*
X138214286Y-81952381D02*
X138214286Y-80952381D01*
X137833333Y-80952381D01*
X137738095Y-81000000D01*
X137690476Y-81047619D01*
X137642857Y-81142857D01*
X137642857Y-81285714D01*
X137690476Y-81380952D01*
X137738095Y-81428571D01*
X137833333Y-81476190D01*
X138214286Y-81476190D01*
X137309524Y-80952381D02*
X136690476Y-80952381D01*
X137023810Y-81333333D01*
X136880952Y-81333333D01*
X136785714Y-81380952D01*
X136738095Y-81428571D01*
X136690476Y-81523810D01*
X136690476Y-81761905D01*
X136738095Y-81857143D01*
X136785714Y-81904762D01*
X136880952Y-81952381D01*
X137166667Y-81952381D01*
X137261905Y-81904762D01*
X137309524Y-81857143D01*
X135833333Y-80952381D02*
X136023810Y-80952381D01*
X136119048Y-81000000D01*
X136166667Y-81047619D01*
X136261905Y-81190476D01*
X136309524Y-81380952D01*
X136309524Y-81761905D01*
X136261905Y-81857143D01*
X136214286Y-81904762D01*
X136119048Y-81952381D01*
X135928571Y-81952381D01*
X135833333Y-81904762D01*
X135785714Y-81857143D01*
X135738095Y-81761905D01*
X135738095Y-81523810D01*
X135785714Y-81428571D01*
X135833333Y-81380952D01*
X135928571Y-81333333D01*
X136119048Y-81333333D01*
X136214286Y-81380952D01*
X136261905Y-81428571D01*
X136309524Y-81523810D01*
M02*
