G04 #@! TF.FileFunction,Copper,L4,Bot,Signal*
%FSLAX46Y46*%
G04 Gerber Fmt 4.6, Leading zero omitted, Abs format (unit mm)*
G04 Created by KiCad (PCBNEW 0.201602281447+6595~42~ubuntu14.04.1-product) date tor  3 mar 2016 23:28:03*
%MOMM*%
G01*
G04 APERTURE LIST*
%ADD10C,0.100000*%
%ADD11C,5.000000*%
%ADD12R,1.727200X1.727200*%
%ADD13O,1.727200X1.727200*%
%ADD14R,0.300000X1.250000*%
%ADD15R,2.000000X3.000000*%
%ADD16R,1.800860X0.800100*%
%ADD17R,2.032000X1.727200*%
%ADD18O,2.032000X1.727200*%
%ADD19R,1.727200X2.032000*%
%ADD20O,1.727200X2.032000*%
%ADD21R,1.300000X1.500000*%
%ADD22R,1.500000X1.300000*%
%ADD23R,1.300000X0.700000*%
%ADD24R,1.250000X1.500000*%
%ADD25R,1.500000X1.250000*%
%ADD26C,0.600000*%
%ADD27C,0.304800*%
%ADD28C,0.165100*%
%ADD29C,0.609600*%
G04 APERTURE END LIST*
D10*
D11*
X115000000Y-146000000D03*
X181000000Y-70000000D03*
D12*
X108600000Y-143800000D03*
D13*
X108600000Y-146340000D03*
X106060000Y-143800000D03*
X106060000Y-146340000D03*
X103520000Y-143800000D03*
X103520000Y-146340000D03*
X100980000Y-143800000D03*
X100980000Y-146340000D03*
X98440000Y-143800000D03*
X98440000Y-146340000D03*
D12*
X135180000Y-143800000D03*
D13*
X135180000Y-146340000D03*
X132640000Y-143800000D03*
X132640000Y-146340000D03*
X130100000Y-143800000D03*
X130100000Y-146340000D03*
X127560000Y-143800000D03*
X127560000Y-146340000D03*
X125020000Y-143800000D03*
X125020000Y-146340000D03*
D14*
X104190000Y-84175000D03*
X104690000Y-84175000D03*
X105190000Y-84175000D03*
X105690000Y-84175000D03*
X106190000Y-84175000D03*
X106690000Y-84175000D03*
X107190000Y-84175000D03*
X107690000Y-84175000D03*
X108190000Y-84175000D03*
X108690000Y-84175000D03*
X109190000Y-84175000D03*
X109690000Y-84175000D03*
X110190000Y-84175000D03*
X110690000Y-84175000D03*
X111190000Y-84175000D03*
X111690000Y-84175000D03*
X112190000Y-84175000D03*
X112690000Y-84175000D03*
X113190000Y-84175000D03*
X113690000Y-84175000D03*
X114190000Y-84175000D03*
X114690000Y-84175000D03*
X115190000Y-84175000D03*
X115690000Y-84175000D03*
X116190000Y-84175000D03*
X116690000Y-84175000D03*
X117190000Y-84175000D03*
X117690000Y-84175000D03*
X118190000Y-84175000D03*
X118690000Y-84175000D03*
X119190000Y-84175000D03*
X119690000Y-84175000D03*
X120190000Y-84175000D03*
X120690000Y-84175000D03*
X121190000Y-84175000D03*
X121690000Y-84175000D03*
X122190000Y-84175000D03*
X122690000Y-84175000D03*
X123190000Y-84175000D03*
X123690000Y-84175000D03*
D15*
X125230000Y-86500000D03*
X102650000Y-86500000D03*
D16*
X98401140Y-88750000D03*
X98401140Y-90650000D03*
X95398860Y-89700000D03*
X95398860Y-87350000D03*
X95398860Y-85450000D03*
X98401140Y-86400000D03*
D17*
X87630000Y-124460000D03*
D18*
X87630000Y-121920000D03*
X87630000Y-119380000D03*
X87630000Y-116840000D03*
D17*
X87630000Y-137160000D03*
D18*
X87630000Y-134620000D03*
X87630000Y-132080000D03*
X87630000Y-129540000D03*
D17*
X87630000Y-101600000D03*
D18*
X87630000Y-99060000D03*
X87630000Y-96520000D03*
X87630000Y-93980000D03*
X87630000Y-91440000D03*
X87630000Y-88900000D03*
X87630000Y-86360000D03*
X87630000Y-83820000D03*
X87630000Y-81280000D03*
X87630000Y-78740000D03*
X87630000Y-76200000D03*
X87630000Y-73660000D03*
X87630000Y-71120000D03*
X87630000Y-68580000D03*
X87630000Y-66040000D03*
X87630000Y-63500000D03*
D19*
X169250000Y-52750000D03*
D20*
X171790000Y-52750000D03*
X174330000Y-52750000D03*
X176870000Y-52750000D03*
X179410000Y-52750000D03*
X181950000Y-52750000D03*
D21*
X95200000Y-83200000D03*
X95200000Y-80500000D03*
D22*
X92850000Y-89700000D03*
X90150000Y-89700000D03*
X95750000Y-92400000D03*
X98450000Y-92400000D03*
D21*
X98000000Y-80450000D03*
X98000000Y-83150000D03*
D17*
X87630000Y-60960000D03*
D18*
X87630000Y-58420000D03*
X87630000Y-55880000D03*
X87630000Y-53340000D03*
D23*
X151500000Y-140700000D03*
X151500000Y-138800000D03*
D16*
X101198860Y-82450000D03*
X101198860Y-80550000D03*
X104201140Y-81500000D03*
D24*
X93950000Y-133200000D03*
X93950000Y-135700000D03*
D25*
X92800000Y-97650000D03*
X95300000Y-97650000D03*
D24*
X125750000Y-55650000D03*
X125750000Y-58150000D03*
X92950000Y-76600000D03*
X92950000Y-74100000D03*
X98250000Y-78100000D03*
X98250000Y-75600000D03*
D25*
X155750000Y-61500000D03*
X158250000Y-61500000D03*
X155500000Y-82300000D03*
X158000000Y-82300000D03*
D24*
X145400000Y-74100000D03*
X145400000Y-71600000D03*
D25*
X157200000Y-76450000D03*
X159700000Y-76450000D03*
X171250000Y-73000000D03*
X173750000Y-73000000D03*
X167000000Y-82200000D03*
X164500000Y-82200000D03*
X171600000Y-94350000D03*
X174100000Y-94350000D03*
D24*
X160600000Y-89150000D03*
X160600000Y-86650000D03*
D25*
X119750000Y-124250000D03*
X117250000Y-124250000D03*
X109050000Y-123450000D03*
X111550000Y-123450000D03*
X122950000Y-69200000D03*
X125450000Y-69200000D03*
X137000000Y-67300000D03*
X134500000Y-67300000D03*
X111950000Y-69200000D03*
X109450000Y-69200000D03*
D24*
X104900000Y-94400000D03*
X104900000Y-96900000D03*
X140450000Y-79400000D03*
X140450000Y-76900000D03*
X140500000Y-86300000D03*
X140500000Y-83800000D03*
D25*
X115400000Y-69250000D03*
X117900000Y-69250000D03*
X113650000Y-107750000D03*
X111150000Y-107750000D03*
X113950000Y-104950000D03*
X116450000Y-104950000D03*
D24*
X104900000Y-76850000D03*
X104900000Y-79350000D03*
X140500000Y-88400000D03*
X140500000Y-90900000D03*
X140500000Y-94200000D03*
X140500000Y-96700000D03*
D25*
X128000000Y-69300000D03*
X130500000Y-69300000D03*
X120450000Y-102350000D03*
X117950000Y-102350000D03*
X135150000Y-69300000D03*
X132650000Y-69300000D03*
X123400000Y-109000000D03*
X125900000Y-109000000D03*
D24*
X137700000Y-97450000D03*
X137700000Y-99950000D03*
D25*
X128500000Y-110800000D03*
X131000000Y-110800000D03*
X146250000Y-107550000D03*
X148750000Y-107550000D03*
D24*
X143250000Y-138450000D03*
X143250000Y-140950000D03*
D25*
X153500000Y-102550000D03*
X156000000Y-102550000D03*
X148000000Y-109250000D03*
X150500000Y-109250000D03*
X143400000Y-135600000D03*
X140900000Y-135600000D03*
X181000000Y-119300000D03*
X178500000Y-119300000D03*
X144600000Y-128850000D03*
X147100000Y-128850000D03*
D24*
X142250000Y-120650000D03*
X142250000Y-118150000D03*
X157800000Y-104050000D03*
X157800000Y-106550000D03*
X160200000Y-108200000D03*
X160200000Y-105700000D03*
D25*
X165350000Y-108150000D03*
X162850000Y-108150000D03*
X147100000Y-126500000D03*
X144600000Y-126500000D03*
X173650000Y-142450000D03*
X176150000Y-142450000D03*
X160500000Y-142950000D03*
X163000000Y-142950000D03*
X144600000Y-122700000D03*
X147100000Y-122700000D03*
X148500000Y-143450000D03*
X151000000Y-143450000D03*
X181000000Y-123250000D03*
X178500000Y-123250000D03*
X170250000Y-142800000D03*
X167750000Y-142800000D03*
D24*
X168600000Y-109000000D03*
X168600000Y-106500000D03*
X177750000Y-139300000D03*
X177750000Y-136800000D03*
X178050000Y-131150000D03*
X178050000Y-128650000D03*
X172050000Y-106500000D03*
X172050000Y-109000000D03*
D25*
X157200000Y-139650000D03*
X159700000Y-139650000D03*
X177850000Y-125800000D03*
X180350000Y-125800000D03*
X180300000Y-116750000D03*
X177800000Y-116750000D03*
D24*
X177800000Y-111250000D03*
X177800000Y-113750000D03*
D25*
X155900000Y-143600000D03*
X158400000Y-143600000D03*
X180350000Y-134250000D03*
X177850000Y-134250000D03*
D24*
X175350000Y-110600000D03*
X175350000Y-108100000D03*
D25*
X149850000Y-110950000D03*
X152350000Y-110950000D03*
D24*
X175250000Y-134650000D03*
X175250000Y-137150000D03*
D25*
X160500000Y-144950000D03*
X163000000Y-144950000D03*
D24*
X175350000Y-115200000D03*
X175350000Y-112700000D03*
X141100000Y-138450000D03*
X141100000Y-140950000D03*
D17*
X87630000Y-114300000D03*
D18*
X87630000Y-111760000D03*
X87630000Y-109220000D03*
X87630000Y-106680000D03*
X87630000Y-104140000D03*
D21*
X137700000Y-92650000D03*
X137700000Y-95350000D03*
D22*
X109450000Y-95500000D03*
X106750000Y-95500000D03*
X135550000Y-79200000D03*
X138250000Y-79200000D03*
D11*
X181000000Y-146000000D03*
D26*
X97100000Y-92400000D03*
X164150000Y-145400000D03*
X160585936Y-141521369D03*
X149750000Y-112040160D03*
X148594127Y-144488157D03*
X139335614Y-90900799D03*
X123400000Y-107950000D03*
X118400000Y-103600000D03*
X159300000Y-77550000D03*
X159400000Y-61600000D03*
X159250000Y-82750000D03*
X174050000Y-95350000D03*
X173800000Y-74050000D03*
X116250000Y-123250000D03*
X112500000Y-124350000D03*
X93950000Y-136850000D03*
X124800000Y-59050000D03*
X99550000Y-75600000D03*
X94156070Y-74101214D03*
X94150000Y-98150000D03*
X175450000Y-63475000D03*
X175500000Y-59800000D03*
X93949996Y-100600000D03*
X108400000Y-67650000D03*
X101350000Y-84402330D03*
X103600000Y-82750000D03*
X108300000Y-86550000D03*
X118500000Y-82600000D03*
X122100000Y-82800000D03*
X114750000Y-78950000D03*
X159350000Y-87200000D03*
X162500000Y-82750000D03*
X103650002Y-89800000D03*
X97650000Y-64100000D03*
X100850000Y-133250000D03*
X133400000Y-109650000D03*
X128450000Y-109700000D03*
X139300000Y-80200000D03*
X115500000Y-67900000D03*
X98350000Y-67900000D03*
X91800000Y-84350000D03*
X151450000Y-138150000D03*
X141950000Y-119500000D03*
X157150000Y-105250000D03*
X159350000Y-91650000D03*
X143350000Y-80450000D03*
X146250000Y-75700000D03*
X153850000Y-78150000D03*
X172900000Y-89500000D03*
X169650000Y-84200000D03*
X181350000Y-79400000D03*
X130400000Y-55450000D03*
X143300000Y-61300000D03*
X146600000Y-71700000D03*
X160750000Y-72100000D03*
X96450000Y-51650000D03*
X91300000Y-89750000D03*
X91550000Y-92500000D03*
X122500000Y-103400000D03*
X139350000Y-97750000D03*
X142750000Y-89600000D03*
X103850000Y-80250000D03*
X176200000Y-143600000D03*
X167550000Y-141350000D03*
X163800000Y-141400000D03*
X156650000Y-144750000D03*
X150000000Y-141250000D03*
X142150000Y-140450000D03*
X142050000Y-136650000D03*
X141300000Y-133900000D03*
X142100000Y-132000000D03*
X141900000Y-127900000D03*
X141950000Y-125400000D03*
X141900000Y-123350000D03*
X142650000Y-105150000D03*
X148150000Y-105950000D03*
X151100000Y-110650000D03*
X153900000Y-111700000D03*
X159250000Y-106900000D03*
X163150000Y-106950000D03*
X161700000Y-94000000D03*
X165750000Y-110250000D03*
X167700000Y-110300000D03*
X172250000Y-110250000D03*
X174200000Y-110150000D03*
X176600000Y-111850000D03*
X179750000Y-115700000D03*
X179700000Y-120300000D03*
X179700000Y-124200000D03*
X179700000Y-126800000D03*
X179600000Y-128750000D03*
X179600000Y-132650000D03*
X179800000Y-135300000D03*
X176500000Y-137200000D03*
X171600000Y-141400000D03*
X172500000Y-148500000D03*
X148300000Y-149200000D03*
X155400000Y-148700000D03*
X138500000Y-68900000D03*
X125400000Y-70500000D03*
X120500000Y-70500000D03*
X106300000Y-97800000D03*
X112500000Y-106100000D03*
X139427919Y-85654061D03*
X118100000Y-123000000D03*
X106400000Y-122600000D03*
X144900000Y-82900000D03*
X130500000Y-70400000D03*
X95500000Y-71400000D03*
X128300000Y-56300000D03*
X139265660Y-88056720D03*
X94747080Y-110782100D03*
X94361000Y-101818440D03*
X152750000Y-101550000D03*
X141650000Y-117050000D03*
X118600000Y-124250000D03*
X136650000Y-100450000D03*
X157000000Y-75400000D03*
X182350000Y-61600000D03*
X182350000Y-59900000D03*
X167550000Y-59800000D03*
X167650000Y-63575000D03*
X94950238Y-99348204D03*
X96047670Y-129900000D03*
X109937261Y-107787261D03*
X142778798Y-77600055D03*
X141850000Y-75900000D03*
X89550000Y-63600000D03*
X91550000Y-98050000D03*
X103400000Y-83700000D03*
X125900000Y-107900000D03*
X130950000Y-109550000D03*
X120750000Y-103550000D03*
X112950000Y-67900000D03*
X157500000Y-144750000D03*
X172700000Y-87000000D03*
X159400000Y-89650000D03*
X153600000Y-72000000D03*
X172800000Y-93850000D03*
X146450000Y-73650000D03*
X156950000Y-61500000D03*
X152900000Y-75750000D03*
X115400000Y-103500000D03*
X139000000Y-93750000D03*
X139350000Y-84250000D03*
X106100000Y-76250000D03*
X106200000Y-93750000D03*
X147550000Y-106750000D03*
X151600000Y-147200000D03*
X100800000Y-127300000D03*
X123000000Y-70400000D03*
X118200000Y-70600000D03*
X127900000Y-70400000D03*
X171100000Y-71900000D03*
X168900000Y-82800000D03*
X156700000Y-82300000D03*
X159300000Y-84400000D03*
X166600000Y-141300000D03*
X173200000Y-141200000D03*
X176200000Y-138900000D03*
X176400000Y-134600000D03*
X176400000Y-130700000D03*
X176300000Y-126400000D03*
X179600000Y-122200000D03*
X179700000Y-118300000D03*
X176400000Y-116000000D03*
X176500000Y-113800000D03*
X174900000Y-106900000D03*
X170900000Y-106800000D03*
X169700000Y-106800000D03*
X165100000Y-106800000D03*
X161200000Y-107000000D03*
X156700000Y-106700000D03*
X148400000Y-111000000D03*
X146900000Y-121600000D03*
X147000000Y-125400000D03*
X146800000Y-130000000D03*
X142200000Y-134600000D03*
X142200000Y-138500000D03*
X151000000Y-144600000D03*
X156000000Y-140800000D03*
X159300000Y-140900000D03*
X96700000Y-138400000D03*
X94800000Y-131700000D03*
X107200000Y-133500000D03*
X107000000Y-137300000D03*
X132500000Y-137500000D03*
X147400000Y-148700000D03*
X160300000Y-147600000D03*
X183600000Y-139400000D03*
X179200000Y-84100000D03*
X92600000Y-78300000D03*
X99400000Y-79600000D03*
X139400000Y-69900000D03*
X133126811Y-70452329D03*
X107364512Y-122913308D03*
X110000000Y-96700000D03*
X141708540Y-97637130D03*
X176229378Y-124805319D03*
X142191755Y-97043918D03*
X176400000Y-123550000D03*
X141624492Y-96478152D03*
X175700000Y-122900000D03*
X141700000Y-98450000D03*
X176550000Y-125500000D03*
X142214417Y-95948596D03*
X176400000Y-121600000D03*
X141518099Y-95380704D03*
X175750000Y-120900000D03*
X142110594Y-94853274D03*
X176500000Y-119650000D03*
X141680370Y-94220579D03*
X175750000Y-119000000D03*
X142164470Y-93628091D03*
X176500000Y-117700000D03*
X142000000Y-92850000D03*
X175950000Y-117050000D03*
X181400000Y-91750000D03*
X168738654Y-91548990D03*
X180750000Y-90550000D03*
X169068865Y-90129177D03*
X180100000Y-89450000D03*
X169316536Y-88909358D03*
X169784898Y-87842159D03*
X179250000Y-88200000D03*
X168408443Y-93276864D03*
X182150000Y-93600000D03*
X149752107Y-93482752D03*
X148092593Y-74552330D03*
X149250000Y-94100000D03*
X147371060Y-76152330D03*
X152400000Y-93450000D03*
X150319668Y-73104679D03*
X150858498Y-93796601D03*
X148700000Y-73247670D03*
X151900000Y-94050000D03*
X149255075Y-72152330D03*
X151300000Y-75447670D03*
X154701392Y-93246751D03*
X153950000Y-93850000D03*
X150600000Y-74200000D03*
X152000000Y-76947670D03*
X155750000Y-93550000D03*
X157650000Y-94000000D03*
X153200000Y-79300000D03*
X156650000Y-93400000D03*
X152600000Y-78100000D03*
X158315340Y-93378551D03*
X153787743Y-80498639D03*
X162624287Y-90452330D03*
X162391600Y-95801120D03*
X159129616Y-93369661D03*
X153787733Y-82098637D03*
X162315106Y-91647670D03*
X161513971Y-95858944D03*
X170800000Y-95550000D03*
X167900021Y-86746829D03*
X169532560Y-96164613D03*
X167100000Y-84100000D03*
X170750000Y-96450000D03*
X168100000Y-85400000D03*
X168350000Y-95850000D03*
X166500000Y-83400000D03*
X167971787Y-96515095D03*
X165812725Y-84759329D03*
X166900000Y-96300000D03*
X165234844Y-85947670D03*
X164900000Y-96150000D03*
X163670244Y-88152330D03*
X165950000Y-96350000D03*
X164632622Y-87253302D03*
X163550000Y-95950000D03*
X162992610Y-89367257D03*
X142613606Y-79172104D03*
X146500000Y-94150000D03*
X148200000Y-93800000D03*
X146800000Y-77247670D03*
X147150000Y-93600000D03*
X146277844Y-78632424D03*
X146050000Y-94999998D03*
X141593008Y-80077908D03*
X130300000Y-89100000D03*
X124532577Y-88858069D03*
X94700000Y-105000000D03*
X135700000Y-70547782D03*
X147734260Y-69247670D03*
X158562254Y-79787746D03*
X146653044Y-67952330D03*
X158550000Y-78950000D03*
X147689530Y-67183998D03*
X158500000Y-77900000D03*
X148710055Y-66644842D03*
X158450000Y-77000000D03*
X158612261Y-75337739D03*
X149539952Y-65710047D03*
X150416924Y-65001973D03*
X158150000Y-74100000D03*
X158000000Y-72900000D03*
X151600000Y-64350000D03*
X158950000Y-72900000D03*
X152250000Y-63300000D03*
X158500000Y-71500000D03*
X153300000Y-62500000D03*
X92200000Y-134250000D03*
X126350000Y-78500000D03*
X95500000Y-138550000D03*
X127250000Y-78500000D03*
X143968695Y-82959246D03*
X138700000Y-82750000D03*
X138141028Y-69669920D03*
X104500000Y-128450000D03*
X100850000Y-134700000D03*
X107750000Y-113050000D03*
X106800000Y-96600000D03*
X126300000Y-121800000D03*
X136100000Y-111500000D03*
X121000000Y-100900000D03*
X146200000Y-141600000D03*
X98350000Y-93700000D03*
X122000000Y-100900000D03*
X153400000Y-141100000D03*
X123000000Y-100900000D03*
X154000000Y-141600000D03*
X124000000Y-100800000D03*
X154700000Y-141100000D03*
X124900000Y-100800000D03*
X155300000Y-141600000D03*
X123294979Y-86568996D03*
X137200000Y-86200000D03*
X142050000Y-69500000D03*
X158550000Y-80600000D03*
X146443331Y-69577881D03*
X125800000Y-100800000D03*
X158600000Y-141700000D03*
X126700000Y-100800000D03*
X161800000Y-141600000D03*
X127600000Y-100800000D03*
X165700000Y-141600000D03*
X128500000Y-100800000D03*
X169600000Y-141200000D03*
X129400000Y-100800000D03*
X170300000Y-141600000D03*
X130200000Y-100800000D03*
X174800000Y-141500000D03*
X176500000Y-139800000D03*
X133476728Y-103223777D03*
X176500000Y-135900000D03*
X134294404Y-103266944D03*
X176500000Y-131900000D03*
X135188238Y-102611762D03*
X176500000Y-133300000D03*
X134300984Y-102499016D03*
X176500000Y-129400000D03*
X135183543Y-101832559D03*
X176000000Y-128100000D03*
X135995298Y-101869805D03*
X176500000Y-127400000D03*
X136000000Y-101100000D03*
X106773980Y-102438200D03*
X91750000Y-101950000D03*
X91750000Y-100250000D03*
X106150000Y-99750000D03*
X92735400Y-100469700D03*
X106450000Y-100700000D03*
X107350002Y-73950000D03*
X107950000Y-75350000D03*
X108600000Y-77050000D03*
X110292026Y-70484889D03*
X110782812Y-71071852D03*
X111402330Y-71520844D03*
X111902330Y-72150000D03*
X112450000Y-72700000D03*
X113387660Y-70483863D03*
X113902330Y-71050000D03*
X114402330Y-71650000D03*
X114950000Y-72300000D03*
X115887660Y-70433863D03*
X116402330Y-71000000D03*
X116902330Y-71600000D03*
X117450000Y-72200000D03*
X107750000Y-56650000D03*
X108500000Y-63200000D03*
X112750000Y-56500000D03*
X112600000Y-63200000D03*
X103150000Y-90800000D03*
X106304080Y-101797660D03*
X106967020Y-98844100D03*
X124200000Y-55400000D03*
X134900000Y-70700000D03*
X94250000Y-62400000D03*
X96773996Y-85536422D03*
X95300000Y-78900000D03*
X106650000Y-91400000D03*
X98450000Y-121650000D03*
X106850000Y-113050000D03*
X99799998Y-135700000D03*
X100150000Y-131900000D03*
X107700000Y-114000000D03*
X125700000Y-121300000D03*
X136000000Y-110700000D03*
X128300000Y-78600000D03*
X102700000Y-138900000D03*
X157300000Y-141526600D03*
X120500000Y-106500000D03*
X136900000Y-143200000D03*
X136900000Y-145650000D03*
X96599998Y-134000000D03*
X151550000Y-139950000D03*
X106834940Y-88140540D03*
X107363260Y-87541100D03*
X125700000Y-88465154D03*
X126900002Y-88100000D03*
X136600000Y-96200000D03*
D27*
X97100000Y-92400000D02*
X98450000Y-92400000D01*
D28*
X139300000Y-80200000D02*
X139250000Y-80200000D01*
X139250000Y-80200000D02*
X138250000Y-79200000D01*
D29*
X156650000Y-144750000D02*
X156650000Y-144350000D01*
X156650000Y-144350000D02*
X155900000Y-143600000D01*
X163000000Y-144950000D02*
X163700000Y-144950000D01*
X163700000Y-144950000D02*
X164150000Y-145400000D01*
X163000000Y-142950000D02*
X163000000Y-142200000D01*
X163000000Y-142200000D02*
X163800000Y-141400000D01*
X163000000Y-142950000D02*
X163000000Y-144950000D01*
D27*
X160754800Y-141352505D02*
X160585936Y-141521369D01*
X159825000Y-139650000D02*
X160754800Y-140579800D01*
X159700000Y-139650000D02*
X159825000Y-139650000D01*
X160754800Y-140579800D02*
X160754800Y-141352505D01*
X150500000Y-109250000D02*
X151100000Y-109850000D01*
X151100000Y-109850000D02*
X151100000Y-110650000D01*
D29*
X153900000Y-111700000D02*
X153100000Y-111700000D01*
X153100000Y-111700000D02*
X152350000Y-110950000D01*
X151100000Y-110650000D02*
X152050000Y-110650000D01*
X152050000Y-110650000D02*
X152350000Y-110950000D01*
X157150000Y-105250000D02*
X157150000Y-103700000D01*
X157150000Y-103700000D02*
X156000000Y-102550000D01*
X176500000Y-137200000D02*
X175300000Y-137200000D01*
X175300000Y-137200000D02*
X175250000Y-137150000D01*
X142150000Y-140450000D02*
X141600000Y-140450000D01*
X141600000Y-140450000D02*
X141100000Y-140950000D01*
X176600000Y-111850000D02*
X176200000Y-111850000D01*
X176200000Y-111850000D02*
X175350000Y-112700000D01*
D27*
X163150000Y-106950000D02*
X163150000Y-107850000D01*
X163150000Y-107850000D02*
X162850000Y-108150000D01*
X167700000Y-110300000D02*
X167700000Y-109900000D01*
X167700000Y-109900000D02*
X168600000Y-109000000D01*
X172050000Y-109000000D02*
X172050000Y-110050000D01*
X172050000Y-110050000D02*
X172250000Y-110250000D01*
X174200000Y-110150000D02*
X174900000Y-110150000D01*
X174900000Y-110150000D02*
X175350000Y-110600000D01*
X159250000Y-106900000D02*
X159250000Y-106650000D01*
X159250000Y-106650000D02*
X160200000Y-105700000D01*
X157150000Y-105250000D02*
X157150000Y-104700000D01*
X157150000Y-104700000D02*
X157800000Y-104050000D01*
X148150000Y-105950000D02*
X148750000Y-106550000D01*
X148750000Y-106550000D02*
X148750000Y-107550000D01*
X141950000Y-119500000D02*
X141950000Y-120350000D01*
X141950000Y-120350000D02*
X142250000Y-120650000D01*
X148594127Y-144488157D02*
X148594127Y-143544127D01*
X148594127Y-143544127D02*
X148500000Y-143450000D01*
X170250000Y-142800000D02*
X170250000Y-142750000D01*
X170250000Y-142750000D02*
X171600000Y-141400000D01*
X176200000Y-143600000D02*
X176200000Y-142500000D01*
X176200000Y-142500000D02*
X176150000Y-142450000D01*
X142150000Y-140450000D02*
X142750000Y-140450000D01*
X142750000Y-140450000D02*
X143250000Y-140950000D01*
X142050000Y-136650000D02*
X142350000Y-136650000D01*
X142350000Y-136650000D02*
X143400000Y-135600000D01*
X144600000Y-128850000D02*
X142850000Y-128850000D01*
X142850000Y-128850000D02*
X141900000Y-127900000D01*
X141950000Y-125400000D02*
X144429800Y-125400000D01*
X144429800Y-125400000D02*
X144600000Y-125570200D01*
X144600000Y-125570200D02*
X144600000Y-126500000D01*
X141900000Y-123350000D02*
X143950000Y-123350000D01*
X143950000Y-123350000D02*
X144600000Y-122700000D01*
X176600000Y-111850000D02*
X177200000Y-111850000D01*
X177200000Y-111850000D02*
X177800000Y-111250000D01*
X179750000Y-115700000D02*
X179750000Y-116200000D01*
X179750000Y-116200000D02*
X180300000Y-116750000D01*
X179700000Y-120300000D02*
X180000000Y-120300000D01*
X180000000Y-120300000D02*
X181000000Y-119300000D01*
X179700000Y-124200000D02*
X180050000Y-124200000D01*
X180050000Y-124200000D02*
X181000000Y-123250000D01*
X180350000Y-125800000D02*
X180350000Y-126150000D01*
X180350000Y-126150000D02*
X179700000Y-126800000D01*
X179600000Y-128750000D02*
X178150000Y-128750000D01*
X178150000Y-128750000D02*
X178050000Y-128650000D01*
X180350000Y-134250000D02*
X180350000Y-134750000D01*
X180350000Y-134750000D02*
X179800000Y-135300000D01*
X176500000Y-137200000D02*
X177350000Y-137200000D01*
X177350000Y-137200000D02*
X177750000Y-136800000D01*
X103850000Y-80250000D02*
X104000000Y-80250000D01*
X104000000Y-80250000D02*
X104900000Y-79350000D01*
X104900000Y-96900000D02*
X105400000Y-96900000D01*
X105400000Y-96900000D02*
X106300000Y-97800000D01*
X108400000Y-67650000D02*
X108400000Y-68150000D01*
X108400000Y-68150000D02*
X109450000Y-69200000D01*
X115400000Y-69250000D02*
X115400000Y-68000000D01*
X115400000Y-68000000D02*
X115500000Y-67900000D01*
X125450000Y-69200000D02*
X125450000Y-70450000D01*
X125450000Y-70450000D02*
X125400000Y-70500000D01*
X130500000Y-69300000D02*
X130500000Y-70400000D01*
D29*
X135550000Y-68900000D02*
X135150000Y-69300000D01*
X138500000Y-68900000D02*
X135550000Y-68900000D01*
D27*
X135150000Y-69300000D02*
X135150000Y-67950000D01*
X135150000Y-67950000D02*
X134500000Y-67300000D01*
X139300000Y-80200000D02*
X139650000Y-80200000D01*
X139650000Y-80200000D02*
X140450000Y-79400000D01*
X139427919Y-85654061D02*
X139854061Y-85654061D01*
X139854061Y-85654061D02*
X140500000Y-86300000D01*
X140500000Y-90900000D02*
X139336413Y-90900000D01*
X139336413Y-90900000D02*
X139335614Y-90900799D01*
X140500000Y-96700000D02*
X140400000Y-96700000D01*
X140400000Y-96700000D02*
X139350000Y-97750000D01*
X139350000Y-97750000D02*
X138000000Y-97750000D01*
X138000000Y-97750000D02*
X137700000Y-97450000D01*
X128450000Y-109700000D02*
X128450000Y-110750000D01*
X128450000Y-110750000D02*
X128500000Y-110800000D01*
X123400000Y-109000000D02*
X123400000Y-107950000D01*
X117950000Y-102350000D02*
X117950000Y-103150000D01*
X117950000Y-103150000D02*
X118400000Y-103600000D01*
X112500000Y-106100000D02*
X112800000Y-106100000D01*
X112800000Y-106100000D02*
X113950000Y-104950000D01*
X112500000Y-106100000D02*
X112500000Y-106600000D01*
X112500000Y-106600000D02*
X113650000Y-107750000D01*
X159700000Y-76450000D02*
X159700000Y-77150000D01*
X159700000Y-77150000D02*
X159300000Y-77550000D01*
X158250000Y-61500000D02*
X159300000Y-61500000D01*
X159300000Y-61500000D02*
X159400000Y-61600000D01*
X158000000Y-82300000D02*
X158800000Y-82300000D01*
X158800000Y-82300000D02*
X159250000Y-82750000D01*
X146600000Y-71700000D02*
X145500000Y-71700000D01*
X145500000Y-71700000D02*
X145400000Y-71600000D01*
X174100000Y-94350000D02*
X174100000Y-95300000D01*
X174100000Y-95300000D02*
X174050000Y-95350000D01*
X173750000Y-73000000D02*
X173750000Y-74000000D01*
X173750000Y-74000000D02*
X173800000Y-74050000D01*
X159350000Y-87200000D02*
X160050000Y-87200000D01*
X160050000Y-87200000D02*
X160600000Y-86650000D01*
X162500000Y-82750000D02*
X163950000Y-82750000D01*
X163950000Y-82750000D02*
X164500000Y-82200000D01*
X117250000Y-124250000D02*
X116250000Y-123250000D01*
X111550000Y-123450000D02*
X111600000Y-123450000D01*
X111600000Y-123450000D02*
X112500000Y-124350000D01*
X93950000Y-135700000D02*
X93950000Y-136850000D01*
X125750000Y-58150000D02*
X125700000Y-58150000D01*
X125700000Y-58150000D02*
X124800000Y-59050000D01*
X98250000Y-75600000D02*
X99550000Y-75600000D01*
X92950000Y-74100000D02*
X94154856Y-74100000D01*
X94154856Y-74100000D02*
X94156070Y-74101214D01*
X95300000Y-97650000D02*
X94650000Y-97650000D01*
X94650000Y-97650000D02*
X94150000Y-98150000D01*
X102357130Y-84402330D02*
X101774264Y-84402330D01*
X101774264Y-84402330D02*
X101350000Y-84402330D01*
X102650000Y-86500000D02*
X102650000Y-84695200D01*
X102650000Y-84695200D02*
X102357130Y-84402330D01*
X105190000Y-84175000D02*
X105190000Y-83290000D01*
X104650000Y-82750000D02*
X103600000Y-82750000D01*
X105190000Y-83290000D02*
X104650000Y-82750000D01*
X110190000Y-84175000D02*
X110190000Y-85510000D01*
X109150000Y-86550000D02*
X108300000Y-86550000D01*
X110190000Y-85510000D02*
X109150000Y-86550000D01*
X107190000Y-84175000D02*
X107190000Y-85440000D01*
X107190000Y-85440000D02*
X108300000Y-86550000D01*
X106190000Y-84175000D02*
X106690000Y-84175000D01*
X106690000Y-84175000D02*
X107190000Y-84175000D01*
X110690000Y-84175000D02*
X110190000Y-84175000D01*
X118190000Y-84175000D02*
X118190000Y-82910000D01*
X118190000Y-82910000D02*
X118500000Y-82600000D01*
X122100000Y-82800000D02*
X123850000Y-82800000D01*
X125230000Y-84180000D02*
X125230000Y-86500000D01*
X123850000Y-82800000D02*
X125230000Y-84180000D01*
X121690000Y-84175000D02*
X121690000Y-83210000D01*
X121690000Y-83210000D02*
X122100000Y-82800000D01*
X114690000Y-84175000D02*
X114690000Y-79010000D01*
X114690000Y-79010000D02*
X114750000Y-78950000D01*
X115190000Y-84175000D02*
X114690000Y-84175000D01*
X114190000Y-84175000D02*
X114690000Y-84175000D01*
X100800000Y-133200000D02*
X100600000Y-133200000D01*
X100850000Y-133250000D02*
X100800000Y-133200000D01*
X151500000Y-138800000D02*
X151500000Y-138200000D01*
X151500000Y-138200000D02*
X151450000Y-138150000D01*
X90150000Y-89700000D02*
X91250000Y-89700000D01*
X91250000Y-89700000D02*
X91300000Y-89750000D01*
X98450000Y-92400000D02*
X98450000Y-90698860D01*
X98450000Y-90698860D02*
X98401140Y-90650000D01*
D28*
X139000000Y-93750000D02*
X137900000Y-92650000D01*
X137900000Y-92650000D02*
X137700000Y-92650000D01*
X109450000Y-95500000D02*
X109450000Y-96150000D01*
X109450000Y-96150000D02*
X110000000Y-96700000D01*
D27*
X125750000Y-55650000D02*
X127650000Y-55650000D01*
X127650000Y-55650000D02*
X128300000Y-56300000D01*
X139265660Y-88095460D02*
X139265660Y-88056720D01*
X139570200Y-88400000D02*
X139265660Y-88095460D01*
X140500000Y-88400000D02*
X139570200Y-88400000D01*
D29*
X160500000Y-142524264D02*
X160500000Y-142950000D01*
X159300000Y-140900000D02*
X159300000Y-141324264D01*
X159300000Y-141324264D02*
X160500000Y-142524264D01*
X159850000Y-143600000D02*
X160384600Y-143600000D01*
X160384600Y-143600000D02*
X160500000Y-143715400D01*
X160500000Y-143715400D02*
X160500000Y-144950000D01*
X158400000Y-143600000D02*
X159850000Y-143600000D01*
X159850000Y-143600000D02*
X160500000Y-142950000D01*
X157500000Y-144750000D02*
X157500000Y-144500000D01*
X157500000Y-144500000D02*
X158400000Y-143600000D01*
D27*
X148000000Y-109250000D02*
X148000000Y-110600000D01*
X148000000Y-110600000D02*
X148400000Y-111000000D01*
D29*
X148400000Y-111000000D02*
X149800000Y-111000000D01*
X149800000Y-111000000D02*
X149850000Y-110950000D01*
D27*
X152750000Y-101550000D02*
X152750000Y-101800000D01*
X152750000Y-101800000D02*
X153500000Y-102550000D01*
D29*
X176400000Y-134600000D02*
X175300000Y-134600000D01*
X175300000Y-134600000D02*
X175250000Y-134650000D01*
X142200000Y-138500000D02*
X141150000Y-138500000D01*
X141150000Y-138500000D02*
X141100000Y-138450000D01*
X176400000Y-116000000D02*
X176150000Y-116000000D01*
X176150000Y-116000000D02*
X175350000Y-115200000D01*
D27*
X165100000Y-106800000D02*
X165100000Y-107900000D01*
X165100000Y-107900000D02*
X165350000Y-108150000D01*
X169700000Y-106800000D02*
X168900000Y-106800000D01*
X168900000Y-106800000D02*
X168600000Y-106500000D01*
X170900000Y-106800000D02*
X171750000Y-106800000D01*
X171750000Y-106800000D02*
X172050000Y-106500000D01*
X175350000Y-108100000D02*
X175350000Y-107350000D01*
X175350000Y-107350000D02*
X174900000Y-106900000D01*
X161200000Y-107000000D02*
X161200000Y-107200000D01*
X161200000Y-107200000D02*
X160200000Y-108200000D01*
X156700000Y-106700000D02*
X157650000Y-106700000D01*
X157650000Y-106700000D02*
X157800000Y-106550000D01*
X147550000Y-106750000D02*
X147050000Y-106750000D01*
X147050000Y-106750000D02*
X146250000Y-107550000D01*
X142250000Y-117650000D02*
X141650000Y-117050000D01*
X142250000Y-118150000D02*
X142250000Y-117650000D01*
X151000000Y-143450000D02*
X151000000Y-144600000D01*
X156000000Y-140800000D02*
X156050000Y-140800000D01*
X156050000Y-140800000D02*
X157200000Y-139650000D01*
X158400000Y-143600000D02*
X158400000Y-143850000D01*
X166600000Y-141300000D02*
X166600000Y-141650000D01*
X166600000Y-141650000D02*
X167750000Y-142800000D01*
X173200000Y-141200000D02*
X173200000Y-142000000D01*
X173200000Y-142000000D02*
X173650000Y-142450000D01*
X142200000Y-138500000D02*
X143200000Y-138500000D01*
X143200000Y-138500000D02*
X143250000Y-138450000D01*
X140900000Y-135600000D02*
X141200000Y-135600000D01*
X141200000Y-135600000D02*
X142200000Y-134600000D01*
X147000000Y-125400000D02*
X147000000Y-126400000D01*
X147000000Y-126400000D02*
X147100000Y-126500000D01*
X146800000Y-130000000D02*
X146800000Y-129150000D01*
X146800000Y-129150000D02*
X147100000Y-128850000D01*
X146900000Y-121600000D02*
X146900000Y-122500000D01*
X146900000Y-122500000D02*
X147100000Y-122700000D01*
X176500000Y-113800000D02*
X177750000Y-113800000D01*
X177750000Y-113800000D02*
X177800000Y-113750000D01*
X176400000Y-116000000D02*
X177050000Y-116000000D01*
X177050000Y-116000000D02*
X177800000Y-116750000D01*
X179700000Y-118300000D02*
X179500000Y-118300000D01*
X179500000Y-118300000D02*
X178500000Y-119300000D01*
X179600000Y-122200000D02*
X179550000Y-122200000D01*
X179550000Y-122200000D02*
X178500000Y-123250000D01*
X176300000Y-126400000D02*
X177250000Y-126400000D01*
X177250000Y-126400000D02*
X177850000Y-125800000D01*
X176400000Y-130700000D02*
X177600000Y-130700000D01*
X177600000Y-130700000D02*
X178050000Y-131150000D01*
X176400000Y-134600000D02*
X177500000Y-134600000D01*
X177500000Y-134600000D02*
X177850000Y-134250000D01*
X176200000Y-138900000D02*
X177350000Y-138900000D01*
X177350000Y-138900000D02*
X177750000Y-139300000D01*
X111950000Y-69200000D02*
X111950000Y-68900000D01*
X111950000Y-68900000D02*
X112950000Y-67900000D01*
X117900000Y-69250000D02*
X117900000Y-70300000D01*
X117900000Y-70300000D02*
X118200000Y-70600000D01*
X122950000Y-69200000D02*
X122950000Y-70350000D01*
X122950000Y-70350000D02*
X123000000Y-70400000D01*
X128000000Y-69300000D02*
X128000000Y-70300000D01*
X128000000Y-70300000D02*
X127900000Y-70400000D01*
D29*
X137000000Y-67300000D02*
X138359600Y-67300000D01*
X139400000Y-69475736D02*
X139400000Y-69900000D01*
X138359600Y-67300000D02*
X139400000Y-68340400D01*
X139400000Y-68340400D02*
X139400000Y-69475736D01*
D27*
X132650000Y-69300000D02*
X132650000Y-69975518D01*
X132650000Y-69975518D02*
X133126811Y-70452329D01*
X140450000Y-76900000D02*
X140850000Y-76900000D01*
X140850000Y-76900000D02*
X141850000Y-75900000D01*
X139350000Y-84250000D02*
X140050000Y-84250000D01*
X140050000Y-84250000D02*
X140500000Y-83800000D01*
X119750000Y-124250000D02*
X118600000Y-124250000D01*
X140500000Y-94200000D02*
X139450000Y-94200000D01*
X139450000Y-94200000D02*
X139000000Y-93750000D01*
X136650000Y-100450000D02*
X137200000Y-100450000D01*
X137200000Y-100450000D02*
X137700000Y-99950000D01*
X130950000Y-109550000D02*
X130950000Y-110750000D01*
X130950000Y-110750000D02*
X131000000Y-110800000D01*
X125900000Y-107900000D02*
X125900000Y-109000000D01*
X120750000Y-103550000D02*
X120750000Y-102650000D01*
X120750000Y-102650000D02*
X120450000Y-102350000D01*
X115400000Y-103500000D02*
X115400000Y-103900000D01*
X115400000Y-103900000D02*
X116450000Y-104950000D01*
X109937261Y-107787261D02*
X111112739Y-107787261D01*
X111112739Y-107787261D02*
X111150000Y-107750000D01*
X106200000Y-93750000D02*
X105550000Y-93750000D01*
X105550000Y-93750000D02*
X104900000Y-94400000D01*
X106100000Y-76250000D02*
X105500000Y-76250000D01*
X105500000Y-76250000D02*
X104900000Y-76850000D01*
X157000000Y-75400000D02*
X157000000Y-76250000D01*
X157000000Y-76250000D02*
X157200000Y-76450000D01*
X155500000Y-82300000D02*
X156700000Y-82300000D01*
X156950000Y-61500000D02*
X155750000Y-61500000D01*
X146450000Y-73650000D02*
X145850000Y-73650000D01*
X145850000Y-73650000D02*
X145400000Y-74100000D01*
X171100000Y-71900000D02*
X171100000Y-72850000D01*
X171100000Y-72850000D02*
X171250000Y-73000000D01*
X171600000Y-94350000D02*
X172300000Y-94350000D01*
X172300000Y-94350000D02*
X172800000Y-93850000D01*
X159400000Y-89650000D02*
X160100000Y-89650000D01*
X160100000Y-89650000D02*
X160600000Y-89150000D01*
X168900000Y-82800000D02*
X167600000Y-82800000D01*
X167600000Y-82800000D02*
X167000000Y-82200000D01*
X109050000Y-123450000D02*
X107901204Y-123450000D01*
X107901204Y-123450000D02*
X107364512Y-122913308D01*
X126000000Y-55400000D02*
X125750000Y-55650000D01*
X93950000Y-133200000D02*
X93950000Y-132550000D01*
X93950000Y-132550000D02*
X94800000Y-131700000D01*
X91550000Y-98050000D02*
X92400000Y-98050000D01*
X92400000Y-98050000D02*
X92800000Y-97650000D01*
X98250000Y-78100000D02*
X98250000Y-78450000D01*
X98250000Y-78450000D02*
X99400000Y-79600000D01*
X92600000Y-78300000D02*
X92600000Y-76950000D01*
X92600000Y-76950000D02*
X92950000Y-76600000D01*
X101198860Y-80550000D02*
X100350000Y-80550000D01*
X100350000Y-80550000D02*
X99400000Y-79600000D01*
X99400000Y-79600000D02*
X98850000Y-79600000D01*
X98850000Y-79600000D02*
X98000000Y-80450000D01*
D28*
X176229378Y-124805319D02*
X168876729Y-124805319D01*
X168876729Y-124805319D02*
X142008539Y-97937129D01*
X142008539Y-97937129D02*
X141708540Y-97637130D01*
X168697837Y-123550000D02*
X142491754Y-97343917D01*
X142491754Y-97343917D02*
X142191755Y-97043918D01*
X176400000Y-123550000D02*
X168697837Y-123550000D01*
X142048756Y-96478152D02*
X141624492Y-96478152D01*
X169037726Y-122900000D02*
X142633992Y-96496266D01*
X142633992Y-96496266D02*
X142066870Y-96496266D01*
X142066870Y-96496266D02*
X142048756Y-96478152D01*
X175700000Y-122900000D02*
X169037726Y-122900000D01*
X141999999Y-98749999D02*
X141700000Y-98450000D01*
X168750000Y-125500000D02*
X141999999Y-98749999D01*
X176550000Y-125500000D02*
X168750000Y-125500000D01*
X168204714Y-121600000D02*
X142553310Y-95948596D01*
X142553310Y-95948596D02*
X142214417Y-95948596D01*
X176400000Y-121600000D02*
X168204714Y-121600000D01*
X142472646Y-95400944D02*
X141962603Y-95400944D01*
X141942363Y-95380704D02*
X141518099Y-95380704D01*
X167971702Y-120900000D02*
X142472646Y-95400944D01*
X175750000Y-120900000D02*
X167971702Y-120900000D01*
X141962603Y-95400944D02*
X141942363Y-95380704D01*
X142396609Y-94853274D02*
X142110594Y-94853274D01*
X167193335Y-119650000D02*
X142396609Y-94853274D01*
X176500000Y-119650000D02*
X167193335Y-119650000D01*
X175750000Y-119000000D02*
X167047682Y-119000000D01*
X142104634Y-94220579D02*
X141680370Y-94220579D01*
X167047682Y-119000000D02*
X142268261Y-94220579D01*
X142268261Y-94220579D02*
X142104634Y-94220579D01*
X166236379Y-117700000D02*
X142464469Y-93928090D01*
X176500000Y-117700000D02*
X166236379Y-117700000D01*
X142464469Y-93928090D02*
X142164470Y-93628091D01*
X166181468Y-117050000D02*
X142711601Y-93580133D01*
X142711601Y-93580133D02*
X142711601Y-93137337D01*
X175950000Y-117050000D02*
X166181468Y-117050000D01*
X142711601Y-93137337D02*
X142424264Y-92850000D01*
X142424264Y-92850000D02*
X142000000Y-92850000D01*
X181400000Y-91750000D02*
X168939664Y-91750000D01*
X168939664Y-91750000D02*
X168738654Y-91548990D01*
X180750000Y-90550000D02*
X169489688Y-90550000D01*
X169489688Y-90550000D02*
X169068865Y-90129177D01*
X180100000Y-89450000D02*
X179559358Y-88909358D01*
X179559358Y-88909358D02*
X169316536Y-88909358D01*
X179250000Y-88200000D02*
X170200000Y-88200000D01*
X170200000Y-88200000D02*
X169750000Y-87750000D01*
X182150000Y-93600000D02*
X181826864Y-93276864D01*
X181826864Y-93276864D02*
X168408443Y-93276864D01*
X148092593Y-91823238D02*
X148092593Y-74976594D01*
X148092593Y-74976594D02*
X148092593Y-74552330D01*
X149752107Y-93482752D02*
X148092593Y-91823238D01*
X148950001Y-93589475D02*
X148950001Y-93800001D01*
X147371060Y-92010534D02*
X148950001Y-93589475D01*
X147371060Y-76152330D02*
X147371060Y-92010534D01*
X148950001Y-93800001D02*
X149250000Y-94100000D01*
X150019669Y-91493933D02*
X151975736Y-93450000D01*
X150019669Y-73404678D02*
X150019669Y-91493933D01*
X151975736Y-93450000D02*
X152400000Y-93450000D01*
X150319668Y-73104679D02*
X150019669Y-73404678D01*
X150558499Y-93397975D02*
X150558499Y-93496602D01*
X148700000Y-91539476D02*
X150558499Y-93397975D01*
X150558499Y-93496602D02*
X150858498Y-93796601D01*
X148700000Y-73247670D02*
X148700000Y-91539476D01*
X151600001Y-93750001D02*
X151900000Y-94050000D01*
X151600001Y-93589475D02*
X151600001Y-93750001D01*
X149255075Y-72152330D02*
X149255075Y-91244549D01*
X149255075Y-91244549D02*
X151600001Y-93589475D01*
X154701392Y-93246751D02*
X153674265Y-93246751D01*
X151300000Y-75871934D02*
X151300000Y-75447670D01*
X151300000Y-90872486D02*
X151300000Y-75871934D01*
X153674265Y-93246751D02*
X151300000Y-90872486D01*
X150600000Y-74200000D02*
X150600000Y-90639474D01*
X150600000Y-90639474D02*
X153810526Y-93850000D01*
X153810526Y-93850000D02*
X153950000Y-93850000D01*
X151700001Y-90774265D02*
X151700001Y-77247669D01*
X155450001Y-93184834D02*
X154964266Y-92699099D01*
X153624835Y-92699099D02*
X151700001Y-90774265D01*
X155750000Y-93550000D02*
X155450001Y-93250001D01*
X154964266Y-92699099D02*
X153624835Y-92699099D01*
X155450001Y-93250001D02*
X155450001Y-93184834D01*
X151700001Y-77247669D02*
X152000000Y-76947670D01*
X152622137Y-88972137D02*
X156502348Y-92852348D01*
X156502348Y-92852348D02*
X156962874Y-92852348D01*
X153200000Y-80922486D02*
X152622137Y-81500349D01*
X152622137Y-81500349D02*
X152622137Y-88972137D01*
X153200000Y-79300000D02*
X153200000Y-80922486D01*
X156962874Y-92852348D02*
X157650000Y-93539474D01*
X157650000Y-93539474D02*
X157650000Y-93575736D01*
X157650000Y-93575736D02*
X157650000Y-94000000D01*
X153266567Y-91216567D02*
X154227093Y-91216567D01*
X154227093Y-91216567D02*
X156410526Y-93400000D01*
X156410526Y-93400000D02*
X156650000Y-93400000D01*
X152809819Y-90759819D02*
X153266567Y-91216567D01*
X152291926Y-81363572D02*
X152291926Y-90111561D01*
X153266567Y-91216567D02*
X152291926Y-90241926D01*
X152291926Y-90241926D02*
X152291926Y-90111561D01*
X152600000Y-78100000D02*
X152600000Y-81055498D01*
X152600000Y-81055498D02*
X152291926Y-81363572D01*
X153787743Y-80498639D02*
X153787743Y-81288103D01*
X153240082Y-81835764D02*
X153240082Y-88303293D01*
X153240082Y-88303293D02*
X158015341Y-93078552D01*
X153787743Y-81288103D02*
X153240082Y-81835764D01*
X158015341Y-93078552D02*
X158315340Y-93378551D01*
X162624287Y-90452330D02*
X162924286Y-90752329D01*
X162924286Y-94765190D02*
X162391600Y-95297876D01*
X162391600Y-95376856D02*
X162391600Y-95801120D01*
X162391600Y-95297876D02*
X162391600Y-95376856D01*
X162924286Y-90752329D02*
X162924286Y-94765190D01*
X153787733Y-82098637D02*
X153787733Y-88027778D01*
X158829617Y-93069662D02*
X159129616Y-93369661D01*
X153787733Y-88027778D02*
X158829617Y-93069662D01*
X162315106Y-91647670D02*
X162315106Y-94633545D01*
X162315106Y-94633545D02*
X161513971Y-95434680D01*
X161513971Y-95434680D02*
X161513971Y-95858944D01*
X167900021Y-86746829D02*
X167900021Y-87171093D01*
X169611715Y-94361715D02*
X170500001Y-95250001D01*
X167860792Y-93682316D02*
X168540191Y-94361715D01*
X167860792Y-87210322D02*
X167860792Y-93682316D01*
X170500001Y-95250001D02*
X170800000Y-95550000D01*
X167900021Y-87171093D02*
X167860792Y-87210322D01*
X168540191Y-94361715D02*
X169611715Y-94361715D01*
X169232561Y-95864614D02*
X169532560Y-96164613D01*
X168390084Y-95022137D02*
X169232561Y-95864614D01*
X168216637Y-95022137D02*
X168390084Y-95022137D01*
X167100000Y-84524264D02*
X167022140Y-84602124D01*
X167022140Y-84602124D02*
X167022140Y-93827640D01*
X167022140Y-93827640D02*
X168216637Y-95022137D01*
X167100000Y-84100000D02*
X167100000Y-84524264D01*
X167352351Y-93640863D02*
X168403414Y-94691926D01*
X167352351Y-86147649D02*
X167352351Y-93640863D01*
X168881400Y-94691926D02*
X170639474Y-96450000D01*
X168100000Y-85400000D02*
X167352351Y-86147649D01*
X168403414Y-94691926D02*
X168881400Y-94691926D01*
X170639474Y-96450000D02*
X170750000Y-96450000D01*
X166500000Y-94000000D02*
X168050001Y-95550001D01*
X166500000Y-83400000D02*
X166500000Y-94000000D01*
X168050001Y-95550001D02*
X168350000Y-95850000D01*
X167671788Y-96215096D02*
X167971787Y-96515095D01*
X165812725Y-94356033D02*
X167671788Y-96215096D01*
X165812725Y-84759329D02*
X165812725Y-94356033D01*
X165234844Y-85947670D02*
X165234844Y-94634844D01*
X165234844Y-94634844D02*
X166600001Y-96000001D01*
X166600001Y-96000001D02*
X166900000Y-96300000D01*
X164600001Y-95850001D02*
X164900000Y-96150000D01*
X163970243Y-88452329D02*
X163970243Y-95220243D01*
X163670244Y-88152330D02*
X163970243Y-88452329D01*
X163970243Y-95220243D02*
X164600001Y-95850001D01*
X165650001Y-96050001D02*
X165950000Y-96350000D01*
X164632622Y-95032622D02*
X165650001Y-96050001D01*
X164632622Y-87253302D02*
X164632622Y-95032622D01*
X163550000Y-89924647D02*
X163550000Y-95525736D01*
X163550000Y-95525736D02*
X163550000Y-95950000D01*
X162992610Y-89367257D02*
X163550000Y-89924647D01*
X145900001Y-79894209D02*
X145177896Y-79172104D01*
X146500000Y-94150000D02*
X145900001Y-93550001D01*
X145177896Y-79172104D02*
X143037870Y-79172104D01*
X145900001Y-93550001D02*
X145900001Y-79894209D01*
X143037870Y-79172104D02*
X142613606Y-79172104D01*
X146800000Y-77671934D02*
X146900001Y-77771935D01*
X147900001Y-93500001D02*
X148200000Y-93800000D01*
X146800000Y-77247670D02*
X146800000Y-77671934D01*
X146900001Y-77771935D02*
X146900001Y-92500001D01*
X146900001Y-92500001D02*
X147900001Y-93500001D01*
X146850001Y-93300001D02*
X147150000Y-93600000D01*
X146277844Y-92727844D02*
X146850001Y-93300001D01*
X146277844Y-78632424D02*
X146277844Y-92727844D01*
X145550001Y-94499999D02*
X145550001Y-80300001D01*
X142946234Y-79650000D02*
X142518326Y-80077908D01*
X142017272Y-80077908D02*
X141593008Y-80077908D01*
X145550001Y-80300001D02*
X144900000Y-79650000D01*
X142518326Y-80077908D02*
X142017272Y-80077908D01*
X144900000Y-79650000D02*
X142946234Y-79650000D01*
X146050000Y-94999998D02*
X145550001Y-94499999D01*
X94700000Y-105000000D02*
X108300000Y-105000000D01*
X108300000Y-105000000D02*
X124441931Y-88858069D01*
X124441931Y-88858069D02*
X124532577Y-88858069D01*
X130300000Y-89100000D02*
X135550000Y-83850000D01*
X135550000Y-83850000D02*
X135550000Y-79200000D01*
X135700000Y-70547782D02*
X135700000Y-79050000D01*
X135700000Y-79050000D02*
X135550000Y-79200000D01*
X154874508Y-78124508D02*
X156537746Y-79787746D01*
X156537746Y-79787746D02*
X158562254Y-79787746D01*
X154874508Y-76100000D02*
X148022178Y-69247670D01*
X154874508Y-76100000D02*
X154874508Y-78124508D01*
X148022178Y-69247670D02*
X147734260Y-69247670D01*
X155350000Y-75750000D02*
X147552330Y-67952330D01*
X156200000Y-78950000D02*
X155350000Y-78100000D01*
X155350000Y-78100000D02*
X155350000Y-75750000D01*
X158550000Y-78950000D02*
X156200000Y-78950000D01*
X147077308Y-67952330D02*
X146653044Y-67952330D01*
X147552330Y-67952330D02*
X147077308Y-67952330D01*
X158500000Y-77900000D02*
X156450000Y-77900000D01*
X156450000Y-77900000D02*
X155800000Y-77250000D01*
X155800000Y-77250000D02*
X155800000Y-75600000D01*
X155800000Y-75600000D02*
X147689530Y-67489530D01*
X147689530Y-67489530D02*
X147689530Y-67183998D01*
X158450000Y-77000000D02*
X158450000Y-75950000D01*
X149010054Y-66944841D02*
X148710055Y-66644842D01*
X158450000Y-75950000D02*
X149444841Y-66944841D01*
X149444841Y-66944841D02*
X149010054Y-66944841D01*
X158312262Y-75037740D02*
X158612261Y-75337739D01*
X149539952Y-66265430D02*
X158312262Y-75037740D01*
X149539952Y-65710047D02*
X149539952Y-66265430D01*
X150416924Y-65426237D02*
X150416924Y-65001973D01*
X150416924Y-66366924D02*
X150416924Y-65426237D01*
X158150000Y-74100000D02*
X150416924Y-66366924D01*
X151600000Y-66550000D02*
X157950000Y-72900000D01*
X157950000Y-72900000D02*
X158000000Y-72900000D01*
X151600000Y-64350000D02*
X151600000Y-66550000D01*
X152250000Y-63300000D02*
X152250000Y-66200000D01*
X152250000Y-66200000D02*
X158950000Y-72900000D01*
X153300000Y-62500000D02*
X153300000Y-66300000D01*
X153300000Y-66300000D02*
X158500000Y-71500000D01*
X126350000Y-78500000D02*
X127600000Y-79750000D01*
X127600000Y-79750000D02*
X127600000Y-88410526D01*
X127600000Y-88410526D02*
X92200000Y-123810526D01*
X92200000Y-123810526D02*
X92200000Y-133825736D01*
X92200000Y-133825736D02*
X92200000Y-134250000D01*
X95500000Y-138125736D02*
X95500000Y-138550000D01*
X95500000Y-120977514D02*
X95500000Y-138125736D01*
X127930211Y-79180211D02*
X127930211Y-88547303D01*
X127930211Y-88547303D02*
X95500000Y-120977514D01*
X127250000Y-78500000D02*
X127930211Y-79180211D01*
X138700000Y-82750000D02*
X143759449Y-82750000D01*
X143759449Y-82750000D02*
X143968695Y-82959246D01*
X104500000Y-119500000D02*
X119350000Y-104650000D01*
X136800000Y-71010948D02*
X137841029Y-69969919D01*
X137841029Y-69969919D02*
X138141028Y-69669920D01*
X119350000Y-104650000D02*
X119350000Y-100950000D01*
X104500000Y-128450000D02*
X104500000Y-119500000D01*
X136800000Y-83500000D02*
X136800000Y-71010948D01*
X119350000Y-100950000D02*
X136800000Y-83500000D01*
X99450000Y-121350000D02*
X99450000Y-133300000D01*
X99450000Y-133300000D02*
X100850000Y-134700000D01*
X107750000Y-113050000D02*
X99450000Y-121350000D01*
X106800000Y-96600000D02*
X106800000Y-95550000D01*
X106800000Y-95550000D02*
X106750000Y-95500000D01*
X126300000Y-121300000D02*
X126300000Y-121800000D01*
X136100000Y-111500000D02*
X126300000Y-121300000D01*
X146200000Y-141600000D02*
X146050000Y-141450000D01*
X146050000Y-141450000D02*
X146050000Y-118750000D01*
X128700000Y-108600000D02*
X121000000Y-100900000D01*
X146050000Y-118750000D02*
X135900000Y-108600000D01*
X135900000Y-108600000D02*
X128700000Y-108600000D01*
X98070000Y-93980000D02*
X98350000Y-93700000D01*
X87630000Y-93980000D02*
X98070000Y-93980000D01*
X136000000Y-108200000D02*
X129300000Y-108200000D01*
X129300000Y-108200000D02*
X122000000Y-100900000D01*
X153400000Y-125600000D02*
X136000000Y-108200000D01*
X153400000Y-141100000D02*
X153400000Y-125600000D01*
X136200000Y-107700000D02*
X129800000Y-107700000D01*
X129800000Y-107700000D02*
X123000000Y-100900000D01*
X154000000Y-125500000D02*
X136200000Y-107700000D01*
X154000000Y-141600000D02*
X154000000Y-125500000D01*
X136400000Y-107300000D02*
X130500000Y-107300000D01*
X130500000Y-107300000D02*
X124000000Y-100800000D01*
X154700000Y-125600000D02*
X136400000Y-107300000D01*
X154700000Y-141100000D02*
X154700000Y-125600000D01*
X136600000Y-106800000D02*
X130900000Y-106800000D01*
X130900000Y-106800000D02*
X124900000Y-100800000D01*
X155300000Y-125500000D02*
X136600000Y-106800000D01*
X155300000Y-141600000D02*
X155300000Y-125500000D01*
X122870715Y-86568996D02*
X123294979Y-86568996D01*
X118690000Y-84965100D02*
X120293896Y-86568996D01*
X118690000Y-84175000D02*
X118690000Y-84965100D01*
X120293896Y-86568996D02*
X122870715Y-86568996D01*
X142050000Y-69500000D02*
X142050000Y-69075736D01*
X142050000Y-69075736D02*
X126894264Y-53920000D01*
X126894264Y-53920000D02*
X88210000Y-53920000D01*
X88210000Y-53920000D02*
X87630000Y-53340000D01*
X154500000Y-76500000D02*
X147877880Y-69877880D01*
X156750000Y-80600000D02*
X154500000Y-78350000D01*
X154500000Y-78350000D02*
X154500000Y-76500000D01*
X158550000Y-80600000D02*
X156750000Y-80600000D01*
X142050000Y-69500000D02*
X137200000Y-74350000D01*
X137200000Y-74350000D02*
X137200000Y-86200000D01*
X147877880Y-69877880D02*
X146743330Y-69877880D01*
X146743330Y-69877880D02*
X146443331Y-69577881D01*
X136800000Y-106300000D02*
X131300000Y-106300000D01*
X131300000Y-106300000D02*
X125800000Y-100800000D01*
X158600000Y-128100000D02*
X136800000Y-106300000D01*
X158600000Y-141700000D02*
X158600000Y-128100000D01*
X136900000Y-105800000D02*
X131700000Y-105800000D01*
X131700000Y-105800000D02*
X126700000Y-100800000D01*
X161800000Y-130700000D02*
X136900000Y-105800000D01*
X161800000Y-141600000D02*
X161800000Y-130700000D01*
X127899999Y-101099999D02*
X127600000Y-100800000D01*
X132200000Y-105400000D02*
X127899999Y-101099999D01*
X165700000Y-134000000D02*
X137100000Y-105400000D01*
X165700000Y-141600000D02*
X165700000Y-134000000D01*
X137100000Y-105400000D02*
X132200000Y-105400000D01*
X169600000Y-141200000D02*
X169600000Y-137300000D01*
X169600000Y-137300000D02*
X137300000Y-105000000D01*
X137300000Y-105000000D02*
X132700000Y-105000000D01*
X132700000Y-105000000D02*
X128799999Y-101099999D01*
X128799999Y-101099999D02*
X128500000Y-100800000D01*
X129400000Y-100800000D02*
X133200000Y-104600000D01*
X170300000Y-141175736D02*
X170300000Y-141600000D01*
X133200000Y-104600000D02*
X137400000Y-104600000D01*
X137400000Y-104600000D02*
X170300000Y-137500000D01*
X170300000Y-137500000D02*
X170300000Y-141175736D01*
X133600000Y-104200000D02*
X130499999Y-101099999D01*
X130499999Y-101099999D02*
X130200000Y-100800000D01*
X137500000Y-104200000D02*
X133600000Y-104200000D01*
X174800000Y-141500000D02*
X137500000Y-104200000D01*
X173566988Y-139800000D02*
X176075736Y-139800000D01*
X134122740Y-103869789D02*
X137636777Y-103869789D01*
X176075736Y-139800000D02*
X176500000Y-139800000D01*
X137636777Y-103869789D02*
X173566988Y-139800000D01*
X133476728Y-103223777D02*
X134122740Y-103869789D01*
X134294404Y-103266944D02*
X134567038Y-103539578D01*
X134567038Y-103539578D02*
X137773554Y-103539578D01*
X170133976Y-135900000D02*
X176075736Y-135900000D01*
X137773554Y-103539578D02*
X170133976Y-135900000D01*
X176075736Y-135900000D02*
X176500000Y-135900000D01*
X167067952Y-131900000D02*
X176075736Y-131900000D01*
X135455632Y-102879156D02*
X138047108Y-102879156D01*
X138047108Y-102879156D02*
X167067952Y-131900000D01*
X135188238Y-102611762D02*
X135455632Y-102879156D01*
X176075736Y-131900000D02*
X176500000Y-131900000D01*
X137910331Y-103209367D02*
X168000964Y-133300000D01*
X135011335Y-103209367D02*
X137910331Y-103209367D01*
X168000964Y-133300000D02*
X176075736Y-133300000D01*
X134300984Y-102499016D02*
X135011335Y-103209367D01*
X176075736Y-133300000D02*
X176500000Y-133300000D01*
X138183885Y-102548945D02*
X165034940Y-129400000D01*
X135183543Y-101832559D02*
X135899929Y-102548945D01*
X135899929Y-102548945D02*
X138183885Y-102548945D01*
X176075736Y-129400000D02*
X176500000Y-129400000D01*
X165034940Y-129400000D02*
X176075736Y-129400000D01*
X137971733Y-101869805D02*
X164201928Y-128100000D01*
X175575736Y-128100000D02*
X176000000Y-128100000D01*
X164201928Y-128100000D02*
X175575736Y-128100000D01*
X135995298Y-101869805D02*
X137971733Y-101869805D01*
X176075736Y-127400000D02*
X176500000Y-127400000D01*
X163968916Y-127400000D02*
X176075736Y-127400000D01*
X137668916Y-101100000D02*
X163968916Y-127400000D01*
X136000000Y-101100000D02*
X137668916Y-101100000D01*
X91750000Y-101950000D02*
X92238200Y-102438200D01*
X92238200Y-102438200D02*
X106349716Y-102438200D01*
X106349716Y-102438200D02*
X106773980Y-102438200D01*
X92377862Y-99622138D02*
X92049999Y-99950001D01*
X94449650Y-99622138D02*
X92377862Y-99622138D01*
X94877511Y-100049999D02*
X94449650Y-99622138D01*
X92049999Y-99950001D02*
X91750000Y-100250000D01*
X105850001Y-100049999D02*
X94877511Y-100049999D01*
X106150000Y-99750000D02*
X105850001Y-100049999D01*
X94312873Y-99952349D02*
X93252751Y-99952349D01*
X95060524Y-100700000D02*
X94312873Y-99952349D01*
X106450000Y-100700000D02*
X95060524Y-100700000D01*
X93252751Y-99952349D02*
X93035399Y-100169701D01*
X93035399Y-100169701D02*
X92735400Y-100469700D01*
X107350002Y-82133835D02*
X107350002Y-74374264D01*
X107690000Y-84175000D02*
X107690000Y-83384900D01*
X107690000Y-83384900D02*
X107350002Y-83044902D01*
X107350002Y-83044902D02*
X107350002Y-82133835D01*
X107350002Y-74374264D02*
X107350002Y-73950000D01*
X108050000Y-82574728D02*
X108050000Y-75450000D01*
X108190000Y-84175000D02*
X108190000Y-83384900D01*
X108190000Y-83384900D02*
X108050000Y-83244900D01*
X108050000Y-83244900D02*
X108050000Y-82574728D01*
X108050000Y-75450000D02*
X107950000Y-75350000D01*
X108690000Y-84175000D02*
X108690000Y-77140000D01*
X108690000Y-77140000D02*
X108600000Y-77050000D01*
X109190000Y-71586915D02*
X109992027Y-70784888D01*
X109190000Y-84175000D02*
X109190000Y-71586915D01*
X109992027Y-70784888D02*
X110292026Y-70484889D01*
X109690000Y-72164664D02*
X110482813Y-71371851D01*
X110482813Y-71371851D02*
X110782812Y-71071852D01*
X109690000Y-84175000D02*
X109690000Y-72164664D01*
X111190000Y-71733174D02*
X111402330Y-71520844D01*
X111190000Y-84175000D02*
X111190000Y-71733174D01*
X111690000Y-84175000D02*
X111690000Y-72362330D01*
X111690000Y-72362330D02*
X111902330Y-72150000D01*
X112450000Y-72700000D02*
X112450000Y-73124264D01*
X112450000Y-73124264D02*
X112190000Y-73384264D01*
X112190000Y-73384264D02*
X112190000Y-83384900D01*
X112190000Y-83384900D02*
X112190000Y-84175000D01*
X113087661Y-70783862D02*
X113387660Y-70483863D01*
X113087661Y-73412339D02*
X113087661Y-70783862D01*
X112690000Y-84175000D02*
X112690000Y-73810000D01*
X112690000Y-73810000D02*
X113087661Y-73412339D01*
X113602331Y-73947669D02*
X113602331Y-71349999D01*
X113190000Y-84175000D02*
X113190000Y-74360000D01*
X113602331Y-71349999D02*
X113902330Y-71050000D01*
X113190000Y-74360000D02*
X113602331Y-73947669D01*
X113690000Y-74710000D02*
X114402330Y-73997670D01*
X113690000Y-84175000D02*
X113690000Y-74710000D01*
X114402330Y-72074264D02*
X114402330Y-71650000D01*
X114402330Y-73997670D02*
X114402330Y-72074264D01*
X114950000Y-73800000D02*
X115690000Y-74540000D01*
X115690000Y-74540000D02*
X115690000Y-84175000D01*
X114950000Y-72300000D02*
X114950000Y-73800000D01*
X115587661Y-71285787D02*
X115587661Y-70733862D01*
X116190000Y-84175000D02*
X116190000Y-74087799D01*
X115587661Y-71285787D02*
X115587661Y-73485460D01*
X115587661Y-73485460D02*
X116190000Y-74087799D01*
X115587661Y-70733862D02*
X115887660Y-70433863D01*
X116102331Y-71426769D02*
X116102331Y-71299999D01*
X116690000Y-84175000D02*
X116690000Y-73893949D01*
X116102331Y-73306280D02*
X116690000Y-73893949D01*
X116102331Y-71426769D02*
X116102331Y-73306280D01*
X116102331Y-71299999D02*
X116402330Y-71000000D01*
X116902349Y-72202168D02*
X116902349Y-72024283D01*
X117190000Y-84175000D02*
X117190000Y-73647231D01*
X116902349Y-72202168D02*
X116902349Y-73359580D01*
X116902349Y-73359580D02*
X117190000Y-73647231D01*
X116902330Y-72024264D02*
X116902330Y-71600000D01*
X116902349Y-72024283D02*
X116902330Y-72024264D01*
X117749999Y-73330022D02*
X117749999Y-84115001D01*
X117450000Y-72200000D02*
X117450000Y-72624264D01*
X117450000Y-72624264D02*
X117749999Y-72924263D01*
X117749999Y-72924263D02*
X117749999Y-73330022D01*
X117749999Y-84115001D02*
X117690000Y-84175000D01*
D27*
X104190000Y-84175000D02*
X104190000Y-88469902D01*
X101250000Y-88550000D02*
X98875570Y-86175570D01*
X104109902Y-88550000D02*
X101250000Y-88550000D01*
X104190000Y-88469902D02*
X104109902Y-88550000D01*
X98401140Y-86400000D02*
X98800000Y-86400000D01*
X95398860Y-85450000D02*
X95398860Y-85498860D01*
X95398860Y-85498860D02*
X96054850Y-86154850D01*
X96054850Y-86154850D02*
X96604090Y-86154850D01*
X96604090Y-86154850D02*
X96700000Y-86250760D01*
X96700000Y-86250760D02*
X96700000Y-87549240D01*
X96700000Y-87549240D02*
X97900760Y-88750000D01*
X98401140Y-88750000D02*
X97900760Y-88750000D01*
X97900760Y-88750000D02*
X97183209Y-89467551D01*
X97183209Y-89467551D02*
X97183209Y-90011991D01*
X97183209Y-90011991D02*
X95750000Y-91445200D01*
X95750000Y-91445200D02*
X95750000Y-92400000D01*
X94000000Y-83445200D02*
X94000000Y-86451520D01*
X94000000Y-86451520D02*
X94898480Y-87350000D01*
X94898480Y-87350000D02*
X95398860Y-87350000D01*
X95200000Y-83200000D02*
X94245200Y-83200000D01*
X94245200Y-83200000D02*
X94000000Y-83445200D01*
X95398860Y-87350000D02*
X95398860Y-89700000D01*
X92850000Y-89700000D02*
X95398860Y-89700000D01*
D28*
X107750000Y-57074264D02*
X107750000Y-56650000D01*
X107750000Y-62450000D02*
X107750000Y-57074264D01*
X108500000Y-63200000D02*
X107750000Y-62450000D01*
X112600000Y-63200000D02*
X112600000Y-56650000D01*
X112600000Y-56650000D02*
X112750000Y-56500000D01*
D27*
X104690000Y-85104800D02*
X104690000Y-84175000D01*
X103574264Y-90800000D02*
X104690000Y-89684264D01*
X103150000Y-90800000D02*
X103574264Y-90800000D01*
X104690000Y-89684264D02*
X104690000Y-85104800D01*
D28*
X106304080Y-101797660D02*
X105777209Y-101270789D01*
X105777209Y-101270789D02*
X88729211Y-101270789D01*
X88400000Y-101600000D02*
X87630000Y-101600000D01*
X88729211Y-101270789D02*
X88400000Y-101600000D01*
X106967020Y-98844100D02*
X106923473Y-98800553D01*
X106923473Y-98800553D02*
X88699447Y-98800553D01*
X88699447Y-98800553D02*
X88440000Y-99060000D01*
X88440000Y-99060000D02*
X87630000Y-99060000D01*
D27*
X121012435Y-85927235D02*
X123615667Y-85927236D01*
X106936062Y-86200000D02*
X106785200Y-86200000D01*
X105690000Y-85104800D02*
X105690000Y-84175000D01*
X108253561Y-87517499D02*
X106936062Y-86200000D01*
X123912499Y-86224068D02*
X123912499Y-87187501D01*
X123615667Y-85927236D02*
X123912499Y-86224068D01*
X120190000Y-84175000D02*
X120190000Y-85104800D01*
X123582501Y-87517499D02*
X108253561Y-87517499D01*
X123912499Y-87187501D02*
X123582501Y-87517499D01*
X120190000Y-85104800D02*
X121012435Y-85927235D01*
X106785200Y-86200000D02*
X105690000Y-85104800D01*
X121500000Y-70413902D02*
X121500000Y-58100000D01*
X121500000Y-58100000D02*
X124200000Y-55400000D01*
X120190000Y-84175000D02*
X120190000Y-71723902D01*
X120190000Y-71723902D02*
X121500000Y-70413902D01*
D28*
X120190000Y-84175000D02*
X119690000Y-84175000D01*
X119690000Y-84175000D02*
X119190000Y-84175000D01*
D27*
X105690000Y-84175000D02*
X105690000Y-82488480D01*
X105690000Y-82488480D02*
X104701520Y-81500000D01*
X104701520Y-81500000D02*
X104201140Y-81500000D01*
D28*
X132700001Y-70999999D02*
X120690000Y-83010000D01*
X120690000Y-83010000D02*
X120690000Y-84175000D01*
X134900000Y-70700000D02*
X134600001Y-70999999D01*
X134600001Y-70999999D02*
X132700001Y-70999999D01*
X96800000Y-85086154D02*
X96800000Y-64950000D01*
X96800000Y-64950000D02*
X94250000Y-62400000D01*
X96773996Y-85536422D02*
X96773996Y-85112158D01*
X96773996Y-85112158D02*
X96800000Y-85086154D01*
X95200000Y-79000000D02*
X95200000Y-80500000D01*
X95300000Y-78900000D02*
X95200000Y-79000000D01*
X106225736Y-91400000D02*
X106650000Y-91400000D01*
X102800000Y-91400000D02*
X106225736Y-91400000D01*
X97900000Y-87750000D02*
X99150000Y-87750000D01*
X97302589Y-85752299D02*
X97253059Y-85801829D01*
X97896561Y-85752299D02*
X97302589Y-85752299D01*
X100498860Y-83150000D02*
X97896561Y-85752299D01*
X97253059Y-85801829D02*
X97253059Y-87103059D01*
X97253059Y-87103059D02*
X97900000Y-87750000D01*
X99150000Y-87750000D02*
X102800000Y-91400000D01*
D27*
X98000000Y-83150000D02*
X100498860Y-83150000D01*
X100498860Y-83150000D02*
X101198860Y-82450000D01*
D28*
X98450000Y-121450000D02*
X98450000Y-121650000D01*
X106850000Y-113050000D02*
X98450000Y-121450000D01*
X101528700Y-135700000D02*
X100224262Y-135700000D01*
X100224262Y-135700000D02*
X99799998Y-135700000D01*
X108600000Y-142771300D02*
X101528700Y-135700000D01*
X108600000Y-143800000D02*
X108600000Y-142771300D01*
X107700000Y-114000000D02*
X100150000Y-121550000D01*
X100150000Y-121550000D02*
X100150000Y-131900000D01*
X136000000Y-110700000D02*
X125700000Y-121000000D01*
X125700000Y-121000000D02*
X125700000Y-121300000D01*
X128308074Y-88641926D02*
X128308074Y-87563572D01*
X97750000Y-134700000D02*
X97750000Y-119200000D01*
X102700000Y-138900000D02*
X101950000Y-138900000D01*
X101950000Y-138900000D02*
X97750000Y-134700000D01*
X128308074Y-87563572D02*
X128300000Y-87555498D01*
X97750000Y-119200000D02*
X128308074Y-88641926D01*
X128300000Y-79024264D02*
X128300000Y-78600000D01*
X128300000Y-87555498D02*
X128300000Y-79024264D01*
X120500000Y-106500000D02*
X125500000Y-106500000D01*
X125500000Y-106500000D02*
X128000000Y-109000000D01*
X128000000Y-109000000D02*
X135300000Y-109000000D01*
X135300000Y-109000000D02*
X145650000Y-119350000D01*
X145650000Y-119350000D02*
X145650000Y-142092000D01*
X145650000Y-142092000D02*
X145858000Y-142300000D01*
X145858000Y-142300000D02*
X156526600Y-142300000D01*
X156526600Y-142300000D02*
X157300000Y-141526600D01*
X136900000Y-145650000D02*
X136900000Y-143200000D01*
X96599998Y-134339998D02*
X96599998Y-134000000D01*
X106060000Y-143800000D02*
X96599998Y-134339998D01*
X151550000Y-139950000D02*
X151550000Y-140650000D01*
X151550000Y-140650000D02*
X151500000Y-140700000D01*
X106834940Y-88140540D02*
X107873800Y-89179400D01*
X107873800Y-89179400D02*
X107873800Y-102148904D01*
X107873800Y-102148904D02*
X106822704Y-103200000D01*
X106822704Y-103200000D02*
X88570000Y-103200000D01*
X88570000Y-103200000D02*
X87630000Y-104140000D01*
X108285280Y-103464720D02*
X107450000Y-104300000D01*
X90010000Y-104300000D02*
X87630000Y-106680000D01*
X108285280Y-88463120D02*
X108285280Y-103464720D01*
X107363260Y-87541100D02*
X108285280Y-88463120D01*
X107450000Y-104300000D02*
X90010000Y-104300000D01*
X125400001Y-88765153D02*
X125700000Y-88465154D01*
X104945154Y-109220000D02*
X125400001Y-88765153D01*
X87630000Y-109220000D02*
X104945154Y-109220000D01*
X126600003Y-88399999D02*
X126900002Y-88100000D01*
X103240002Y-111760000D02*
X126600003Y-88399999D01*
X87630000Y-111760000D02*
X103240002Y-111760000D01*
X136600000Y-96200000D02*
X136850000Y-96200000D01*
X136850000Y-96200000D02*
X137700000Y-95350000D01*
M02*
