G04 #@! TF.FileFunction,Copper,L1,Top,Signal*
%FSLAX46Y46*%
G04 Gerber Fmt 4.6, Leading zero omitted, Abs format (unit mm)*
G04 Created by KiCad (PCBNEW 0.201602281447+6595~42~ubuntu14.04.1-product) date tor  3 mar 2016 23:38:06*
%MOMM*%
G01*
G04 APERTURE LIST*
%ADD10C,0.100000*%
%ADD11C,5.000000*%
%ADD12R,0.629920X1.150620*%
%ADD13R,0.439420X1.150620*%
%ADD14R,2.000000X0.300000*%
%ADD15R,0.381000X2.032000*%
%ADD16R,2.032000X0.381000*%
%ADD17R,0.250000X1.300000*%
%ADD18R,1.300000X0.250000*%
%ADD19R,1.500000X0.600000*%
%ADD20R,0.550000X1.600000*%
%ADD21R,1.600000X0.550000*%
%ADD22R,1.550000X0.600000*%
%ADD23R,1.727200X1.727200*%
%ADD24O,1.727200X1.727200*%
%ADD25R,1.450000X0.450000*%
%ADD26R,1.500000X1.300000*%
%ADD27R,1.300000X1.500000*%
%ADD28R,2.032000X1.727200*%
%ADD29O,2.032000X1.727200*%
%ADD30R,1.727200X2.032000*%
%ADD31O,1.727200X2.032000*%
%ADD32R,2.000000X1.800000*%
%ADD33R,1.100000X1.200000*%
%ADD34R,1.501140X1.501140*%
%ADD35R,1.800860X0.800100*%
%ADD36R,1.600200X3.599180*%
%ADD37R,1.600000X2.000000*%
%ADD38R,1.250000X1.500000*%
%ADD39R,1.150620X0.629920*%
%ADD40R,1.150620X0.439420*%
%ADD41R,2.000000X1.600000*%
%ADD42C,0.600000*%
%ADD43C,0.304800*%
%ADD44C,0.165100*%
%ADD45C,1.625600*%
%ADD46C,0.203200*%
G04 APERTURE END LIST*
D10*
D11*
X115000000Y-146000000D03*
X181000000Y-70000000D03*
D12*
X117549840Y-60601520D03*
X117549840Y-58600000D03*
D13*
X118400740Y-60601520D03*
X118400740Y-58600000D03*
X119198300Y-60601520D03*
X119200840Y-58600000D03*
D12*
X120100000Y-60601520D03*
X120100000Y-58600000D03*
D14*
X144850000Y-69500000D03*
X144850000Y-68700000D03*
X144850000Y-67900000D03*
X144850000Y-67100000D03*
X144850000Y-66300000D03*
X144850000Y-65500000D03*
X144850000Y-64700000D03*
X144850000Y-63900000D03*
X144850000Y-63100000D03*
X144850000Y-62300000D03*
X144850000Y-61500000D03*
X155250000Y-82300000D03*
X155250000Y-81500000D03*
X155250000Y-80700000D03*
X155250000Y-79900000D03*
X155250000Y-79100000D03*
X155250000Y-78300000D03*
X155250000Y-77500000D03*
X155250000Y-76700000D03*
X155250000Y-75900000D03*
X155250000Y-75100000D03*
X155250000Y-74300000D03*
X155250000Y-73500000D03*
X155250000Y-72700000D03*
X155250000Y-71900000D03*
X155250000Y-71100000D03*
X155250000Y-70300000D03*
X155250000Y-69500000D03*
X155250000Y-68700000D03*
X155250000Y-67900000D03*
X155250000Y-67100000D03*
X155250000Y-66300000D03*
X155250000Y-65500000D03*
X155250000Y-64700000D03*
X155250000Y-63900000D03*
X155250000Y-63100000D03*
X155250000Y-62300000D03*
X155250000Y-61500000D03*
X144850000Y-61500000D03*
X144850000Y-62300000D03*
X144850000Y-63100000D03*
X144850000Y-63900000D03*
X144850000Y-64700000D03*
X144850000Y-65500000D03*
X144850000Y-66300000D03*
X144850000Y-67100000D03*
X144850000Y-67900000D03*
X144850000Y-68700000D03*
X144850000Y-69500000D03*
X144850000Y-70300000D03*
X144850000Y-71100000D03*
X144850000Y-71900000D03*
X144850000Y-72700000D03*
X144850000Y-73500000D03*
X144850000Y-74300000D03*
X144850000Y-75100000D03*
X144850000Y-75900000D03*
X144850000Y-76700000D03*
X144850000Y-77500000D03*
X144850000Y-78300000D03*
X144850000Y-79100000D03*
X144850000Y-79900000D03*
X144850000Y-80700000D03*
X144850000Y-81500000D03*
X144850000Y-82300000D03*
X160850000Y-80600000D03*
X160850000Y-79800000D03*
X160850000Y-79000000D03*
X160850000Y-78200000D03*
X160850000Y-77400000D03*
X160850000Y-76600000D03*
X160850000Y-75800000D03*
X160850000Y-75000000D03*
X160850000Y-74200000D03*
X160850000Y-73400000D03*
X160850000Y-72600000D03*
X171250000Y-93400000D03*
X171250000Y-92600000D03*
X171250000Y-91800000D03*
X171250000Y-91000000D03*
X171250000Y-90200000D03*
X171250000Y-89400000D03*
X171250000Y-88600000D03*
X171250000Y-87800000D03*
X171250000Y-87000000D03*
X171250000Y-86200000D03*
X171250000Y-85400000D03*
X171250000Y-84600000D03*
X171250000Y-83800000D03*
X171250000Y-83000000D03*
X171250000Y-82200000D03*
X171250000Y-81400000D03*
X171250000Y-80600000D03*
X171250000Y-79800000D03*
X171250000Y-79000000D03*
X171250000Y-78200000D03*
X171250000Y-77400000D03*
X171250000Y-76600000D03*
X171250000Y-75800000D03*
X171250000Y-75000000D03*
X171250000Y-74200000D03*
X171250000Y-73400000D03*
X171250000Y-72600000D03*
X160850000Y-72600000D03*
X160850000Y-73400000D03*
X160850000Y-74200000D03*
X160850000Y-75000000D03*
X160850000Y-75800000D03*
X160850000Y-76600000D03*
X160850000Y-77400000D03*
X160850000Y-78200000D03*
X160850000Y-79000000D03*
X160850000Y-79800000D03*
X160850000Y-80600000D03*
X160850000Y-81400000D03*
X160850000Y-82200000D03*
X160850000Y-83000000D03*
X160850000Y-83800000D03*
X160850000Y-84600000D03*
X160850000Y-85400000D03*
X160850000Y-86200000D03*
X160850000Y-87000000D03*
X160850000Y-87800000D03*
X160850000Y-88600000D03*
X160850000Y-89400000D03*
X160850000Y-90200000D03*
X160850000Y-91000000D03*
X160850000Y-91800000D03*
X160850000Y-92600000D03*
X160850000Y-93400000D03*
D15*
X146244720Y-143056240D03*
X146894960Y-143056240D03*
X147545200Y-143056240D03*
X148195440Y-143056240D03*
X148845680Y-143056240D03*
X149495920Y-143056240D03*
X150146160Y-143056240D03*
X150796400Y-143056240D03*
X151446640Y-143056240D03*
X152096880Y-143056240D03*
X152747120Y-143056240D03*
X153397360Y-143056240D03*
X154047600Y-143056240D03*
X154697840Y-143056240D03*
X155348080Y-143056240D03*
X155998320Y-143056240D03*
X156648560Y-143056240D03*
X157298800Y-143056240D03*
X157949040Y-143056240D03*
X158599280Y-143056240D03*
X159249520Y-143056240D03*
X159899760Y-143056240D03*
X160550000Y-143056240D03*
X161200240Y-143056240D03*
X161850480Y-143056240D03*
X162500720Y-143056240D03*
X163150960Y-143056240D03*
X163801200Y-143056240D03*
X164451440Y-143056240D03*
X165101680Y-143056240D03*
X165751920Y-143056240D03*
X166402160Y-143056240D03*
X167052400Y-143056240D03*
X167702640Y-143056240D03*
X168352880Y-143056240D03*
X169003120Y-143056240D03*
X169653360Y-143056240D03*
X170303600Y-143056240D03*
X170953840Y-143056240D03*
X171604080Y-143056240D03*
X172254320Y-143056240D03*
X172904560Y-143056240D03*
X173554800Y-143056240D03*
X174205040Y-143056240D03*
X174855280Y-143056240D03*
X175505520Y-143056240D03*
D16*
X178106480Y-138504560D03*
X178106480Y-140455280D03*
X178106480Y-139805040D03*
X178106480Y-139154800D03*
X178106480Y-137854320D03*
X178106480Y-135253360D03*
X178106480Y-137204080D03*
X178106480Y-136553840D03*
X178106480Y-135903600D03*
X178106480Y-134603120D03*
X178106480Y-132002160D03*
X178106480Y-133952880D03*
X178106480Y-133302640D03*
X178106480Y-132652400D03*
X178106480Y-131351920D03*
X178106480Y-128750960D03*
X178106480Y-130701680D03*
X178106480Y-130051440D03*
X178106480Y-129401200D03*
X178106480Y-128100720D03*
X178106480Y-127450480D03*
X178106480Y-126800240D03*
X178106480Y-126150000D03*
X178106480Y-111844720D03*
X178106480Y-114445680D03*
X178106480Y-113795440D03*
X178106480Y-113145200D03*
X178106480Y-112494960D03*
X178106480Y-111194480D03*
X178106480Y-124849520D03*
X178106480Y-124199280D03*
X178106480Y-123549040D03*
X178106480Y-122898800D03*
X178106480Y-122248560D03*
X178106480Y-125499760D03*
X178106480Y-121598320D03*
X178106480Y-120948080D03*
X178106480Y-120297840D03*
X178106480Y-119647600D03*
X178106480Y-118997360D03*
X178106480Y-118347120D03*
X178106480Y-115746160D03*
X178106480Y-117696880D03*
X178106480Y-117046640D03*
X178106480Y-116396400D03*
X178106480Y-115095920D03*
X143643760Y-138504560D03*
X143643760Y-140455280D03*
X143643760Y-139805040D03*
X143643760Y-139154800D03*
X143643760Y-137854320D03*
X143643760Y-135253360D03*
X143643760Y-137204080D03*
X143643760Y-136553840D03*
X143643760Y-135903600D03*
X143643760Y-134603120D03*
X143643760Y-132002160D03*
X143643760Y-133952880D03*
X143643760Y-133302640D03*
X143643760Y-132652400D03*
X143643760Y-131351920D03*
X143643760Y-128750960D03*
X143643760Y-130701680D03*
X143643760Y-130051440D03*
X143643760Y-129401200D03*
X143643760Y-128100720D03*
X143643760Y-127450480D03*
X143643760Y-126800240D03*
X143643760Y-126150000D03*
X143643760Y-111844720D03*
X143643760Y-114445680D03*
X143643760Y-113795440D03*
X143643760Y-113145200D03*
X143643760Y-112494960D03*
X143643760Y-111194480D03*
X143643760Y-124849520D03*
X143643760Y-124199280D03*
X143643760Y-123549040D03*
X143643760Y-122898800D03*
X143643760Y-122248560D03*
X143643760Y-125499760D03*
X143643760Y-121598320D03*
X143643760Y-120948080D03*
X143643760Y-120297840D03*
X143643760Y-119647600D03*
X143643760Y-118997360D03*
X143643760Y-118347120D03*
X143643760Y-115746160D03*
X143643760Y-117696880D03*
X143643760Y-117046640D03*
X143643760Y-116396400D03*
X143643760Y-115095920D03*
D15*
X152096880Y-108593520D03*
X150146160Y-108593520D03*
X152747120Y-108593520D03*
X151446640Y-108593520D03*
X150796400Y-108593520D03*
X155348080Y-108593520D03*
X153397360Y-108593520D03*
X154047600Y-108593520D03*
X154697840Y-108593520D03*
X157298800Y-108593520D03*
X157949040Y-108593520D03*
X155998320Y-108593520D03*
X156648560Y-108593520D03*
X158599280Y-108593520D03*
X160550000Y-108593520D03*
X159899760Y-108593520D03*
X161200240Y-108593520D03*
X161850480Y-108593520D03*
X159249520Y-108593520D03*
X164451440Y-108593520D03*
X165101680Y-108593520D03*
X162500720Y-108593520D03*
X163150960Y-108593520D03*
X163801200Y-108593520D03*
X175505520Y-108593520D03*
X172904560Y-108593520D03*
X174855280Y-108593520D03*
X174205040Y-108593520D03*
X173554800Y-108593520D03*
X171604080Y-108593520D03*
X169653360Y-108593520D03*
X172254320Y-108593520D03*
X170953840Y-108593520D03*
X170303600Y-108593520D03*
X165751920Y-108593520D03*
X169003120Y-108593520D03*
X167052400Y-108593520D03*
X167702640Y-108593520D03*
X168352880Y-108593520D03*
X166402160Y-108593520D03*
X147545200Y-108593520D03*
X146894960Y-108593520D03*
X148195440Y-108593520D03*
X149495920Y-108593520D03*
X148845680Y-108593520D03*
X146244720Y-108593520D03*
D17*
X107950000Y-69250000D03*
X108450000Y-69250000D03*
X108950000Y-69250000D03*
X109450000Y-69250000D03*
X109950000Y-69250000D03*
X110450000Y-69250000D03*
X110950000Y-69250000D03*
X111450000Y-69250000D03*
X111950000Y-69250000D03*
X112450000Y-69250000D03*
X112950000Y-69250000D03*
X113450000Y-69250000D03*
X113950000Y-69250000D03*
X114450000Y-69250000D03*
X114950000Y-69250000D03*
X115450000Y-69250000D03*
X115950000Y-69250000D03*
X116450000Y-69250000D03*
X116950000Y-69250000D03*
X117450000Y-69250000D03*
X117950000Y-69250000D03*
X118450000Y-69250000D03*
X118950000Y-69250000D03*
X119450000Y-69250000D03*
X119950000Y-69250000D03*
X120450000Y-69250000D03*
X120950000Y-69250000D03*
X121450000Y-69250000D03*
X121950000Y-69250000D03*
X122450000Y-69250000D03*
X122950000Y-69250000D03*
X123450000Y-69250000D03*
X123950000Y-69250000D03*
X124450000Y-69250000D03*
X124950000Y-69250000D03*
X125450000Y-69250000D03*
X125950000Y-69250000D03*
X126450000Y-69250000D03*
X126950000Y-69250000D03*
X127450000Y-69250000D03*
X127950000Y-69250000D03*
X128450000Y-69250000D03*
X128950000Y-69250000D03*
X129450000Y-69250000D03*
X129950000Y-69250000D03*
X130450000Y-69250000D03*
X130950000Y-69250000D03*
X131450000Y-69250000D03*
X131950000Y-69250000D03*
X132450000Y-69250000D03*
X132950000Y-69250000D03*
X133450000Y-69250000D03*
X133950000Y-69250000D03*
X134450000Y-69250000D03*
X134950000Y-69250000D03*
X135450000Y-69250000D03*
X135950000Y-69250000D03*
X136450000Y-69250000D03*
X136950000Y-69250000D03*
X137450000Y-69250000D03*
X107950000Y-104750000D03*
X108450000Y-104750000D03*
X108950000Y-104750000D03*
X109450000Y-104750000D03*
X109950000Y-104750000D03*
X110450000Y-104750000D03*
X110950000Y-104750000D03*
X111450000Y-104750000D03*
X111950000Y-104750000D03*
X112450000Y-104750000D03*
X112950000Y-104750000D03*
X113450000Y-104750000D03*
X113950000Y-104750000D03*
X114450000Y-104750000D03*
X114950000Y-104750000D03*
X115450000Y-104750000D03*
X115950000Y-104750000D03*
X116450000Y-104750000D03*
X116950000Y-104750000D03*
X117450000Y-104750000D03*
X117950000Y-104750000D03*
X118450000Y-104750000D03*
X118950000Y-104750000D03*
X119450000Y-104750000D03*
X119950000Y-104750000D03*
X120450000Y-104750000D03*
X120950000Y-104750000D03*
X121450000Y-104750000D03*
X121950000Y-104750000D03*
X122450000Y-104750000D03*
X122950000Y-104750000D03*
X123450000Y-104750000D03*
X123950000Y-104750000D03*
X124450000Y-104750000D03*
X124950000Y-104750000D03*
X125450000Y-104750000D03*
X125950000Y-104750000D03*
X126450000Y-104750000D03*
X126950000Y-104750000D03*
X127450000Y-104750000D03*
X127950000Y-104750000D03*
X128450000Y-104750000D03*
X128950000Y-104750000D03*
X129450000Y-104750000D03*
X129950000Y-104750000D03*
X130450000Y-104750000D03*
X130950000Y-104750000D03*
X131450000Y-104750000D03*
X131950000Y-104750000D03*
X132450000Y-104750000D03*
X132950000Y-104750000D03*
X133450000Y-104750000D03*
X133950000Y-104750000D03*
X134450000Y-104750000D03*
X134950000Y-104750000D03*
X135450000Y-104750000D03*
X135950000Y-104750000D03*
X136450000Y-104750000D03*
X136950000Y-104750000D03*
X137450000Y-104750000D03*
D18*
X104950000Y-99750000D03*
X104950000Y-100250000D03*
X104950000Y-101250000D03*
X104950000Y-100750000D03*
X104950000Y-101750000D03*
X104950000Y-97750000D03*
X104950000Y-99250000D03*
X104950000Y-98750000D03*
X104950000Y-98250000D03*
X104950000Y-97250000D03*
X104950000Y-95250000D03*
X104950000Y-96750000D03*
X104950000Y-96250000D03*
X104950000Y-95750000D03*
X104950000Y-94750000D03*
X104950000Y-92750000D03*
X104950000Y-94250000D03*
X104950000Y-93750000D03*
X104950000Y-93250000D03*
X104950000Y-92250000D03*
X104950000Y-91750000D03*
X104950000Y-91250000D03*
X104950000Y-90750000D03*
X104950000Y-90250000D03*
X104950000Y-89750000D03*
X104950000Y-89250000D03*
X104950000Y-88750000D03*
X104950000Y-88250000D03*
X104950000Y-87750000D03*
X104950000Y-87250000D03*
X104950000Y-72750000D03*
X104950000Y-74250000D03*
X104950000Y-73750000D03*
X104950000Y-73250000D03*
X104950000Y-72250000D03*
X104950000Y-75250000D03*
X104950000Y-76750000D03*
X104950000Y-76250000D03*
X104950000Y-75750000D03*
X104950000Y-74750000D03*
X104950000Y-85250000D03*
X104950000Y-86750000D03*
X104950000Y-86250000D03*
X104950000Y-85750000D03*
X104950000Y-84750000D03*
X104950000Y-82750000D03*
X104950000Y-84250000D03*
X104950000Y-83750000D03*
X104950000Y-83250000D03*
X104950000Y-82250000D03*
X104950000Y-80250000D03*
X104950000Y-81750000D03*
X104950000Y-81250000D03*
X104950000Y-80750000D03*
X104950000Y-79750000D03*
X104950000Y-77750000D03*
X104950000Y-79250000D03*
X104950000Y-78750000D03*
X104950000Y-78250000D03*
X104950000Y-77250000D03*
X140450000Y-100250000D03*
X140450000Y-99750000D03*
X140450000Y-101250000D03*
X140450000Y-100750000D03*
X140450000Y-101750000D03*
X140450000Y-97750000D03*
X140450000Y-99250000D03*
X140450000Y-98750000D03*
X140450000Y-98250000D03*
X140450000Y-97250000D03*
X140450000Y-95250000D03*
X140450000Y-96750000D03*
X140450000Y-96250000D03*
X140450000Y-95750000D03*
X140450000Y-94750000D03*
X140450000Y-92750000D03*
X140450000Y-94250000D03*
X140450000Y-93750000D03*
X140450000Y-93250000D03*
X140450000Y-92250000D03*
X140450000Y-91750000D03*
X140450000Y-91250000D03*
X140450000Y-90750000D03*
X140450000Y-90250000D03*
X140450000Y-89750000D03*
X140450000Y-89250000D03*
X140450000Y-88750000D03*
X140450000Y-88250000D03*
X140450000Y-87750000D03*
X140450000Y-87250000D03*
X140450000Y-72750000D03*
X140450000Y-74250000D03*
X140450000Y-73750000D03*
X140450000Y-73250000D03*
X140450000Y-72250000D03*
X140450000Y-75250000D03*
X140450000Y-76750000D03*
X140450000Y-76250000D03*
X140450000Y-75750000D03*
X140450000Y-74750000D03*
X140450000Y-85250000D03*
X140450000Y-86750000D03*
X140450000Y-86250000D03*
X140450000Y-85750000D03*
X140450000Y-84750000D03*
X140450000Y-82750000D03*
X140450000Y-84250000D03*
X140450000Y-83750000D03*
X140450000Y-83250000D03*
X140450000Y-82250000D03*
X140450000Y-80250000D03*
X140450000Y-81750000D03*
X140450000Y-81250000D03*
X140450000Y-80750000D03*
X140450000Y-79750000D03*
X140450000Y-77750000D03*
X140450000Y-79250000D03*
X140450000Y-78750000D03*
X140450000Y-78250000D03*
X140450000Y-77250000D03*
D19*
X98350000Y-77520000D03*
X98350000Y-76250000D03*
X98350000Y-74980000D03*
X98350000Y-73710000D03*
X98350000Y-72440000D03*
X98350000Y-71170000D03*
X98350000Y-69900000D03*
X98350000Y-68630000D03*
X92950000Y-68630000D03*
X92950000Y-69900000D03*
X92950000Y-71170000D03*
X92950000Y-72440000D03*
X92950000Y-73710000D03*
X92950000Y-74980000D03*
X92950000Y-76250000D03*
X92950000Y-77520000D03*
D14*
X120000000Y-120200000D03*
X120000000Y-121000000D03*
X120000000Y-121800000D03*
X120000000Y-122600000D03*
X120000000Y-123400000D03*
X120000000Y-124200000D03*
X120000000Y-125000000D03*
X120000000Y-125800000D03*
X120000000Y-126600000D03*
X120000000Y-127400000D03*
X120000000Y-128200000D03*
X108800000Y-115400000D03*
X108800000Y-116200000D03*
X108800000Y-117000000D03*
X108800000Y-117800000D03*
X108800000Y-118600000D03*
X108800000Y-119400000D03*
X108800000Y-120200000D03*
X108800000Y-121000000D03*
X108800000Y-121800000D03*
X108800000Y-122600000D03*
X108800000Y-123400000D03*
X108800000Y-124200000D03*
X108800000Y-125000000D03*
X108800000Y-125800000D03*
X108800000Y-126600000D03*
X108800000Y-127400000D03*
X108800000Y-128200000D03*
X108800000Y-129000000D03*
X108800000Y-129800000D03*
X108800000Y-130600000D03*
X108800000Y-131400000D03*
X108800000Y-132200000D03*
X120000000Y-132200000D03*
X120000000Y-131400000D03*
X120000000Y-130600000D03*
X120000000Y-129800000D03*
X120000000Y-129000000D03*
X120000000Y-128200000D03*
X120000000Y-127400000D03*
X120000000Y-126600000D03*
X120000000Y-125800000D03*
X120000000Y-125000000D03*
X120000000Y-124200000D03*
X120000000Y-123400000D03*
X120000000Y-122600000D03*
X120000000Y-121800000D03*
X120000000Y-121000000D03*
X120000000Y-120200000D03*
X120000000Y-119400000D03*
X120000000Y-118600000D03*
X120000000Y-117800000D03*
X120000000Y-117000000D03*
X120000000Y-116200000D03*
X120000000Y-115400000D03*
D20*
X95100000Y-137100000D03*
X95900000Y-137100000D03*
X96700000Y-137100000D03*
X97500000Y-137100000D03*
X98300000Y-137100000D03*
X99100000Y-137100000D03*
X99900000Y-137100000D03*
X100700000Y-137100000D03*
D21*
X102150000Y-135650000D03*
X102150000Y-134850000D03*
X102150000Y-134050000D03*
X102150000Y-133250000D03*
X102150000Y-132450000D03*
X102150000Y-131650000D03*
X102150000Y-130850000D03*
X102150000Y-130050000D03*
D20*
X100700000Y-128600000D03*
X99900000Y-128600000D03*
X99100000Y-128600000D03*
X98300000Y-128600000D03*
X97500000Y-128600000D03*
X96700000Y-128600000D03*
X95900000Y-128600000D03*
X95100000Y-128600000D03*
D21*
X93650000Y-130050000D03*
X93650000Y-130850000D03*
X93650000Y-131650000D03*
X93650000Y-132450000D03*
X93650000Y-133250000D03*
X93650000Y-134050000D03*
X93650000Y-134850000D03*
X93650000Y-135650000D03*
D19*
X90500000Y-98140000D03*
X90500000Y-99410000D03*
X90500000Y-100680000D03*
X90500000Y-101950000D03*
X90500000Y-103220000D03*
X90500000Y-104490000D03*
X90500000Y-105760000D03*
X95900000Y-105760000D03*
X95900000Y-104490000D03*
X95900000Y-103220000D03*
X95900000Y-101950000D03*
X95900000Y-100680000D03*
X95900000Y-99410000D03*
X95900000Y-98140000D03*
D22*
X93050000Y-80545000D03*
X93050000Y-81815000D03*
X93050000Y-83085000D03*
X93050000Y-84355000D03*
X98450000Y-84355000D03*
X98450000Y-83085000D03*
X98450000Y-81815000D03*
X98450000Y-80545000D03*
D23*
X108600000Y-143800000D03*
D24*
X108600000Y-146340000D03*
X106060000Y-143800000D03*
X106060000Y-146340000D03*
X103520000Y-143800000D03*
X103520000Y-146340000D03*
X100980000Y-143800000D03*
X100980000Y-146340000D03*
X98440000Y-143800000D03*
X98440000Y-146340000D03*
D23*
X135180000Y-143800000D03*
D24*
X135180000Y-146340000D03*
X132640000Y-143800000D03*
X132640000Y-146340000D03*
X130100000Y-143800000D03*
X130100000Y-146340000D03*
X127560000Y-143800000D03*
X127560000Y-146340000D03*
X125020000Y-143800000D03*
X125020000Y-146340000D03*
D25*
X125800000Y-53500000D03*
X125800000Y-54150000D03*
X125800000Y-54800000D03*
X125800000Y-55450000D03*
X125800000Y-56100000D03*
X125800000Y-56750000D03*
X125800000Y-57400000D03*
X131700000Y-57400000D03*
X131700000Y-56750000D03*
X131700000Y-56100000D03*
X131700000Y-55450000D03*
X131700000Y-54800000D03*
X131700000Y-54150000D03*
X131700000Y-53500000D03*
D26*
X139900000Y-52700000D03*
X137200000Y-52700000D03*
X139950000Y-55250000D03*
X137250000Y-55250000D03*
X139950000Y-57800000D03*
X137250000Y-57800000D03*
D12*
X105100000Y-64201520D03*
X105100000Y-62200000D03*
D13*
X105950900Y-64201520D03*
X105950900Y-62200000D03*
X106748460Y-64201520D03*
X106751000Y-62200000D03*
D12*
X107650160Y-64201520D03*
X107650160Y-62200000D03*
X109249840Y-64201520D03*
X109249840Y-62200000D03*
D13*
X110100740Y-64201520D03*
X110100740Y-62200000D03*
X110898300Y-64201520D03*
X110900840Y-62200000D03*
D12*
X111800000Y-64201520D03*
X111800000Y-62200000D03*
X113400000Y-64201520D03*
X113400000Y-62200000D03*
D13*
X114250900Y-64201520D03*
X114250900Y-62200000D03*
X115048460Y-64201520D03*
X115051000Y-62200000D03*
D12*
X115950160Y-64201520D03*
X115950160Y-62200000D03*
X117549100Y-64200000D03*
X117549100Y-62198480D03*
D13*
X118400000Y-64200000D03*
X118400000Y-62198480D03*
X119197560Y-64200000D03*
X119200100Y-62198480D03*
D12*
X120099260Y-64200000D03*
X120099260Y-62198480D03*
X105100000Y-60601520D03*
X105100000Y-58600000D03*
D13*
X105950900Y-60601520D03*
X105950900Y-58600000D03*
X106748460Y-60601520D03*
X106751000Y-58600000D03*
D12*
X107650160Y-60601520D03*
X107650160Y-58600000D03*
X109249840Y-60600000D03*
X109249840Y-58598480D03*
D13*
X110100740Y-60600000D03*
X110100740Y-58598480D03*
X110898300Y-60600000D03*
X110900840Y-58598480D03*
D12*
X111800000Y-60600000D03*
X111800000Y-58598480D03*
X113400000Y-60601520D03*
X113400000Y-58600000D03*
D13*
X114250900Y-60601520D03*
X114250900Y-58600000D03*
X115048460Y-60601520D03*
X115051000Y-58600000D03*
D12*
X115950160Y-60601520D03*
X115950160Y-58600000D03*
D27*
X109200000Y-53400000D03*
X109200000Y-56100000D03*
X120100000Y-53400000D03*
X120100000Y-56100000D03*
D26*
X99150000Y-53100000D03*
X96450000Y-53100000D03*
X99150000Y-57300000D03*
X96450000Y-57300000D03*
D27*
X115000000Y-53400000D03*
X115000000Y-56100000D03*
D26*
X99150000Y-55200000D03*
X96450000Y-55200000D03*
X96450000Y-63750000D03*
X99150000Y-63750000D03*
X96450000Y-61625001D03*
X99150000Y-61625001D03*
X96450000Y-59500000D03*
X99150000Y-59500000D03*
D28*
X87630000Y-124460000D03*
D29*
X87630000Y-121920000D03*
X87630000Y-119380000D03*
X87630000Y-116840000D03*
D28*
X87630000Y-137160000D03*
D29*
X87630000Y-134620000D03*
X87630000Y-132080000D03*
X87630000Y-129540000D03*
D28*
X87630000Y-101600000D03*
D29*
X87630000Y-99060000D03*
X87630000Y-96520000D03*
X87630000Y-93980000D03*
X87630000Y-91440000D03*
X87630000Y-88900000D03*
X87630000Y-86360000D03*
X87630000Y-83820000D03*
X87630000Y-81280000D03*
X87630000Y-78740000D03*
X87630000Y-76200000D03*
X87630000Y-73660000D03*
X87630000Y-71120000D03*
X87630000Y-68580000D03*
X87630000Y-66040000D03*
X87630000Y-63500000D03*
D30*
X169250000Y-52750000D03*
D31*
X171790000Y-52750000D03*
X174330000Y-52750000D03*
X176870000Y-52750000D03*
X179410000Y-52750000D03*
X181950000Y-52750000D03*
D27*
X149500000Y-148450000D03*
X149500000Y-145750000D03*
X166600000Y-148450000D03*
X166600000Y-145750000D03*
X168900000Y-148450000D03*
X168900000Y-145750000D03*
X171200000Y-148450000D03*
X171200000Y-145750000D03*
D26*
X183550000Y-140500000D03*
X180850000Y-140500000D03*
D27*
X152000000Y-145750000D03*
X152000000Y-148450000D03*
X104500000Y-132450000D03*
X104500000Y-129750000D03*
D26*
X107250000Y-134800000D03*
X104550000Y-134800000D03*
X97000000Y-139500000D03*
X99700000Y-139500000D03*
D27*
X154300000Y-148450000D03*
X154300000Y-145750000D03*
X146200000Y-148450000D03*
X146200000Y-145750000D03*
D28*
X87630000Y-60960000D03*
D29*
X87630000Y-58420000D03*
X87630000Y-55880000D03*
X87630000Y-53340000D03*
D27*
X90500000Y-95200000D03*
X90500000Y-92500000D03*
D32*
X181200000Y-86000000D03*
X181200000Y-80920000D03*
X177200000Y-80920000D03*
X177200000Y-86000000D03*
D33*
X90730000Y-64529500D03*
X93270000Y-64529500D03*
X90730000Y-62429500D03*
X93270000Y-62429500D03*
D12*
X106200000Y-137400000D03*
X106200000Y-139401520D03*
D13*
X105349100Y-137400000D03*
X105349100Y-139401520D03*
X104551540Y-137400000D03*
X104549000Y-139401520D03*
D12*
X103649840Y-137400000D03*
X103649840Y-139401520D03*
X131649680Y-137700000D03*
X131649680Y-139701520D03*
D13*
X130798780Y-137700000D03*
X130798780Y-139701520D03*
X130001220Y-137700000D03*
X129998680Y-139701520D03*
D12*
X129099520Y-137700000D03*
X129099520Y-139701520D03*
D34*
X180800000Y-138500000D03*
D27*
X158700000Y-148450000D03*
X158700000Y-145750000D03*
D35*
X174248860Y-57900000D03*
X174248860Y-59800000D03*
X177251140Y-58850000D03*
X174198860Y-61600000D03*
X174198860Y-63500000D03*
X177201140Y-62550000D03*
D26*
X171400000Y-59800000D03*
X168700000Y-59800000D03*
X179650000Y-58850000D03*
X182350000Y-58850000D03*
X171450000Y-63550000D03*
X168750000Y-63550000D03*
X179650000Y-62600000D03*
X182350000Y-62600000D03*
D36*
X90100000Y-141198360D03*
X90100000Y-146700000D03*
D37*
X90200000Y-127450000D03*
X90200000Y-131450000D03*
D38*
X102350000Y-83300000D03*
X102350000Y-80800000D03*
X143800000Y-108000000D03*
X143800000Y-105500000D03*
D28*
X87630000Y-114300000D03*
D29*
X87630000Y-111760000D03*
X87630000Y-109220000D03*
X87630000Y-106680000D03*
X87630000Y-104140000D03*
D39*
X94482920Y-109966760D03*
X92481400Y-109966760D03*
D40*
X94482920Y-109115860D03*
X92481400Y-109115860D03*
X94482920Y-108318300D03*
X92481400Y-108315760D03*
D39*
X94482920Y-107416600D03*
X92481400Y-107416600D03*
D11*
X181000000Y-146000000D03*
D41*
X100800000Y-90800000D03*
X96800000Y-90800000D03*
D42*
X97100000Y-92400000D03*
X164150000Y-145400000D03*
X160585936Y-141521369D03*
X149750000Y-112040160D03*
X148594127Y-144488157D03*
X139335614Y-90900799D03*
X123400000Y-107950000D03*
X118400000Y-103600000D03*
X159300000Y-77550000D03*
X159400000Y-61600000D03*
X159250000Y-82750000D03*
X174050000Y-95350000D03*
X173800000Y-74050000D03*
X116250000Y-123250000D03*
X112500000Y-124350000D03*
X93950000Y-136850000D03*
X124800000Y-59050000D03*
X99550000Y-75600000D03*
X94156070Y-74101214D03*
X94150000Y-98150000D03*
X175450000Y-63475000D03*
X175500000Y-59800000D03*
X93949996Y-100600000D03*
X108400000Y-67650000D03*
X101350000Y-84402330D03*
X103600000Y-82750000D03*
X108300000Y-86550000D03*
X118500000Y-82600000D03*
X122100000Y-82800000D03*
X114750000Y-78950000D03*
X159350000Y-87200000D03*
X162500000Y-82750000D03*
X103650002Y-89800000D03*
X97650000Y-64100000D03*
X100850000Y-133250000D03*
X133400000Y-109650000D03*
X128450000Y-109700000D03*
X139300000Y-80200000D03*
X115500000Y-67900000D03*
X98350000Y-67900000D03*
X91800000Y-84350000D03*
X151450000Y-138150000D03*
X141950000Y-119500000D03*
X157150000Y-105250000D03*
X159350000Y-91650000D03*
X143350000Y-80450000D03*
X146250000Y-75700000D03*
X153850000Y-78150000D03*
X172900000Y-89500000D03*
X169650000Y-84200000D03*
X181350000Y-79400000D03*
X130400000Y-55450000D03*
X143300000Y-61300000D03*
X146600000Y-71700000D03*
X160750000Y-72100000D03*
X96450000Y-51650000D03*
X91300000Y-89750000D03*
X91550000Y-92500000D03*
X122500000Y-103400000D03*
X139350000Y-97750000D03*
X142750000Y-89600000D03*
X103850000Y-80250000D03*
X176200000Y-143600000D03*
X167550000Y-141350000D03*
X163800000Y-141400000D03*
X156650000Y-144750000D03*
X150000000Y-141250000D03*
X142150000Y-140450000D03*
X142050000Y-136650000D03*
X141300000Y-133900000D03*
X142100000Y-132000000D03*
X141900000Y-127900000D03*
X141950000Y-125400000D03*
X141900000Y-123350000D03*
X142650000Y-105150000D03*
X148150000Y-105950000D03*
X151100000Y-110650000D03*
X153900000Y-111700000D03*
X159250000Y-106900000D03*
X163150000Y-106950000D03*
X161700000Y-94000000D03*
X165750000Y-110250000D03*
X167700000Y-110300000D03*
X172250000Y-110250000D03*
X174200000Y-110150000D03*
X176600000Y-111850000D03*
X179750000Y-115700000D03*
X179700000Y-120300000D03*
X179700000Y-124200000D03*
X179700000Y-126800000D03*
X179600000Y-128750000D03*
X179600000Y-132650000D03*
X179800000Y-135300000D03*
X176500000Y-137200000D03*
X171600000Y-141400000D03*
X172500000Y-148500000D03*
X148300000Y-149200000D03*
X155400000Y-148700000D03*
X138500000Y-68900000D03*
X125400000Y-70500000D03*
X120500000Y-70500000D03*
X106300000Y-97800000D03*
X112500000Y-106100000D03*
X139427919Y-85654061D03*
X118100000Y-123000000D03*
X106400000Y-122600000D03*
X144900000Y-82900000D03*
X130500000Y-70400000D03*
X95500000Y-71400000D03*
X128300000Y-56300000D03*
X139265660Y-88056720D03*
X94747080Y-110782100D03*
X94361000Y-101818440D03*
X152750000Y-101550000D03*
X141650000Y-117050000D03*
X118600000Y-124250000D03*
X136650000Y-100450000D03*
X157000000Y-75400000D03*
X182350000Y-61600000D03*
X182350000Y-59900000D03*
X167550000Y-59800000D03*
X167650000Y-63575000D03*
X94950238Y-99348204D03*
X96047670Y-129900000D03*
X109937261Y-107787261D03*
X142778798Y-77600055D03*
X141850000Y-75900000D03*
X89550000Y-63600000D03*
X91550000Y-98050000D03*
X103400000Y-83700000D03*
X125900000Y-107900000D03*
X130950000Y-109550000D03*
X120750000Y-103550000D03*
X112950000Y-67900000D03*
X157500000Y-144750000D03*
X172700000Y-87000000D03*
X159400000Y-89650000D03*
X153600000Y-72000000D03*
X172800000Y-93850000D03*
X146450000Y-73650000D03*
X156950000Y-61500000D03*
X152900000Y-75750000D03*
X115400000Y-103500000D03*
X139000000Y-93750000D03*
X139350000Y-84250000D03*
X106100000Y-76250000D03*
X106200000Y-93750000D03*
X147550000Y-106750000D03*
X151600000Y-147200000D03*
X100800000Y-127300000D03*
X123000000Y-70400000D03*
X118200000Y-70600000D03*
X127900000Y-70400000D03*
X171100000Y-71900000D03*
X168900000Y-82800000D03*
X156700000Y-82300000D03*
X159300000Y-84400000D03*
X166600000Y-141300000D03*
X173200000Y-141200000D03*
X176200000Y-138900000D03*
X176400000Y-134600000D03*
X176400000Y-130700000D03*
X176300000Y-126400000D03*
X179600000Y-122200000D03*
X179700000Y-118300000D03*
X176400000Y-116000000D03*
X176500000Y-113800000D03*
X174900000Y-106900000D03*
X170900000Y-106800000D03*
X169700000Y-106800000D03*
X165100000Y-106800000D03*
X161200000Y-107000000D03*
X156700000Y-106700000D03*
X148400000Y-111000000D03*
X146900000Y-121600000D03*
X147000000Y-125400000D03*
X146800000Y-130000000D03*
X142200000Y-134600000D03*
X142200000Y-138500000D03*
X151000000Y-144600000D03*
X156000000Y-140800000D03*
X159300000Y-140900000D03*
X96700000Y-138400000D03*
X94800000Y-131700000D03*
X107200000Y-133500000D03*
X107000000Y-137300000D03*
X132500000Y-137500000D03*
X147400000Y-148700000D03*
X160300000Y-147600000D03*
X183600000Y-139400000D03*
X179200000Y-84100000D03*
X92600000Y-78300000D03*
X99400000Y-79600000D03*
X139400000Y-69900000D03*
X133126811Y-70452329D03*
X107364512Y-122913308D03*
X110000000Y-96700000D03*
X141708540Y-97637130D03*
X176229378Y-124805319D03*
X142191755Y-97043918D03*
X176400000Y-123550000D03*
X141624492Y-96478152D03*
X175700000Y-122900000D03*
X141700000Y-98450000D03*
X176550000Y-125500000D03*
X142214417Y-95948596D03*
X176400000Y-121600000D03*
X141518099Y-95380704D03*
X175750000Y-120900000D03*
X142110594Y-94853274D03*
X176500000Y-119650000D03*
X141680370Y-94220579D03*
X175750000Y-119000000D03*
X142164470Y-93628091D03*
X176500000Y-117700000D03*
X142000000Y-92850000D03*
X175950000Y-117050000D03*
X181400000Y-91750000D03*
X168738654Y-91548990D03*
X180750000Y-90550000D03*
X169068865Y-90129177D03*
X180100000Y-89450000D03*
X169316536Y-88909358D03*
X169784898Y-87842159D03*
X179250000Y-88200000D03*
X168408443Y-93276864D03*
X182150000Y-93600000D03*
X149752107Y-93482752D03*
X148092593Y-74552330D03*
X149250000Y-94100000D03*
X147371060Y-76152330D03*
X152400000Y-93450000D03*
X150319668Y-73104679D03*
X150858498Y-93796601D03*
X148700000Y-73247670D03*
X151900000Y-94050000D03*
X149255075Y-72152330D03*
X151300000Y-75447670D03*
X154701392Y-93246751D03*
X153950000Y-93850000D03*
X150600000Y-74200000D03*
X152000000Y-76947670D03*
X155750000Y-93550000D03*
X157650000Y-94000000D03*
X153200000Y-79300000D03*
X156650000Y-93400000D03*
X152600000Y-78100000D03*
X158315340Y-93378551D03*
X153787743Y-80498639D03*
X162624287Y-90452330D03*
X162391600Y-95801120D03*
X159129616Y-93369661D03*
X153787733Y-82098637D03*
X162315106Y-91647670D03*
X161513971Y-95858944D03*
X170800000Y-95550000D03*
X167900021Y-86746829D03*
X169532560Y-96164613D03*
X167100000Y-84100000D03*
X170750000Y-96450000D03*
X168100000Y-85400000D03*
X168350000Y-95850000D03*
X166500000Y-83400000D03*
X167971787Y-96515095D03*
X165812725Y-84759329D03*
X166900000Y-96300000D03*
X165234844Y-85947670D03*
X164900000Y-96150000D03*
X163670244Y-88152330D03*
X165950000Y-96350000D03*
X164632622Y-87253302D03*
X163550000Y-95950000D03*
X162992610Y-89367257D03*
X142613606Y-79172104D03*
X146500000Y-94150000D03*
X148200000Y-93800000D03*
X146800000Y-77247670D03*
X147150000Y-93600000D03*
X146277844Y-78632424D03*
X146050000Y-94999998D03*
X141593008Y-80077908D03*
X130300000Y-89100000D03*
X124532577Y-88858069D03*
X94700000Y-105000000D03*
X135700000Y-70547782D03*
X147734260Y-69247670D03*
X158562254Y-79787746D03*
X146653044Y-67952330D03*
X158550000Y-78950000D03*
X147689530Y-67183998D03*
X158500000Y-77900000D03*
X148710055Y-66644842D03*
X158450000Y-77000000D03*
X158612261Y-75337739D03*
X149539952Y-65710047D03*
X150416924Y-65001973D03*
X158150000Y-74100000D03*
X158000000Y-72900000D03*
X151600000Y-64350000D03*
X158950000Y-72900000D03*
X152250000Y-63300000D03*
X158500000Y-71500000D03*
X153300000Y-62500000D03*
X92200000Y-134250000D03*
X126350000Y-78500000D03*
X95500000Y-138550000D03*
X127250000Y-78500000D03*
X143968695Y-82959246D03*
X138700000Y-82750000D03*
X138141028Y-69669920D03*
X104500000Y-128450000D03*
X100850000Y-134700000D03*
X107750000Y-113050000D03*
X106800000Y-96600000D03*
X126300000Y-121800000D03*
X136100000Y-111500000D03*
X121000000Y-100900000D03*
X146200000Y-141600000D03*
X98350000Y-93700000D03*
X122000000Y-100900000D03*
X153400000Y-141100000D03*
X123000000Y-100900000D03*
X154000000Y-141600000D03*
X124000000Y-100800000D03*
X154700000Y-141100000D03*
X124900000Y-100800000D03*
X155300000Y-141600000D03*
X123294979Y-86568996D03*
X137200000Y-86200000D03*
X142050000Y-69500000D03*
X158550000Y-80600000D03*
X146443331Y-69577881D03*
X125800000Y-100800000D03*
X158600000Y-141700000D03*
X126700000Y-100800000D03*
X161800000Y-141600000D03*
X127600000Y-100800000D03*
X165700000Y-141600000D03*
X128500000Y-100800000D03*
X169600000Y-141200000D03*
X129400000Y-100800000D03*
X170300000Y-141600000D03*
X130200000Y-100800000D03*
X174800000Y-141500000D03*
X176500000Y-139800000D03*
X133476728Y-103223777D03*
X176500000Y-135900000D03*
X134294404Y-103266944D03*
X176500000Y-131900000D03*
X135188238Y-102611762D03*
X176500000Y-133300000D03*
X134300984Y-102499016D03*
X176500000Y-129400000D03*
X135183543Y-101832559D03*
X176000000Y-128100000D03*
X135995298Y-101869805D03*
X176500000Y-127400000D03*
X136000000Y-101100000D03*
X106773980Y-102438200D03*
X91750000Y-101950000D03*
X91750000Y-100250000D03*
X106150000Y-99750000D03*
X92735400Y-100469700D03*
X106450000Y-100700000D03*
X107350002Y-73950000D03*
X107950000Y-75350000D03*
X108600000Y-77050000D03*
X110292026Y-70484889D03*
X110782812Y-71071852D03*
X111402330Y-71520844D03*
X111902330Y-72150000D03*
X112450000Y-72700000D03*
X113387660Y-70483863D03*
X113902330Y-71050000D03*
X114402330Y-71650000D03*
X114950000Y-72300000D03*
X115887660Y-70433863D03*
X116402330Y-71000000D03*
X116902330Y-71600000D03*
X117450000Y-72200000D03*
X107750000Y-56650000D03*
X108500000Y-63200000D03*
X112750000Y-56500000D03*
X112600000Y-63200000D03*
X103150000Y-90800000D03*
X106304080Y-101797660D03*
X106967020Y-98844100D03*
X124200000Y-55400000D03*
X134900000Y-70700000D03*
X94250000Y-62400000D03*
X96773996Y-85536422D03*
X95300000Y-78900000D03*
X106650000Y-91400000D03*
X98450000Y-121650000D03*
X106850000Y-113050000D03*
X99799998Y-135700000D03*
X100150000Y-131900000D03*
X107700000Y-114000000D03*
X125700000Y-121300000D03*
X136000000Y-110700000D03*
X128300000Y-78600000D03*
X102700000Y-138900000D03*
X157300000Y-141526600D03*
X120500000Y-106500000D03*
X136900000Y-143200000D03*
X136900000Y-145650000D03*
X96599998Y-134000000D03*
X151550000Y-139950000D03*
X106834940Y-88140540D03*
X107363260Y-87541100D03*
X125700000Y-88465154D03*
X126900002Y-88100000D03*
X136600000Y-96200000D03*
D43*
X96800000Y-90800000D02*
X96800000Y-92100000D01*
X96800000Y-92100000D02*
X97100000Y-92400000D01*
D44*
X98350000Y-72440000D02*
X99265100Y-72440000D01*
X99265100Y-72440000D02*
X99347651Y-72357449D01*
X99347651Y-72357449D02*
X99347651Y-69177651D01*
X99347651Y-69177651D02*
X98800000Y-68630000D01*
X98800000Y-68630000D02*
X98350000Y-68630000D01*
X98350000Y-73710000D02*
X98350000Y-72440000D01*
D43*
X131700000Y-54800000D02*
X131700000Y-55450000D01*
D45*
X87630000Y-132080000D02*
X89570000Y-132080000D01*
X89570000Y-132080000D02*
X90200000Y-131450000D01*
D43*
X160550000Y-141557305D02*
X160585936Y-141521369D01*
X160550000Y-143056240D02*
X160550000Y-141557305D01*
X149450001Y-112340159D02*
X149750000Y-112040160D01*
X146044000Y-115746160D02*
X149450001Y-112340159D01*
X143643760Y-115746160D02*
X146044000Y-115746160D01*
X142650000Y-105150000D02*
X143450000Y-105150000D01*
X143450000Y-105150000D02*
X143800000Y-105500000D01*
X148734563Y-144488157D02*
X148594127Y-144488157D01*
X148845680Y-143056240D02*
X148845680Y-144377040D01*
X148845680Y-144377040D02*
X148734563Y-144488157D01*
X102350000Y-80800000D02*
X103300000Y-80800000D01*
X103300000Y-80800000D02*
X103850000Y-80250000D01*
X118400000Y-103600000D02*
X118400000Y-104700000D01*
X118400000Y-104700000D02*
X118450000Y-104750000D01*
D45*
X90100000Y-146700000D02*
X98080000Y-146700000D01*
X98080000Y-146700000D02*
X98440000Y-146340000D01*
D43*
X174198860Y-63500000D02*
X175425000Y-63500000D01*
X175425000Y-63500000D02*
X175450000Y-63475000D01*
X174248860Y-59800000D02*
X175500000Y-59800000D01*
X95900000Y-100680000D02*
X94029996Y-100680000D01*
X94029996Y-100680000D02*
X93949996Y-100600000D01*
X108950000Y-68250000D02*
X108950000Y-69250000D01*
X108400000Y-67700000D02*
X108950000Y-68250000D01*
X108400000Y-67650000D02*
X108400000Y-67700000D01*
D46*
X160850000Y-87000000D02*
X159550000Y-87000000D01*
X159550000Y-87000000D02*
X159350000Y-87200000D01*
X160850000Y-83000000D02*
X162250000Y-83000000D01*
X162250000Y-83000000D02*
X162500000Y-82750000D01*
D44*
X103700002Y-89750000D02*
X103650002Y-89800000D01*
X104950000Y-89750000D02*
X103700002Y-89750000D01*
D43*
X97300000Y-63750000D02*
X96450000Y-63750000D01*
X97650000Y-64100000D02*
X97300000Y-63750000D01*
X93270000Y-64529500D02*
X95670500Y-64529500D01*
X95670500Y-64529500D02*
X96450000Y-63750000D01*
X102150000Y-133250000D02*
X100850000Y-133250000D01*
X133450000Y-104750000D02*
X133450000Y-109600000D01*
X133450000Y-109600000D02*
X133400000Y-109650000D01*
X128450000Y-104750000D02*
X128450000Y-109700000D01*
X140450000Y-80250000D02*
X139350000Y-80250000D01*
X139350000Y-80250000D02*
X139300000Y-80200000D01*
X115450000Y-69250000D02*
X115450000Y-67950000D01*
X115450000Y-67950000D02*
X115500000Y-67900000D01*
D44*
X115450000Y-67950000D02*
X115500000Y-67900000D01*
X109950000Y-69250000D02*
X109950000Y-68500000D01*
X109000000Y-68200000D02*
X108950000Y-68250000D01*
X109650000Y-68200000D02*
X109000000Y-68200000D01*
X109950000Y-68500000D02*
X109650000Y-68200000D01*
D43*
X98350000Y-68630000D02*
X98350000Y-67900000D01*
X93050000Y-84355000D02*
X91805000Y-84355000D01*
X91805000Y-84355000D02*
X91800000Y-84350000D01*
X143643760Y-119647600D02*
X142097600Y-119647600D01*
X142097600Y-119647600D02*
X141950000Y-119500000D01*
D46*
X157298800Y-108593520D02*
X157298800Y-105398800D01*
X157298800Y-105398800D02*
X157150000Y-105250000D01*
X160850000Y-91800000D02*
X159500000Y-91800000D01*
X159500000Y-91800000D02*
X159350000Y-91650000D01*
X144850000Y-80700000D02*
X143600000Y-80700000D01*
X143600000Y-80700000D02*
X143350000Y-80450000D01*
X144850000Y-75900000D02*
X146050000Y-75900000D01*
X146050000Y-75900000D02*
X146250000Y-75700000D01*
D43*
X155250000Y-78300000D02*
X154000000Y-78300000D01*
X154000000Y-78300000D02*
X153850000Y-78150000D01*
X171250000Y-89400000D02*
X172850000Y-89400000D01*
X172850000Y-89450000D02*
X172900000Y-89500000D01*
X172850000Y-89400000D02*
X172850000Y-89450000D01*
X171250000Y-84600000D02*
X170100000Y-84600000D01*
X170050000Y-84600000D02*
X169650000Y-84200000D01*
X170100000Y-84600000D02*
X170050000Y-84600000D01*
X181200000Y-80920000D02*
X181350000Y-80770000D01*
X181350000Y-80770000D02*
X181350000Y-79400000D01*
X131700000Y-55450000D02*
X130400000Y-55450000D01*
X143500000Y-61500000D02*
X144850000Y-61500000D01*
X143300000Y-61300000D02*
X143500000Y-61500000D01*
D44*
X144850000Y-71900000D02*
X146400000Y-71900000D01*
X146400000Y-71900000D02*
X146600000Y-71700000D01*
D43*
X160750000Y-72100000D02*
X160600000Y-72100000D01*
X156550000Y-73500000D02*
X155250000Y-73500000D01*
X157250000Y-72800000D02*
X156550000Y-73500000D01*
X157250000Y-71650000D02*
X157250000Y-72800000D01*
X158050000Y-70850000D02*
X157250000Y-71650000D01*
X159350000Y-70850000D02*
X158050000Y-70850000D01*
X160600000Y-72100000D02*
X159350000Y-70850000D01*
X160850000Y-72600000D02*
X160850000Y-72200000D01*
X160850000Y-72200000D02*
X160750000Y-72100000D01*
X96450000Y-63750000D02*
X96450000Y-61625001D01*
X96450000Y-61625001D02*
X96450000Y-59500000D01*
X96450000Y-59500000D02*
X96450000Y-57300000D01*
X96450000Y-57300000D02*
X96450000Y-55200000D01*
X96450000Y-55200000D02*
X96450000Y-53100000D01*
X96450000Y-53100000D02*
X96450000Y-51650000D01*
X90500000Y-92500000D02*
X91550000Y-92500000D01*
X123450000Y-104750000D02*
X123450000Y-103800000D01*
X123050000Y-103400000D02*
X122500000Y-103400000D01*
X123450000Y-103800000D02*
X123050000Y-103400000D01*
X140450000Y-97750000D02*
X139350000Y-97750000D01*
X140450000Y-89750000D02*
X142600000Y-89750000D01*
X142600000Y-89750000D02*
X142750000Y-89600000D01*
X130450000Y-69250000D02*
X130450000Y-70350000D01*
X130450000Y-70350000D02*
X130500000Y-70400000D01*
X125450000Y-69250000D02*
X125450000Y-70450000D01*
X125450000Y-70450000D02*
X125400000Y-70500000D01*
X120450000Y-69250000D02*
X120450000Y-70450000D01*
X120450000Y-70450000D02*
X120500000Y-70500000D01*
X104950000Y-80250000D02*
X103850000Y-80250000D01*
X175505520Y-143056240D02*
X175656240Y-143056240D01*
X175656240Y-143056240D02*
X176200000Y-143600000D01*
X167052400Y-143056240D02*
X167052400Y-141847600D01*
X167052400Y-141847600D02*
X167550000Y-141350000D01*
X165101680Y-143056240D02*
X165101680Y-141951680D01*
X164550000Y-141400000D02*
X163800000Y-141400000D01*
X165101680Y-141951680D02*
X164550000Y-141400000D01*
X163801200Y-143056240D02*
X163801200Y-141401200D01*
X163801200Y-141401200D02*
X163800000Y-141400000D01*
X163150960Y-143056240D02*
X163801200Y-143056240D01*
X159899760Y-143056240D02*
X160550000Y-143056240D01*
X160550000Y-143056240D02*
X161200240Y-143056240D01*
X156648560Y-143056240D02*
X156648560Y-144748560D01*
X156648560Y-144748560D02*
X156650000Y-144750000D01*
X150796400Y-143056240D02*
X150796400Y-141996400D01*
X150050000Y-141250000D02*
X150000000Y-141250000D01*
X150796400Y-141996400D02*
X150050000Y-141250000D01*
X143643760Y-140455280D02*
X142155280Y-140455280D01*
X142155280Y-140455280D02*
X142150000Y-140450000D01*
X143643760Y-136553840D02*
X142146160Y-136553840D01*
X142146160Y-136553840D02*
X142050000Y-136650000D01*
X143643760Y-133952880D02*
X141352880Y-133952880D01*
X141352880Y-133952880D02*
X141300000Y-133900000D01*
X143643760Y-132002160D02*
X142102160Y-132002160D01*
X142102160Y-132002160D02*
X142100000Y-132000000D01*
X143643760Y-128100720D02*
X142100720Y-128100720D01*
X142100720Y-128100720D02*
X141900000Y-127900000D01*
X143643760Y-126150000D02*
X142450000Y-126150000D01*
X141950000Y-125650000D02*
X141950000Y-125400000D01*
X142450000Y-126150000D02*
X141950000Y-125650000D01*
X142099040Y-123549040D02*
X141900000Y-123350000D01*
X143643760Y-123549040D02*
X142099040Y-123549040D01*
X143643760Y-111194480D02*
X142650000Y-110200720D01*
X142650000Y-110200720D02*
X142650000Y-105150000D01*
X148195440Y-108593520D02*
X148300000Y-108488960D01*
X148300000Y-108488960D02*
X148300000Y-106100000D01*
X148300000Y-106100000D02*
X148150000Y-105950000D01*
X150146160Y-108593520D02*
X150150000Y-108597360D01*
X150150000Y-108597360D02*
X150150000Y-109700000D01*
X150150000Y-109700000D02*
X151100000Y-110650000D01*
X151446640Y-108593520D02*
X151450000Y-108596880D01*
X151450000Y-108596880D02*
X151450000Y-110300000D01*
X151450000Y-110300000D02*
X151100000Y-110650000D01*
X154697840Y-108593520D02*
X154700000Y-108595680D01*
X154700000Y-108595680D02*
X154700000Y-110900000D01*
X154700000Y-110900000D02*
X153900000Y-111700000D01*
X159249520Y-108593520D02*
X159250000Y-108593040D01*
X159250000Y-108593040D02*
X159250000Y-106900000D01*
X163150960Y-108593520D02*
X163150000Y-108592560D01*
X163150000Y-108592560D02*
X163150000Y-106950000D01*
X160850000Y-93400000D02*
X161100000Y-93400000D01*
X161100000Y-93400000D02*
X161700000Y-94000000D01*
X165751920Y-108593520D02*
X165750000Y-108595440D01*
X165750000Y-108595440D02*
X165750000Y-110250000D01*
X167702640Y-108593520D02*
X167700000Y-108596160D01*
X167700000Y-108596160D02*
X167700000Y-110300000D01*
X172254320Y-108593520D02*
X172250000Y-108597840D01*
X172250000Y-108597840D02*
X172250000Y-110250000D01*
X174205040Y-108593520D02*
X174200000Y-108598560D01*
X174200000Y-108598560D02*
X174200000Y-110150000D01*
X178106480Y-111844720D02*
X178101200Y-111850000D01*
X178101200Y-111850000D02*
X176600000Y-111850000D01*
X178106480Y-115746160D02*
X178152640Y-115700000D01*
X178152640Y-115700000D02*
X179750000Y-115700000D01*
X178106480Y-120297840D02*
X178108640Y-120300000D01*
X178108640Y-120300000D02*
X179700000Y-120300000D01*
X178106480Y-124199280D02*
X178107200Y-124200000D01*
X178107200Y-124200000D02*
X179700000Y-124200000D01*
X178106480Y-126800240D02*
X178106720Y-126800000D01*
X178106720Y-126800000D02*
X179700000Y-126800000D01*
X178106480Y-128750960D02*
X178107440Y-128750000D01*
X178107440Y-128750000D02*
X179600000Y-128750000D01*
X178106480Y-132652400D02*
X178108880Y-132650000D01*
X178108880Y-132650000D02*
X179600000Y-132650000D01*
X178106480Y-135253360D02*
X178153120Y-135300000D01*
X178153120Y-135300000D02*
X179800000Y-135300000D01*
X178106480Y-137204080D02*
X178102400Y-137200000D01*
X178102400Y-137200000D02*
X176500000Y-137200000D01*
X171604080Y-143056240D02*
X171600000Y-143052160D01*
X171600000Y-143052160D02*
X171600000Y-141400000D01*
X166600000Y-148450000D02*
X168900000Y-148450000D01*
X168900000Y-148450000D02*
X171200000Y-148450000D01*
X171200000Y-148450000D02*
X172450000Y-148450000D01*
X172450000Y-148450000D02*
X172500000Y-148500000D01*
X149500000Y-148450000D02*
X148750000Y-149200000D01*
X148750000Y-149200000D02*
X148300000Y-149200000D01*
X154300000Y-148450000D02*
X154550000Y-148700000D01*
X154550000Y-148700000D02*
X155400000Y-148700000D01*
D44*
X138352349Y-68352349D02*
X138500000Y-68500000D01*
X138500000Y-68500000D02*
X138500000Y-68900000D01*
X135950000Y-69250000D02*
X136327349Y-69250000D01*
X136577349Y-69000000D02*
X136577349Y-68401879D01*
X136327349Y-69250000D02*
X136577349Y-69000000D01*
X136626879Y-68352349D02*
X138352349Y-68352349D01*
X136577349Y-68401879D02*
X136626879Y-68352349D01*
X135950000Y-69250000D02*
X135450000Y-69250000D01*
X136450000Y-69250000D02*
X135950000Y-69250000D01*
X125450000Y-70450000D02*
X125400000Y-70500000D01*
X120450000Y-70450000D02*
X120500000Y-70500000D01*
X104950000Y-97750000D02*
X106250000Y-97750000D01*
X106250000Y-97750000D02*
X106300000Y-97800000D01*
X112450000Y-104750000D02*
X112450000Y-106050000D01*
X112450000Y-106050000D02*
X112500000Y-106100000D01*
X140450000Y-85750000D02*
X139523858Y-85750000D01*
X139523858Y-85750000D02*
X139427919Y-85654061D01*
X120000000Y-123400000D02*
X118500000Y-123400000D01*
X118500000Y-123400000D02*
X118100000Y-123000000D01*
X106400000Y-122965100D02*
X106400000Y-122600000D01*
X107634900Y-124200000D02*
X106400000Y-122965100D01*
X108800000Y-124200000D02*
X107634900Y-124200000D01*
X144850000Y-82300000D02*
X144850000Y-82850000D01*
X144850000Y-82850000D02*
X144900000Y-82900000D01*
X130450000Y-70350000D02*
X130500000Y-70400000D01*
X95830000Y-71170000D02*
X95600000Y-71400000D01*
X95600000Y-71400000D02*
X95500000Y-71400000D01*
X98350000Y-71170000D02*
X95830000Y-71170000D01*
D43*
X131700000Y-54150000D02*
X130450000Y-54150000D01*
X130450000Y-54150000D02*
X128300000Y-56300000D01*
D45*
X90100000Y-141198360D02*
X90100000Y-139630000D01*
X90100000Y-139630000D02*
X87630000Y-137160000D01*
D43*
X139265660Y-87979540D02*
X139265660Y-88056720D01*
X139495200Y-87750000D02*
X139265660Y-87979540D01*
X140450000Y-87750000D02*
X139495200Y-87750000D01*
X94482920Y-109966760D02*
X94482920Y-110517940D01*
X94482920Y-110517940D02*
X94747080Y-110782100D01*
X94482920Y-109115860D02*
X94482920Y-109966760D01*
X94482920Y-108318300D02*
X94482920Y-109115860D01*
X94482920Y-107416600D02*
X94482920Y-108318300D01*
X94492560Y-101950000D02*
X94361000Y-101818440D01*
X95900000Y-101950000D02*
X94492560Y-101950000D01*
X157949040Y-144300960D02*
X157500000Y-144750000D01*
X157949040Y-143056240D02*
X157949040Y-144300960D01*
X152747120Y-108593520D02*
X152747120Y-101552880D01*
X152747120Y-101552880D02*
X152750000Y-101550000D01*
X145000000Y-111800000D02*
X147600000Y-111800000D01*
X143688480Y-111800000D02*
X145000000Y-111800000D01*
X145000000Y-110254800D02*
X143800000Y-109054800D01*
X145000000Y-111800000D02*
X145000000Y-110254800D01*
X143800000Y-109054800D02*
X143800000Y-108000000D01*
X143643760Y-117696880D02*
X142296880Y-117696880D01*
X142296880Y-117696880D02*
X141650000Y-117050000D01*
X103400000Y-83700000D02*
X102750000Y-83700000D01*
X102750000Y-83700000D02*
X102350000Y-83300000D01*
D44*
X139100001Y-70199999D02*
X139400000Y-69900000D01*
X139082429Y-70217571D02*
X139100001Y-70199999D01*
X136950000Y-69250000D02*
X136950000Y-70065100D01*
X136950000Y-70065100D02*
X137102471Y-70217571D01*
X137102471Y-70217571D02*
X139082429Y-70217571D01*
X118650000Y-124200000D02*
X118600000Y-124250000D01*
X120000000Y-124200000D02*
X118650000Y-124200000D01*
D43*
X135950000Y-103300000D02*
X136650000Y-102600000D01*
X136650000Y-100874264D02*
X136650000Y-100450000D01*
X136650000Y-102600000D02*
X136650000Y-100874264D01*
X135950000Y-104750000D02*
X135950000Y-103300000D01*
X155250000Y-75900000D02*
X156500000Y-75900000D01*
X156500000Y-75900000D02*
X157000000Y-75400000D01*
X182350000Y-62600000D02*
X182350000Y-61600000D01*
X182350000Y-58850000D02*
X182350000Y-59900000D01*
X168700000Y-59800000D02*
X167550000Y-59800000D01*
X168750000Y-63550000D02*
X167675000Y-63550000D01*
X167675000Y-63550000D02*
X167650000Y-63575000D01*
X95374502Y-99348204D02*
X94950238Y-99348204D01*
X95838204Y-99348204D02*
X95374502Y-99348204D01*
X95900000Y-99410000D02*
X95838204Y-99348204D01*
X95900000Y-128600000D02*
X95900000Y-129752330D01*
X95900000Y-129752330D02*
X96047670Y-129900000D01*
D44*
X109950000Y-104750000D02*
X109950000Y-107774522D01*
X109950000Y-107774522D02*
X109937261Y-107787261D01*
X144850000Y-78300000D02*
X143478743Y-78300000D01*
X143478743Y-78300000D02*
X142778798Y-77600055D01*
D43*
X140500061Y-76199939D02*
X141550061Y-76199939D01*
X140450000Y-76250000D02*
X140500061Y-76199939D01*
X141550061Y-76199939D02*
X141850000Y-75900000D01*
X89550000Y-63600000D02*
X89800500Y-63600000D01*
X89800500Y-63600000D02*
X90730000Y-64529500D01*
X89550000Y-63600000D02*
X90720500Y-62429500D01*
X90720500Y-62429500D02*
X90730000Y-62429500D01*
X90500000Y-98140000D02*
X91460000Y-98140000D01*
X91460000Y-98140000D02*
X91550000Y-98050000D01*
X103699999Y-83999999D02*
X103400000Y-83700000D01*
X103950000Y-84250000D02*
X103699999Y-83999999D01*
X104950000Y-84250000D02*
X103950000Y-84250000D01*
X125950000Y-104750000D02*
X125950000Y-107850000D01*
X125950000Y-107850000D02*
X125900000Y-107900000D01*
X130950000Y-104750000D02*
X130950000Y-109550000D01*
X120950000Y-104750000D02*
X120950000Y-103750000D01*
X120950000Y-103750000D02*
X120750000Y-103550000D01*
X112950000Y-69250000D02*
X112950000Y-67900000D01*
D46*
X172700000Y-87000000D02*
X171250000Y-87000000D01*
D44*
X160850000Y-89400000D02*
X159650000Y-89400000D01*
X159650000Y-89400000D02*
X159400000Y-89650000D01*
D43*
X155250000Y-71900000D02*
X153700000Y-71900000D01*
X153700000Y-71900000D02*
X153600000Y-72000000D01*
X172650000Y-93400000D02*
X172650000Y-93700000D01*
X172650000Y-93700000D02*
X172800000Y-93850000D01*
X171250000Y-91800000D02*
X171300000Y-91750000D01*
X171300000Y-91750000D02*
X172450000Y-91750000D01*
X172450000Y-91750000D02*
X172800000Y-92100000D01*
X172800000Y-92100000D02*
X172800000Y-93250000D01*
X172800000Y-93250000D02*
X172650000Y-93400000D01*
X172650000Y-93400000D02*
X171250000Y-93400000D01*
D44*
X146300000Y-73500000D02*
X144850000Y-73500000D01*
X146450000Y-73650000D02*
X146300000Y-73500000D01*
D43*
X155250000Y-61500000D02*
X156950000Y-61500000D01*
X155250000Y-75900000D02*
X153050000Y-75900000D01*
X153050000Y-75900000D02*
X152900000Y-75750000D01*
X115450000Y-104750000D02*
X115450000Y-103550000D01*
X115450000Y-103550000D02*
X115400000Y-103500000D01*
X139000000Y-93750000D02*
X140450000Y-93750000D01*
X139350000Y-84250000D02*
X140450000Y-84250000D01*
X132950000Y-69250000D02*
X132950000Y-70275518D01*
X132950000Y-70275518D02*
X133126811Y-70452329D01*
X106100000Y-76250000D02*
X104950000Y-76250000D01*
X106200000Y-93750000D02*
X104950000Y-93750000D01*
X104500000Y-132450000D02*
X104900000Y-132450000D01*
X104900000Y-132450000D02*
X107250000Y-134800000D01*
X147550000Y-106750000D02*
X147550000Y-108588720D01*
X147550000Y-108588720D02*
X147545200Y-108593520D01*
X151600000Y-147200000D02*
X151600000Y-148050000D01*
X151600000Y-148050000D02*
X152000000Y-148450000D01*
X100700000Y-128600000D02*
X100800000Y-128500000D01*
X100800000Y-128500000D02*
X100800000Y-127300000D01*
X122950000Y-69250000D02*
X123000000Y-69300000D01*
X123000000Y-69300000D02*
X123000000Y-70400000D01*
X117950000Y-69250000D02*
X117900000Y-69300000D01*
X117900000Y-69300000D02*
X117900000Y-70300000D01*
X117900000Y-70300000D02*
X118200000Y-70600000D01*
X127950000Y-69250000D02*
X127900000Y-69300000D01*
X127900000Y-69300000D02*
X127900000Y-70400000D01*
X171250000Y-72600000D02*
X171100000Y-72450000D01*
X171100000Y-72450000D02*
X171100000Y-71900000D01*
X171250000Y-83000000D02*
X169100000Y-83000000D01*
X169100000Y-83000000D02*
X168900000Y-82800000D01*
X156700000Y-80700000D02*
X156700000Y-82300000D01*
X155250000Y-80700000D02*
X156700000Y-80700000D01*
X155250000Y-82300000D02*
X156700000Y-82300000D01*
X160850000Y-84600000D02*
X159500000Y-84600000D01*
X159500000Y-84600000D02*
X159300000Y-84400000D01*
X152096880Y-143056240D02*
X151446640Y-143056240D01*
X166402160Y-143056240D02*
X166400000Y-143054080D01*
X166400000Y-143054080D02*
X166400000Y-141500000D01*
X166400000Y-141500000D02*
X166600000Y-141300000D01*
X173554800Y-143056240D02*
X173600000Y-143011040D01*
X173600000Y-143011040D02*
X173600000Y-141600000D01*
X173600000Y-141600000D02*
X173200000Y-141200000D01*
X178106480Y-139154800D02*
X178051680Y-139100000D01*
X178051680Y-139100000D02*
X176400000Y-139100000D01*
X176400000Y-139100000D02*
X176200000Y-138900000D01*
X178106480Y-134603120D02*
X178103360Y-134600000D01*
X178103360Y-134600000D02*
X176400000Y-134600000D01*
X178106480Y-130701680D02*
X178104800Y-130700000D01*
X178104800Y-130700000D02*
X176400000Y-130700000D01*
X178106480Y-126150000D02*
X178056480Y-126200000D01*
X178056480Y-126200000D02*
X176500000Y-126200000D01*
X176500000Y-126200000D02*
X176300000Y-126400000D01*
X178106480Y-122248560D02*
X178155040Y-122200000D01*
X178155040Y-122200000D02*
X179600000Y-122200000D01*
X178106480Y-118347120D02*
X178153600Y-118300000D01*
X178153600Y-118300000D02*
X179700000Y-118300000D01*
X178106480Y-116396400D02*
X178002880Y-116500000D01*
X178002880Y-116500000D02*
X176900000Y-116500000D01*
X176900000Y-116500000D02*
X176400000Y-116000000D01*
X178106480Y-113795440D02*
X178101920Y-113800000D01*
X178101920Y-113800000D02*
X176500000Y-113800000D01*
X174855280Y-108593520D02*
X174900000Y-108548800D01*
X174900000Y-108548800D02*
X174900000Y-106900000D01*
X170953840Y-108593520D02*
X170900000Y-108539680D01*
X170900000Y-108539680D02*
X170900000Y-106800000D01*
X169653360Y-108593520D02*
X169700000Y-108546880D01*
X169700000Y-108546880D02*
X169700000Y-106800000D01*
X165101680Y-108593520D02*
X165100000Y-108591840D01*
X165100000Y-108591840D02*
X165100000Y-106800000D01*
X161200240Y-108593520D02*
X161200000Y-108593280D01*
X161200000Y-108593280D02*
X161200000Y-107000000D01*
X156648560Y-108593520D02*
X156600000Y-108544960D01*
X156600000Y-108544960D02*
X156600000Y-106800000D01*
X156600000Y-106800000D02*
X156700000Y-106700000D01*
X152747120Y-108593520D02*
X152800000Y-108646400D01*
X147545200Y-108593520D02*
X147600000Y-108538720D01*
X143643760Y-111844720D02*
X143688480Y-111800000D01*
X147600000Y-111800000D02*
X148400000Y-111000000D01*
X148400000Y-111000000D02*
X147545200Y-110145200D01*
X147545200Y-110145200D02*
X147545200Y-108593520D01*
X143643760Y-113795440D02*
X145604560Y-113795440D01*
X145604560Y-113795440D02*
X148400000Y-111000000D01*
X143643760Y-117696880D02*
X143646880Y-117700000D01*
X143646880Y-117700000D02*
X144900000Y-117700000D01*
X144900000Y-117700000D02*
X146900000Y-119700000D01*
X146900000Y-119700000D02*
X146900000Y-121600000D01*
X143643760Y-121598320D02*
X143645440Y-121600000D01*
X143645440Y-121600000D02*
X146900000Y-121600000D01*
X143643760Y-125499760D02*
X143743520Y-125400000D01*
X143743520Y-125400000D02*
X147000000Y-125400000D01*
X143643760Y-130051440D02*
X143695200Y-130000000D01*
X143695200Y-130000000D02*
X146800000Y-130000000D01*
X143643760Y-134603120D02*
X143640640Y-134600000D01*
X143640640Y-134600000D02*
X142200000Y-134600000D01*
X143643760Y-138504560D02*
X143639200Y-138500000D01*
X143639200Y-138500000D02*
X142200000Y-138500000D01*
X151446640Y-143056240D02*
X151500000Y-143109600D01*
X151500000Y-143109600D02*
X151500000Y-144100000D01*
X151500000Y-144100000D02*
X151000000Y-144600000D01*
X155998320Y-143056240D02*
X156000000Y-143054560D01*
X156000000Y-143054560D02*
X156000000Y-140800000D01*
X159249520Y-143056240D02*
X159300000Y-143005760D01*
X159300000Y-143005760D02*
X159300000Y-140900000D01*
X96700000Y-137100000D02*
X96700000Y-138400000D01*
X97000000Y-139500000D02*
X96700000Y-139200000D01*
X96700000Y-139200000D02*
X96700000Y-138400000D01*
X93650000Y-131650000D02*
X93700000Y-131700000D01*
X93700000Y-131700000D02*
X94800000Y-131700000D01*
X107250000Y-134800000D02*
X107200000Y-134750000D01*
X107200000Y-134750000D02*
X107200000Y-133500000D01*
X103649840Y-137400000D02*
X104551540Y-137400000D01*
X104551540Y-137400000D02*
X105349100Y-137400000D01*
X105349100Y-137400000D02*
X106200000Y-137400000D01*
X106200000Y-137400000D02*
X106900000Y-137400000D01*
X106900000Y-137400000D02*
X107000000Y-137300000D01*
X129099520Y-137700000D02*
X130001220Y-137700000D01*
X130001220Y-137700000D02*
X130798780Y-137700000D01*
X130798780Y-137700000D02*
X131649680Y-137700000D01*
X131649680Y-137700000D02*
X132300000Y-137700000D01*
X132300000Y-137700000D02*
X132500000Y-137500000D01*
X146200000Y-148450000D02*
X146450000Y-148700000D01*
X146450000Y-148700000D02*
X147400000Y-148700000D01*
X158700000Y-148450000D02*
X159550000Y-147600000D01*
X159550000Y-147600000D02*
X160300000Y-147600000D01*
X183550000Y-140500000D02*
X183600000Y-140450000D01*
X183600000Y-140450000D02*
X183600000Y-139400000D01*
X179200000Y-86000000D02*
X179200000Y-84100000D01*
X181200000Y-86000000D02*
X179200000Y-86000000D01*
X179200000Y-86000000D02*
X177200000Y-86000000D01*
X92950000Y-77520000D02*
X92600000Y-77870000D01*
X92600000Y-77870000D02*
X92600000Y-78300000D01*
X93050000Y-83085000D02*
X94129800Y-83085000D01*
X94129800Y-83085000D02*
X95399800Y-81815000D01*
X95399800Y-81815000D02*
X97370200Y-81815000D01*
X97370200Y-81815000D02*
X98450000Y-81815000D01*
X98450000Y-81815000D02*
X98450000Y-80545000D01*
X98790200Y-79600000D02*
X99400000Y-79600000D01*
X98450000Y-80545000D02*
X98450000Y-79940200D01*
X98450000Y-79940200D02*
X98790200Y-79600000D01*
D44*
X132950000Y-70275518D02*
X133126811Y-70452329D01*
X107851204Y-123400000D02*
X107364512Y-122913308D01*
X108800000Y-123400000D02*
X107851204Y-123400000D01*
X141115124Y-97250000D02*
X141502254Y-97637130D01*
X140450000Y-97250000D02*
X141115124Y-97250000D01*
X141502254Y-97637130D02*
X141708540Y-97637130D01*
X178106480Y-124849520D02*
X176273579Y-124849520D01*
X176273579Y-124849520D02*
X176229378Y-124805319D01*
X141767491Y-97043918D02*
X142191755Y-97043918D01*
X141085816Y-96750000D02*
X141379734Y-97043918D01*
X140450000Y-96750000D02*
X141085816Y-96750000D01*
X141379734Y-97043918D02*
X141767491Y-97043918D01*
X176400000Y-123550000D02*
X178105520Y-123550000D01*
X178105520Y-123550000D02*
X178106480Y-123549040D01*
X141352601Y-96478152D02*
X141624492Y-96478152D01*
X141124449Y-96250000D02*
X141352601Y-96478152D01*
X140450000Y-96250000D02*
X141124449Y-96250000D01*
X178106480Y-122898800D02*
X175701200Y-122898800D01*
X175701200Y-122898800D02*
X175700000Y-122900000D01*
X141500000Y-98250000D02*
X141700000Y-98450000D01*
X140450000Y-98250000D02*
X141500000Y-98250000D01*
X176550000Y-125500000D02*
X178106240Y-125500000D01*
X178106240Y-125500000D02*
X178106480Y-125499760D01*
X141085580Y-95750000D02*
X141263954Y-95928374D01*
X140450000Y-95750000D02*
X141085580Y-95750000D01*
X141790153Y-95948596D02*
X142214417Y-95948596D01*
X141263954Y-95928374D02*
X141769931Y-95928374D01*
X141769931Y-95928374D02*
X141790153Y-95948596D01*
X176400000Y-121600000D02*
X178104800Y-121600000D01*
X178104800Y-121600000D02*
X178106480Y-121598320D01*
X140450000Y-95250000D02*
X141387395Y-95250000D01*
X141387395Y-95250000D02*
X141518099Y-95380704D01*
X178106480Y-120948080D02*
X175798080Y-120948080D01*
X175798080Y-120948080D02*
X175750000Y-120900000D01*
X141265100Y-94750000D02*
X141348153Y-94833053D01*
X140450000Y-94750000D02*
X141265100Y-94750000D01*
X142129619Y-94750000D02*
X142110594Y-94769025D01*
X141348153Y-94833053D02*
X141666109Y-94833053D01*
X141686330Y-94853274D02*
X142110594Y-94853274D01*
X141666109Y-94833053D02*
X141686330Y-94853274D01*
X142110594Y-94769025D02*
X142110594Y-94853274D01*
X141878085Y-94797651D02*
X141925736Y-94750000D01*
X176500000Y-119650000D02*
X178104080Y-119650000D01*
X178104080Y-119650000D02*
X178106480Y-119647600D01*
X141650949Y-94250000D02*
X141680370Y-94220579D01*
X140450000Y-94250000D02*
X141650949Y-94250000D01*
X178106480Y-118997360D02*
X175752640Y-118997360D01*
X175752640Y-118997360D02*
X175750000Y-119000000D01*
X140450000Y-93250000D02*
X141606946Y-93250000D01*
X141985037Y-93628091D02*
X142164470Y-93628091D01*
X141606946Y-93250000D02*
X141985037Y-93628091D01*
X176500000Y-117700000D02*
X178103360Y-117700000D01*
X178103360Y-117700000D02*
X178106480Y-117696880D01*
X142000000Y-92850000D02*
X140550000Y-92850000D01*
X140550000Y-92850000D02*
X140450000Y-92750000D01*
X178106480Y-117046640D02*
X175953360Y-117046640D01*
X175953360Y-117046640D02*
X175950000Y-117050000D01*
X143643760Y-133302640D02*
X141302640Y-133302640D01*
X141302640Y-133302640D02*
X126950000Y-118950000D01*
X126950000Y-105565100D02*
X126950000Y-104750000D01*
X126950000Y-118950000D02*
X126950000Y-105565100D01*
X127450000Y-104750000D02*
X127450000Y-118900000D01*
X127450000Y-118900000D02*
X141202400Y-132652400D01*
X141202400Y-132652400D02*
X143643760Y-132652400D01*
X127950000Y-104750000D02*
X127850000Y-104850000D01*
X127850000Y-104850000D02*
X127850000Y-116739260D01*
X127850000Y-116739260D02*
X142462660Y-131351920D01*
X142462660Y-131351920D02*
X143643760Y-131351920D01*
X129950000Y-104750000D02*
X129950000Y-117150000D01*
X129950000Y-117150000D02*
X141550960Y-128750960D01*
X141550960Y-128750960D02*
X143643760Y-128750960D01*
X143643760Y-130701680D02*
X142462660Y-130701680D01*
X142462660Y-130701680D02*
X129100000Y-117339020D01*
X129100000Y-105715100D02*
X128950000Y-105565100D01*
X129100000Y-117339020D02*
X129100000Y-105715100D01*
X128950000Y-105565100D02*
X128950000Y-104750000D01*
X143643760Y-129401200D02*
X141701200Y-129401200D01*
X141701200Y-129401200D02*
X129450000Y-117150000D01*
X129450000Y-117150000D02*
X129450000Y-105565100D01*
X129450000Y-105565100D02*
X129450000Y-104750000D01*
X143643760Y-127450480D02*
X142462660Y-127450480D01*
X142462660Y-127450480D02*
X130350000Y-115337820D01*
X130350000Y-115337820D02*
X130350000Y-105665100D01*
X130350000Y-105665100D02*
X130450000Y-105565100D01*
X130450000Y-105565100D02*
X130450000Y-104750000D01*
X131450000Y-104750000D02*
X131550000Y-104850000D01*
X131550000Y-104850000D02*
X131550000Y-115887580D01*
X131550000Y-115887580D02*
X142462660Y-126800240D01*
X142462660Y-126800240D02*
X143643760Y-126800240D01*
X142462660Y-114445680D02*
X140450000Y-112433020D01*
X143643760Y-114445680D02*
X142462660Y-114445680D01*
X140450000Y-102040100D02*
X140450000Y-101750000D01*
X140450000Y-112433020D02*
X140450000Y-102040100D01*
X143643760Y-113145200D02*
X142462660Y-113145200D01*
X142462660Y-113145200D02*
X141400000Y-112082540D01*
X141400000Y-112082540D02*
X141400000Y-101384900D01*
X141400000Y-101384900D02*
X141265100Y-101250000D01*
X141265100Y-101250000D02*
X140450000Y-101250000D01*
X141900000Y-101200000D02*
X141450000Y-100750000D01*
X141450000Y-100750000D02*
X140450000Y-100750000D01*
X141900000Y-111932300D02*
X141900000Y-101200000D01*
X143643760Y-112494960D02*
X142462660Y-112494960D01*
X142462660Y-112494960D02*
X141900000Y-111932300D01*
X143643760Y-124849520D02*
X142122006Y-124849520D01*
X142122006Y-124849520D02*
X131950000Y-114677514D01*
X131950000Y-114677514D02*
X131950000Y-105565100D01*
X131950000Y-105565100D02*
X131950000Y-104750000D01*
X143643760Y-124199280D02*
X141938754Y-124199280D01*
X141938754Y-124199280D02*
X132450000Y-114710526D01*
X132450000Y-114710526D02*
X132450000Y-105565100D01*
X132450000Y-105565100D02*
X132450000Y-104750000D01*
X143643760Y-122898800D02*
X142462660Y-122898800D01*
X142462660Y-122898800D02*
X132800000Y-113236140D01*
X132800000Y-113236140D02*
X132800000Y-105715100D01*
X132800000Y-105715100D02*
X132950000Y-105565100D01*
X132950000Y-105565100D02*
X132950000Y-104750000D01*
X133950000Y-104750000D02*
X134050000Y-104850000D01*
X134050000Y-104850000D02*
X134050000Y-113835900D01*
X134050000Y-113835900D02*
X142462660Y-122248560D01*
X142462660Y-122248560D02*
X143643760Y-122248560D01*
X134450000Y-105565100D02*
X134450000Y-104750000D01*
X134450000Y-113666988D02*
X134450000Y-105565100D01*
X141731092Y-120948080D02*
X134450000Y-113666988D01*
X143643760Y-120948080D02*
X141731092Y-120948080D01*
X141547840Y-120297840D02*
X134950000Y-113700000D01*
X134950000Y-113700000D02*
X134950000Y-105565100D01*
X143643760Y-120297840D02*
X141547840Y-120297840D01*
X134950000Y-105565100D02*
X134950000Y-104750000D01*
X143643760Y-118997360D02*
X142319848Y-118997360D01*
X142319848Y-118997360D02*
X135450000Y-112127512D01*
X135450000Y-112127512D02*
X135450000Y-105565100D01*
X135450000Y-105565100D02*
X135450000Y-104750000D01*
X143643760Y-118347120D02*
X142136596Y-118347120D01*
X137822651Y-114033175D02*
X137822651Y-99822651D01*
X142136596Y-118347120D02*
X137822651Y-114033175D01*
X137822651Y-99822651D02*
X138895302Y-98750000D01*
X138895302Y-98750000D02*
X139634900Y-98750000D01*
X139634900Y-98750000D02*
X140450000Y-98750000D01*
X143643760Y-117046640D02*
X142557164Y-117046640D01*
X142557164Y-117046640D02*
X138152862Y-112642338D01*
X138152862Y-112642338D02*
X138152862Y-100113162D01*
X138152862Y-100113162D02*
X139016024Y-99250000D01*
X139016024Y-99250000D02*
X139634900Y-99250000D01*
X139634900Y-99250000D02*
X140450000Y-99250000D01*
X139634900Y-99750000D02*
X140450000Y-99750000D01*
X138483073Y-112416813D02*
X138483073Y-100249939D01*
X142462660Y-116396400D02*
X138483073Y-112416813D01*
X138983012Y-99750000D02*
X139634900Y-99750000D01*
X143643760Y-116396400D02*
X142462660Y-116396400D01*
X138483073Y-100249939D02*
X138983012Y-99750000D01*
X138900000Y-100900000D02*
X139550000Y-100250000D01*
X139550000Y-100250000D02*
X140450000Y-100250000D01*
X138900000Y-111533260D02*
X138900000Y-100900000D01*
X143643760Y-115095920D02*
X142462660Y-115095920D01*
X142462660Y-115095920D02*
X138900000Y-111533260D01*
X140450000Y-91250000D02*
X140577349Y-91122651D01*
X140577349Y-91122651D02*
X141298121Y-91122651D01*
X141298121Y-91122651D02*
X141340562Y-91080210D01*
X141340562Y-91080210D02*
X159507029Y-91080210D01*
X159507029Y-91080210D02*
X159587240Y-91000000D01*
X159587240Y-91000000D02*
X159684900Y-91000000D01*
X159684900Y-91000000D02*
X160850000Y-91000000D01*
X178106480Y-114445680D02*
X179287580Y-114445680D01*
X179287580Y-114445680D02*
X181400000Y-112333260D01*
X181400000Y-112333260D02*
X181400000Y-91750000D01*
X168438655Y-91248991D02*
X168738654Y-91548990D01*
X168189664Y-91000000D02*
X168438655Y-91248991D01*
X160850000Y-91000000D02*
X168189664Y-91000000D01*
X178106480Y-113145200D02*
X179287580Y-113145200D01*
X179287580Y-113145200D02*
X180750000Y-111682780D01*
X180750000Y-111682780D02*
X180750000Y-90550000D01*
X162015100Y-90200000D02*
X162310421Y-89904679D01*
X160850000Y-90200000D02*
X162015100Y-90200000D01*
X162310421Y-89904679D02*
X162887160Y-89904679D01*
X163111658Y-90129177D02*
X168644601Y-90129177D01*
X168644601Y-90129177D02*
X169068865Y-90129177D01*
X162887160Y-89904679D02*
X163111658Y-90129177D01*
X140450000Y-90250000D02*
X160800000Y-90250000D01*
X160800000Y-90250000D02*
X160850000Y-90200000D01*
X178106480Y-112494960D02*
X179287580Y-112494960D01*
X180100000Y-111682540D02*
X180100000Y-89450000D01*
X179287580Y-112494960D02*
X180100000Y-111682540D01*
X178101991Y-112490471D02*
X177407796Y-112490471D01*
X178106480Y-112494960D02*
X178101991Y-112490471D01*
X168892272Y-88909358D02*
X169316536Y-88909358D01*
X162726447Y-88600000D02*
X162826446Y-88699999D01*
X162826446Y-88699999D02*
X168682913Y-88699999D01*
X160850000Y-88600000D02*
X162726447Y-88600000D01*
X168682913Y-88699999D02*
X168892272Y-88909358D01*
X140450000Y-88750000D02*
X142283012Y-88750000D01*
X142283012Y-88750000D02*
X142433012Y-88600000D01*
X142433012Y-88600000D02*
X159684900Y-88600000D01*
X159684900Y-88600000D02*
X160850000Y-88600000D01*
X169784898Y-87842159D02*
X164192159Y-87842159D01*
X164192159Y-87842159D02*
X163954679Y-87604679D01*
X163954679Y-87604679D02*
X162210421Y-87604679D01*
X162210421Y-87604679D02*
X162015100Y-87800000D01*
X162015100Y-87800000D02*
X160850000Y-87800000D01*
X179250000Y-109695360D02*
X179250000Y-88200000D01*
X178106480Y-111194480D02*
X178106480Y-110838880D01*
X178106480Y-110838880D02*
X179250000Y-109695360D01*
X140450000Y-85250000D02*
X141265100Y-85250000D01*
X141265100Y-85250000D02*
X143815100Y-87800000D01*
X143815100Y-87800000D02*
X159684900Y-87800000D01*
X159684900Y-87800000D02*
X160850000Y-87800000D01*
X143439476Y-92250000D02*
X141265100Y-92250000D01*
X154762873Y-92552349D02*
X154237127Y-92552349D01*
X154810524Y-92600000D02*
X154762873Y-92552349D01*
X160850000Y-92600000D02*
X154810524Y-92600000D01*
X143789476Y-92600000D02*
X143439476Y-92250000D01*
X154189476Y-92600000D02*
X143789476Y-92600000D01*
X154237127Y-92552349D02*
X154189476Y-92600000D01*
X141265100Y-92250000D02*
X140450000Y-92250000D01*
X167731579Y-92600000D02*
X168108444Y-92976865D01*
X160850000Y-92600000D02*
X167731579Y-92600000D01*
X168108444Y-92976865D02*
X168408443Y-93276864D01*
X178106480Y-115095920D02*
X179287580Y-115095920D01*
X179287580Y-115095920D02*
X182150000Y-112233500D01*
X182150000Y-112233500D02*
X182150000Y-93600000D01*
X160000000Y-92600000D02*
X160850000Y-92600000D01*
X148092593Y-74552330D02*
X148332532Y-74552330D01*
X152096880Y-108593520D02*
X152096880Y-95827525D01*
X152096880Y-95827525D02*
X150052106Y-93782751D01*
X150052106Y-93782751D02*
X149752107Y-93482752D01*
X148332532Y-74552330D02*
X148482551Y-74702349D01*
X143656577Y-74702349D02*
X148482551Y-74702349D01*
X148482551Y-74702349D02*
X149691825Y-74702349D01*
X150795054Y-74900000D02*
X153884900Y-74900000D01*
X150664843Y-74769789D02*
X150795054Y-74900000D01*
X149759265Y-74769789D02*
X150664843Y-74769789D01*
X149691825Y-74702349D02*
X149759265Y-74769789D01*
X140450000Y-74250000D02*
X143204228Y-74250000D01*
X143204228Y-74250000D02*
X143656577Y-74702349D01*
X154084900Y-75100000D02*
X155250000Y-75100000D01*
X153884900Y-74900000D02*
X154084900Y-75100000D01*
X146946796Y-76152330D02*
X147371060Y-76152330D01*
X141172486Y-75250000D02*
X141450350Y-74972138D01*
X143651879Y-76297651D02*
X146801475Y-76297651D01*
X142326366Y-74972138D02*
X143651879Y-76297651D01*
X141450350Y-74972138D02*
X142326366Y-74972138D01*
X146801475Y-76297651D02*
X146946796Y-76152330D01*
X140450000Y-75250000D02*
X141172486Y-75250000D01*
X154084900Y-76700000D02*
X153784900Y-76400000D01*
X155250000Y-76700000D02*
X154084900Y-76700000D01*
X153784900Y-76400000D02*
X148042994Y-76400000D01*
X148042994Y-76400000D02*
X147795324Y-76152330D01*
X147795324Y-76152330D02*
X147371060Y-76152330D01*
X149549999Y-94399999D02*
X149250000Y-94100000D01*
X150796400Y-95646400D02*
X149549999Y-94399999D01*
X150796400Y-108593520D02*
X150796400Y-95646400D01*
X155348080Y-96398080D02*
X152699999Y-93749999D01*
X152699999Y-93749999D02*
X152400000Y-93450000D01*
X155348080Y-108593520D02*
X155348080Y-96398080D01*
X150019669Y-72804680D02*
X150319668Y-73104679D01*
X149914989Y-72700000D02*
X150019669Y-72804680D01*
X144850000Y-72700000D02*
X149914989Y-72700000D01*
X140450000Y-72750000D02*
X144800000Y-72750000D01*
X144800000Y-72750000D02*
X144850000Y-72700000D01*
X153397360Y-96335463D02*
X151158497Y-94096600D01*
X153397360Y-108593520D02*
X153397360Y-96335463D01*
X151158497Y-94096600D02*
X150858498Y-93796601D01*
X154084900Y-74300000D02*
X155250000Y-74300000D01*
X150862873Y-73652349D02*
X151510524Y-74300000D01*
X151510524Y-74300000D02*
X154084900Y-74300000D01*
X149104679Y-73652349D02*
X150862873Y-73652349D01*
X148700000Y-73247670D02*
X149104679Y-73652349D01*
X143651879Y-73102349D02*
X148130415Y-73102349D01*
X148275736Y-73247670D02*
X148700000Y-73247670D01*
X148130415Y-73102349D02*
X148275736Y-73247670D01*
X154400000Y-74300000D02*
X155250000Y-74300000D01*
X140450000Y-73250000D02*
X143504228Y-73250000D01*
X143504228Y-73250000D02*
X143651879Y-73102349D01*
X152199999Y-94349999D02*
X151900000Y-94050000D01*
X154047600Y-96197600D02*
X152199999Y-94349999D01*
X154047600Y-108593520D02*
X154047600Y-96197600D01*
X154084900Y-72700000D02*
X155250000Y-72700000D01*
X151133012Y-72700000D02*
X154084900Y-72700000D01*
X150730663Y-72297651D02*
X151133012Y-72700000D01*
X149578594Y-72297651D02*
X150730663Y-72297651D01*
X141312751Y-72297651D02*
X149578594Y-72297651D01*
X149578594Y-72297651D02*
X149400396Y-72297651D01*
X149400396Y-72297651D02*
X149255075Y-72152330D01*
X140450000Y-72250000D02*
X141265100Y-72250000D01*
X141265100Y-72250000D02*
X141312751Y-72297651D01*
X140450000Y-74750000D02*
X140558073Y-74641927D01*
X143129167Y-74641927D02*
X143587240Y-75100000D01*
X140558073Y-74641927D02*
X143129167Y-74641927D01*
X143587240Y-75100000D02*
X143684900Y-75100000D01*
X143684900Y-75100000D02*
X144850000Y-75100000D01*
X150875736Y-75447670D02*
X151300000Y-75447670D01*
X144850000Y-75100000D02*
X150528066Y-75100000D01*
X150528066Y-75100000D02*
X150875736Y-75447670D01*
X155001391Y-93601391D02*
X155001391Y-93546750D01*
X157949040Y-96549040D02*
X155001391Y-93601391D01*
X155001391Y-93546750D02*
X154701392Y-93246751D01*
X157949040Y-108593520D02*
X157949040Y-96549040D01*
X147534399Y-74300000D02*
X146015100Y-74300000D01*
X147829720Y-74004679D02*
X147534399Y-74300000D01*
X149980415Y-74004679D02*
X147829720Y-74004679D01*
X150175736Y-74200000D02*
X149980415Y-74004679D01*
X150600000Y-74200000D02*
X150175736Y-74200000D01*
X146015100Y-74300000D02*
X144850000Y-74300000D01*
X155998320Y-108593520D02*
X155998320Y-95898320D01*
X155998320Y-95898320D02*
X154249999Y-94149999D01*
X154249999Y-94149999D02*
X153950000Y-93850000D01*
X144000000Y-74300000D02*
X144850000Y-74300000D01*
X143450000Y-73750000D02*
X144000000Y-74300000D01*
X140450000Y-73750000D02*
X143450000Y-73750000D01*
X143587240Y-76700000D02*
X143684900Y-76700000D01*
X143684900Y-76700000D02*
X144850000Y-76700000D01*
X140450000Y-75750000D02*
X141139474Y-75750000D01*
X142189589Y-75302349D02*
X143587240Y-76700000D01*
X141139474Y-75750000D02*
X141587127Y-75302349D01*
X141587127Y-75302349D02*
X142189589Y-75302349D01*
X151575736Y-76947670D02*
X152000000Y-76947670D01*
X148123676Y-76947670D02*
X151575736Y-76947670D01*
X144850000Y-76700000D02*
X147876006Y-76700000D01*
X147876006Y-76700000D02*
X148123676Y-76947670D01*
X158599280Y-96399280D02*
X156049999Y-93849999D01*
X158599280Y-108593520D02*
X158599280Y-96399280D01*
X156049999Y-93849999D02*
X155750000Y-93550000D01*
X140450000Y-78250000D02*
X142151229Y-78250000D01*
X142151229Y-78250000D02*
X142403832Y-78502603D01*
X142403832Y-78502603D02*
X142718627Y-78502603D01*
X142718627Y-78502603D02*
X143316024Y-79100000D01*
X143316024Y-79100000D02*
X143684900Y-79100000D01*
X143684900Y-79100000D02*
X144850000Y-79100000D01*
X157650000Y-94424264D02*
X157650000Y-94000000D01*
X157650000Y-94450000D02*
X157650000Y-94424264D01*
X160550000Y-108593520D02*
X160550000Y-97350000D01*
X160550000Y-97350000D02*
X157650000Y-94450000D01*
X146312760Y-79300000D02*
X146184898Y-79172138D01*
X153200000Y-79300000D02*
X146312760Y-79300000D01*
X146184898Y-79172138D02*
X144922138Y-79172138D01*
X144922138Y-79172138D02*
X144850000Y-79100000D01*
X141584890Y-76930210D02*
X141265100Y-77250000D01*
X142883474Y-76930210D02*
X141584890Y-76930210D01*
X143453264Y-77500000D02*
X142883474Y-76930210D01*
X144850000Y-77500000D02*
X143453264Y-77500000D01*
X141265100Y-77250000D02*
X140450000Y-77250000D01*
X159899760Y-108593520D02*
X159899760Y-97199760D01*
X156650000Y-93950000D02*
X156650000Y-93824264D01*
X156650000Y-93824264D02*
X156650000Y-93400000D01*
X159899760Y-97199760D02*
X156650000Y-93950000D01*
X152600000Y-78100000D02*
X152175736Y-78100000D01*
X146417449Y-77902349D02*
X146015100Y-77500000D01*
X152175736Y-78100000D02*
X151978085Y-77902349D01*
X151978085Y-77902349D02*
X146417449Y-77902349D01*
X146015100Y-77500000D02*
X144850000Y-77500000D01*
X140450000Y-79250000D02*
X141909716Y-79250000D01*
X142559716Y-79900000D02*
X143684900Y-79900000D01*
X141909716Y-79250000D02*
X142559716Y-79900000D01*
X143684900Y-79900000D02*
X144850000Y-79900000D01*
X158315340Y-93802815D02*
X158315340Y-93378551D01*
X161850480Y-98150480D02*
X158315340Y-94615340D01*
X161850480Y-108593520D02*
X161850480Y-98150480D01*
X158315340Y-94615340D02*
X158315340Y-93802815D01*
X153787743Y-80498639D02*
X153363479Y-80498639D01*
X153363479Y-80498639D02*
X153167189Y-80302349D01*
X146102349Y-80302349D02*
X145700000Y-79900000D01*
X153167189Y-80302349D02*
X146102349Y-80302349D01*
X145700000Y-79900000D02*
X144850000Y-79900000D01*
X162624287Y-90452330D02*
X162752330Y-90452330D01*
X164451440Y-108593520D02*
X164451440Y-97860960D01*
X162691599Y-96101119D02*
X162391600Y-95801120D01*
X164451440Y-97860960D02*
X162691599Y-96101119D01*
X162752330Y-90452330D02*
X162902349Y-90602349D01*
X159517903Y-90602349D02*
X162902349Y-90602349D01*
X162902349Y-90602349D02*
X168570804Y-90602349D01*
X171250000Y-91000000D02*
X168968455Y-91000000D01*
X168968455Y-91000000D02*
X168570804Y-90602349D01*
X159370252Y-90750000D02*
X159517903Y-90602349D01*
X140450000Y-90750000D02*
X159370252Y-90750000D01*
X159129616Y-93793925D02*
X159129616Y-93369661D01*
X162500720Y-97650720D02*
X159129616Y-94279616D01*
X162500720Y-108593520D02*
X162500720Y-97650720D01*
X159129616Y-94279616D02*
X159129616Y-93793925D01*
X153487734Y-81798638D02*
X153787733Y-82098637D01*
X153189096Y-81500000D02*
X153487734Y-81798638D01*
X144850000Y-81500000D02*
X153189096Y-81500000D01*
X141500000Y-80750000D02*
X142250000Y-81500000D01*
X142250000Y-81500000D02*
X144850000Y-81500000D01*
X140450000Y-80750000D02*
X141500000Y-80750000D01*
X140450000Y-91750000D02*
X140577349Y-91877349D01*
X140577349Y-91877349D02*
X141298121Y-91877349D01*
X141298121Y-91877349D02*
X141340562Y-91919790D01*
X141340562Y-91919790D02*
X143576253Y-91919790D01*
X143854113Y-92197651D02*
X159651879Y-92197651D01*
X159651879Y-92197651D02*
X162897651Y-92197651D01*
X143576253Y-91919790D02*
X143854113Y-92197651D01*
X162315106Y-91647670D02*
X162347670Y-91647670D01*
X161813970Y-96158943D02*
X161513971Y-95858944D01*
X163801200Y-108593520D02*
X163801200Y-98146173D01*
X163801200Y-98146173D02*
X161813970Y-96158943D01*
X162347670Y-91647670D02*
X162897651Y-92197651D01*
X162897651Y-92197651D02*
X169682551Y-92197651D01*
X169682551Y-92197651D02*
X170084900Y-92600000D01*
X170084900Y-92600000D02*
X171250000Y-92600000D01*
X175505520Y-108593520D02*
X175505520Y-100255520D01*
X175505520Y-100255520D02*
X171099999Y-95849999D01*
X171099999Y-95849999D02*
X170800000Y-95550000D01*
X162112760Y-86200000D02*
X162412761Y-86500001D01*
X160850000Y-86200000D02*
X162112760Y-86200000D01*
X167475757Y-86746829D02*
X167900021Y-86746829D01*
X162412761Y-86500001D02*
X167228929Y-86500001D01*
X167228929Y-86500001D02*
X167475757Y-86746829D01*
X144100002Y-86200000D02*
X159684900Y-86200000D01*
X140450000Y-83750000D02*
X141650002Y-83750000D01*
X159684900Y-86200000D02*
X160850000Y-86200000D01*
X141650002Y-83750000D02*
X144100002Y-86200000D01*
X159013976Y-83800000D02*
X159684900Y-83800000D01*
X144367953Y-84600000D02*
X158213976Y-84600000D01*
X158213976Y-84600000D02*
X159013976Y-83800000D01*
X143567953Y-83800000D02*
X144367953Y-84600000D01*
X169832559Y-96464612D02*
X169532560Y-96164613D01*
X172904560Y-108593520D02*
X172904560Y-99536613D01*
X172904560Y-99536613D02*
X169832559Y-96464612D01*
X167100000Y-84100000D02*
X161150000Y-84100000D01*
X161150000Y-84100000D02*
X160850000Y-83800000D01*
X159684900Y-83800000D02*
X160850000Y-83800000D01*
X141517953Y-81750000D02*
X143567953Y-83800000D01*
X140450000Y-81750000D02*
X141517953Y-81750000D01*
X173554800Y-99254800D02*
X171049999Y-96749999D01*
X171049999Y-96749999D02*
X170750000Y-96450000D01*
X173554800Y-108593520D02*
X173554800Y-99254800D01*
X168100000Y-85400000D02*
X160850000Y-85400000D01*
X144233977Y-85400000D02*
X159684900Y-85400000D01*
X159684900Y-85400000D02*
X160850000Y-85400000D01*
X140450000Y-82750000D02*
X141583977Y-82750000D01*
X141583977Y-82750000D02*
X144233977Y-85400000D01*
X158888059Y-83402349D02*
X167143605Y-83402349D01*
X144434941Y-84200000D02*
X158090408Y-84200000D01*
X158090408Y-84200000D02*
X158888059Y-83402349D01*
X143637290Y-83402349D02*
X144434941Y-84200000D01*
X171604080Y-99104080D02*
X168649999Y-96149999D01*
X171604080Y-108593520D02*
X171604080Y-99104080D01*
X168649999Y-96149999D02*
X168350000Y-95850000D01*
X167143605Y-83402349D02*
X169687249Y-83402349D01*
X166500000Y-83400000D02*
X167141256Y-83400000D01*
X167141256Y-83400000D02*
X167143605Y-83402349D01*
X140450000Y-81250000D02*
X141484941Y-81250000D01*
X170084900Y-83800000D02*
X171250000Y-83800000D01*
X141484941Y-81250000D02*
X143637290Y-83402349D01*
X169687249Y-83402349D02*
X170084900Y-83800000D01*
X170303600Y-98846908D02*
X168271786Y-96815094D01*
X168271786Y-96815094D02*
X167971787Y-96515095D01*
X170303600Y-108593520D02*
X170303600Y-98846908D01*
X170084900Y-85400000D02*
X171250000Y-85400000D01*
X140450000Y-82250000D02*
X141550965Y-82250000D01*
X141550965Y-82250000D02*
X144303314Y-85002349D01*
X165580663Y-84852349D02*
X169537249Y-84852349D01*
X144303314Y-85002349D02*
X165430663Y-85002349D01*
X165430663Y-85002349D02*
X165580663Y-84852349D01*
X169537249Y-84852349D02*
X170084900Y-85400000D01*
X167199999Y-96599999D02*
X166900000Y-96300000D01*
X169003120Y-98403120D02*
X167199999Y-96599999D01*
X169003120Y-108593520D02*
X169003120Y-98403120D01*
X162422713Y-85802349D02*
X162568034Y-85947670D01*
X162568034Y-85947670D02*
X164810580Y-85947670D01*
X144169339Y-85802349D02*
X162422713Y-85802349D01*
X141616989Y-83250000D02*
X144169339Y-85802349D01*
X171250000Y-86200000D02*
X170084900Y-86200000D01*
X164810580Y-85947670D02*
X165234844Y-85947670D01*
X170084900Y-86200000D02*
X169832570Y-85947670D01*
X169832570Y-85947670D02*
X165234844Y-85947670D01*
X140450000Y-83250000D02*
X141616989Y-83250000D01*
X165199999Y-96449999D02*
X164900000Y-96150000D01*
X167052400Y-108593520D02*
X167052400Y-98302400D01*
X167052400Y-98302400D02*
X165199999Y-96449999D01*
X164243398Y-88361707D02*
X169579409Y-88361707D01*
X163670244Y-88152330D02*
X164034021Y-88152330D01*
X164034021Y-88152330D02*
X164243398Y-88361707D01*
X162795783Y-88202349D02*
X162845802Y-88152330D01*
X162845802Y-88152330D02*
X163670244Y-88152330D01*
X170084900Y-88600000D02*
X171250000Y-88600000D01*
X140450000Y-88250000D02*
X141265100Y-88250000D01*
X141265100Y-88250000D02*
X141312751Y-88202349D01*
X141312751Y-88202349D02*
X162795783Y-88202349D01*
X169817702Y-88600000D02*
X170084900Y-88600000D01*
X169579409Y-88361707D02*
X169817702Y-88600000D01*
X164632622Y-87253302D02*
X162699074Y-87253302D01*
X162699074Y-87253302D02*
X162048121Y-86602349D01*
X162048121Y-86602349D02*
X143117449Y-86602349D01*
X143117449Y-86602349D02*
X141265100Y-84750000D01*
X141265100Y-84750000D02*
X140450000Y-84750000D01*
X168352880Y-98752880D02*
X166249999Y-96649999D01*
X166249999Y-96649999D02*
X165950000Y-96350000D01*
X168352880Y-108593520D02*
X168352880Y-98752880D01*
X164632622Y-87253302D02*
X165056886Y-87253302D01*
X165056886Y-87253302D02*
X165098083Y-87294499D01*
X165098083Y-87294499D02*
X169489752Y-87294499D01*
X169489752Y-87294499D02*
X170015500Y-87294499D01*
X170015500Y-87294499D02*
X170521001Y-87800000D01*
X170521001Y-87800000D02*
X171250000Y-87800000D01*
X166402160Y-108593520D02*
X166402160Y-98802160D01*
X166402160Y-98802160D02*
X163849999Y-96249999D01*
X163849999Y-96249999D02*
X163550000Y-95950000D01*
X163419351Y-89369734D02*
X168943585Y-89369734D01*
X168943585Y-89369734D02*
X169030879Y-89457028D01*
X169030879Y-89457028D02*
X169657028Y-89457028D01*
X163419351Y-89369734D02*
X163416874Y-89367257D01*
X163416874Y-89367257D02*
X162992610Y-89367257D01*
X162135361Y-89002349D02*
X162332881Y-89199869D01*
X162332881Y-89199869D02*
X162500269Y-89367257D01*
X162500269Y-89367257D02*
X162992610Y-89367257D01*
X142250000Y-89250000D02*
X142497651Y-89002349D01*
X169657028Y-89457028D02*
X170400000Y-90200000D01*
X142497651Y-89002349D02*
X162135361Y-89002349D01*
X140450000Y-89250000D02*
X142250000Y-89250000D01*
X170400000Y-90200000D02*
X171250000Y-90200000D01*
X142313607Y-78872105D02*
X142613606Y-79172104D01*
X142943851Y-79502349D02*
X142913605Y-79472103D01*
X141265100Y-78750000D02*
X141387205Y-78872105D01*
X146048121Y-79502349D02*
X142943851Y-79502349D01*
X155250000Y-79900000D02*
X146445772Y-79900000D01*
X142913605Y-79472103D02*
X142613606Y-79172104D01*
X140450000Y-78750000D02*
X141265100Y-78750000D01*
X146445772Y-79900000D02*
X146048121Y-79502349D01*
X141387205Y-78872105D02*
X142313607Y-78872105D01*
X146799999Y-94449999D02*
X146500000Y-94150000D01*
X146894960Y-108593520D02*
X146894960Y-95265564D01*
X146897651Y-95262873D02*
X146897651Y-94547651D01*
X146894960Y-95265564D02*
X146897651Y-95262873D01*
X146897651Y-94547651D02*
X146799999Y-94449999D01*
X141415101Y-76599999D02*
X141265100Y-76750000D01*
X143020251Y-76599999D02*
X141415101Y-76599999D01*
X141265100Y-76750000D02*
X140450000Y-76750000D01*
X143517903Y-77097651D02*
X143020251Y-76599999D01*
X147040239Y-77030210D02*
X146115562Y-77030210D01*
X147112378Y-77102349D02*
X147040239Y-77030210D01*
X146048121Y-77097651D02*
X143517903Y-77097651D01*
X146115562Y-77030210D02*
X146048121Y-77097651D01*
X154084900Y-77500000D02*
X155250000Y-77500000D01*
X147510029Y-77500000D02*
X154084900Y-77500000D01*
X147112378Y-77102349D02*
X147510029Y-77500000D01*
X146800000Y-77247670D02*
X146945321Y-77102349D01*
X146945321Y-77102349D02*
X147112378Y-77102349D01*
X149495920Y-95195920D02*
X148499999Y-94199999D01*
X149495920Y-108593520D02*
X149495920Y-95195920D01*
X148499999Y-94099999D02*
X148200000Y-93800000D01*
X148499999Y-94199999D02*
X148499999Y-94099999D01*
X142540609Y-78172392D02*
X142855404Y-78172392D01*
X140450000Y-77750000D02*
X142118217Y-77750000D01*
X146207919Y-78702349D02*
X146277844Y-78632424D01*
X142855404Y-78172392D02*
X143385361Y-78702349D01*
X143385361Y-78702349D02*
X146207919Y-78702349D01*
X142118217Y-77750000D02*
X142540609Y-78172392D01*
X147449999Y-93899999D02*
X147150000Y-93600000D01*
X148845680Y-108593520D02*
X148845680Y-95295680D01*
X148845680Y-95295680D02*
X147449999Y-93899999D01*
X146702108Y-78632424D02*
X146277844Y-78632424D01*
X153687249Y-78702349D02*
X146772033Y-78702349D01*
X146772033Y-78702349D02*
X146702108Y-78632424D01*
X154084900Y-79100000D02*
X153687249Y-78702349D01*
X155250000Y-79100000D02*
X154084900Y-79100000D01*
X146244720Y-108593520D02*
X146244720Y-107412420D01*
X146244720Y-107412420D02*
X146500000Y-107157140D01*
X146500000Y-107157140D02*
X146500000Y-95450000D01*
X146500000Y-95450000D02*
X146049999Y-94999999D01*
X146049999Y-94999999D02*
X146050000Y-94999998D01*
X141593008Y-80077908D02*
X142617449Y-81102349D01*
X141265100Y-79750000D02*
X141593008Y-80077908D01*
X140450000Y-79750000D02*
X141265100Y-79750000D01*
X142617449Y-81102349D02*
X153687249Y-81102349D01*
X153687249Y-81102349D02*
X154084900Y-81500000D01*
X154084900Y-81500000D02*
X155250000Y-81500000D01*
X124532577Y-88858069D02*
X124774508Y-89100000D01*
X124774508Y-89100000D02*
X130300000Y-89100000D01*
X95900000Y-104490000D02*
X95210000Y-104490000D01*
X95210000Y-104490000D02*
X94700000Y-105000000D01*
D43*
X95900000Y-104490000D02*
X95450000Y-104490000D01*
D44*
X135700000Y-70547782D02*
X139702218Y-70547782D01*
X135580569Y-70547782D02*
X135700000Y-70547782D01*
X143684900Y-68700000D02*
X144850000Y-68700000D01*
X139702218Y-70547782D02*
X141550000Y-68700000D01*
X134950000Y-69917213D02*
X135580569Y-70547782D01*
X134950000Y-69250000D02*
X134950000Y-69917213D01*
X141550000Y-68700000D02*
X143684900Y-68700000D01*
X147092537Y-69030211D02*
X147309996Y-69247670D01*
X145700000Y-68700000D02*
X146030211Y-69030211D01*
X146030211Y-69030211D02*
X147092537Y-69030211D01*
X144850000Y-68700000D02*
X145700000Y-68700000D01*
X147309996Y-69247670D02*
X147734260Y-69247670D01*
X158562254Y-79787746D02*
X160837746Y-79787746D01*
X160837746Y-79787746D02*
X160850000Y-79800000D01*
X160850000Y-79800000D02*
X160000000Y-79800000D01*
X144850000Y-67900000D02*
X138833976Y-67900000D01*
X138625903Y-67691927D02*
X131692973Y-67691927D01*
X138833976Y-67900000D02*
X138625903Y-67691927D01*
X131692973Y-67691927D02*
X130950000Y-68434900D01*
X130950000Y-68434900D02*
X130950000Y-69250000D01*
X146600714Y-67900000D02*
X146653044Y-67952330D01*
X144850000Y-67900000D02*
X146600714Y-67900000D01*
X158550000Y-78950000D02*
X160800000Y-78950000D01*
X160800000Y-78950000D02*
X160850000Y-79000000D01*
X160850000Y-79000000D02*
X160000000Y-79000000D01*
X160850000Y-78200000D02*
X158799999Y-78199999D01*
X158799999Y-78199999D02*
X158500000Y-77900000D01*
X144850000Y-67100000D02*
X144781505Y-67031505D01*
X144781505Y-67031505D02*
X130853395Y-67031505D01*
X130853395Y-67031505D02*
X129450000Y-68434900D01*
X129450000Y-68434900D02*
X129450000Y-69250000D01*
X147155736Y-67074468D02*
X147265266Y-67183998D01*
X147265266Y-67183998D02*
X147689530Y-67183998D01*
X146015100Y-67100000D02*
X146040632Y-67074468D01*
X144850000Y-67100000D02*
X146015100Y-67100000D01*
X146040632Y-67074468D02*
X147155736Y-67074468D01*
X158450000Y-77000000D02*
X160450000Y-77000000D01*
X160450000Y-77000000D02*
X160850000Y-77400000D01*
X148410056Y-66344843D02*
X148710055Y-66644842D01*
X148365213Y-66300000D02*
X148410056Y-66344843D01*
X144850000Y-66300000D02*
X148365213Y-66300000D01*
X129100000Y-66300000D02*
X128450000Y-66950000D01*
X128450000Y-66950000D02*
X128450000Y-69250000D01*
X144850000Y-66300000D02*
X129100000Y-66300000D01*
X160000000Y-76600000D02*
X158737739Y-75337739D01*
X160850000Y-76600000D02*
X160000000Y-76600000D01*
X158737739Y-75337739D02*
X158612261Y-75337739D01*
X144850000Y-65500000D02*
X149329905Y-65500000D01*
X149329905Y-65500000D02*
X149539952Y-65710047D01*
X127400000Y-65500000D02*
X126950000Y-65950000D01*
X126950000Y-65950000D02*
X126950000Y-69250000D01*
X144850000Y-65500000D02*
X127400000Y-65500000D01*
X144850000Y-64700000D02*
X150114951Y-64700000D01*
X150114951Y-64700000D02*
X150116925Y-64701974D01*
X150116925Y-64701974D02*
X150416924Y-65001973D01*
X158150000Y-74100000D02*
X159850000Y-75800000D01*
X159850000Y-75800000D02*
X160850000Y-75800000D01*
X127100000Y-64700000D02*
X125950000Y-65850000D01*
X125950000Y-65850000D02*
X125950000Y-69250000D01*
X144850000Y-64700000D02*
X127100000Y-64700000D01*
X158000000Y-72900000D02*
X160100000Y-75000000D01*
X160100000Y-75000000D02*
X160850000Y-75000000D01*
X144850000Y-63900000D02*
X151150000Y-63900000D01*
X151150000Y-63900000D02*
X151600000Y-64350000D01*
X126700000Y-63900000D02*
X124450000Y-66150000D01*
X124450000Y-66150000D02*
X124450000Y-69250000D01*
X144850000Y-63900000D02*
X126700000Y-63900000D01*
X158950000Y-72900000D02*
X158950000Y-73324264D01*
X158950000Y-73324264D02*
X159825736Y-74200000D01*
X159825736Y-74200000D02*
X160850000Y-74200000D01*
X144850000Y-63100000D02*
X152050000Y-63100000D01*
X152050000Y-63100000D02*
X152250000Y-63300000D01*
X126500000Y-63100000D02*
X123450000Y-66150000D01*
X123450000Y-66150000D02*
X123450000Y-69250000D01*
X144850000Y-63100000D02*
X126500000Y-63100000D01*
X144850000Y-62300000D02*
X126300000Y-62300000D01*
X126300000Y-62300000D02*
X121950000Y-66650000D01*
X121950000Y-66650000D02*
X121950000Y-69250000D01*
X158500000Y-71500000D02*
X158924264Y-71500000D01*
X158924264Y-71500000D02*
X159602349Y-72178085D01*
X159602349Y-72178085D02*
X159602349Y-73002349D01*
X159602349Y-73002349D02*
X160000000Y-73400000D01*
X160000000Y-73400000D02*
X160850000Y-73400000D01*
X144850000Y-62300000D02*
X153100000Y-62300000D01*
X153100000Y-62300000D02*
X153300000Y-62500000D01*
X133365978Y-71908074D02*
X132450000Y-70992096D01*
X154084900Y-70300000D02*
X153687249Y-70697651D01*
X132450000Y-70065100D02*
X132450000Y-69250000D01*
X155250000Y-70300000D02*
X154084900Y-70300000D01*
X135545796Y-71798706D02*
X135436428Y-71908074D01*
X132450000Y-70992096D02*
X132450000Y-70065100D01*
X135436428Y-71908074D02*
X133365978Y-71908074D01*
X138736234Y-71798706D02*
X135545796Y-71798706D01*
X138987802Y-71547138D02*
X138736234Y-71798706D01*
X142553826Y-71547138D02*
X138987802Y-71547138D01*
X143403313Y-70697651D02*
X142553826Y-71547138D01*
X153687249Y-70697651D02*
X143403313Y-70697651D01*
X155250000Y-70300000D02*
X160145772Y-70300000D01*
X160145772Y-70300000D02*
X168256485Y-78410714D01*
X168256485Y-78410714D02*
X168256485Y-80056485D01*
X168256485Y-80056485D02*
X169600000Y-81400000D01*
X169600000Y-81400000D02*
X171250000Y-81400000D01*
X135272242Y-71138284D02*
X135162874Y-71247652D01*
X155250000Y-69500000D02*
X148281912Y-69500000D01*
X134119789Y-70730315D02*
X134119789Y-70195899D01*
X145954926Y-69900000D02*
X143133976Y-69900000D01*
X147656380Y-70125532D02*
X146180458Y-70125532D01*
X142147259Y-70886716D02*
X138714248Y-70886716D01*
X146180458Y-70125532D02*
X145954926Y-69900000D01*
X134637126Y-71247652D02*
X134119789Y-70730315D01*
X143133976Y-69900000D02*
X142147259Y-70886716D01*
X148281912Y-69500000D02*
X147656380Y-70125532D01*
X134119789Y-70195899D02*
X133950000Y-70026110D01*
X138714248Y-70886716D02*
X138462680Y-71138284D01*
X138462680Y-71138284D02*
X135272242Y-71138284D01*
X135162874Y-71247652D02*
X134637126Y-71247652D01*
X133950000Y-70026110D02*
X133950000Y-69250000D01*
X155250000Y-69500000D02*
X159812760Y-69500000D01*
X159812760Y-69500000D02*
X168650722Y-78337962D01*
X168650722Y-78337962D02*
X168650722Y-79550722D01*
X168650722Y-79550722D02*
X169700000Y-80600000D01*
X169700000Y-80600000D02*
X171250000Y-80600000D01*
X131450000Y-69250000D02*
X131450000Y-68434900D01*
X131450000Y-68434900D02*
X131862762Y-68022138D01*
X131862762Y-68022138D02*
X138489126Y-68022138D01*
X138489126Y-68022138D02*
X138766988Y-68300000D01*
X138766988Y-68300000D02*
X146045772Y-68300000D01*
X146045772Y-68300000D02*
X146445772Y-68700000D01*
X146445772Y-68700000D02*
X154084900Y-68700000D01*
X154084900Y-68700000D02*
X155250000Y-68700000D01*
X155250000Y-68700000D02*
X159479748Y-68700000D01*
X159479748Y-68700000D02*
X169113275Y-78333527D01*
X170000000Y-79800000D02*
X171250000Y-79800000D01*
X169113275Y-78333527D02*
X169113275Y-78913275D01*
X169113275Y-78913275D02*
X170000000Y-79800000D01*
X148447182Y-67192493D02*
X148162404Y-66907715D01*
X155250000Y-67100000D02*
X149065421Y-67100000D01*
X147159263Y-66630211D02*
X147091823Y-66697651D01*
X148162404Y-66854919D02*
X147937696Y-66630211D01*
X129402349Y-66697651D02*
X128950000Y-67150000D01*
X147091823Y-66697651D02*
X129402349Y-66697651D01*
X128950000Y-68434900D02*
X128950000Y-69250000D01*
X149065421Y-67100000D02*
X148972928Y-67192493D01*
X128950000Y-67150000D02*
X128950000Y-68434900D01*
X148972928Y-67192493D02*
X148447182Y-67192493D01*
X148162404Y-66907715D02*
X148162404Y-66854919D01*
X147937696Y-66630211D02*
X147159263Y-66630211D01*
X171250000Y-78200000D02*
X170084900Y-78200000D01*
X170084900Y-78200000D02*
X158984900Y-67100000D01*
X158984900Y-67100000D02*
X156415100Y-67100000D01*
X156415100Y-67100000D02*
X155250000Y-67100000D01*
X127450000Y-68434900D02*
X127450000Y-69250000D01*
X155250000Y-66300000D02*
X154084900Y-66300000D01*
X154084900Y-66300000D02*
X153684900Y-65900000D01*
X127450000Y-66150000D02*
X127450000Y-68434900D01*
X150160523Y-65900000D02*
X149802825Y-66257698D01*
X149802825Y-66257698D02*
X149277079Y-66257698D01*
X148919381Y-65900000D02*
X127700000Y-65900000D01*
X149277079Y-66257698D02*
X148919381Y-65900000D01*
X153684900Y-65900000D02*
X150160523Y-65900000D01*
X127700000Y-65900000D02*
X127450000Y-66150000D01*
X171250000Y-77400000D02*
X170084900Y-77400000D01*
X170084900Y-77400000D02*
X158984900Y-66300000D01*
X158984900Y-66300000D02*
X156415100Y-66300000D01*
X156415100Y-66300000D02*
X155250000Y-66300000D01*
X150729421Y-65500000D02*
X150679797Y-65549624D01*
X127297651Y-65102349D02*
X126450000Y-65950000D01*
X150154051Y-65549624D02*
X149706776Y-65102349D01*
X155250000Y-65500000D02*
X150729421Y-65500000D01*
X126450000Y-65950000D02*
X126450000Y-68434900D01*
X150679797Y-65549624D02*
X150154051Y-65549624D01*
X149706776Y-65102349D02*
X127297651Y-65102349D01*
X126450000Y-68434900D02*
X126450000Y-69250000D01*
X171250000Y-76600000D02*
X170084900Y-76600000D01*
X170084900Y-76600000D02*
X158984900Y-65500000D01*
X158984900Y-65500000D02*
X156415100Y-65500000D01*
X156415100Y-65500000D02*
X155250000Y-65500000D01*
X124950000Y-68434900D02*
X124950000Y-69250000D01*
X153612996Y-64897652D02*
X151087126Y-64897652D01*
X153810648Y-64700000D02*
X153612996Y-64897652D01*
X155250000Y-64700000D02*
X153810648Y-64700000D01*
X151087126Y-64897652D02*
X150491823Y-64302349D01*
X150491823Y-64302349D02*
X126897651Y-64302349D01*
X126897651Y-64302349D02*
X124950000Y-66250000D01*
X124950000Y-66250000D02*
X124950000Y-68434900D01*
X170084900Y-75800000D02*
X158984900Y-64700000D01*
X171250000Y-75800000D02*
X170084900Y-75800000D01*
X158984900Y-64700000D02*
X156415100Y-64700000D01*
X156415100Y-64700000D02*
X155250000Y-64700000D01*
X152010526Y-63900000D02*
X151612875Y-63502349D01*
X123950000Y-68434900D02*
X123950000Y-69250000D01*
X151612875Y-63502349D02*
X126597651Y-63502349D01*
X126597651Y-63502349D02*
X123950000Y-66150000D01*
X123950000Y-66150000D02*
X123950000Y-68434900D01*
X155250000Y-63900000D02*
X152010526Y-63900000D01*
X156415100Y-63900000D02*
X155250000Y-63900000D01*
X159300000Y-63900000D02*
X156415100Y-63900000D01*
X170400000Y-75000000D02*
X159300000Y-63900000D01*
X171250000Y-75000000D02*
X170400000Y-75000000D01*
X155250000Y-63100000D02*
X153089474Y-63100000D01*
X153089474Y-63100000D02*
X152691823Y-62702349D01*
X152691823Y-62702349D02*
X126397651Y-62702349D01*
X126397651Y-62702349D02*
X122450000Y-66650000D01*
X122450000Y-66650000D02*
X122450000Y-68434900D01*
X122450000Y-68434900D02*
X122450000Y-69250000D01*
X170400000Y-74200000D02*
X171250000Y-74200000D01*
X155250000Y-63100000D02*
X159300000Y-63100000D01*
X159300000Y-63100000D02*
X170400000Y-74200000D01*
X155250000Y-62300000D02*
X154400000Y-62300000D01*
X154400000Y-62300000D02*
X154002349Y-61902349D01*
X154002349Y-61902349D02*
X126147651Y-61902349D01*
X126147651Y-61902349D02*
X121450000Y-66600000D01*
X121450000Y-66600000D02*
X121450000Y-69250000D01*
X171250000Y-73400000D02*
X170400000Y-73400000D01*
X170400000Y-73400000D02*
X159300000Y-62300000D01*
X159300000Y-62300000D02*
X156415100Y-62300000D01*
X156415100Y-62300000D02*
X155250000Y-62300000D01*
X120000000Y-120200000D02*
X118834900Y-120200000D01*
X118834900Y-120200000D02*
X115950000Y-117315100D01*
X115950000Y-117315100D02*
X115950000Y-105565100D01*
X115950000Y-105565100D02*
X115950000Y-104750000D01*
X120000000Y-121000000D02*
X118834900Y-121000000D01*
X118834900Y-121000000D02*
X114950000Y-117115100D01*
X114950000Y-117115100D02*
X114950000Y-105565100D01*
X114950000Y-105565100D02*
X114950000Y-104750000D01*
X120000000Y-121800000D02*
X118834900Y-121800000D01*
X118834900Y-121800000D02*
X114450000Y-117415100D01*
X114450000Y-117415100D02*
X114450000Y-105565100D01*
X114450000Y-105565100D02*
X114450000Y-104750000D01*
X120000000Y-122600000D02*
X118834900Y-122600000D01*
X113950000Y-117715100D02*
X113950000Y-105565100D01*
X118834900Y-122600000D02*
X113950000Y-117715100D01*
X113950000Y-105565100D02*
X113950000Y-104750000D01*
X113450000Y-119150577D02*
X113450000Y-105565100D01*
X116900000Y-125000000D02*
X113450000Y-121550000D01*
X113450000Y-121550000D02*
X113450000Y-119150577D01*
X120000000Y-125000000D02*
X116900000Y-125000000D01*
X120000000Y-125000000D02*
X119150000Y-125000000D01*
X113450000Y-105565100D02*
X113450000Y-104750000D01*
X111950000Y-118381218D02*
X111950000Y-105565100D01*
X115800000Y-125800000D02*
X111950000Y-121950000D01*
X111950000Y-121950000D02*
X111950000Y-118381218D01*
X120000000Y-125800000D02*
X115800000Y-125800000D01*
X120000000Y-125800000D02*
X119150000Y-125800000D01*
X111950000Y-105565100D02*
X111950000Y-104750000D01*
X121450000Y-104750000D02*
X121450000Y-126000000D01*
X121450000Y-126000000D02*
X120850000Y-126600000D01*
X120850000Y-126600000D02*
X120000000Y-126600000D01*
X121950000Y-104750000D02*
X121950000Y-127150000D01*
X121950000Y-127150000D02*
X121700000Y-127400000D01*
X121700000Y-127400000D02*
X120000000Y-127400000D01*
X92200000Y-134250000D02*
X92800000Y-134850000D01*
X92800000Y-134850000D02*
X93650000Y-134850000D01*
X122400000Y-74450000D02*
X126350000Y-78400000D01*
X126350000Y-78400000D02*
X126350000Y-78500000D01*
X111750000Y-74450000D02*
X122400000Y-74450000D01*
X107950000Y-70650000D02*
X111750000Y-74450000D01*
X107950000Y-70065100D02*
X107950000Y-70650000D01*
X107950000Y-69250000D02*
X107950000Y-70065100D01*
X108450000Y-69250000D02*
X108450000Y-70566987D01*
X108450000Y-70566987D02*
X111833014Y-73950000D01*
X111833014Y-73950000D02*
X122700000Y-73950000D01*
X122700000Y-73950000D02*
X127250000Y-78500000D01*
X95500000Y-138550000D02*
X95900000Y-138150000D01*
X95900000Y-138150000D02*
X95900000Y-137100000D01*
X172497651Y-71297651D02*
X172497651Y-78602349D01*
X161900000Y-60700000D02*
X172497651Y-71297651D01*
X172100000Y-79000000D02*
X171250000Y-79000000D01*
X119950000Y-69250000D02*
X119950000Y-68401888D01*
X172497651Y-78602349D02*
X172100000Y-79000000D01*
X126800000Y-60700000D02*
X161900000Y-60700000D01*
X121080211Y-66419789D02*
X126800000Y-60700000D01*
X121080211Y-67271677D02*
X121080211Y-66419789D01*
X119950000Y-68401888D02*
X121080211Y-67271677D01*
X172100000Y-82200000D02*
X171250000Y-82200000D01*
X172827862Y-81472138D02*
X172100000Y-82200000D01*
X172827862Y-71077862D02*
X172827862Y-81472138D01*
X162100000Y-60350000D02*
X172827862Y-71077862D01*
X126650000Y-60350000D02*
X162100000Y-60350000D01*
X120750000Y-66250000D02*
X126650000Y-60350000D01*
X119450000Y-68434900D02*
X120750000Y-67134900D01*
X120750000Y-67134900D02*
X120750000Y-66250000D01*
X119450000Y-69250000D02*
X119450000Y-68434900D01*
X133634900Y-82750000D02*
X138700000Y-82750000D01*
X120950000Y-70065100D02*
X133634900Y-82750000D01*
X157252349Y-83447651D02*
X159300000Y-81400000D01*
X159300000Y-81400000D02*
X160850000Y-81400000D01*
X143968695Y-82959246D02*
X144457100Y-83447651D01*
X144457100Y-83447651D02*
X157252349Y-83447651D01*
X120950000Y-69250000D02*
X120950000Y-70065100D01*
X155250000Y-67900000D02*
X147411238Y-67900000D01*
X146390171Y-67404679D02*
X146294850Y-67500000D01*
X147411238Y-67900000D02*
X146915917Y-67404679D01*
X146915917Y-67404679D02*
X146390171Y-67404679D01*
X146294850Y-67500000D02*
X138900964Y-67500000D01*
X138900964Y-67500000D02*
X138762680Y-67361716D01*
X138762680Y-67361716D02*
X131023184Y-67361716D01*
X131023184Y-67361716D02*
X129950000Y-68434900D01*
X129950000Y-68434900D02*
X129950000Y-69250000D01*
X155250000Y-71100000D02*
X153800000Y-71100000D01*
X153800000Y-71100000D02*
X153750000Y-71150000D01*
X146097651Y-71150000D02*
X146097651Y-71448121D01*
X146097651Y-71448121D02*
X146048121Y-71497651D01*
X153750000Y-71150000D02*
X146097651Y-71150000D01*
X146048121Y-71497651D02*
X143302349Y-71497651D01*
X143302349Y-71497651D02*
X142922651Y-71877349D01*
X142922651Y-71877349D02*
X139124579Y-71877349D01*
X139124579Y-71877349D02*
X138873011Y-72128917D01*
X138873011Y-72128917D02*
X135682573Y-72128917D01*
X135682573Y-72128917D02*
X135573205Y-72238285D01*
X135573205Y-72238285D02*
X133229201Y-72238285D01*
X133229201Y-72238285D02*
X131950000Y-70959084D01*
X131950000Y-70959084D02*
X131950000Y-70065100D01*
X131950000Y-70065100D02*
X131950000Y-69250000D01*
X133674463Y-70751977D02*
X133674463Y-70217561D01*
X134500349Y-71577863D02*
X133674463Y-70751977D01*
X143333976Y-70300000D02*
X142417049Y-71216927D01*
X135409019Y-71468495D02*
X135299651Y-71577863D01*
X142417049Y-71216927D02*
X138851025Y-71216927D01*
X133674463Y-70217561D02*
X133450000Y-69993098D01*
X138851025Y-71216927D02*
X138599457Y-71468495D01*
X133450000Y-69993098D02*
X133450000Y-69250000D01*
X138599457Y-71468495D02*
X135409019Y-71468495D01*
X135299651Y-71577863D02*
X134500349Y-71577863D01*
X144850000Y-70300000D02*
X143333976Y-70300000D01*
X137450000Y-69250000D02*
X137740100Y-69250000D01*
X137740100Y-69250000D02*
X138141028Y-69650928D01*
X138141028Y-69650928D02*
X138141028Y-69669920D01*
X104500000Y-129750000D02*
X104500000Y-128450000D01*
X102150000Y-130050000D02*
X104200000Y-130050000D01*
X104200000Y-130050000D02*
X104500000Y-129750000D01*
X100850000Y-134700000D02*
X102000000Y-134700000D01*
X102000000Y-134700000D02*
X102150000Y-134850000D01*
X108450000Y-104750000D02*
X108450000Y-112350000D01*
X108450000Y-112350000D02*
X107750000Y-113050000D01*
X102150000Y-134850000D02*
X104500000Y-134850000D01*
X104500000Y-134850000D02*
X104550000Y-134800000D01*
X104000000Y-111450000D02*
X104000000Y-100384900D01*
X104000000Y-100384900D02*
X104134900Y-100250000D01*
X104134900Y-100250000D02*
X104950000Y-100250000D01*
X108800000Y-115400000D02*
X107950000Y-115400000D01*
X107950000Y-115400000D02*
X104000000Y-111450000D01*
X104134900Y-99250000D02*
X104950000Y-99250000D01*
X107950000Y-116200000D02*
X103653165Y-111903165D01*
X103653165Y-99731735D02*
X104134900Y-99250000D01*
X103653165Y-111903165D02*
X103653165Y-99731735D01*
X108800000Y-116200000D02*
X107950000Y-116200000D01*
X104134900Y-98750000D02*
X104950000Y-98750000D01*
X104050000Y-98750000D02*
X104134900Y-98750000D01*
X103322954Y-99477046D02*
X104050000Y-98750000D01*
X108800000Y-117000000D02*
X107950000Y-117000000D01*
X107950000Y-117000000D02*
X103322954Y-112372954D01*
X103322954Y-112372954D02*
X103322954Y-99477046D01*
X108800000Y-117800000D02*
X107950000Y-117800000D01*
X103974530Y-98250000D02*
X104134900Y-98250000D01*
X102992743Y-99231787D02*
X103974530Y-98250000D01*
X102992743Y-112842743D02*
X102992743Y-99231787D01*
X107950000Y-117800000D02*
X102992743Y-112842743D01*
X104134900Y-98250000D02*
X104950000Y-98250000D01*
X102662532Y-113312532D02*
X102662532Y-98722368D01*
X104134900Y-97250000D02*
X104950000Y-97250000D01*
X102662532Y-98722368D02*
X104134900Y-97250000D01*
X107950000Y-118600000D02*
X102662532Y-113312532D01*
X108800000Y-118600000D02*
X107950000Y-118600000D01*
X107950000Y-129000000D02*
X99030211Y-120080211D01*
X104134900Y-91250000D02*
X104950000Y-91250000D01*
X99030211Y-96302803D02*
X104083014Y-91250000D01*
X108800000Y-129000000D02*
X107950000Y-129000000D01*
X99030211Y-120080211D02*
X99030211Y-96302803D01*
X104083014Y-91250000D02*
X104134900Y-91250000D01*
X98700000Y-96166026D02*
X104116026Y-90750000D01*
X104116026Y-90750000D02*
X104134900Y-90750000D01*
X98700000Y-120550000D02*
X98700000Y-96166026D01*
X108800000Y-129800000D02*
X107950000Y-129800000D01*
X107950000Y-129800000D02*
X98700000Y-120550000D01*
X104134900Y-90750000D02*
X104950000Y-90750000D01*
X110450000Y-107489474D02*
X110450000Y-105565100D01*
X110484913Y-107524387D02*
X110450000Y-107489474D01*
X110450000Y-105565100D02*
X110450000Y-104750000D01*
X110450000Y-108085048D02*
X110484913Y-108050135D01*
X110450000Y-129800000D02*
X110450000Y-108085048D01*
X108800000Y-130600000D02*
X109650000Y-130600000D01*
X110484913Y-108050135D02*
X110484913Y-107524387D01*
X109650000Y-130600000D02*
X110450000Y-129800000D01*
X108800000Y-131400000D02*
X109650000Y-131400000D01*
X109650000Y-131400000D02*
X110950000Y-130100000D01*
X110950000Y-105565100D02*
X110950000Y-104750000D01*
X110950000Y-130100000D02*
X110950000Y-105565100D01*
X108800000Y-132200000D02*
X109650000Y-132200000D01*
X109650000Y-132200000D02*
X111450000Y-130400000D01*
X111450000Y-130400000D02*
X111450000Y-105565100D01*
X111450000Y-105565100D02*
X111450000Y-104750000D01*
X124950000Y-105565100D02*
X124950000Y-104750000D01*
X124950000Y-128100000D02*
X124950000Y-105565100D01*
X120850000Y-132200000D02*
X124950000Y-128100000D01*
X120000000Y-132200000D02*
X120850000Y-132200000D01*
X124450000Y-104750000D02*
X124450000Y-127800000D01*
X124450000Y-127800000D02*
X120850000Y-131400000D01*
X120850000Y-131400000D02*
X120000000Y-131400000D01*
X120000000Y-130600000D02*
X120850000Y-130600000D01*
X120850000Y-130600000D02*
X124100000Y-127350000D01*
X124100000Y-127350000D02*
X124100000Y-105715100D01*
X123950000Y-105565100D02*
X123950000Y-104750000D01*
X124100000Y-105715100D02*
X123950000Y-105565100D01*
X122950000Y-104750000D02*
X122850000Y-104850000D01*
X122850000Y-104850000D02*
X122850000Y-127800000D01*
X122850000Y-127800000D02*
X120850000Y-129800000D01*
X120850000Y-129800000D02*
X120000000Y-129800000D01*
X120000000Y-129000000D02*
X120850000Y-129000000D01*
X120850000Y-129000000D02*
X122450000Y-127400000D01*
X122450000Y-127400000D02*
X122450000Y-105565100D01*
X122450000Y-105565100D02*
X122450000Y-104750000D01*
X120000000Y-117000000D02*
X119150000Y-117000000D01*
X119150000Y-117000000D02*
X117950000Y-115800000D01*
X117950000Y-115800000D02*
X117950000Y-105565100D01*
X117950000Y-105565100D02*
X117950000Y-104750000D01*
X119450000Y-104750000D02*
X119450000Y-114350000D01*
X119450000Y-114350000D02*
X118700000Y-115100000D01*
X118700000Y-115100000D02*
X118700000Y-115695772D01*
X118700000Y-115695772D02*
X119154228Y-116150000D01*
X119154228Y-116150000D02*
X119550000Y-116150000D01*
X119550000Y-116150000D02*
X119600000Y-116200000D01*
X119600000Y-116200000D02*
X120000000Y-116200000D01*
X120000000Y-115400000D02*
X119950000Y-115350000D01*
X119950000Y-115350000D02*
X119950000Y-105565100D01*
X119950000Y-105565100D02*
X119950000Y-104750000D01*
X108800000Y-119400000D02*
X107950000Y-119400000D01*
X102332321Y-98552579D02*
X104134900Y-96750000D01*
X102332321Y-113782321D02*
X102332321Y-98552579D01*
X104134900Y-96750000D02*
X104950000Y-96750000D01*
X107950000Y-119400000D02*
X102332321Y-113782321D01*
X104950000Y-96750000D02*
X106650000Y-96750000D01*
X106650000Y-96750000D02*
X106800000Y-96600000D01*
X104134900Y-91750000D02*
X104950000Y-91750000D01*
X99360422Y-96439580D02*
X104050002Y-91750000D01*
X108800000Y-128200000D02*
X107950000Y-128200000D01*
X104050002Y-91750000D02*
X104134900Y-91750000D01*
X107950000Y-128200000D02*
X99360422Y-119610422D01*
X99360422Y-119610422D02*
X99360422Y-96439580D01*
X116450000Y-117200000D02*
X118650000Y-119400000D01*
X118650000Y-119400000D02*
X120000000Y-119400000D01*
X116450000Y-104750000D02*
X116450000Y-117200000D01*
X120000000Y-118600000D02*
X119150000Y-118600000D01*
X119150000Y-118600000D02*
X116950000Y-116400000D01*
X116950000Y-116400000D02*
X116950000Y-105565100D01*
X116950000Y-105565100D02*
X116950000Y-104750000D01*
X117450000Y-104750000D02*
X117450000Y-116100000D01*
X117450000Y-116100000D02*
X119150000Y-117800000D01*
X119150000Y-117800000D02*
X120000000Y-117800000D01*
X100764097Y-145228749D02*
X98224097Y-145228749D01*
X98224097Y-145228749D02*
X97328749Y-144333401D01*
X97328749Y-144333401D02*
X97328749Y-142686351D01*
X97328749Y-142686351D02*
X99700000Y-140315100D01*
X99700000Y-140315100D02*
X99700000Y-139500000D01*
X99900000Y-139300000D02*
X99700000Y-139500000D01*
X126300000Y-128800000D02*
X109871251Y-145228749D01*
X109871251Y-145228749D02*
X100764097Y-145228749D01*
X126300000Y-121800000D02*
X126300000Y-128800000D01*
X99900000Y-137100000D02*
X99900000Y-139300000D01*
X137450000Y-104750000D02*
X137450000Y-110150000D01*
X137450000Y-110150000D02*
X136100000Y-111500000D01*
X107950000Y-120200000D02*
X102002110Y-114252110D01*
X104134900Y-96250000D02*
X104950000Y-96250000D01*
X102002110Y-98382790D02*
X104134900Y-96250000D01*
X102002110Y-114252110D02*
X102002110Y-98382790D01*
X108800000Y-120200000D02*
X107950000Y-120200000D01*
X101671899Y-98178101D02*
X104100000Y-95750000D01*
X101671899Y-114721899D02*
X101671899Y-98178101D01*
X107950000Y-121000000D02*
X101671899Y-114721899D01*
X108800000Y-121000000D02*
X107950000Y-121000000D01*
X104134900Y-95750000D02*
X104950000Y-95750000D01*
X104100000Y-95750000D02*
X104134900Y-95750000D01*
X104134900Y-95250000D02*
X104950000Y-95250000D01*
X104050000Y-95250000D02*
X104134900Y-95250000D01*
X101341688Y-97958312D02*
X104050000Y-95250000D01*
X101341688Y-115191688D02*
X101341688Y-97958312D01*
X108800000Y-121800000D02*
X107950000Y-121800000D01*
X107950000Y-121800000D02*
X101341688Y-115191688D01*
X101011477Y-97788524D02*
X104050001Y-94750000D01*
X101011477Y-115661477D02*
X101011477Y-97788524D01*
X104134900Y-94750000D02*
X104950000Y-94750000D01*
X107950000Y-122600000D02*
X101011477Y-115661477D01*
X108800000Y-122600000D02*
X107950000Y-122600000D01*
X104050001Y-94750000D02*
X104134900Y-94750000D01*
X104083013Y-94250000D02*
X104134900Y-94250000D01*
X108800000Y-125000000D02*
X107950000Y-125000000D01*
X100681266Y-117731266D02*
X100681266Y-97651747D01*
X100681266Y-97651747D02*
X104083013Y-94250000D01*
X107950000Y-125000000D02*
X100681266Y-117731266D01*
X104134900Y-94250000D02*
X104950000Y-94250000D01*
X104134900Y-93250000D02*
X104950000Y-93250000D01*
X108800000Y-125800000D02*
X107950000Y-125800000D01*
X100351055Y-118201055D02*
X100351055Y-97033845D01*
X100351055Y-97033845D02*
X104134900Y-93250000D01*
X107950000Y-125800000D02*
X100351055Y-118201055D01*
X107950000Y-126600000D02*
X100020844Y-118670844D01*
X100020844Y-118670844D02*
X100020844Y-96864056D01*
X104134900Y-92750000D02*
X104950000Y-92750000D01*
X100020844Y-96864056D02*
X104134900Y-92750000D01*
X108800000Y-126600000D02*
X107950000Y-126600000D01*
X104134900Y-92250000D02*
X104950000Y-92250000D01*
X99690633Y-119140633D02*
X99690633Y-96609367D01*
X99690633Y-96609367D02*
X104050000Y-92250000D01*
X107950000Y-127400000D02*
X99690633Y-119140633D01*
X108800000Y-127400000D02*
X107950000Y-127400000D01*
X104050000Y-92250000D02*
X104134900Y-92250000D01*
X146244720Y-143056240D02*
X146244720Y-145705280D01*
X146244720Y-145705280D02*
X146200000Y-145750000D01*
X121000000Y-100900000D02*
X110350000Y-90250000D01*
X110350000Y-90250000D02*
X104950000Y-90250000D01*
X146244720Y-143056240D02*
X146244720Y-141644720D01*
X146244720Y-141644720D02*
X146200000Y-141600000D01*
X98649999Y-93400001D02*
X98350000Y-93700000D01*
X98900000Y-89250000D02*
X98649999Y-89500001D01*
X104950000Y-89250000D02*
X98900000Y-89250000D01*
X98649999Y-89500001D02*
X98649999Y-93400001D01*
X154300000Y-145750000D02*
X154300000Y-145650000D01*
X154300000Y-145650000D02*
X153397360Y-144747360D01*
X153397360Y-144747360D02*
X153397360Y-144237340D01*
X153397360Y-144237340D02*
X153397360Y-143056240D01*
X122000000Y-100900000D02*
X110350000Y-89250000D01*
X110350000Y-89250000D02*
X104950000Y-89250000D01*
X153397360Y-143056240D02*
X153397360Y-141102640D01*
X153397360Y-141102640D02*
X153400000Y-141100000D01*
X123000000Y-100900000D02*
X110850000Y-88750000D01*
X110850000Y-88750000D02*
X104950000Y-88750000D01*
X154047600Y-143056240D02*
X154047600Y-141647600D01*
X154047600Y-141647600D02*
X154000000Y-141600000D01*
X124000000Y-100800000D02*
X108950000Y-85750000D01*
X108950000Y-85750000D02*
X104950000Y-85750000D01*
X154697840Y-143056240D02*
X154697840Y-141102160D01*
X154697840Y-141102160D02*
X154700000Y-141100000D01*
X124900000Y-100800000D02*
X109350000Y-85250000D01*
X109350000Y-85250000D02*
X104950000Y-85250000D01*
X155348080Y-143056240D02*
X155348080Y-141648080D01*
X155348080Y-141648080D02*
X155300000Y-141600000D01*
X137561109Y-86568996D02*
X123719243Y-86568996D01*
X137742113Y-86750000D02*
X137561109Y-86568996D01*
X123719243Y-86568996D02*
X123294979Y-86568996D01*
X137742113Y-86750000D02*
X140450000Y-86750000D01*
X137742113Y-86742113D02*
X137742113Y-86750000D01*
X137200000Y-86200000D02*
X137742113Y-86742113D01*
X144850000Y-69500000D02*
X142050000Y-69500000D01*
X176034900Y-80920000D02*
X177200000Y-80920000D01*
X174354961Y-82599939D02*
X176034900Y-80920000D01*
X169799939Y-82599939D02*
X174354961Y-82599939D01*
X167800000Y-80600000D02*
X169799939Y-82599939D01*
X160850000Y-80600000D02*
X167800000Y-80600000D01*
X158550000Y-80600000D02*
X160850000Y-80600000D01*
X146365450Y-69500000D02*
X146443331Y-69577881D01*
X144850000Y-69500000D02*
X146365450Y-69500000D01*
X140500000Y-86800000D02*
X140450000Y-86750000D01*
X125800000Y-100800000D02*
X109750000Y-84750000D01*
X109750000Y-84750000D02*
X104950000Y-84750000D01*
X158599280Y-143056240D02*
X158599280Y-141700720D01*
X158599280Y-141700720D02*
X158600000Y-141700000D01*
X126700000Y-100800000D02*
X109650000Y-83750000D01*
X109650000Y-83750000D02*
X104950000Y-83750000D01*
X161850480Y-143056240D02*
X161850480Y-141650480D01*
X161850480Y-141650480D02*
X161800000Y-141600000D01*
X127600000Y-100800000D02*
X110050000Y-83250000D01*
X110050000Y-83250000D02*
X104950000Y-83250000D01*
X165751920Y-143056240D02*
X165751920Y-141651920D01*
X165751920Y-141651920D02*
X165700000Y-141600000D01*
X128500000Y-100800000D02*
X110450000Y-82750000D01*
X110450000Y-82750000D02*
X104950000Y-82750000D01*
X169653360Y-143056240D02*
X169653360Y-141253360D01*
X169653360Y-141253360D02*
X169600000Y-141200000D01*
X104950000Y-82250000D02*
X110850000Y-82250000D01*
X110850000Y-82250000D02*
X129400000Y-100800000D01*
X170300000Y-141600000D02*
X170300000Y-143052640D01*
X170300000Y-143052640D02*
X170303600Y-143056240D01*
X130200000Y-100800000D02*
X111150000Y-81750000D01*
X111150000Y-81750000D02*
X104950000Y-81750000D01*
X174855280Y-143056240D02*
X174855280Y-141555280D01*
X174855280Y-141555280D02*
X174800000Y-141500000D01*
X176500000Y-139800000D02*
X178101440Y-139800000D01*
X178101440Y-139800000D02*
X178106480Y-139805040D01*
X104950000Y-81250000D02*
X111502951Y-81250000D01*
X111502951Y-81250000D02*
X133476728Y-103223777D01*
X176500000Y-135900000D02*
X178102880Y-135900000D01*
X178102880Y-135900000D02*
X178106480Y-135903600D01*
X104950000Y-80750000D02*
X111777460Y-80750000D01*
X111777460Y-80750000D02*
X134294404Y-103266944D01*
X176500000Y-131900000D02*
X178004320Y-131900000D01*
X178004320Y-131900000D02*
X178106480Y-132002160D01*
X104950000Y-79250000D02*
X111826476Y-79250000D01*
X111826476Y-79250000D02*
X135188238Y-102611762D01*
X176500000Y-133300000D02*
X178103840Y-133300000D01*
X178103840Y-133300000D02*
X178106480Y-133302640D01*
X104950000Y-79750000D02*
X111551968Y-79750000D01*
X111551968Y-79750000D02*
X134300984Y-102499016D01*
X176500000Y-129400000D02*
X178105280Y-129400000D01*
X178105280Y-129400000D02*
X178106480Y-129401200D01*
X104950000Y-78750000D02*
X112100984Y-78750000D01*
X112100984Y-78750000D02*
X135183543Y-101832559D01*
X176000000Y-128100000D02*
X178105760Y-128100000D01*
X178105760Y-128100000D02*
X178106480Y-128100720D01*
X104950000Y-78250000D02*
X112375493Y-78250000D01*
X112375493Y-78250000D02*
X135995298Y-101869805D01*
X176500000Y-127400000D02*
X178056000Y-127400000D01*
X178056000Y-127400000D02*
X178106480Y-127450480D01*
X104950000Y-77750000D02*
X112650000Y-77750000D01*
X112650000Y-77750000D02*
X136000000Y-101100000D01*
X126450000Y-104750000D02*
X126550000Y-104850000D01*
X126550000Y-104850000D02*
X126550000Y-119950000D01*
X126550000Y-119950000D02*
X141853360Y-135253360D01*
X141853360Y-135253360D02*
X143643760Y-135253360D01*
X143643760Y-135903600D02*
X141403600Y-135903600D01*
X141403600Y-135903600D02*
X125350000Y-119850000D01*
X125350000Y-119850000D02*
X125350000Y-104850000D01*
X125350000Y-104850000D02*
X125450000Y-104750000D01*
X111453300Y-102438200D02*
X107198244Y-102438200D01*
X107198244Y-102438200D02*
X106773980Y-102438200D01*
X112950000Y-104750000D02*
X112950000Y-103934900D01*
X112950000Y-103934900D02*
X111453300Y-102438200D01*
X90500000Y-101950000D02*
X91750000Y-101950000D01*
X104950000Y-99750000D02*
X106150000Y-99750000D01*
X91320000Y-100680000D02*
X90500000Y-100680000D01*
X91750000Y-100250000D02*
X91320000Y-100680000D01*
X92735400Y-101899700D02*
X92735400Y-100893964D01*
X90500000Y-103220000D02*
X91415100Y-103220000D01*
X92735400Y-100893964D02*
X92735400Y-100469700D01*
X91415100Y-103220000D02*
X92735400Y-101899700D01*
X106400000Y-100750000D02*
X104950000Y-100750000D01*
X106450000Y-100700000D02*
X106400000Y-100750000D01*
X104134900Y-88250000D02*
X104950000Y-88250000D01*
X98650000Y-88250000D02*
X104134900Y-88250000D01*
X96900000Y-94239474D02*
X98047651Y-93091823D01*
X96350000Y-105760000D02*
X96900000Y-105210000D01*
X98047651Y-93091823D02*
X98047651Y-88852349D01*
X95900000Y-105760000D02*
X96350000Y-105760000D01*
X96900000Y-105210000D02*
X96900000Y-94239474D01*
X98047651Y-88852349D02*
X98650000Y-88250000D01*
X104950000Y-72750000D02*
X104134900Y-72750000D01*
X104134900Y-72750000D02*
X101904900Y-74980000D01*
X101904900Y-74980000D02*
X99265100Y-74980000D01*
X99265100Y-74980000D02*
X98350000Y-74980000D01*
X104950000Y-74250000D02*
X104134900Y-74250000D01*
X104134900Y-74250000D02*
X100864900Y-77520000D01*
X100864900Y-77520000D02*
X99265100Y-77520000D01*
X99265100Y-77520000D02*
X98350000Y-77520000D01*
X104950000Y-73250000D02*
X104134900Y-73250000D01*
X104134900Y-73250000D02*
X101134900Y-76250000D01*
X101134900Y-76250000D02*
X99265100Y-76250000D01*
X99265100Y-76250000D02*
X98350000Y-76250000D01*
X98450000Y-83085000D02*
X97509900Y-83085000D01*
X97509900Y-83085000D02*
X96962249Y-83632651D01*
X96962249Y-83632651D02*
X89166609Y-83632651D01*
X89166609Y-83632651D02*
X88242698Y-82708740D01*
X88242698Y-82708740D02*
X87017302Y-82708740D01*
X86366340Y-85248740D02*
X87477600Y-86360000D01*
X87017302Y-82708740D02*
X86366340Y-83359702D01*
X86366340Y-83359702D02*
X86366340Y-85248740D01*
X87477600Y-86360000D02*
X87630000Y-86360000D01*
X98450000Y-83085000D02*
X97975000Y-83085000D01*
X99472651Y-82477349D02*
X99472651Y-82537349D01*
X99472651Y-82537349D02*
X98925000Y-83085000D01*
X98925000Y-83085000D02*
X98450000Y-83085000D01*
X104950000Y-75750000D02*
X104134900Y-75750000D01*
X104134900Y-75750000D02*
X99472651Y-80412249D01*
X99472651Y-80412249D02*
X99472651Y-82477349D01*
X98450000Y-84355000D02*
X94570772Y-84355000D01*
X94570772Y-84355000D02*
X94023121Y-84902651D01*
X88811100Y-83820000D02*
X87630000Y-83820000D01*
X94023121Y-84902651D02*
X89893751Y-84902651D01*
X89893751Y-84902651D02*
X88811100Y-83820000D01*
X99900000Y-80984900D02*
X99900000Y-83380000D01*
X99900000Y-83380000D02*
X98925000Y-84355000D01*
X98925000Y-84355000D02*
X98450000Y-84355000D01*
X104950000Y-76750000D02*
X104134900Y-76750000D01*
X104134900Y-76750000D02*
X99900000Y-80984900D01*
X93050000Y-81815000D02*
X88165000Y-81815000D01*
X88165000Y-81815000D02*
X87630000Y-81280000D01*
X97650000Y-78800000D02*
X94635000Y-81815000D01*
X94635000Y-81815000D02*
X93050000Y-81815000D01*
X100084900Y-78800000D02*
X97650000Y-78800000D01*
X104950000Y-74750000D02*
X104134900Y-74750000D01*
X104134900Y-74750000D02*
X100084900Y-78800000D01*
X94500000Y-79570000D02*
X94500000Y-76080000D01*
X94500000Y-76080000D02*
X93400000Y-74980000D01*
X93400000Y-74980000D02*
X92950000Y-74980000D01*
X93050000Y-80545000D02*
X93525000Y-80545000D01*
X93525000Y-80545000D02*
X94500000Y-79570000D01*
X107350002Y-72950002D02*
X105100000Y-70700000D01*
X105100000Y-70700000D02*
X105100000Y-64201520D01*
X107350002Y-73950000D02*
X107350002Y-72950002D01*
X107150002Y-73750000D02*
X107350002Y-73950000D01*
X104950000Y-73750000D02*
X107150002Y-73750000D01*
X107950000Y-72850000D02*
X105950900Y-70850900D01*
X105950900Y-70850900D02*
X105950900Y-64201520D01*
X107950000Y-72950000D02*
X107950000Y-72850000D01*
X107950000Y-75350000D02*
X107950000Y-72950000D01*
X104950000Y-75250000D02*
X107850000Y-75250000D01*
X107850000Y-75250000D02*
X107950000Y-75350000D01*
X108600000Y-72650000D02*
X106748460Y-70798460D01*
X106748460Y-70798460D02*
X106748460Y-64201520D01*
X108600000Y-77050000D02*
X108600000Y-72650000D01*
X108600000Y-77050000D02*
X108175736Y-77050000D01*
X108175736Y-77050000D02*
X107975736Y-77250000D01*
X107975736Y-77250000D02*
X105765100Y-77250000D01*
X105765100Y-77250000D02*
X104950000Y-77250000D01*
X110450000Y-68463204D02*
X110450000Y-69250000D01*
X107650160Y-65663364D02*
X110450000Y-68463204D01*
X107650160Y-64201520D02*
X107650160Y-65663364D01*
X110450000Y-69250000D02*
X110450000Y-70326915D01*
X110450000Y-70326915D02*
X110292026Y-70484889D01*
X110950000Y-68496216D02*
X110950000Y-69250000D01*
X109249840Y-66796056D02*
X110950000Y-68496216D01*
X109249840Y-64201520D02*
X109249840Y-66796056D01*
X110950000Y-70904664D02*
X110782812Y-71071852D01*
X110950000Y-69250000D02*
X110950000Y-70904664D01*
X110100740Y-64201520D02*
X110100740Y-67179968D01*
X110100740Y-67179968D02*
X111450000Y-68529228D01*
X111450000Y-68529228D02*
X111450000Y-69250000D01*
X111450000Y-71473174D02*
X111402330Y-71520844D01*
X111450000Y-69250000D02*
X111450000Y-71473174D01*
X110898300Y-64201520D02*
X110898300Y-64941930D01*
X110898300Y-64941930D02*
X111950000Y-65993630D01*
X111950000Y-65993630D02*
X111950000Y-68434900D01*
X111950000Y-68434900D02*
X111950000Y-69250000D01*
X111950000Y-72102330D02*
X111902330Y-72150000D01*
X111950000Y-69250000D02*
X111950000Y-72102330D01*
X111800000Y-64201520D02*
X111800000Y-64941930D01*
X111800000Y-64941930D02*
X112300000Y-65441930D01*
X112300000Y-65441930D02*
X112300000Y-68284900D01*
X112300000Y-68284900D02*
X112450000Y-68434900D01*
X112450000Y-68434900D02*
X112450000Y-69250000D01*
X112450000Y-69250000D02*
X112450000Y-72700000D01*
X113400000Y-64201520D02*
X113550000Y-64351520D01*
X113550000Y-64351520D02*
X113550000Y-69150000D01*
X113550000Y-69150000D02*
X113450000Y-69250000D01*
X113450000Y-69250000D02*
X113450000Y-70421523D01*
X113450000Y-70421523D02*
X113387660Y-70483863D01*
X114250900Y-64201520D02*
X114250900Y-64941930D01*
X114250900Y-64941930D02*
X113950000Y-65242830D01*
X113950000Y-65242830D02*
X113950000Y-68434900D01*
X113950000Y-68434900D02*
X113950000Y-69250000D01*
X113950000Y-71002330D02*
X113902330Y-71050000D01*
X113950000Y-69250000D02*
X113950000Y-71002330D01*
X114450000Y-68434900D02*
X114450000Y-69250000D01*
X114450000Y-65975102D02*
X114450000Y-68434900D01*
X115048460Y-65376642D02*
X114450000Y-65975102D01*
X115048460Y-64201520D02*
X115048460Y-65376642D01*
X114450000Y-69250000D02*
X114450000Y-71602330D01*
X114450000Y-71602330D02*
X114402330Y-71650000D01*
X115950160Y-64201520D02*
X115950160Y-64941930D01*
X115950160Y-64941930D02*
X114800000Y-66092090D01*
X114800000Y-66092090D02*
X114800000Y-68284900D01*
X114800000Y-68284900D02*
X114950000Y-68434900D01*
X114950000Y-68434900D02*
X114950000Y-69250000D01*
X114950000Y-69250000D02*
X114950000Y-72300000D01*
X117549100Y-64200000D02*
X117549100Y-64940410D01*
X117549100Y-64940410D02*
X116100000Y-66389510D01*
X116100000Y-66389510D02*
X116100000Y-68284900D01*
X116100000Y-68284900D02*
X115950000Y-68434900D01*
X115950000Y-68434900D02*
X115950000Y-69250000D01*
X115950000Y-70371523D02*
X115887660Y-70433863D01*
X115950000Y-69250000D02*
X115950000Y-70371523D01*
X116450000Y-68434900D02*
X116450000Y-69250000D01*
X116450000Y-66836172D02*
X116450000Y-68434900D01*
X118400000Y-64886172D02*
X116450000Y-66836172D01*
X118400000Y-64200000D02*
X118400000Y-64886172D01*
X116450000Y-70952330D02*
X116402330Y-71000000D01*
X116450000Y-69250000D02*
X116450000Y-70952330D01*
X116950000Y-66803160D02*
X116950000Y-68434900D01*
X119197560Y-64200000D02*
X119197560Y-64555600D01*
X119197560Y-64555600D02*
X116950000Y-66803160D01*
X116950000Y-68434900D02*
X116950000Y-69250000D01*
X116950000Y-71552330D02*
X116902330Y-71600000D01*
X116950000Y-69250000D02*
X116950000Y-71552330D01*
X120099260Y-64200000D02*
X120099260Y-64940410D01*
X120099260Y-64940410D02*
X117450000Y-67589670D01*
X117450000Y-67589670D02*
X117450000Y-68434900D01*
X117450000Y-68434900D02*
X117450000Y-69250000D01*
X117450000Y-69250000D02*
X117450000Y-72200000D01*
X118450000Y-69250000D02*
X118450000Y-67616026D01*
X118450000Y-67616026D02*
X127196237Y-58869789D01*
X127196237Y-58869789D02*
X169554689Y-58869789D01*
X169554689Y-58869789D02*
X170484900Y-59800000D01*
X170484900Y-59800000D02*
X171400000Y-59800000D01*
D43*
X171400000Y-59800000D02*
X171848480Y-59800000D01*
X171848480Y-59800000D02*
X173748480Y-57900000D01*
X173748480Y-57900000D02*
X174248860Y-57900000D01*
D44*
X118950000Y-69250000D02*
X118950000Y-67583013D01*
X168909900Y-61925000D02*
X170534900Y-63550000D01*
X118950000Y-67583013D02*
X127333014Y-59200000D01*
X127333014Y-59200000D02*
X163050000Y-59200000D01*
X163050000Y-59200000D02*
X165775000Y-61925000D01*
X165775000Y-61925000D02*
X168909900Y-61925000D01*
X170534900Y-63550000D02*
X171450000Y-63550000D01*
D43*
X171450000Y-63550000D02*
X171748480Y-63550000D01*
X171748480Y-63550000D02*
X173698480Y-61600000D01*
X173698480Y-61600000D02*
X174198860Y-61600000D01*
D44*
X105950900Y-60601520D02*
X105950900Y-60245920D01*
X105950900Y-60245920D02*
X106751000Y-59445820D01*
X106751000Y-59445820D02*
X106751000Y-59340410D01*
X106751000Y-59340410D02*
X106751000Y-58600000D01*
X105950900Y-62200000D02*
X105950900Y-60601520D01*
X108049999Y-56350001D02*
X107750000Y-56650000D01*
X109200000Y-56100000D02*
X108300000Y-56100000D01*
X108300000Y-56100000D02*
X108049999Y-56350001D01*
X109249840Y-62200000D02*
X109249840Y-62450160D01*
X109249840Y-62450160D02*
X108500000Y-63200000D01*
X109249840Y-62200000D02*
X109249840Y-60600000D01*
X107650160Y-60601520D02*
X107650160Y-60341170D01*
X107650160Y-60341170D02*
X109249840Y-58741490D01*
X109249840Y-58741490D02*
X109249840Y-58598480D01*
X107650160Y-62200000D02*
X107650160Y-60601520D01*
X106748460Y-60601520D02*
X106748460Y-60245920D01*
X106748460Y-60245920D02*
X107650160Y-59344220D01*
X107650160Y-59344220D02*
X107650160Y-59340410D01*
X107650160Y-59340410D02*
X107650160Y-58600000D01*
X106751000Y-62200000D02*
X106751000Y-60604060D01*
X106751000Y-60604060D02*
X106748460Y-60601520D01*
X113049999Y-56200001D02*
X112750000Y-56500000D01*
X113150000Y-56100000D02*
X113049999Y-56200001D01*
X115000000Y-56100000D02*
X113150000Y-56100000D01*
X115051000Y-62200000D02*
X115051000Y-62555600D01*
X115051000Y-62555600D02*
X114406600Y-63200000D01*
X114406600Y-63200000D02*
X112600000Y-63200000D01*
X115051000Y-62200000D02*
X115051000Y-60604060D01*
X115051000Y-60604060D02*
X115048460Y-60601520D01*
X111800000Y-60600000D02*
X111800000Y-60339650D01*
X111800000Y-60339650D02*
X113339650Y-58800000D01*
X111800000Y-62200000D02*
X111800000Y-60600000D01*
X110898300Y-60600000D02*
X110898300Y-59760530D01*
X111800000Y-58858830D02*
X111800000Y-58598480D01*
X110898300Y-59760530D02*
X111800000Y-58858830D01*
X110900840Y-62200000D02*
X110900840Y-60602540D01*
X110900840Y-60602540D02*
X110898300Y-60600000D01*
X114250900Y-60601520D02*
X114250900Y-60245920D01*
X115051000Y-59445820D02*
X115051000Y-59340410D01*
X114250900Y-60245920D02*
X115051000Y-59445820D01*
X115051000Y-59340410D02*
X115051000Y-58600000D01*
X114250900Y-62200000D02*
X114250900Y-60601520D01*
X113400000Y-60601520D02*
X113400000Y-59861110D01*
X113400000Y-59861110D02*
X114250900Y-59010210D01*
X114250900Y-59010210D02*
X114250900Y-58600000D01*
X113400000Y-62200000D02*
X113400000Y-60601520D01*
X120099260Y-62198480D02*
X120579320Y-62198480D01*
X120579320Y-62198480D02*
X120915100Y-61862700D01*
X120915100Y-61862700D02*
X120915100Y-57015100D01*
X120915100Y-57015100D02*
X120100000Y-56200000D01*
X120100000Y-56200000D02*
X120100000Y-56100000D01*
X120099260Y-62198480D02*
X120099260Y-60602260D01*
X120099260Y-60602260D02*
X120100000Y-60601520D01*
X118400740Y-60601520D02*
X118400740Y-60245920D01*
X119200840Y-59340410D02*
X119200840Y-58600000D01*
X118400740Y-60245920D02*
X119200840Y-59445820D01*
X119200840Y-59445820D02*
X119200840Y-59340410D01*
X118400000Y-62198480D02*
X118400000Y-60602260D01*
X118400000Y-60602260D02*
X118400740Y-60601520D01*
X117549840Y-60601520D02*
X117549840Y-59861110D01*
X118400740Y-59010210D02*
X118400740Y-58600000D01*
X117549840Y-59861110D02*
X118400740Y-59010210D01*
X117549100Y-62198480D02*
X117549100Y-60602260D01*
X117549100Y-60602260D02*
X117549840Y-60601520D01*
X119198300Y-60601520D02*
X119198300Y-60245920D01*
X119198300Y-60245920D02*
X120100000Y-59344220D01*
X120100000Y-59340410D02*
X120100000Y-58600000D01*
X120100000Y-59344220D02*
X120100000Y-59340410D01*
X119200100Y-62198480D02*
X119200100Y-60603320D01*
X119200100Y-60603320D02*
X119198300Y-60601520D01*
D43*
X125800000Y-53500000D02*
X125800000Y-54150000D01*
X126200000Y-52200000D02*
X125800000Y-52600000D01*
X125800000Y-52600000D02*
X125800000Y-53500000D01*
X134050000Y-52200000D02*
X126200000Y-52200000D01*
X134550000Y-52700000D02*
X134050000Y-52200000D01*
X137200000Y-52700000D02*
X134550000Y-52700000D01*
X130778498Y-52900000D02*
X127000000Y-56678498D01*
X126829800Y-56750000D02*
X125800000Y-56750000D01*
X137250000Y-55250000D02*
X136195200Y-55250000D01*
X136195200Y-55250000D02*
X133845200Y-52900000D01*
X133845200Y-52900000D02*
X130778498Y-52900000D01*
X127000000Y-56700000D02*
X126950000Y-56750000D01*
X127000000Y-56678498D02*
X127000000Y-56700000D01*
X126950000Y-56750000D02*
X126829800Y-56750000D01*
X125800000Y-56750000D02*
X125800000Y-57400000D01*
X131700000Y-56750000D02*
X131700000Y-57400000D01*
X137250000Y-57800000D02*
X132100000Y-57800000D01*
X132100000Y-57800000D02*
X131700000Y-57400000D01*
D44*
X136850000Y-57400000D02*
X137250000Y-57800000D01*
X105100000Y-60601520D02*
X105100000Y-59861110D01*
X105100000Y-59861110D02*
X105950900Y-59010210D01*
X105950900Y-59010210D02*
X105950900Y-58600000D01*
X105100000Y-62200000D02*
X105100000Y-60601520D01*
X110100740Y-60600000D02*
X110100740Y-59754180D01*
X110100740Y-59754180D02*
X110900840Y-58954080D01*
X110900840Y-58954080D02*
X110900840Y-58598480D01*
X110100740Y-62200000D02*
X110100740Y-60600000D01*
X117549840Y-58741490D02*
X117549840Y-58600000D01*
X115950160Y-60601520D02*
X115950160Y-60341170D01*
X115950160Y-60341170D02*
X117549840Y-58741490D01*
X115950160Y-62200000D02*
X115950160Y-60601520D01*
X104400000Y-57350000D02*
X102250000Y-59500000D01*
X102250000Y-59500000D02*
X99150000Y-59500000D01*
X115440570Y-57350000D02*
X104400000Y-57350000D01*
X115950160Y-58600000D02*
X115950160Y-57859590D01*
X115950160Y-57859590D02*
X115440570Y-57350000D01*
X107814993Y-57775519D02*
X104674481Y-57775519D01*
X110018189Y-57775519D02*
X108164761Y-57775519D01*
X100824999Y-61625001D02*
X100065100Y-61625001D01*
X108163241Y-57777039D02*
X107816513Y-57777039D01*
X107816513Y-57777039D02*
X107814993Y-57775519D01*
X110100740Y-57858070D02*
X110018189Y-57775519D01*
X110100740Y-58598480D02*
X110100740Y-57858070D01*
X100065100Y-61625001D02*
X99150000Y-61625001D01*
X104674481Y-57775519D02*
X100824999Y-61625001D01*
X108164761Y-57775519D02*
X108163241Y-57777039D01*
X124850000Y-58250000D02*
X128659900Y-58250000D01*
X128659900Y-58250000D02*
X130809900Y-56100000D01*
X130809900Y-56100000D02*
X131700000Y-56100000D01*
X120100000Y-53400000D02*
X120100000Y-53500000D01*
X120100000Y-53500000D02*
X124850000Y-58250000D01*
X117582551Y-55102349D02*
X106844026Y-55102349D01*
X99150000Y-57300000D02*
X100065100Y-57300000D01*
X100065100Y-57300000D02*
X102262751Y-55102349D01*
X102262751Y-55102349D02*
X106844026Y-55102349D01*
X119284900Y-53400000D02*
X117582551Y-55102349D01*
X120100000Y-53400000D02*
X119284900Y-53400000D01*
X125800000Y-56100000D02*
X123700000Y-56100000D01*
X120997651Y-53397651D02*
X120997651Y-52451879D01*
X123700000Y-56100000D02*
X120997651Y-53397651D01*
X120997651Y-52451879D02*
X120948121Y-52402349D01*
X120948121Y-52402349D02*
X116812751Y-52402349D01*
X116812751Y-52402349D02*
X115815100Y-53400000D01*
X115815100Y-53400000D02*
X115000000Y-53400000D01*
X112884900Y-54700000D02*
X100565100Y-54700000D01*
X100565100Y-54700000D02*
X100065100Y-55200000D01*
X100065100Y-55200000D02*
X99150000Y-55200000D01*
X115000000Y-53400000D02*
X114184900Y-53400000D01*
X114184900Y-53400000D02*
X112884900Y-54700000D01*
X122159900Y-52050000D02*
X111365100Y-52050000D01*
X111365100Y-52050000D02*
X110015100Y-53400000D01*
X110015100Y-53400000D02*
X109200000Y-53400000D01*
X125800000Y-54800000D02*
X124909900Y-54800000D01*
X124909900Y-54800000D02*
X122159900Y-52050000D01*
X109200000Y-53400000D02*
X99450000Y-53400000D01*
X99450000Y-53400000D02*
X99150000Y-53100000D01*
X105100000Y-58600000D02*
X104619940Y-58600000D01*
X99469940Y-63750000D02*
X99150000Y-63750000D01*
X104619940Y-58600000D02*
X99469940Y-63750000D01*
D43*
X100800000Y-90800000D02*
X100800000Y-92950000D01*
X100800000Y-92950000D02*
X97500000Y-96250000D01*
X97500000Y-96250000D02*
X97500000Y-119950000D01*
X97500000Y-119950000D02*
X90200000Y-127250000D01*
X90200000Y-127250000D02*
X90200000Y-127450000D01*
X103150000Y-90800000D02*
X100800000Y-90800000D01*
X87630000Y-129540000D02*
X88310000Y-129540000D01*
X88310000Y-129540000D02*
X90200000Y-127650000D01*
X90200000Y-127650000D02*
X90200000Y-127450000D01*
D44*
X87630000Y-76200000D02*
X88811100Y-76200000D01*
X88811100Y-76200000D02*
X91301100Y-73710000D01*
X91301100Y-73710000D02*
X92034900Y-73710000D01*
X92034900Y-73710000D02*
X92950000Y-73710000D01*
X92950000Y-73710000D02*
X92500000Y-73710000D01*
X87630000Y-73660000D02*
X88811100Y-73660000D01*
X92034900Y-72440000D02*
X92950000Y-72440000D01*
X88811100Y-73660000D02*
X90031100Y-72440000D01*
X90031100Y-72440000D02*
X92034900Y-72440000D01*
X92950000Y-72440000D02*
X92500000Y-72440000D01*
X87630000Y-71120000D02*
X92900000Y-71120000D01*
X92900000Y-71120000D02*
X92950000Y-71170000D01*
X92500000Y-71170000D02*
X92950000Y-71170000D01*
X87630000Y-68580000D02*
X88811100Y-68580000D01*
X88811100Y-68580000D02*
X90131100Y-69900000D01*
X90131100Y-69900000D02*
X92034900Y-69900000D01*
X92034900Y-69900000D02*
X92950000Y-69900000D01*
X87630000Y-66040000D02*
X90825100Y-66040000D01*
X90825100Y-66040000D02*
X92950000Y-68164900D01*
X92950000Y-68164900D02*
X92950000Y-68630000D01*
X98350000Y-69900000D02*
X95715772Y-69900000D01*
X91192923Y-65377151D02*
X89659551Y-65377151D01*
X95715772Y-69900000D02*
X91192923Y-65377151D01*
X89659551Y-65377151D02*
X87782400Y-63500000D01*
X87782400Y-63500000D02*
X87630000Y-63500000D01*
X104950000Y-101750000D02*
X106256420Y-101750000D01*
X106256420Y-101750000D02*
X106304080Y-101797660D01*
X104950000Y-101250000D02*
X106710524Y-101250000D01*
X106710524Y-101250000D02*
X106997651Y-100962873D01*
X106997651Y-100962873D02*
X106997651Y-98874731D01*
X106997651Y-98874731D02*
X106967020Y-98844100D01*
D43*
X139900000Y-52700000D02*
X169200000Y-52700000D01*
X169200000Y-52700000D02*
X169250000Y-52750000D01*
X171790000Y-52750000D02*
X171790000Y-54070800D01*
X171790000Y-54070800D02*
X170610800Y-55250000D01*
X170610800Y-55250000D02*
X141004800Y-55250000D01*
X141004800Y-55250000D02*
X139950000Y-55250000D01*
X139950000Y-57800000D02*
X141004800Y-57800000D01*
X141004800Y-57800000D02*
X142173871Y-56630929D01*
X142173871Y-56630929D02*
X170601471Y-56630929D01*
X170601471Y-56630929D02*
X174330000Y-52902400D01*
X174330000Y-52902400D02*
X174330000Y-52750000D01*
X124200000Y-55400000D02*
X125750000Y-55400000D01*
X125750000Y-55400000D02*
X125800000Y-55450000D01*
D44*
X134450000Y-69250000D02*
X134450000Y-70250000D01*
X134450000Y-70250000D02*
X134900000Y-70700000D01*
X90500000Y-95100000D02*
X87750000Y-92350000D01*
X87750000Y-92350000D02*
X87750000Y-92250000D01*
X87750000Y-92250000D02*
X87630000Y-92130000D01*
X87630000Y-92130000D02*
X87630000Y-91440000D01*
X90500000Y-95200000D02*
X90500000Y-95100000D01*
X90500000Y-95100000D02*
X92200000Y-93400000D01*
X92200000Y-93400000D02*
X92200000Y-88750000D01*
X92200000Y-88750000D02*
X96000000Y-84950000D01*
X103650000Y-84950000D02*
X104052349Y-85352349D01*
X96000000Y-84950000D02*
X103650000Y-84950000D01*
X104052349Y-85352349D02*
X104052349Y-86167449D01*
X104052349Y-86167449D02*
X104134900Y-86250000D01*
X104134900Y-86250000D02*
X104950000Y-86250000D01*
X93270000Y-62429500D02*
X92554900Y-62429500D01*
X92554900Y-62429500D02*
X91085400Y-60960000D01*
X91085400Y-60960000D02*
X88811100Y-60960000D01*
X88811100Y-60960000D02*
X87630000Y-60960000D01*
X94250000Y-62400000D02*
X93299500Y-62400000D01*
X93299500Y-62400000D02*
X93270000Y-62429500D01*
X104950000Y-87250000D02*
X98487574Y-87250000D01*
X98487574Y-87250000D02*
X96773996Y-85536422D01*
X104950000Y-72250000D02*
X103900000Y-72250000D01*
X95300000Y-76050000D02*
X95300000Y-78900000D01*
X97000000Y-74350000D02*
X95300000Y-76050000D01*
X101800000Y-74350000D02*
X97000000Y-74350000D01*
X103900000Y-72250000D02*
X101800000Y-74350000D01*
X106650000Y-91400000D02*
X110450000Y-91400000D01*
X110450000Y-91400000D02*
X118950000Y-99900000D01*
X118950000Y-99900000D02*
X118950000Y-104750000D01*
X93650000Y-135650000D02*
X92684900Y-135650000D01*
X92684900Y-135650000D02*
X91550000Y-134515100D01*
X91550000Y-134515100D02*
X91550000Y-128550000D01*
X91550000Y-128550000D02*
X98150001Y-121949999D01*
X98150001Y-121949999D02*
X98450000Y-121650000D01*
X107950000Y-104750000D02*
X107950000Y-111950000D01*
X107950000Y-111950000D02*
X106850000Y-113050000D01*
X99799998Y-135700000D02*
X93700000Y-135700000D01*
X93700000Y-135700000D02*
X93650000Y-135650000D01*
X108600000Y-143800000D02*
X108600000Y-141321460D01*
X108600000Y-141321460D02*
X106680060Y-139401520D01*
X106680060Y-139401520D02*
X106200000Y-139401520D01*
X109252349Y-112447651D02*
X107999999Y-113700001D01*
X109450000Y-105789476D02*
X109252349Y-105987127D01*
X109450000Y-104750000D02*
X109450000Y-105789476D01*
X107999999Y-113700001D02*
X107700000Y-114000000D01*
X109252349Y-105987127D02*
X109252349Y-112447651D01*
X100150000Y-131900000D02*
X100700000Y-132450000D01*
X100700000Y-132450000D02*
X102150000Y-132450000D01*
X104549000Y-139045920D02*
X103903080Y-138400000D01*
X104549000Y-139401520D02*
X104549000Y-139045920D01*
X103136759Y-138222961D02*
X103087229Y-138173431D01*
X94615100Y-130050000D02*
X93650000Y-130050000D01*
X104549000Y-139045920D02*
X103726041Y-138222961D01*
X103726041Y-138222961D02*
X103136759Y-138222961D01*
X103087229Y-138173431D02*
X103087229Y-138037229D01*
X103087229Y-138037229D02*
X95100000Y-130050000D01*
X95100000Y-130050000D02*
X94615100Y-130050000D01*
X103520000Y-143800000D02*
X104549000Y-142771000D01*
X104549000Y-142771000D02*
X104549000Y-139401520D01*
X115295772Y-138500000D02*
X105094920Y-138500000D01*
X105094920Y-138500000D02*
X104549000Y-139045920D01*
X125700000Y-128095772D02*
X115295772Y-138500000D01*
X125700000Y-121724264D02*
X125700000Y-128095772D01*
X125700000Y-121300000D02*
X125700000Y-121724264D01*
X136450000Y-104750000D02*
X136450000Y-110250000D01*
X136450000Y-110250000D02*
X136000000Y-110700000D01*
X109450000Y-69250000D02*
X109450000Y-69905601D01*
X109450000Y-71100000D02*
X109450000Y-69905601D01*
X109450000Y-69905601D02*
X109450000Y-70650000D01*
X111900000Y-73550000D02*
X109450000Y-71100000D01*
X123250000Y-73550000D02*
X111900000Y-73550000D01*
X128300000Y-78600000D02*
X123250000Y-73550000D01*
X103649840Y-139401520D02*
X103201520Y-139401520D01*
X103201520Y-139401520D02*
X102700000Y-138900000D01*
X98440000Y-143800000D02*
X102838480Y-139401520D01*
X102838480Y-139401520D02*
X103649840Y-139401520D01*
X157300000Y-141873940D02*
X157300000Y-141526600D01*
X120500000Y-106500000D02*
X120500000Y-104800000D01*
X120500000Y-104800000D02*
X120450000Y-104750000D01*
X157298800Y-143056240D02*
X157298800Y-141875140D01*
X157298800Y-141875140D02*
X157300000Y-141873940D01*
X142150000Y-143800000D02*
X145550000Y-140400000D01*
X135180000Y-143800000D02*
X142150000Y-143800000D01*
X148195440Y-142028787D02*
X148195440Y-143056240D01*
X146566653Y-140400000D02*
X148195440Y-142028787D01*
X145550000Y-140400000D02*
X146566653Y-140400000D01*
X135180000Y-143800000D02*
X131649680Y-140269680D01*
X131649680Y-140269680D02*
X131649680Y-139701520D01*
X132640000Y-143800000D02*
X132650000Y-143800000D01*
X132650000Y-143800000D02*
X133850000Y-145000000D01*
X146894960Y-141444960D02*
X146894960Y-143056240D01*
X146350000Y-140900000D02*
X146894960Y-141444960D01*
X145700000Y-140900000D02*
X146350000Y-140900000D01*
X141600000Y-145000000D02*
X145700000Y-140900000D01*
X133850000Y-145000000D02*
X141600000Y-145000000D01*
X132640000Y-143800000D02*
X130798780Y-141958780D01*
X130798780Y-141958780D02*
X130798780Y-139701520D01*
X150450000Y-146800000D02*
X150450000Y-144850000D01*
X150100000Y-147150000D02*
X150450000Y-146800000D01*
X144600000Y-147150000D02*
X150100000Y-147150000D01*
X144000000Y-147750000D02*
X144600000Y-147150000D01*
X131750000Y-147750000D02*
X144000000Y-147750000D01*
X131350000Y-147350000D02*
X131750000Y-147750000D01*
X130100000Y-143800000D02*
X130100000Y-144100000D01*
X130100000Y-144100000D02*
X131350000Y-145350000D01*
X150146160Y-144546160D02*
X150146160Y-143056240D01*
X150450000Y-144850000D02*
X150146160Y-144546160D01*
X131350000Y-145350000D02*
X131350000Y-147350000D01*
X130100000Y-143800000D02*
X130100000Y-139802840D01*
X130100000Y-139802840D02*
X129998680Y-139701520D01*
X147545200Y-143056240D02*
X147550000Y-143061040D01*
X147550000Y-143061040D02*
X147550000Y-146350000D01*
X147550000Y-146350000D02*
X147100000Y-146800000D01*
X138050000Y-146800000D02*
X137199999Y-145949999D01*
X147100000Y-146800000D02*
X138050000Y-146800000D01*
X137199999Y-145949999D02*
X136900000Y-145650000D01*
X129099520Y-138950480D02*
X129099520Y-139701520D01*
X129350000Y-138700000D02*
X129099520Y-138950480D01*
X132400000Y-138700000D02*
X129350000Y-138700000D01*
X136900000Y-143200000D02*
X132400000Y-138700000D01*
X125020000Y-143800000D02*
X125020000Y-143781040D01*
X125020000Y-143781040D02*
X129099520Y-139701520D01*
X96299999Y-133700001D02*
X96599998Y-134000000D01*
X95049998Y-132450000D02*
X96299999Y-133700001D01*
X93650000Y-132450000D02*
X95049998Y-132450000D01*
X106060000Y-143800000D02*
X106060000Y-142578686D01*
X106060000Y-142578686D02*
X105349100Y-141867786D01*
X105349100Y-141867786D02*
X105349100Y-140141930D01*
X105349100Y-140141930D02*
X105349100Y-139401520D01*
X178106480Y-138504560D02*
X180795440Y-138504560D01*
X180795440Y-138504560D02*
X180800000Y-138500000D01*
X152747120Y-143056240D02*
X152747120Y-141147120D01*
X152747120Y-141147120D02*
X151550000Y-139950000D01*
X152747120Y-143056240D02*
X152747120Y-145002880D01*
X152747120Y-145002880D02*
X152000000Y-145750000D01*
X149500000Y-145750000D02*
X149500000Y-143060320D01*
X149500000Y-143060320D02*
X149495920Y-143056240D01*
X167702640Y-143056240D02*
X167702640Y-145462460D01*
X167702640Y-145462460D02*
X167415100Y-145750000D01*
X167415100Y-145750000D02*
X166600000Y-145750000D01*
X168352880Y-143056240D02*
X168352880Y-145202880D01*
X168352880Y-145202880D02*
X168900000Y-145750000D01*
X169003120Y-143056240D02*
X169003120Y-144058272D01*
X169003120Y-144058272D02*
X169779748Y-144834900D01*
X169779748Y-144834900D02*
X170384900Y-144834900D01*
X170384900Y-144834900D02*
X171200000Y-145650000D01*
X171200000Y-145650000D02*
X171200000Y-145750000D01*
X178106480Y-140455280D02*
X180805280Y-140455280D01*
X180805280Y-140455280D02*
X180850000Y-140500000D01*
X162500720Y-143056240D02*
X162500720Y-144237340D01*
X162500720Y-144237340D02*
X160988060Y-145750000D01*
X160988060Y-145750000D02*
X159515100Y-145750000D01*
X159515100Y-145750000D02*
X158700000Y-145750000D01*
D43*
X179650000Y-58850000D02*
X179650000Y-52990000D01*
X179650000Y-52990000D02*
X179410000Y-52750000D01*
X177251140Y-58850000D02*
X179650000Y-58850000D01*
X179650000Y-62600000D02*
X180704800Y-62600000D01*
X180704800Y-62600000D02*
X181282499Y-62022301D01*
X181282499Y-62022301D02*
X181282499Y-54738301D01*
X181282499Y-54738301D02*
X181950000Y-54070800D01*
X181950000Y-54070800D02*
X181950000Y-52750000D01*
X177201140Y-62550000D02*
X179600000Y-62550000D01*
X179600000Y-62550000D02*
X179650000Y-62600000D01*
D44*
X92481400Y-107416600D02*
X90660828Y-107416600D01*
X90660828Y-107416600D02*
X88811100Y-105566872D01*
X88811100Y-105566872D02*
X88811100Y-105168700D01*
X88811100Y-105168700D02*
X87782400Y-104140000D01*
X87782400Y-104140000D02*
X87630000Y-104140000D01*
X104950000Y-87750000D02*
X106444400Y-87750000D01*
X106444400Y-87750000D02*
X106834940Y-88140540D01*
X92481400Y-108315760D02*
X89418160Y-108315760D01*
X89418160Y-108315760D02*
X87782400Y-106680000D01*
X87782400Y-106680000D02*
X87630000Y-106680000D01*
X104950000Y-86750000D02*
X106584860Y-86750000D01*
X106584860Y-86750000D02*
X107363260Y-87528400D01*
X107363260Y-87528400D02*
X107363260Y-87541100D01*
X140450000Y-86250000D02*
X138060524Y-86250000D01*
X138060524Y-86250000D02*
X137462873Y-85652349D01*
X122552349Y-86852349D02*
X122900000Y-87200000D01*
X137462873Y-85652349D02*
X123437127Y-85652349D01*
X123437127Y-85652349D02*
X122552349Y-86537127D01*
X122900000Y-87200000D02*
X124434846Y-87200000D01*
X122552349Y-86537127D02*
X122552349Y-86852349D01*
X124434846Y-87200000D02*
X125700000Y-88465154D01*
X92481400Y-109115860D02*
X87734140Y-109115860D01*
X87734140Y-109115860D02*
X87630000Y-109220000D01*
X127200001Y-87800001D02*
X126900002Y-88100000D01*
X140450000Y-87250000D02*
X127750002Y-87250000D01*
X127750002Y-87250000D02*
X127200001Y-87800001D01*
X92481400Y-109966760D02*
X92221050Y-109966760D01*
X92221050Y-109966760D02*
X90427810Y-111760000D01*
X90427810Y-111760000D02*
X87630000Y-111760000D01*
X87782400Y-111760000D02*
X87630000Y-111760000D01*
X87630000Y-124460000D02*
X87782400Y-124460000D01*
X87782400Y-124460000D02*
X93649800Y-118592600D01*
X93649800Y-118592600D02*
X93649800Y-105020200D01*
X93649800Y-105020200D02*
X95450000Y-103220000D01*
X95450000Y-103220000D02*
X95900000Y-103220000D01*
X95900000Y-103220000D02*
X95530000Y-103220000D01*
X95900000Y-98140000D02*
X95450000Y-98140000D01*
X95450000Y-98140000D02*
X94984900Y-98605100D01*
X93319589Y-111302811D02*
X87782400Y-116840000D01*
X94984900Y-98605100D02*
X94882818Y-98605100D01*
X94882818Y-98605100D02*
X93319589Y-100168329D01*
X93319589Y-100168329D02*
X93319589Y-111302811D01*
X87782400Y-116840000D02*
X87630000Y-116840000D01*
X136950000Y-104750000D02*
X136950000Y-102865770D01*
X136950000Y-102865770D02*
X137197651Y-102618119D01*
X137197651Y-102618119D02*
X137197651Y-96797651D01*
X137197651Y-96797651D02*
X136600000Y-96200000D01*
M02*
