M48
INCH,TZ
T1C0.016
T2C0.040
T3C0.098
T4C0.120
%
G90
G05
T1
X35256Y-25039
X35945Y-35335
X36043Y-36417
X36043Y-38602
X36122Y-39469
X36122Y-40138
X36142Y-33209
X36299Y-52854
X36457Y-30827
X36510Y-39555
X36988Y-39606
X36988Y-53878
X37067Y-38642
X37069Y-29174
X37106Y-24567
X37150Y-40086
X37283Y-41339
X37302Y-43615
X37323Y-51850
X37382Y-39113
X37520Y-31063
X37598Y-28110
X37598Y-54547
X37814Y-51142
X37972Y-20335
X38031Y-52756
X38071Y-54488
X38100Y-33676
X38228Y-36378
X38445Y-25236
X38720Y-26732
X38720Y-36890
X38760Y-47894
X39134Y-31339
X39193Y-29764
X39291Y-53425
X39429Y-51929
X39685Y-50118
X39705Y-52461
X39705Y-53031
X39902Y-33229
X40433Y-54685
X40610Y-35748
X40709Y-32953
X40787Y-32579
X40807Y-35354
X40886Y-31594
X41142Y-50571
X41772Y-30020
X41791Y-39272
X41811Y-36909
X41850Y-38504
X41852Y-40078
X41890Y-48268
X41909Y-39646
X41988Y-35984
X42037Y-40330
X42047Y-38031
X42061Y-34701
X42067Y-44508
X42113Y-38915
X42126Y-54055
X42205Y-52559
X42264Y-29114
X42269Y-34465
X42269Y-48391
X42402Y-44882
X42421Y-22303
X42421Y-44508
X42500Y-29665
X42638Y-34075
X42677Y-26634
X42717Y-24882
X42756Y-30335
X43282Y-42436
X43307Y-38071
X43422Y-27750
X43615Y-27981
X43859Y-28158
X44056Y-28406
X44272Y-28622
X44291Y-41772
X44291Y-48957
X44331Y-24882
X44390Y-22244
X44469Y-26732
X44641Y-27750
X44843Y-27972
X45040Y-28209
X45177Y-31083
X45256Y-28465
X45433Y-40748
X45472Y-26732
X45625Y-27730
X45768Y-48524
X45828Y-27953
X46025Y-28189
X46240Y-28425
X46496Y-48425
X46535Y-27795
X46614Y-40787
X46654Y-32520
X46693Y-48917
X47441Y-27756
X47441Y-41929
X47539Y-40768
X47638Y-39724
X48031Y-39724
X48071Y-32598
X48228Y-40709
X48425Y-27717
X48425Y-39724
X48541Y-34082
X48583Y-42500
X48819Y-39685
X48898Y-21811
X49029Y-34983
X49134Y-23248
X49173Y-39685
X49370Y-27756
X49488Y-34829
X49488Y-47756
X49528Y-39685
X49567Y-42480
X49724Y-47953
X49744Y-30906
X49882Y-39685
X49961Y-34685
X50098Y-30906
X50236Y-39685
X50354Y-27717
X50512Y-22165
X50512Y-30945
X50571Y-43189
X50591Y-39685
X50945Y-39685
X51260Y-39685
X51299Y-35079
X51339Y-21831
X51378Y-27717
X51555Y-43130
X52165Y-54134
X52412Y-27737
X52520Y-43169
X52550Y-40639
X52872Y-40656
X52874Y-40354
X53110Y-27835
X53222Y-40092
X53224Y-40398
X53425Y-27775
X53541Y-40106
X53543Y-39803
X53543Y-43583
X53583Y-43898
X53780Y-37874
X53799Y-39547
X53898Y-56378
X53898Y-57343
X54016Y-33937
X54386Y-27429
X54528Y-27126
X54606Y-32579
X54724Y-36909
X54829Y-34668
X54843Y-31575
X54857Y-35788
X54862Y-33169
X54862Y-38484
X54882Y-27520
X54893Y-33722
X55630Y-52717
X55716Y-37551
X55745Y-31527
X55758Y-37984
X55768Y-46083
X55780Y-37095
X55787Y-38760
X55791Y-38440
X55846Y-29882
X55866Y-48563
X55866Y-50354
X55886Y-47047
X55886Y-49370
X55906Y-36555
X55925Y-27362
X55925Y-53799
X55945Y-51969
X55949Y-37344
X55965Y-55295
X55970Y-36861
X55981Y-38206
X55984Y-52992
X55984Y-54528
X55990Y-37775
X56147Y-31170
X56161Y-41398
X56201Y-35276
X56212Y-30551
X56417Y-24134
X56437Y-31673
X56681Y-32661
X57047Y-32638
X57500Y-37402
X57559Y-55748
X57579Y-29803
X57590Y-30958
X57655Y-27393
X57657Y-28996
X57677Y-37067
X57717Y-28228
X57737Y-26753
X57795Y-30412
X57795Y-51181
X57835Y-47874
X57874Y-49370
X57933Y-36850
X58020Y-29981
X58031Y-58543
X58091Y-42028
X58145Y-26450
X58163Y-27263
X58304Y-29351
X58327Y-41713
X58346Y-36929
X58386Y-58740
X58425Y-43701
X58502Y-56885
X58543Y-28838
X58547Y-26238
X58760Y-37047
X58762Y-28406
X58874Y-25870
X58957Y-44110
X58958Y-36804
X59055Y-55610
X59181Y-28781
X59219Y-25591
X59291Y-29213
X59393Y-36928
X59449Y-56929
X59488Y-43563
X59567Y-29704
X59626Y-54390
X59665Y-55098
X59685Y-25335
X59685Y-57953
X59803Y-37028
X59843Y-30294
X59941Y-24921
X60000Y-36791
X60079Y-30748
X60138Y-39980
X60197Y-29823
X60315Y-31220
X60354Y-24606
X60394Y-55551
X60472Y-28346
X60546Y-32322
X60546Y-31692
X60571Y-30768
X60591Y-43976
X60610Y-36949
X60630Y-55748
X60906Y-55551
X60906Y-36711
X61142Y-55748
X61181Y-58543
X61319Y-36831
X61417Y-55433
X61673Y-36772
X61673Y-56988
X61693Y-32402
X61693Y-42008
X61791Y-24213
X61811Y-29685
X61870Y-41437
X61929Y-55719
X62008Y-56988
X62067Y-37008
X62205Y-28701
X62264Y-29173
X62329Y-36763
X62382Y-30315
X62402Y-28150
X62402Y-30669
X62421Y-31083
X62421Y-31732
X62426Y-31412
X62441Y-55787
X62446Y-29661
X62579Y-28701
X62649Y-36760
X62697Y-32579
X62697Y-42087
X62717Y-30531
X62717Y-33228
X62717Y-55472
X62736Y-34331
X62736Y-36083
X62756Y-24252
X62756Y-35295
X63110Y-58110
X63223Y-55717
X63287Y-28386
X63465Y-42126
X63588Y-37740
X63661Y-37008
X63701Y-55748
X63904Y-36082
X63934Y-37717
X63976Y-32579
X64025Y-35611
X64170Y-35184
X64232Y-42106
X64390Y-37776
X64437Y-34706
X64488Y-55669
X64626Y-57244
X64816Y-34352
X64921Y-37854
X65000Y-42047
X65053Y-33838
X65236Y-55748
X65256Y-43406
X65281Y-33370
X65335Y-37933
X65551Y-32835
X65591Y-55630
X65709Y-37913
X65787Y-33110
X65965Y-23543
X65965Y-55650
X66004Y-25030
X66024Y-43425
X66102Y-34152
X66131Y-37998
X66181Y-33622
X66280Y-37736
X66303Y-36723
X66433Y-36043
X66496Y-32598
X66563Y-35484
X66660Y-35004
X66745Y-37860
X66772Y-55591
X66791Y-33150
X66811Y-42047
X66844Y-34584
X67047Y-55748
X67224Y-37972
X67244Y-37618
X67283Y-42047
X67362Y-28307
X67559Y-55669
X67815Y-43406
X67913Y-58465
X67992Y-34252
X68031Y-36949
X68071Y-35236
X68189Y-55591
X68425Y-29154
X68524Y-37539
X68583Y-43366
X68819Y-55709
X68858Y-42087
X69075Y-24990
X69094Y-23543
X69173Y-48386
X69193Y-46850
X69193Y-47598
X69272Y-46083
X69291Y-50433
X69370Y-54685
X69370Y-56535
X69382Y-49136
X69409Y-49764
X69449Y-45669
X69449Y-47874
X69449Y-48642
X69449Y-51457
X69449Y-52992
X69488Y-44803
X69488Y-46339
X69488Y-47106
X69488Y-50157
X69488Y-50945
X69488Y-51929
X69488Y-52480
X69488Y-53504
X69488Y-54016
X69488Y-55039
X69508Y-49409
X69528Y-44035
X70551Y-33110
X70571Y-34724
X70709Y-48110
X70709Y-50689
X70709Y-52224
X70748Y-46575
X70748Y-47362
X70748Y-48898
X70748Y-49921
X70768Y-45551
X70787Y-53268
X70906Y-35217
X71161Y-35650
X71398Y-31260
X71417Y-36122
X71713Y-36850
X71791Y-23583
X71791Y-24252
X72283Y-54882
T2
X34500Y-21000
X34500Y-22000
X34500Y-23000
X34500Y-24000
X34500Y-25000
X34500Y-26000
X34500Y-27000
X34500Y-28000
X34500Y-29000
X34500Y-30000
X34500Y-31000
X34500Y-32000
X34500Y-33000
X34500Y-34000
X34500Y-35000
X34500Y-36000
X34500Y-37000
X34500Y-38000
X34500Y-39000
X34500Y-40000
X34500Y-41000
X34500Y-42000
X34500Y-43000
X34500Y-44000
X34500Y-45000
X34500Y-46000
X34500Y-47000
X34500Y-48000
X34500Y-49000
X34500Y-51000
X34500Y-52000
X34500Y-53000
X34500Y-54000
X38756Y-56614
X38756Y-57614
X39756Y-56614
X39756Y-57614
X40756Y-56614
X40756Y-57614
X41756Y-56614
X41756Y-57614
X42756Y-56614
X42756Y-57614
X49220Y-56614
X49220Y-57614
X50220Y-56614
X50220Y-57614
X51220Y-56614
X51220Y-57614
X52220Y-56614
X52220Y-57614
X53220Y-56614
X53220Y-57614
X66634Y-20768
X67634Y-20768
X68634Y-20768
X69634Y-20768
X70634Y-20768
X71634Y-20768
T3
X40157Y-26378
T4
X45276Y-57480
X71260Y-27559
X71260Y-57480
T0
M30
