G04 #@! TF.FileFunction,Legend,Top*
%FSLAX46Y46*%
G04 Gerber Fmt 4.6, Leading zero omitted, Abs format (unit mm)*
G04 Created by KiCad (PCBNEW 0.201602141416+6556~42~ubuntu14.04.1-product) date ons 24 feb 2016 10:42:23*
%MOMM*%
G01*
G04 APERTURE LIST*
%ADD10C,0.100000*%
%ADD11C,0.150000*%
%ADD12C,0.200000*%
%ADD13C,0.125000*%
G04 APERTURE END LIST*
D10*
D11*
X117286000Y-146000000D02*
G75*
G03X117286000Y-146000000I-2286000J0D01*
G01*
X183286000Y-70000000D02*
G75*
G03X183286000Y-70000000I-2286000J0D01*
G01*
X150050000Y-82100000D02*
G75*
G03X149050000Y-83100000I0J-1000000D01*
G01*
X151050000Y-83100000D02*
G75*
G03X150050000Y-82100000I-1000000J0D01*
G01*
X153297214Y-82300000D02*
G75*
G03X153297214Y-82300000I-447214J0D01*
G01*
X146450000Y-83100000D02*
X146450000Y-60700000D01*
X146450000Y-60700000D02*
X153650000Y-60700000D01*
X153650000Y-60700000D02*
X153650000Y-83100000D01*
X153650000Y-83100000D02*
X146450000Y-83100000D01*
X166050000Y-93200000D02*
G75*
G03X165050000Y-94200000I0J-1000000D01*
G01*
X167050000Y-94200000D02*
G75*
G03X166050000Y-93200000I-1000000J0D01*
G01*
X169297214Y-93400000D02*
G75*
G03X169297214Y-93400000I-447214J0D01*
G01*
X162450000Y-94200000D02*
X162450000Y-71800000D01*
X162450000Y-71800000D02*
X169650000Y-71800000D01*
X169650000Y-71800000D02*
X169650000Y-94200000D01*
X169650000Y-94200000D02*
X162450000Y-94200000D01*
X147550000Y-140150000D02*
G75*
G03X147550000Y-140150000I-1000000J0D01*
G01*
X145050000Y-110150000D02*
X145050000Y-141650000D01*
X176550000Y-110150000D02*
X145050000Y-110150000D01*
X176550000Y-141650000D02*
X176550000Y-110150000D01*
X145050000Y-141650000D02*
X176550000Y-141650000D01*
X108157107Y-102250000D02*
G75*
G03X108157107Y-102250000I-707107J0D01*
G01*
X105950000Y-70250000D02*
X105950000Y-103750000D01*
X139450000Y-70250000D02*
X105950000Y-70250000D01*
X139450000Y-103750000D02*
X139450000Y-70250000D01*
X105950000Y-103750000D02*
X139450000Y-103750000D01*
X97725000Y-78150000D02*
X97725000Y-78045000D01*
X93575000Y-78150000D02*
X93575000Y-78045000D01*
X93575000Y-68000000D02*
X93575000Y-68105000D01*
X97725000Y-68000000D02*
X97725000Y-68105000D01*
X97725000Y-78150000D02*
X93575000Y-78150000D01*
X97725000Y-68000000D02*
X93575000Y-68000000D01*
X97725000Y-78045000D02*
X99100000Y-78045000D01*
D12*
X110200000Y-133000000D02*
X118600000Y-133000000D01*
X118600000Y-114600000D02*
X110200000Y-114600000D01*
X110200000Y-114600000D02*
X110200000Y-133000000D01*
X118600000Y-114600000D02*
X118600000Y-133000000D01*
D11*
X114400000Y-115600000D02*
G75*
G03X115400000Y-114600000I0J1000000D01*
G01*
X113400000Y-114600000D02*
G75*
G03X114400000Y-115600000I1000000J0D01*
G01*
X111447214Y-115400000D02*
G75*
G03X111447214Y-115400000I-447214J0D01*
G01*
X94275000Y-136475000D02*
X94600000Y-136475000D01*
X94275000Y-129225000D02*
X94600000Y-129225000D01*
X101525000Y-129225000D02*
X101200000Y-129225000D01*
X101525000Y-136475000D02*
X101200000Y-136475000D01*
X94275000Y-136475000D02*
X94275000Y-136150000D01*
X101525000Y-136475000D02*
X101525000Y-136150000D01*
X101525000Y-129225000D02*
X101525000Y-129550000D01*
X94275000Y-129225000D02*
X94275000Y-129550000D01*
X94600000Y-136475000D02*
X94600000Y-137900000D01*
X91125000Y-97500000D02*
X91125000Y-97615000D01*
X95275000Y-97500000D02*
X95275000Y-97615000D01*
X95275000Y-106400000D02*
X95275000Y-106285000D01*
X91125000Y-106400000D02*
X91125000Y-106285000D01*
X91125000Y-97500000D02*
X95275000Y-97500000D01*
X91125000Y-106400000D02*
X95275000Y-106400000D01*
X91125000Y-97615000D02*
X89750000Y-97615000D01*
X93675000Y-79875000D02*
X93675000Y-80020000D01*
X97825000Y-79875000D02*
X97825000Y-80020000D01*
X97825000Y-85025000D02*
X97825000Y-84880000D01*
X93675000Y-85025000D02*
X93675000Y-84880000D01*
X93675000Y-79875000D02*
X97825000Y-79875000D01*
X93675000Y-85025000D02*
X97825000Y-85025000D01*
X93675000Y-80020000D02*
X92275000Y-80020000D01*
X109870000Y-147610000D02*
X97170000Y-147610000D01*
X97170000Y-147610000D02*
X97170000Y-142530000D01*
X97170000Y-142530000D02*
X107330000Y-142530000D01*
X109870000Y-147610000D02*
X109870000Y-145070000D01*
X110150000Y-143800000D02*
X110150000Y-142250000D01*
X109870000Y-145070000D02*
X107330000Y-145070000D01*
X107330000Y-145070000D02*
X107330000Y-142530000D01*
X110150000Y-142250000D02*
X108600000Y-142250000D01*
X136450000Y-147610000D02*
X123750000Y-147610000D01*
X123750000Y-147610000D02*
X123750000Y-142530000D01*
X123750000Y-142530000D02*
X133910000Y-142530000D01*
X136450000Y-147610000D02*
X136450000Y-145070000D01*
X136730000Y-143800000D02*
X136730000Y-142250000D01*
X136450000Y-145070000D02*
X133910000Y-145070000D01*
X133910000Y-145070000D02*
X133910000Y-142530000D01*
X136730000Y-142250000D02*
X135180000Y-142250000D01*
X126425000Y-52825000D02*
X126425000Y-53050000D01*
X131075000Y-52825000D02*
X131075000Y-53050000D01*
X131075000Y-58075000D02*
X131075000Y-57850000D01*
X126425000Y-58075000D02*
X126425000Y-57850000D01*
X126425000Y-52825000D02*
X131075000Y-52825000D01*
X126425000Y-58075000D02*
X131075000Y-58075000D01*
X126425000Y-53050000D02*
X125075000Y-53050000D01*
X137950000Y-51825000D02*
X139150000Y-51825000D01*
X139150000Y-53575000D02*
X137950000Y-53575000D01*
X138000000Y-54375000D02*
X139200000Y-54375000D01*
X139200000Y-56125000D02*
X138000000Y-56125000D01*
X138000000Y-56925000D02*
X139200000Y-56925000D01*
X139200000Y-58675000D02*
X138000000Y-58675000D01*
X108325000Y-55350000D02*
X108325000Y-54150000D01*
X110075000Y-54150000D02*
X110075000Y-55350000D01*
X119225000Y-55350000D02*
X119225000Y-54150000D01*
X120975000Y-54150000D02*
X120975000Y-55350000D01*
X97200000Y-52225000D02*
X98400000Y-52225000D01*
X98400000Y-53975000D02*
X97200000Y-53975000D01*
X97200000Y-56425000D02*
X98400000Y-56425000D01*
X98400000Y-58175000D02*
X97200000Y-58175000D01*
X114125000Y-55350000D02*
X114125000Y-54150000D01*
X115875000Y-54150000D02*
X115875000Y-55350000D01*
X97200000Y-54325000D02*
X98400000Y-54325000D01*
X98400000Y-56075000D02*
X97200000Y-56075000D01*
X98400000Y-64625000D02*
X97200000Y-64625000D01*
X97200000Y-62875000D02*
X98400000Y-62875000D01*
X98400000Y-62500001D02*
X97200000Y-62500001D01*
X97200000Y-60750001D02*
X98400000Y-60750001D01*
X98400000Y-60375000D02*
X97200000Y-60375000D01*
X97200000Y-58625000D02*
X98400000Y-58625000D01*
X88900000Y-123190000D02*
X88900000Y-115570000D01*
X86360000Y-123190000D02*
X86360000Y-115570000D01*
X86080000Y-126010000D02*
X86080000Y-124460000D01*
X88900000Y-115570000D02*
X86360000Y-115570000D01*
X86360000Y-123190000D02*
X88900000Y-123190000D01*
X89180000Y-124460000D02*
X89180000Y-126010000D01*
X89180000Y-126010000D02*
X86080000Y-126010000D01*
X88900000Y-135890000D02*
X88900000Y-128270000D01*
X86360000Y-135890000D02*
X86360000Y-128270000D01*
X86080000Y-138710000D02*
X86080000Y-137160000D01*
X88900000Y-128270000D02*
X86360000Y-128270000D01*
X86360000Y-135890000D02*
X88900000Y-135890000D01*
X89180000Y-137160000D02*
X89180000Y-138710000D01*
X89180000Y-138710000D02*
X86080000Y-138710000D01*
X88900000Y-100330000D02*
X88900000Y-62230000D01*
X88900000Y-62230000D02*
X86360000Y-62230000D01*
X86360000Y-62230000D02*
X86360000Y-100330000D01*
X86080000Y-103150000D02*
X86080000Y-101600000D01*
X86360000Y-100330000D02*
X88900000Y-100330000D01*
X89180000Y-101600000D02*
X89180000Y-103150000D01*
X89180000Y-103150000D02*
X86080000Y-103150000D01*
X170520000Y-51480000D02*
X183220000Y-51480000D01*
X183220000Y-51480000D02*
X183220000Y-54020000D01*
X183220000Y-54020000D02*
X170520000Y-54020000D01*
X167700000Y-51200000D02*
X169250000Y-51200000D01*
X170520000Y-51480000D02*
X170520000Y-54020000D01*
X169250000Y-54300000D02*
X167700000Y-54300000D01*
X167700000Y-54300000D02*
X167700000Y-51200000D01*
X150375000Y-146500000D02*
X150375000Y-147700000D01*
X148625000Y-147700000D02*
X148625000Y-146500000D01*
X167475000Y-146500000D02*
X167475000Y-147700000D01*
X165725000Y-147700000D02*
X165725000Y-146500000D01*
X169775000Y-146500000D02*
X169775000Y-147700000D01*
X168025000Y-147700000D02*
X168025000Y-146500000D01*
X172075000Y-146500000D02*
X172075000Y-147700000D01*
X170325000Y-147700000D02*
X170325000Y-146500000D01*
X181600000Y-139625000D02*
X182800000Y-139625000D01*
X182800000Y-141375000D02*
X181600000Y-141375000D01*
X151125000Y-147700000D02*
X151125000Y-146500000D01*
X152875000Y-146500000D02*
X152875000Y-147700000D01*
X105375000Y-130500000D02*
X105375000Y-131700000D01*
X103625000Y-131700000D02*
X103625000Y-130500000D01*
X105300000Y-133925000D02*
X106500000Y-133925000D01*
X106500000Y-135675000D02*
X105300000Y-135675000D01*
X98950000Y-140375000D02*
X97750000Y-140375000D01*
X97750000Y-138625000D02*
X98950000Y-138625000D01*
X155175000Y-146500000D02*
X155175000Y-147700000D01*
X153425000Y-147700000D02*
X153425000Y-146500000D01*
X147075000Y-146500000D02*
X147075000Y-147700000D01*
X145325000Y-147700000D02*
X145325000Y-146500000D01*
X88900000Y-59690000D02*
X88900000Y-52070000D01*
X86360000Y-59690000D02*
X86360000Y-52070000D01*
X86080000Y-62510000D02*
X86080000Y-60960000D01*
X88900000Y-52070000D02*
X86360000Y-52070000D01*
X86360000Y-59690000D02*
X88900000Y-59690000D01*
X89180000Y-60960000D02*
X89180000Y-62510000D01*
X89180000Y-62510000D02*
X86080000Y-62510000D01*
X91375000Y-93250000D02*
X91375000Y-94450000D01*
X89625000Y-94450000D02*
X89625000Y-93250000D01*
D12*
X182450000Y-87500000D02*
G75*
G03X182450000Y-87500000I-250000J0D01*
G01*
X175700000Y-88000000D02*
X175700000Y-79000000D01*
X175700000Y-79000000D02*
X182700000Y-79000000D01*
X182700000Y-79000000D02*
X182700000Y-88000000D01*
X182700000Y-88000000D02*
X175700000Y-88000000D01*
X90057803Y-65101000D02*
G75*
G03X90057803Y-65101000I-89803J0D01*
G01*
X89650500Y-61545000D02*
X94286000Y-61545000D01*
X94286000Y-61545000D02*
X94286000Y-65418500D01*
X94286000Y-65418500D02*
X89650500Y-65418500D01*
X89650500Y-65418500D02*
X89650500Y-61545000D01*
D11*
X159575000Y-146500000D02*
X159575000Y-147700000D01*
X157825000Y-147700000D02*
X157825000Y-146500000D01*
X175699200Y-57350180D02*
X176400240Y-57350180D01*
X176400240Y-57350180D02*
X176400240Y-57599100D01*
X176400240Y-60149160D02*
X176400240Y-60349820D01*
X176400240Y-60349820D02*
X175699200Y-60349820D01*
X175649200Y-61050180D02*
X176350240Y-61050180D01*
X176350240Y-61050180D02*
X176350240Y-61299100D01*
X176350240Y-63849160D02*
X176350240Y-64049820D01*
X176350240Y-64049820D02*
X175649200Y-64049820D01*
X169450000Y-58925000D02*
X170650000Y-58925000D01*
X170650000Y-60675000D02*
X169450000Y-60675000D01*
X181600000Y-59725000D02*
X180400000Y-59725000D01*
X180400000Y-57975000D02*
X181600000Y-57975000D01*
X169500000Y-62675000D02*
X170700000Y-62675000D01*
X170700000Y-64425000D02*
X169500000Y-64425000D01*
X181600000Y-63475000D02*
X180400000Y-63475000D01*
X180400000Y-61725000D02*
X181600000Y-61725000D01*
X89338000Y-146870180D02*
X90862000Y-146870180D01*
X91243000Y-146743180D02*
X88957000Y-146743180D01*
X88703000Y-146616180D02*
X91497000Y-146616180D01*
X91751000Y-146489180D02*
X88449000Y-146489180D01*
X88322000Y-146362180D02*
X91878000Y-146362180D01*
X86798000Y-147251180D02*
X93402000Y-147251180D01*
X93402000Y-147251180D02*
X93402000Y-141409180D01*
X93402000Y-141409180D02*
X92640000Y-140647180D01*
X92640000Y-140647180D02*
X87560000Y-140647180D01*
X87560000Y-140647180D02*
X86798000Y-141409180D01*
X86798000Y-141409180D02*
X86798000Y-147251180D01*
X90100000Y-141790180D02*
X90100000Y-142552180D01*
X89719000Y-142171180D02*
X90481000Y-142171180D01*
X93148000Y-143949180D02*
G75*
G03X93148000Y-143949180I-3048000J0D01*
G01*
X91225000Y-130450000D02*
X91225000Y-128450000D01*
X89175000Y-128450000D02*
X89175000Y-130450000D01*
X101500000Y-81550000D02*
X101500000Y-82550000D01*
X103200000Y-82550000D02*
X103200000Y-81550000D01*
X142950000Y-106250000D02*
X142950000Y-107250000D01*
X144650000Y-107250000D02*
X144650000Y-106250000D01*
X89180000Y-114300000D02*
X89180000Y-115850000D01*
X89180000Y-115850000D02*
X86080000Y-115850000D01*
X86080000Y-115850000D02*
X86080000Y-114300000D01*
X86360000Y-113030000D02*
X86360000Y-102870000D01*
X86360000Y-102870000D02*
X88900000Y-102870000D01*
X88900000Y-102870000D02*
X88900000Y-113030000D01*
X86360000Y-113030000D02*
X88900000Y-113030000D01*
X183286000Y-146000000D02*
G75*
G03X183286000Y-146000000I-2286000J0D01*
G01*
D13*
X118516507Y-57827710D02*
X118349840Y-57589615D01*
X118230793Y-57827710D02*
X118230793Y-57327710D01*
X118421269Y-57327710D01*
X118468888Y-57351520D01*
X118492697Y-57375330D01*
X118516507Y-57422949D01*
X118516507Y-57494377D01*
X118492697Y-57541996D01*
X118468888Y-57565806D01*
X118421269Y-57589615D01*
X118230793Y-57589615D01*
X118730793Y-57827710D02*
X118730793Y-57327710D01*
X118921269Y-57327710D01*
X118968888Y-57351520D01*
X118992697Y-57375330D01*
X119016507Y-57422949D01*
X119016507Y-57494377D01*
X118992697Y-57541996D01*
X118968888Y-57565806D01*
X118921269Y-57589615D01*
X118730793Y-57589615D01*
X119302221Y-57541996D02*
X119254602Y-57518187D01*
X119230793Y-57494377D01*
X119206983Y-57446758D01*
X119206983Y-57422949D01*
X119230793Y-57375330D01*
X119254602Y-57351520D01*
X119302221Y-57327710D01*
X119397459Y-57327710D01*
X119445078Y-57351520D01*
X119468888Y-57375330D01*
X119492697Y-57422949D01*
X119492697Y-57446758D01*
X119468888Y-57494377D01*
X119445078Y-57518187D01*
X119397459Y-57541996D01*
X119302221Y-57541996D01*
X119254602Y-57565806D01*
X119230793Y-57589615D01*
X119206983Y-57637234D01*
X119206983Y-57732472D01*
X119230793Y-57780091D01*
X119254602Y-57803901D01*
X119302221Y-57827710D01*
X119397459Y-57827710D01*
X119445078Y-57803901D01*
X119468888Y-57780091D01*
X119492697Y-57732472D01*
X119492697Y-57637234D01*
X119468888Y-57589615D01*
X119445078Y-57565806D01*
X119397459Y-57541996D01*
X118565401Y-59826950D02*
X118279687Y-59826950D01*
X118422544Y-59826950D02*
X118422544Y-59326950D01*
X118374925Y-59398379D01*
X118327306Y-59445998D01*
X118279687Y-59469808D01*
X118874925Y-59326950D02*
X118922544Y-59326950D01*
X118970163Y-59350760D01*
X118993972Y-59374570D01*
X119017782Y-59422189D01*
X119041591Y-59517427D01*
X119041591Y-59636474D01*
X119017782Y-59731712D01*
X118993972Y-59779331D01*
X118970163Y-59803141D01*
X118922544Y-59826950D01*
X118874925Y-59826950D01*
X118827306Y-59803141D01*
X118803496Y-59779331D01*
X118779687Y-59731712D01*
X118755877Y-59636474D01*
X118755877Y-59517427D01*
X118779687Y-59422189D01*
X118803496Y-59374570D01*
X118827306Y-59350760D01*
X118874925Y-59326950D01*
X119255877Y-59826950D02*
X119255877Y-59326950D01*
X119303496Y-59636474D02*
X119446353Y-59826950D01*
X119446353Y-59493617D02*
X119255877Y-59684093D01*
D11*
X149238095Y-83352381D02*
X149238095Y-84161905D01*
X149285714Y-84257143D01*
X149333333Y-84304762D01*
X149428571Y-84352381D01*
X149619048Y-84352381D01*
X149714286Y-84304762D01*
X149761905Y-84257143D01*
X149809524Y-84161905D01*
X149809524Y-83352381D01*
X150714286Y-83685714D02*
X150714286Y-84352381D01*
X150476190Y-83304762D02*
X150238095Y-84019048D01*
X150857143Y-84019048D01*
X145047619Y-85552381D02*
X145047619Y-84552381D01*
X145047619Y-85028571D02*
X145619048Y-85028571D01*
X145619048Y-85552381D02*
X145619048Y-84552381D01*
X146285714Y-85076190D02*
X146285714Y-85552381D01*
X145952381Y-84552381D02*
X146285714Y-85076190D01*
X146619048Y-84552381D01*
X147428572Y-84552381D02*
X146952381Y-84552381D01*
X146904762Y-85028571D01*
X146952381Y-84980952D01*
X147047619Y-84933333D01*
X147285715Y-84933333D01*
X147380953Y-84980952D01*
X147428572Y-85028571D01*
X147476191Y-85123810D01*
X147476191Y-85361905D01*
X147428572Y-85457143D01*
X147380953Y-85504762D01*
X147285715Y-85552381D01*
X147047619Y-85552381D01*
X146952381Y-85504762D01*
X146904762Y-85457143D01*
X147809524Y-84552381D02*
X148476191Y-84552381D01*
X148047619Y-85552381D01*
X148714286Y-84552381D02*
X149047619Y-85552381D01*
X149380953Y-84552381D01*
X150190477Y-84552381D02*
X149714286Y-84552381D01*
X149666667Y-85028571D01*
X149714286Y-84980952D01*
X149809524Y-84933333D01*
X150047620Y-84933333D01*
X150142858Y-84980952D01*
X150190477Y-85028571D01*
X150238096Y-85123810D01*
X150238096Y-85361905D01*
X150190477Y-85457143D01*
X150142858Y-85504762D01*
X150047620Y-85552381D01*
X149809524Y-85552381D01*
X149714286Y-85504762D01*
X149666667Y-85457143D01*
X151095239Y-84552381D02*
X150904762Y-84552381D01*
X150809524Y-84600000D01*
X150761905Y-84647619D01*
X150666667Y-84790476D01*
X150619048Y-84980952D01*
X150619048Y-85361905D01*
X150666667Y-85457143D01*
X150714286Y-85504762D01*
X150809524Y-85552381D01*
X151000001Y-85552381D01*
X151095239Y-85504762D01*
X151142858Y-85457143D01*
X151190477Y-85361905D01*
X151190477Y-85123810D01*
X151142858Y-85028571D01*
X151095239Y-84980952D01*
X151000001Y-84933333D01*
X150809524Y-84933333D01*
X150714286Y-84980952D01*
X150666667Y-85028571D01*
X150619048Y-85123810D01*
X152142858Y-85552381D02*
X151571429Y-85552381D01*
X151857143Y-85552381D02*
X151857143Y-84552381D01*
X151761905Y-84695238D01*
X151666667Y-84790476D01*
X151571429Y-84838095D01*
X153000001Y-84552381D02*
X152809524Y-84552381D01*
X152714286Y-84600000D01*
X152666667Y-84647619D01*
X152571429Y-84790476D01*
X152523810Y-84980952D01*
X152523810Y-85361905D01*
X152571429Y-85457143D01*
X152619048Y-85504762D01*
X152714286Y-85552381D01*
X152904763Y-85552381D01*
X153000001Y-85504762D01*
X153047620Y-85457143D01*
X153095239Y-85361905D01*
X153095239Y-85123810D01*
X153047620Y-85028571D01*
X153000001Y-84980952D01*
X152904763Y-84933333D01*
X152714286Y-84933333D01*
X152619048Y-84980952D01*
X152571429Y-85028571D01*
X152523810Y-85123810D01*
X153476191Y-84647619D02*
X153523810Y-84600000D01*
X153619048Y-84552381D01*
X153857144Y-84552381D01*
X153952382Y-84600000D01*
X154000001Y-84647619D01*
X154047620Y-84742857D01*
X154047620Y-84838095D01*
X154000001Y-84980952D01*
X153428572Y-85552381D01*
X154047620Y-85552381D01*
X154666667Y-84552381D02*
X154761906Y-84552381D01*
X154857144Y-84600000D01*
X154904763Y-84647619D01*
X154952382Y-84742857D01*
X155000001Y-84933333D01*
X155000001Y-85171429D01*
X154952382Y-85361905D01*
X154904763Y-85457143D01*
X154857144Y-85504762D01*
X154761906Y-85552381D01*
X154666667Y-85552381D01*
X154571429Y-85504762D01*
X154523810Y-85457143D01*
X154476191Y-85361905D01*
X154428572Y-85171429D01*
X154428572Y-84933333D01*
X154476191Y-84742857D01*
X154523810Y-84647619D01*
X154571429Y-84600000D01*
X154666667Y-84552381D01*
X165338095Y-94652381D02*
X165338095Y-95461905D01*
X165385714Y-95557143D01*
X165433333Y-95604762D01*
X165528571Y-95652381D01*
X165719048Y-95652381D01*
X165814286Y-95604762D01*
X165861905Y-95557143D01*
X165909524Y-95461905D01*
X165909524Y-94652381D01*
X166861905Y-94652381D02*
X166385714Y-94652381D01*
X166338095Y-95128571D01*
X166385714Y-95080952D01*
X166480952Y-95033333D01*
X166719048Y-95033333D01*
X166814286Y-95080952D01*
X166861905Y-95128571D01*
X166909524Y-95223810D01*
X166909524Y-95461905D01*
X166861905Y-95557143D01*
X166814286Y-95604762D01*
X166719048Y-95652381D01*
X166480952Y-95652381D01*
X166385714Y-95604762D01*
X166338095Y-95557143D01*
X161147619Y-98152381D02*
X161147619Y-97152381D01*
X161147619Y-97628571D02*
X161719048Y-97628571D01*
X161719048Y-98152381D02*
X161719048Y-97152381D01*
X162385714Y-97676190D02*
X162385714Y-98152381D01*
X162052381Y-97152381D02*
X162385714Y-97676190D01*
X162719048Y-97152381D01*
X163528572Y-97152381D02*
X163052381Y-97152381D01*
X163004762Y-97628571D01*
X163052381Y-97580952D01*
X163147619Y-97533333D01*
X163385715Y-97533333D01*
X163480953Y-97580952D01*
X163528572Y-97628571D01*
X163576191Y-97723810D01*
X163576191Y-97961905D01*
X163528572Y-98057143D01*
X163480953Y-98104762D01*
X163385715Y-98152381D01*
X163147619Y-98152381D01*
X163052381Y-98104762D01*
X163004762Y-98057143D01*
X163909524Y-97152381D02*
X164576191Y-97152381D01*
X164147619Y-98152381D01*
X164814286Y-97152381D02*
X165147619Y-98152381D01*
X165480953Y-97152381D01*
X166290477Y-97152381D02*
X165814286Y-97152381D01*
X165766667Y-97628571D01*
X165814286Y-97580952D01*
X165909524Y-97533333D01*
X166147620Y-97533333D01*
X166242858Y-97580952D01*
X166290477Y-97628571D01*
X166338096Y-97723810D01*
X166338096Y-97961905D01*
X166290477Y-98057143D01*
X166242858Y-98104762D01*
X166147620Y-98152381D01*
X165909524Y-98152381D01*
X165814286Y-98104762D01*
X165766667Y-98057143D01*
X167195239Y-97152381D02*
X167004762Y-97152381D01*
X166909524Y-97200000D01*
X166861905Y-97247619D01*
X166766667Y-97390476D01*
X166719048Y-97580952D01*
X166719048Y-97961905D01*
X166766667Y-98057143D01*
X166814286Y-98104762D01*
X166909524Y-98152381D01*
X167100001Y-98152381D01*
X167195239Y-98104762D01*
X167242858Y-98057143D01*
X167290477Y-97961905D01*
X167290477Y-97723810D01*
X167242858Y-97628571D01*
X167195239Y-97580952D01*
X167100001Y-97533333D01*
X166909524Y-97533333D01*
X166814286Y-97580952D01*
X166766667Y-97628571D01*
X166719048Y-97723810D01*
X168242858Y-98152381D02*
X167671429Y-98152381D01*
X167957143Y-98152381D02*
X167957143Y-97152381D01*
X167861905Y-97295238D01*
X167766667Y-97390476D01*
X167671429Y-97438095D01*
X169100001Y-97152381D02*
X168909524Y-97152381D01*
X168814286Y-97200000D01*
X168766667Y-97247619D01*
X168671429Y-97390476D01*
X168623810Y-97580952D01*
X168623810Y-97961905D01*
X168671429Y-98057143D01*
X168719048Y-98104762D01*
X168814286Y-98152381D01*
X169004763Y-98152381D01*
X169100001Y-98104762D01*
X169147620Y-98057143D01*
X169195239Y-97961905D01*
X169195239Y-97723810D01*
X169147620Y-97628571D01*
X169100001Y-97580952D01*
X169004763Y-97533333D01*
X168814286Y-97533333D01*
X168719048Y-97580952D01*
X168671429Y-97628571D01*
X168623810Y-97723810D01*
X169576191Y-97247619D02*
X169623810Y-97200000D01*
X169719048Y-97152381D01*
X169957144Y-97152381D01*
X170052382Y-97200000D01*
X170100001Y-97247619D01*
X170147620Y-97342857D01*
X170147620Y-97438095D01*
X170100001Y-97580952D01*
X169528572Y-98152381D01*
X170147620Y-98152381D01*
X170766667Y-97152381D02*
X170861906Y-97152381D01*
X170957144Y-97200000D01*
X171004763Y-97247619D01*
X171052382Y-97342857D01*
X171100001Y-97533333D01*
X171100001Y-97771429D01*
X171052382Y-97961905D01*
X171004763Y-98057143D01*
X170957144Y-98104762D01*
X170861906Y-98152381D01*
X170766667Y-98152381D01*
X170671429Y-98104762D01*
X170623810Y-98057143D01*
X170576191Y-97961905D01*
X170528572Y-97771429D01*
X170528572Y-97533333D01*
X170576191Y-97342857D01*
X170623810Y-97247619D01*
X170671429Y-97200000D01*
X170766667Y-97152381D01*
X140538095Y-110752381D02*
X140538095Y-111561905D01*
X140585714Y-111657143D01*
X140633333Y-111704762D01*
X140728571Y-111752381D01*
X140919048Y-111752381D01*
X141014286Y-111704762D01*
X141061905Y-111657143D01*
X141109524Y-111561905D01*
X141109524Y-110752381D01*
X142109524Y-111752381D02*
X141538095Y-111752381D01*
X141823809Y-111752381D02*
X141823809Y-110752381D01*
X141728571Y-110895238D01*
X141633333Y-110990476D01*
X141538095Y-111038095D01*
X130976190Y-113452381D02*
X130976190Y-112452381D01*
X131309524Y-113166667D01*
X131642857Y-112452381D01*
X131642857Y-113452381D01*
X132690476Y-113357143D02*
X132642857Y-113404762D01*
X132500000Y-113452381D01*
X132404762Y-113452381D01*
X132261904Y-113404762D01*
X132166666Y-113309524D01*
X132119047Y-113214286D01*
X132071428Y-113023810D01*
X132071428Y-112880952D01*
X132119047Y-112690476D01*
X132166666Y-112595238D01*
X132261904Y-112500000D01*
X132404762Y-112452381D01*
X132500000Y-112452381D01*
X132642857Y-112500000D01*
X132690476Y-112547619D01*
X133547619Y-112452381D02*
X133357142Y-112452381D01*
X133261904Y-112500000D01*
X133214285Y-112547619D01*
X133119047Y-112690476D01*
X133071428Y-112880952D01*
X133071428Y-113261905D01*
X133119047Y-113357143D01*
X133166666Y-113404762D01*
X133261904Y-113452381D01*
X133452381Y-113452381D01*
X133547619Y-113404762D01*
X133595238Y-113357143D01*
X133642857Y-113261905D01*
X133642857Y-113023810D01*
X133595238Y-112928571D01*
X133547619Y-112880952D01*
X133452381Y-112833333D01*
X133261904Y-112833333D01*
X133166666Y-112880952D01*
X133119047Y-112928571D01*
X133071428Y-113023810D01*
X134214285Y-112880952D02*
X134119047Y-112833333D01*
X134071428Y-112785714D01*
X134023809Y-112690476D01*
X134023809Y-112642857D01*
X134071428Y-112547619D01*
X134119047Y-112500000D01*
X134214285Y-112452381D01*
X134404762Y-112452381D01*
X134500000Y-112500000D01*
X134547619Y-112547619D01*
X134595238Y-112642857D01*
X134595238Y-112690476D01*
X134547619Y-112785714D01*
X134500000Y-112833333D01*
X134404762Y-112880952D01*
X134214285Y-112880952D01*
X134119047Y-112928571D01*
X134071428Y-112976190D01*
X134023809Y-113071429D01*
X134023809Y-113261905D01*
X134071428Y-113357143D01*
X134119047Y-113404762D01*
X134214285Y-113452381D01*
X134404762Y-113452381D01*
X134500000Y-113404762D01*
X134547619Y-113357143D01*
X134595238Y-113261905D01*
X134595238Y-113071429D01*
X134547619Y-112976190D01*
X134500000Y-112928571D01*
X134404762Y-112880952D01*
X135214285Y-112452381D02*
X135309524Y-112452381D01*
X135404762Y-112500000D01*
X135452381Y-112547619D01*
X135500000Y-112642857D01*
X135547619Y-112833333D01*
X135547619Y-113071429D01*
X135500000Y-113261905D01*
X135452381Y-113357143D01*
X135404762Y-113404762D01*
X135309524Y-113452381D01*
X135214285Y-113452381D01*
X135119047Y-113404762D01*
X135071428Y-113357143D01*
X135023809Y-113261905D01*
X134976190Y-113071429D01*
X134976190Y-112833333D01*
X135023809Y-112642857D01*
X135071428Y-112547619D01*
X135119047Y-112500000D01*
X135214285Y-112452381D01*
X136404762Y-112785714D02*
X136404762Y-113452381D01*
X136166666Y-112404762D02*
X135928571Y-113119048D01*
X136547619Y-113119048D01*
X137119047Y-112452381D02*
X137214286Y-112452381D01*
X137309524Y-112500000D01*
X137357143Y-112547619D01*
X137404762Y-112642857D01*
X137452381Y-112833333D01*
X137452381Y-113071429D01*
X137404762Y-113261905D01*
X137357143Y-113357143D01*
X137309524Y-113404762D01*
X137214286Y-113452381D01*
X137119047Y-113452381D01*
X137023809Y-113404762D01*
X136976190Y-113357143D01*
X136928571Y-113261905D01*
X136880952Y-113071429D01*
X136880952Y-112833333D01*
X136928571Y-112642857D01*
X136976190Y-112547619D01*
X137023809Y-112500000D01*
X137119047Y-112452381D01*
X138214286Y-112928571D02*
X137880952Y-112928571D01*
X137880952Y-113452381D02*
X137880952Y-112452381D01*
X138357143Y-112452381D01*
X139309524Y-113357143D02*
X139261905Y-113404762D01*
X139119048Y-113452381D01*
X139023810Y-113452381D01*
X138880952Y-113404762D01*
X138785714Y-113309524D01*
X138738095Y-113214286D01*
X138690476Y-113023810D01*
X138690476Y-112880952D01*
X138738095Y-112690476D01*
X138785714Y-112595238D01*
X138880952Y-112500000D01*
X139023810Y-112452381D01*
X139119048Y-112452381D01*
X139261905Y-112500000D01*
X139309524Y-112547619D01*
X139642857Y-112452381D02*
X140261905Y-112452381D01*
X139928571Y-112833333D01*
X140071429Y-112833333D01*
X140166667Y-112880952D01*
X140214286Y-112928571D01*
X140261905Y-113023810D01*
X140261905Y-113261905D01*
X140214286Y-113357143D01*
X140166667Y-113404762D01*
X140071429Y-113452381D01*
X139785714Y-113452381D01*
X139690476Y-113404762D01*
X139642857Y-113357143D01*
X140595238Y-112452381D02*
X141214286Y-112452381D01*
X140880952Y-112833333D01*
X141023810Y-112833333D01*
X141119048Y-112880952D01*
X141166667Y-112928571D01*
X141214286Y-113023810D01*
X141214286Y-113261905D01*
X141166667Y-113357143D01*
X141119048Y-113404762D01*
X141023810Y-113452381D01*
X140738095Y-113452381D01*
X140642857Y-113404762D01*
X140595238Y-113357143D01*
X141500000Y-112452381D02*
X141833333Y-113452381D01*
X142166667Y-112452381D01*
X103838095Y-104552381D02*
X103838095Y-105361905D01*
X103885714Y-105457143D01*
X103933333Y-105504762D01*
X104028571Y-105552381D01*
X104219048Y-105552381D01*
X104314286Y-105504762D01*
X104361905Y-105457143D01*
X104409524Y-105361905D01*
X104409524Y-104552381D01*
X104838095Y-104647619D02*
X104885714Y-104600000D01*
X104980952Y-104552381D01*
X105219048Y-104552381D01*
X105314286Y-104600000D01*
X105361905Y-104647619D01*
X105409524Y-104742857D01*
X105409524Y-104838095D01*
X105361905Y-104980952D01*
X104790476Y-105552381D01*
X105409524Y-105552381D01*
X103695238Y-106528571D02*
X104028572Y-106528571D01*
X104171429Y-107052381D02*
X103695238Y-107052381D01*
X103695238Y-106052381D01*
X104171429Y-106052381D01*
X104600000Y-107052381D02*
X104600000Y-106052381D01*
X104980953Y-106052381D01*
X105076191Y-106100000D01*
X105123810Y-106147619D01*
X105171429Y-106242857D01*
X105171429Y-106385714D01*
X105123810Y-106480952D01*
X105076191Y-106528571D01*
X104980953Y-106576190D01*
X104600000Y-106576190D01*
X105933334Y-106528571D02*
X105600000Y-106528571D01*
X105600000Y-107052381D02*
X105600000Y-106052381D01*
X106076191Y-106052381D01*
X106980953Y-107052381D02*
X106409524Y-107052381D01*
X106695238Y-107052381D02*
X106695238Y-106052381D01*
X106600000Y-106195238D01*
X106504762Y-106290476D01*
X106409524Y-106338095D01*
X107600000Y-106052381D02*
X107695239Y-106052381D01*
X107790477Y-106100000D01*
X107838096Y-106147619D01*
X107885715Y-106242857D01*
X107933334Y-106433333D01*
X107933334Y-106671429D01*
X107885715Y-106861905D01*
X107838096Y-106957143D01*
X107790477Y-107004762D01*
X107695239Y-107052381D01*
X107600000Y-107052381D01*
X107504762Y-107004762D01*
X107457143Y-106957143D01*
X107409524Y-106861905D01*
X107361905Y-106671429D01*
X107361905Y-106433333D01*
X107409524Y-106242857D01*
X107457143Y-106147619D01*
X107504762Y-106100000D01*
X107600000Y-106052381D01*
X108361905Y-107052381D02*
X108361905Y-106052381D01*
X108933334Y-107052381D02*
X108504762Y-106480952D01*
X108933334Y-106052381D02*
X108361905Y-106623810D01*
X109838096Y-106052381D02*
X109361905Y-106052381D01*
X109314286Y-106528571D01*
X109361905Y-106480952D01*
X109457143Y-106433333D01*
X109695239Y-106433333D01*
X109790477Y-106480952D01*
X109838096Y-106528571D01*
X109885715Y-106623810D01*
X109885715Y-106861905D01*
X109838096Y-106957143D01*
X109790477Y-107004762D01*
X109695239Y-107052381D01*
X109457143Y-107052381D01*
X109361905Y-107004762D01*
X109314286Y-106957143D01*
X110504762Y-106052381D02*
X110600001Y-106052381D01*
X110695239Y-106100000D01*
X110742858Y-106147619D01*
X110790477Y-106242857D01*
X110838096Y-106433333D01*
X110838096Y-106671429D01*
X110790477Y-106861905D01*
X110742858Y-106957143D01*
X110695239Y-107004762D01*
X110600001Y-107052381D01*
X110504762Y-107052381D01*
X110409524Y-107004762D01*
X110361905Y-106957143D01*
X110314286Y-106861905D01*
X110266667Y-106671429D01*
X110266667Y-106433333D01*
X110314286Y-106242857D01*
X110361905Y-106147619D01*
X110409524Y-106100000D01*
X110504762Y-106052381D01*
X111123810Y-106052381D02*
X111457143Y-107052381D01*
X111790477Y-106052381D01*
X112695239Y-107052381D02*
X112361905Y-106576190D01*
X112123810Y-107052381D02*
X112123810Y-106052381D01*
X112504763Y-106052381D01*
X112600001Y-106100000D01*
X112647620Y-106147619D01*
X112695239Y-106242857D01*
X112695239Y-106385714D01*
X112647620Y-106480952D01*
X112600001Y-106528571D01*
X112504763Y-106576190D01*
X112123810Y-106576190D01*
X113695239Y-106957143D02*
X113647620Y-107004762D01*
X113504763Y-107052381D01*
X113409525Y-107052381D01*
X113266667Y-107004762D01*
X113171429Y-106909524D01*
X113123810Y-106814286D01*
X113076191Y-106623810D01*
X113076191Y-106480952D01*
X113123810Y-106290476D01*
X113171429Y-106195238D01*
X113266667Y-106100000D01*
X113409525Y-106052381D01*
X113504763Y-106052381D01*
X113647620Y-106100000D01*
X113695239Y-106147619D01*
X114076191Y-106147619D02*
X114123810Y-106100000D01*
X114219048Y-106052381D01*
X114457144Y-106052381D01*
X114552382Y-106100000D01*
X114600001Y-106147619D01*
X114647620Y-106242857D01*
X114647620Y-106338095D01*
X114600001Y-106480952D01*
X114028572Y-107052381D01*
X114647620Y-107052381D01*
X115504763Y-106385714D02*
X115504763Y-107052381D01*
X115266667Y-106004762D02*
X115028572Y-106719048D01*
X115647620Y-106719048D01*
X116219048Y-106052381D02*
X116314287Y-106052381D01*
X116409525Y-106100000D01*
X116457144Y-106147619D01*
X116504763Y-106242857D01*
X116552382Y-106433333D01*
X116552382Y-106671429D01*
X116504763Y-106861905D01*
X116457144Y-106957143D01*
X116409525Y-107004762D01*
X116314287Y-107052381D01*
X116219048Y-107052381D01*
X116123810Y-107004762D01*
X116076191Y-106957143D01*
X116028572Y-106861905D01*
X115980953Y-106671429D01*
X115980953Y-106433333D01*
X116028572Y-106242857D01*
X116076191Y-106147619D01*
X116123810Y-106100000D01*
X116219048Y-106052381D01*
X99538095Y-76852381D02*
X99538095Y-77661905D01*
X99585714Y-77757143D01*
X99633333Y-77804762D01*
X99728571Y-77852381D01*
X99919048Y-77852381D01*
X100014286Y-77804762D01*
X100061905Y-77757143D01*
X100109524Y-77661905D01*
X100109524Y-76852381D01*
X100490476Y-76852381D02*
X101157143Y-76852381D01*
X100728571Y-77852381D01*
X99702381Y-75271429D02*
X99702381Y-74604762D01*
X100702381Y-75033334D01*
X100035714Y-73795238D02*
X100702381Y-73795238D01*
X99654762Y-74033334D02*
X100369048Y-74271429D01*
X100369048Y-73652381D01*
X100702381Y-72795238D02*
X100702381Y-73271429D01*
X99702381Y-73271429D01*
X99702381Y-72604762D02*
X100702381Y-72271429D01*
X99702381Y-71938095D01*
X100607143Y-71033333D02*
X100654762Y-71080952D01*
X100702381Y-71223809D01*
X100702381Y-71319047D01*
X100654762Y-71461905D01*
X100559524Y-71557143D01*
X100464286Y-71604762D01*
X100273810Y-71652381D01*
X100130952Y-71652381D01*
X99940476Y-71604762D01*
X99845238Y-71557143D01*
X99750000Y-71461905D01*
X99702381Y-71319047D01*
X99702381Y-71223809D01*
X99750000Y-71080952D01*
X99797619Y-71033333D01*
X100702381Y-70080952D02*
X100702381Y-70652381D01*
X100702381Y-70366667D02*
X99702381Y-70366667D01*
X99845238Y-70461905D01*
X99940476Y-70557143D01*
X99988095Y-70652381D01*
X99702381Y-69747619D02*
X99702381Y-69128571D01*
X100083333Y-69461905D01*
X100083333Y-69319047D01*
X100130952Y-69223809D01*
X100178571Y-69176190D01*
X100273810Y-69128571D01*
X100511905Y-69128571D01*
X100607143Y-69176190D01*
X100654762Y-69223809D01*
X100702381Y-69319047D01*
X100702381Y-69604762D01*
X100654762Y-69700000D01*
X100607143Y-69747619D01*
X100130952Y-68557143D02*
X100083333Y-68652381D01*
X100035714Y-68700000D01*
X99940476Y-68747619D01*
X99892857Y-68747619D01*
X99797619Y-68700000D01*
X99750000Y-68652381D01*
X99702381Y-68557143D01*
X99702381Y-68366666D01*
X99750000Y-68271428D01*
X99797619Y-68223809D01*
X99892857Y-68176190D01*
X99940476Y-68176190D01*
X100035714Y-68223809D01*
X100083333Y-68271428D01*
X100130952Y-68366666D01*
X100130952Y-68557143D01*
X100178571Y-68652381D01*
X100226190Y-68700000D01*
X100321429Y-68747619D01*
X100511905Y-68747619D01*
X100607143Y-68700000D01*
X100654762Y-68652381D01*
X100702381Y-68557143D01*
X100702381Y-68366666D01*
X100654762Y-68271428D01*
X100607143Y-68223809D01*
X100511905Y-68176190D01*
X100321429Y-68176190D01*
X100226190Y-68223809D01*
X100178571Y-68271428D01*
X100130952Y-68366666D01*
X113638095Y-133352381D02*
X113638095Y-134161905D01*
X113685714Y-134257143D01*
X113733333Y-134304762D01*
X113828571Y-134352381D01*
X114019048Y-134352381D01*
X114114286Y-134304762D01*
X114161905Y-134257143D01*
X114209524Y-134161905D01*
X114209524Y-133352381D01*
X115114286Y-133352381D02*
X114923809Y-133352381D01*
X114828571Y-133400000D01*
X114780952Y-133447619D01*
X114685714Y-133590476D01*
X114638095Y-133780952D01*
X114638095Y-134161905D01*
X114685714Y-134257143D01*
X114733333Y-134304762D01*
X114828571Y-134352381D01*
X115019048Y-134352381D01*
X115114286Y-134304762D01*
X115161905Y-134257143D01*
X115209524Y-134161905D01*
X115209524Y-133923810D01*
X115161905Y-133828571D01*
X115114286Y-133780952D01*
X115019048Y-133733333D01*
X114828571Y-133733333D01*
X114733333Y-133780952D01*
X114685714Y-133828571D01*
X114638095Y-133923810D01*
X110328571Y-135466667D02*
X110804762Y-135466667D01*
X110233333Y-135752381D02*
X110566666Y-134752381D01*
X110900000Y-135752381D01*
X111185714Y-135704762D02*
X111328571Y-135752381D01*
X111566667Y-135752381D01*
X111661905Y-135704762D01*
X111709524Y-135657143D01*
X111757143Y-135561905D01*
X111757143Y-135466667D01*
X111709524Y-135371429D01*
X111661905Y-135323810D01*
X111566667Y-135276190D01*
X111376190Y-135228571D01*
X111280952Y-135180952D01*
X111233333Y-135133333D01*
X111185714Y-135038095D01*
X111185714Y-134942857D01*
X111233333Y-134847619D01*
X111280952Y-134800000D01*
X111376190Y-134752381D01*
X111614286Y-134752381D01*
X111757143Y-134800000D01*
X112090476Y-134752381D02*
X112757143Y-134752381D01*
X112328571Y-135752381D01*
X113709524Y-135657143D02*
X113661905Y-135704762D01*
X113519048Y-135752381D01*
X113423810Y-135752381D01*
X113280952Y-135704762D01*
X113185714Y-135609524D01*
X113138095Y-135514286D01*
X113090476Y-135323810D01*
X113090476Y-135180952D01*
X113138095Y-134990476D01*
X113185714Y-134895238D01*
X113280952Y-134800000D01*
X113423810Y-134752381D01*
X113519048Y-134752381D01*
X113661905Y-134800000D01*
X113709524Y-134847619D01*
X114042857Y-134752381D02*
X114661905Y-134752381D01*
X114328571Y-135133333D01*
X114471429Y-135133333D01*
X114566667Y-135180952D01*
X114614286Y-135228571D01*
X114661905Y-135323810D01*
X114661905Y-135561905D01*
X114614286Y-135657143D01*
X114566667Y-135704762D01*
X114471429Y-135752381D01*
X114185714Y-135752381D01*
X114090476Y-135704762D01*
X114042857Y-135657143D01*
X115519048Y-135085714D02*
X115519048Y-135752381D01*
X115280952Y-134704762D02*
X115042857Y-135419048D01*
X115661905Y-135419048D01*
X116233333Y-134752381D02*
X116328572Y-134752381D01*
X116423810Y-134800000D01*
X116471429Y-134847619D01*
X116519048Y-134942857D01*
X116566667Y-135133333D01*
X116566667Y-135371429D01*
X116519048Y-135561905D01*
X116471429Y-135657143D01*
X116423810Y-135704762D01*
X116328572Y-135752381D01*
X116233333Y-135752381D01*
X116138095Y-135704762D01*
X116090476Y-135657143D01*
X116042857Y-135561905D01*
X115995238Y-135371429D01*
X115995238Y-135133333D01*
X116042857Y-134942857D01*
X116090476Y-134847619D01*
X116138095Y-134800000D01*
X116233333Y-134752381D01*
X117042857Y-135752381D02*
X117233333Y-135752381D01*
X117328572Y-135704762D01*
X117376191Y-135657143D01*
X117471429Y-135514286D01*
X117519048Y-135323810D01*
X117519048Y-134942857D01*
X117471429Y-134847619D01*
X117423810Y-134800000D01*
X117328572Y-134752381D01*
X117138095Y-134752381D01*
X117042857Y-134800000D01*
X116995238Y-134847619D01*
X116947619Y-134942857D01*
X116947619Y-135180952D01*
X116995238Y-135276190D01*
X117042857Y-135323810D01*
X117138095Y-135371429D01*
X117328572Y-135371429D01*
X117423810Y-135323810D01*
X117471429Y-135276190D01*
X117519048Y-135180952D01*
X118090476Y-135180952D02*
X117995238Y-135133333D01*
X117947619Y-135085714D01*
X117900000Y-134990476D01*
X117900000Y-134942857D01*
X117947619Y-134847619D01*
X117995238Y-134800000D01*
X118090476Y-134752381D01*
X118280953Y-134752381D01*
X118376191Y-134800000D01*
X118423810Y-134847619D01*
X118471429Y-134942857D01*
X118471429Y-134990476D01*
X118423810Y-135085714D01*
X118376191Y-135133333D01*
X118280953Y-135180952D01*
X118090476Y-135180952D01*
X117995238Y-135228571D01*
X117947619Y-135276190D01*
X117900000Y-135371429D01*
X117900000Y-135561905D01*
X117947619Y-135657143D01*
X117995238Y-135704762D01*
X118090476Y-135752381D01*
X118280953Y-135752381D01*
X118376191Y-135704762D01*
X118423810Y-135657143D01*
X118471429Y-135561905D01*
X118471429Y-135371429D01*
X118423810Y-135276190D01*
X118376191Y-135228571D01*
X118280953Y-135180952D01*
X93113095Y-126352381D02*
X93113095Y-127161905D01*
X93160714Y-127257143D01*
X93208333Y-127304762D01*
X93303571Y-127352381D01*
X93494048Y-127352381D01*
X93589286Y-127304762D01*
X93636905Y-127257143D01*
X93684524Y-127161905D01*
X93684524Y-126352381D01*
X94065476Y-126352381D02*
X94684524Y-126352381D01*
X94351190Y-126733333D01*
X94494048Y-126733333D01*
X94589286Y-126780952D01*
X94636905Y-126828571D01*
X94684524Y-126923810D01*
X94684524Y-127161905D01*
X94636905Y-127257143D01*
X94589286Y-127304762D01*
X94494048Y-127352381D01*
X94208333Y-127352381D01*
X94113095Y-127304762D01*
X94065476Y-127257143D01*
X95859524Y-126803571D02*
X96192858Y-126803571D01*
X96335715Y-127327381D02*
X95859524Y-127327381D01*
X95859524Y-126327381D01*
X96335715Y-126327381D01*
X96764286Y-127327381D02*
X96764286Y-126327381D01*
X97145239Y-126327381D01*
X97240477Y-126375000D01*
X97288096Y-126422619D01*
X97335715Y-126517857D01*
X97335715Y-126660714D01*
X97288096Y-126755952D01*
X97240477Y-126803571D01*
X97145239Y-126851190D01*
X96764286Y-126851190D01*
X98335715Y-127232143D02*
X98288096Y-127279762D01*
X98145239Y-127327381D01*
X98050001Y-127327381D01*
X97907143Y-127279762D01*
X97811905Y-127184524D01*
X97764286Y-127089286D01*
X97716667Y-126898810D01*
X97716667Y-126755952D01*
X97764286Y-126565476D01*
X97811905Y-126470238D01*
X97907143Y-126375000D01*
X98050001Y-126327381D01*
X98145239Y-126327381D01*
X98288096Y-126375000D01*
X98335715Y-126422619D01*
X98716667Y-126422619D02*
X98764286Y-126375000D01*
X98859524Y-126327381D01*
X99097620Y-126327381D01*
X99192858Y-126375000D01*
X99240477Y-126422619D01*
X99288096Y-126517857D01*
X99288096Y-126613095D01*
X99240477Y-126755952D01*
X98669048Y-127327381D01*
X99288096Y-127327381D01*
X92438095Y-96027381D02*
X92438095Y-96836905D01*
X92485714Y-96932143D01*
X92533333Y-96979762D01*
X92628571Y-97027381D01*
X92819048Y-97027381D01*
X92914286Y-96979762D01*
X92961905Y-96932143D01*
X93009524Y-96836905D01*
X93009524Y-96027381D01*
X93628571Y-96455952D02*
X93533333Y-96408333D01*
X93485714Y-96360714D01*
X93438095Y-96265476D01*
X93438095Y-96217857D01*
X93485714Y-96122619D01*
X93533333Y-96075000D01*
X93628571Y-96027381D01*
X93819048Y-96027381D01*
X93914286Y-96075000D01*
X93961905Y-96122619D01*
X94009524Y-96217857D01*
X94009524Y-96265476D01*
X93961905Y-96360714D01*
X93914286Y-96408333D01*
X93819048Y-96455952D01*
X93628571Y-96455952D01*
X93533333Y-96503571D01*
X93485714Y-96551190D01*
X93438095Y-96646429D01*
X93438095Y-96836905D01*
X93485714Y-96932143D01*
X93533333Y-96979762D01*
X93628571Y-97027381D01*
X93819048Y-97027381D01*
X93914286Y-96979762D01*
X93961905Y-96932143D01*
X94009524Y-96836905D01*
X94009524Y-96646429D01*
X93961905Y-96551190D01*
X93914286Y-96503571D01*
X93819048Y-96455952D01*
X98127381Y-106188095D02*
X97127381Y-106188095D01*
X97841667Y-105854761D01*
X97127381Y-105521428D01*
X98127381Y-105521428D01*
X98032143Y-104473809D02*
X98079762Y-104521428D01*
X98127381Y-104664285D01*
X98127381Y-104759523D01*
X98079762Y-104902381D01*
X97984524Y-104997619D01*
X97889286Y-105045238D01*
X97698810Y-105092857D01*
X97555952Y-105092857D01*
X97365476Y-105045238D01*
X97270238Y-104997619D01*
X97175000Y-104902381D01*
X97127381Y-104759523D01*
X97127381Y-104664285D01*
X97175000Y-104521428D01*
X97222619Y-104473809D01*
X98127381Y-104045238D02*
X97127381Y-104045238D01*
X97127381Y-103664285D01*
X97175000Y-103569047D01*
X97222619Y-103521428D01*
X97317857Y-103473809D01*
X97460714Y-103473809D01*
X97555952Y-103521428D01*
X97603571Y-103569047D01*
X97651190Y-103664285D01*
X97651190Y-104045238D01*
X97460714Y-102616666D02*
X98127381Y-102616666D01*
X97079762Y-102854762D02*
X97794048Y-103092857D01*
X97794048Y-102473809D01*
X98127381Y-102045238D02*
X98127381Y-101854762D01*
X98079762Y-101759523D01*
X98032143Y-101711904D01*
X97889286Y-101616666D01*
X97698810Y-101569047D01*
X97317857Y-101569047D01*
X97222619Y-101616666D01*
X97175000Y-101664285D01*
X97127381Y-101759523D01*
X97127381Y-101950000D01*
X97175000Y-102045238D01*
X97222619Y-102092857D01*
X97317857Y-102140476D01*
X97555952Y-102140476D01*
X97651190Y-102092857D01*
X97698810Y-102045238D01*
X97746429Y-101950000D01*
X97746429Y-101759523D01*
X97698810Y-101664285D01*
X97651190Y-101616666D01*
X97555952Y-101569047D01*
X97127381Y-100950000D02*
X97127381Y-100854761D01*
X97175000Y-100759523D01*
X97222619Y-100711904D01*
X97317857Y-100664285D01*
X97508333Y-100616666D01*
X97746429Y-100616666D01*
X97936905Y-100664285D01*
X98032143Y-100711904D01*
X98079762Y-100759523D01*
X98127381Y-100854761D01*
X98127381Y-100950000D01*
X98079762Y-101045238D01*
X98032143Y-101092857D01*
X97936905Y-101140476D01*
X97746429Y-101188095D01*
X97508333Y-101188095D01*
X97317857Y-101140476D01*
X97222619Y-101092857D01*
X97175000Y-101045238D01*
X97127381Y-100950000D01*
X97222619Y-100235714D02*
X97175000Y-100188095D01*
X97127381Y-100092857D01*
X97127381Y-99854761D01*
X97175000Y-99759523D01*
X97222619Y-99711904D01*
X97317857Y-99664285D01*
X97413095Y-99664285D01*
X97555952Y-99711904D01*
X98127381Y-100283333D01*
X98127381Y-99664285D01*
X90238095Y-80152381D02*
X90238095Y-80961905D01*
X90285714Y-81057143D01*
X90333333Y-81104762D01*
X90428571Y-81152381D01*
X90619048Y-81152381D01*
X90714286Y-81104762D01*
X90761905Y-81057143D01*
X90809524Y-80961905D01*
X90809524Y-80152381D01*
X91333333Y-81152381D02*
X91523809Y-81152381D01*
X91619048Y-81104762D01*
X91666667Y-81057143D01*
X91761905Y-80914286D01*
X91809524Y-80723810D01*
X91809524Y-80342857D01*
X91761905Y-80247619D01*
X91714286Y-80200000D01*
X91619048Y-80152381D01*
X91428571Y-80152381D01*
X91333333Y-80200000D01*
X91285714Y-80247619D01*
X91238095Y-80342857D01*
X91238095Y-80580952D01*
X91285714Y-80676190D01*
X91333333Y-80723810D01*
X91428571Y-80771429D01*
X91619048Y-80771429D01*
X91714286Y-80723810D01*
X91761905Y-80676190D01*
X91809524Y-80580952D01*
X88876190Y-86504762D02*
X89019047Y-86552381D01*
X89257143Y-86552381D01*
X89352381Y-86504762D01*
X89400000Y-86457143D01*
X89447619Y-86361905D01*
X89447619Y-86266667D01*
X89400000Y-86171429D01*
X89352381Y-86123810D01*
X89257143Y-86076190D01*
X89066666Y-86028571D01*
X88971428Y-85980952D01*
X88923809Y-85933333D01*
X88876190Y-85838095D01*
X88876190Y-85742857D01*
X88923809Y-85647619D01*
X88971428Y-85600000D01*
X89066666Y-85552381D01*
X89304762Y-85552381D01*
X89447619Y-85600000D01*
X89828571Y-85647619D02*
X89876190Y-85600000D01*
X89971428Y-85552381D01*
X90209524Y-85552381D01*
X90304762Y-85600000D01*
X90352381Y-85647619D01*
X90400000Y-85742857D01*
X90400000Y-85838095D01*
X90352381Y-85980952D01*
X89780952Y-86552381D01*
X90400000Y-86552381D01*
X91304762Y-85552381D02*
X90828571Y-85552381D01*
X90780952Y-86028571D01*
X90828571Y-85980952D01*
X90923809Y-85933333D01*
X91161905Y-85933333D01*
X91257143Y-85980952D01*
X91304762Y-86028571D01*
X91352381Y-86123810D01*
X91352381Y-86361905D01*
X91304762Y-86457143D01*
X91257143Y-86504762D01*
X91161905Y-86552381D01*
X90923809Y-86552381D01*
X90828571Y-86504762D01*
X90780952Y-86457143D01*
X92114286Y-86028571D02*
X91780952Y-86028571D01*
X91780952Y-86552381D02*
X91780952Y-85552381D01*
X92257143Y-85552381D01*
X93114286Y-86552381D02*
X92638095Y-86552381D01*
X92638095Y-85552381D01*
X93400000Y-85647619D02*
X93447619Y-85600000D01*
X93542857Y-85552381D01*
X93780953Y-85552381D01*
X93876191Y-85600000D01*
X93923810Y-85647619D01*
X93971429Y-85742857D01*
X93971429Y-85838095D01*
X93923810Y-85980952D01*
X93352381Y-86552381D01*
X93971429Y-86552381D01*
X94590476Y-85552381D02*
X94685715Y-85552381D01*
X94780953Y-85600000D01*
X94828572Y-85647619D01*
X94876191Y-85742857D01*
X94923810Y-85933333D01*
X94923810Y-86171429D01*
X94876191Y-86361905D01*
X94828572Y-86457143D01*
X94780953Y-86504762D01*
X94685715Y-86552381D01*
X94590476Y-86552381D01*
X94495238Y-86504762D01*
X94447619Y-86457143D01*
X94400000Y-86361905D01*
X94352381Y-86171429D01*
X94352381Y-85933333D01*
X94400000Y-85742857D01*
X94447619Y-85647619D01*
X94495238Y-85600000D01*
X94590476Y-85552381D01*
X95780953Y-85885714D02*
X95780953Y-86552381D01*
X95542857Y-85504762D02*
X95304762Y-86219048D01*
X95923810Y-86219048D01*
X96304762Y-86552381D02*
X96304762Y-85552381D01*
X96876191Y-86552381D02*
X96447619Y-85980952D01*
X96876191Y-85552381D02*
X96304762Y-86123810D01*
X97495238Y-85552381D02*
X97590477Y-85552381D01*
X97685715Y-85600000D01*
X97733334Y-85647619D01*
X97780953Y-85742857D01*
X97828572Y-85933333D01*
X97828572Y-86171429D01*
X97780953Y-86361905D01*
X97733334Y-86457143D01*
X97685715Y-86504762D01*
X97590477Y-86552381D01*
X97495238Y-86552381D01*
X97400000Y-86504762D01*
X97352381Y-86457143D01*
X97304762Y-86361905D01*
X97257143Y-86171429D01*
X97257143Y-85933333D01*
X97304762Y-85742857D01*
X97352381Y-85647619D01*
X97400000Y-85600000D01*
X97495238Y-85552381D01*
X98114286Y-85552381D02*
X98685715Y-85552381D01*
X98400000Y-86552381D02*
X98400000Y-85552381D01*
X99019048Y-86552381D02*
X99019048Y-85552381D01*
X99352382Y-86266667D01*
X99685715Y-85552381D01*
X99685715Y-86552381D01*
X100495239Y-86028571D02*
X100161905Y-86028571D01*
X100161905Y-86552381D02*
X100161905Y-85552381D01*
X100638096Y-85552381D01*
X101019048Y-86552381D02*
X101019048Y-85552381D01*
X101685714Y-85552381D02*
X101780953Y-85552381D01*
X101876191Y-85600000D01*
X101923810Y-85647619D01*
X101971429Y-85742857D01*
X102019048Y-85933333D01*
X102019048Y-86171429D01*
X101971429Y-86361905D01*
X101923810Y-86457143D01*
X101876191Y-86504762D01*
X101780953Y-86552381D01*
X101685714Y-86552381D01*
X101590476Y-86504762D01*
X101542857Y-86457143D01*
X101495238Y-86361905D01*
X101447619Y-86171429D01*
X101447619Y-85933333D01*
X101495238Y-85742857D01*
X101542857Y-85647619D01*
X101590476Y-85600000D01*
X101685714Y-85552381D01*
X102971429Y-86552381D02*
X102400000Y-86552381D01*
X102685714Y-86552381D02*
X102685714Y-85552381D01*
X102590476Y-85695238D01*
X102495238Y-85790476D01*
X102400000Y-85838095D01*
X103590476Y-85552381D02*
X103685715Y-85552381D01*
X103780953Y-85600000D01*
X103828572Y-85647619D01*
X103876191Y-85742857D01*
X103923810Y-85933333D01*
X103923810Y-86171429D01*
X103876191Y-86361905D01*
X103828572Y-86457143D01*
X103780953Y-86504762D01*
X103685715Y-86552381D01*
X103590476Y-86552381D01*
X103495238Y-86504762D01*
X103447619Y-86457143D01*
X103400000Y-86361905D01*
X103352381Y-86171429D01*
X103352381Y-85933333D01*
X103400000Y-85742857D01*
X103447619Y-85647619D01*
X103495238Y-85600000D01*
X103590476Y-85552381D01*
X100342857Y-148828571D02*
X100009523Y-148828571D01*
X100009523Y-149352381D02*
X100009523Y-148352381D01*
X100485714Y-148352381D01*
X100866666Y-149352381D02*
X100866666Y-148352381D01*
X101247619Y-148352381D01*
X101342857Y-148400000D01*
X101390476Y-148447619D01*
X101438095Y-148542857D01*
X101438095Y-148685714D01*
X101390476Y-148780952D01*
X101342857Y-148828571D01*
X101247619Y-148876190D01*
X100866666Y-148876190D01*
X102390476Y-148400000D02*
X102295238Y-148352381D01*
X102152381Y-148352381D01*
X102009523Y-148400000D01*
X101914285Y-148495238D01*
X101866666Y-148590476D01*
X101819047Y-148780952D01*
X101819047Y-148923810D01*
X101866666Y-149114286D01*
X101914285Y-149209524D01*
X102009523Y-149304762D01*
X102152381Y-149352381D01*
X102247619Y-149352381D01*
X102390476Y-149304762D01*
X102438095Y-149257143D01*
X102438095Y-148923810D01*
X102247619Y-148923810D01*
X102819047Y-149066667D02*
X103295238Y-149066667D01*
X102723809Y-149352381D02*
X103057142Y-148352381D01*
X103390476Y-149352381D01*
X104771429Y-148352381D02*
X104771429Y-149066667D01*
X104723809Y-149209524D01*
X104628571Y-149304762D01*
X104485714Y-149352381D01*
X104390476Y-149352381D01*
X105104762Y-148352381D02*
X105676191Y-148352381D01*
X105390476Y-149352381D02*
X105390476Y-148352381D01*
X105961905Y-149066667D02*
X106438096Y-149066667D01*
X105866667Y-149352381D02*
X106200000Y-148352381D01*
X106533334Y-149352381D01*
X107390477Y-148400000D02*
X107295239Y-148352381D01*
X107152382Y-148352381D01*
X107009524Y-148400000D01*
X106914286Y-148495238D01*
X106866667Y-148590476D01*
X106819048Y-148780952D01*
X106819048Y-148923810D01*
X106866667Y-149114286D01*
X106914286Y-149209524D01*
X107009524Y-149304762D01*
X107152382Y-149352381D01*
X107247620Y-149352381D01*
X107390477Y-149304762D01*
X107438096Y-149257143D01*
X107438096Y-148923810D01*
X107247620Y-148923810D01*
X127614286Y-149357143D02*
X127566667Y-149404762D01*
X127423810Y-149452381D01*
X127328572Y-149452381D01*
X127185714Y-149404762D01*
X127090476Y-149309524D01*
X127042857Y-149214286D01*
X126995238Y-149023810D01*
X126995238Y-148880952D01*
X127042857Y-148690476D01*
X127090476Y-148595238D01*
X127185714Y-148500000D01*
X127328572Y-148452381D01*
X127423810Y-148452381D01*
X127566667Y-148500000D01*
X127614286Y-148547619D01*
X128042857Y-149452381D02*
X128042857Y-148452381D01*
X128423810Y-148452381D01*
X128519048Y-148500000D01*
X128566667Y-148547619D01*
X128614286Y-148642857D01*
X128614286Y-148785714D01*
X128566667Y-148880952D01*
X128519048Y-148928571D01*
X128423810Y-148976190D01*
X128042857Y-148976190D01*
X129042857Y-148452381D02*
X129042857Y-149261905D01*
X129090476Y-149357143D01*
X129138095Y-149404762D01*
X129233333Y-149452381D01*
X129423810Y-149452381D01*
X129519048Y-149404762D01*
X129566667Y-149357143D01*
X129614286Y-149261905D01*
X129614286Y-148452381D01*
X131138096Y-148452381D02*
X131138096Y-149166667D01*
X131090476Y-149309524D01*
X130995238Y-149404762D01*
X130852381Y-149452381D01*
X130757143Y-149452381D01*
X131471429Y-148452381D02*
X132042858Y-148452381D01*
X131757143Y-149452381D02*
X131757143Y-148452381D01*
X132328572Y-149166667D02*
X132804763Y-149166667D01*
X132233334Y-149452381D02*
X132566667Y-148452381D01*
X132900001Y-149452381D01*
X133757144Y-148500000D02*
X133661906Y-148452381D01*
X133519049Y-148452381D01*
X133376191Y-148500000D01*
X133280953Y-148595238D01*
X133233334Y-148690476D01*
X133185715Y-148880952D01*
X133185715Y-149023810D01*
X133233334Y-149214286D01*
X133280953Y-149309524D01*
X133376191Y-149404762D01*
X133519049Y-149452381D01*
X133614287Y-149452381D01*
X133757144Y-149404762D01*
X133804763Y-149357143D01*
X133804763Y-149023810D01*
X133614287Y-149023810D01*
X127511905Y-51352381D02*
X127511905Y-52161905D01*
X127559524Y-52257143D01*
X127607143Y-52304762D01*
X127702381Y-52352381D01*
X127892858Y-52352381D01*
X127988096Y-52304762D01*
X128035715Y-52257143D01*
X128083334Y-52161905D01*
X128083334Y-51352381D01*
X129083334Y-52352381D02*
X128511905Y-52352381D01*
X128797619Y-52352381D02*
X128797619Y-51352381D01*
X128702381Y-51495238D01*
X128607143Y-51590476D01*
X128511905Y-51638095D01*
X129702381Y-51352381D02*
X129797620Y-51352381D01*
X129892858Y-51400000D01*
X129940477Y-51447619D01*
X129988096Y-51542857D01*
X130035715Y-51733333D01*
X130035715Y-51971429D01*
X129988096Y-52161905D01*
X129940477Y-52257143D01*
X129892858Y-52304762D01*
X129797620Y-52352381D01*
X129702381Y-52352381D01*
X129607143Y-52304762D01*
X129559524Y-52257143D01*
X129511905Y-52161905D01*
X129464286Y-51971429D01*
X129464286Y-51733333D01*
X129511905Y-51542857D01*
X129559524Y-51447619D01*
X129607143Y-51400000D01*
X129702381Y-51352381D01*
X124583333Y-59166667D02*
X125059524Y-59166667D01*
X124488095Y-59452381D02*
X124821428Y-58452381D01*
X125154762Y-59452381D01*
X125488095Y-59452381D02*
X125488095Y-58452381D01*
X125726190Y-58452381D01*
X125869048Y-58500000D01*
X125964286Y-58595238D01*
X126011905Y-58690476D01*
X126059524Y-58880952D01*
X126059524Y-59023810D01*
X126011905Y-59214286D01*
X125964286Y-59309524D01*
X125869048Y-59404762D01*
X125726190Y-59452381D01*
X125488095Y-59452381D01*
X126440476Y-59166667D02*
X126916667Y-59166667D01*
X126345238Y-59452381D02*
X126678571Y-58452381D01*
X127011905Y-59452381D01*
X127773810Y-58785714D02*
X127773810Y-59452381D01*
X127535714Y-58404762D02*
X127297619Y-59119048D01*
X127916667Y-59119048D01*
X128440476Y-58880952D02*
X128345238Y-58833333D01*
X128297619Y-58785714D01*
X128250000Y-58690476D01*
X128250000Y-58642857D01*
X128297619Y-58547619D01*
X128345238Y-58500000D01*
X128440476Y-58452381D01*
X128630953Y-58452381D01*
X128726191Y-58500000D01*
X128773810Y-58547619D01*
X128821429Y-58642857D01*
X128821429Y-58690476D01*
X128773810Y-58785714D01*
X128726191Y-58833333D01*
X128630953Y-58880952D01*
X128440476Y-58880952D01*
X128345238Y-58928571D01*
X128297619Y-58976190D01*
X128250000Y-59071429D01*
X128250000Y-59261905D01*
X128297619Y-59357143D01*
X128345238Y-59404762D01*
X128440476Y-59452381D01*
X128630953Y-59452381D01*
X128726191Y-59404762D01*
X128773810Y-59357143D01*
X128821429Y-59261905D01*
X128821429Y-59071429D01*
X128773810Y-58976190D01*
X128726191Y-58928571D01*
X128630953Y-58880952D01*
X129726191Y-58452381D02*
X129250000Y-58452381D01*
X129202381Y-58928571D01*
X129250000Y-58880952D01*
X129345238Y-58833333D01*
X129583334Y-58833333D01*
X129678572Y-58880952D01*
X129726191Y-58928571D01*
X129773810Y-59023810D01*
X129773810Y-59261905D01*
X129726191Y-59357143D01*
X129678572Y-59404762D01*
X129583334Y-59452381D01*
X129345238Y-59452381D01*
X129250000Y-59404762D01*
X129202381Y-59357143D01*
X130726191Y-59452381D02*
X130154762Y-59452381D01*
X130440476Y-59452381D02*
X130440476Y-58452381D01*
X130345238Y-58595238D01*
X130250000Y-58690476D01*
X130154762Y-58738095D01*
X131154762Y-59071429D02*
X131916667Y-59071429D01*
X132821429Y-58785714D02*
X132821429Y-59452381D01*
X132583333Y-58404762D02*
X132345238Y-59119048D01*
X132964286Y-59119048D01*
X134057143Y-53152381D02*
X133723809Y-52676190D01*
X133485714Y-53152381D02*
X133485714Y-52152381D01*
X133866667Y-52152381D01*
X133961905Y-52200000D01*
X134009524Y-52247619D01*
X134057143Y-52342857D01*
X134057143Y-52485714D01*
X134009524Y-52580952D01*
X133961905Y-52628571D01*
X133866667Y-52676190D01*
X133485714Y-52676190D01*
X134438095Y-52247619D02*
X134485714Y-52200000D01*
X134580952Y-52152381D01*
X134819048Y-52152381D01*
X134914286Y-52200000D01*
X134961905Y-52247619D01*
X135009524Y-52342857D01*
X135009524Y-52438095D01*
X134961905Y-52580952D01*
X134390476Y-53152381D01*
X135009524Y-53152381D01*
X135914286Y-52152381D02*
X135438095Y-52152381D01*
X135390476Y-52628571D01*
X135438095Y-52580952D01*
X135533333Y-52533333D01*
X135771429Y-52533333D01*
X135866667Y-52580952D01*
X135914286Y-52628571D01*
X135961905Y-52723810D01*
X135961905Y-52961905D01*
X135914286Y-53057143D01*
X135866667Y-53104762D01*
X135771429Y-53152381D01*
X135533333Y-53152381D01*
X135438095Y-53104762D01*
X135390476Y-53057143D01*
X134157143Y-55752381D02*
X133823809Y-55276190D01*
X133585714Y-55752381D02*
X133585714Y-54752381D01*
X133966667Y-54752381D01*
X134061905Y-54800000D01*
X134109524Y-54847619D01*
X134157143Y-54942857D01*
X134157143Y-55085714D01*
X134109524Y-55180952D01*
X134061905Y-55228571D01*
X133966667Y-55276190D01*
X133585714Y-55276190D01*
X134538095Y-54847619D02*
X134585714Y-54800000D01*
X134680952Y-54752381D01*
X134919048Y-54752381D01*
X135014286Y-54800000D01*
X135061905Y-54847619D01*
X135109524Y-54942857D01*
X135109524Y-55038095D01*
X135061905Y-55180952D01*
X134490476Y-55752381D01*
X135109524Y-55752381D01*
X135966667Y-54752381D02*
X135776190Y-54752381D01*
X135680952Y-54800000D01*
X135633333Y-54847619D01*
X135538095Y-54990476D01*
X135490476Y-55180952D01*
X135490476Y-55561905D01*
X135538095Y-55657143D01*
X135585714Y-55704762D01*
X135680952Y-55752381D01*
X135871429Y-55752381D01*
X135966667Y-55704762D01*
X136014286Y-55657143D01*
X136061905Y-55561905D01*
X136061905Y-55323810D01*
X136014286Y-55228571D01*
X135966667Y-55180952D01*
X135871429Y-55133333D01*
X135680952Y-55133333D01*
X135585714Y-55180952D01*
X135538095Y-55228571D01*
X135490476Y-55323810D01*
X134157143Y-58302381D02*
X133823809Y-57826190D01*
X133585714Y-58302381D02*
X133585714Y-57302381D01*
X133966667Y-57302381D01*
X134061905Y-57350000D01*
X134109524Y-57397619D01*
X134157143Y-57492857D01*
X134157143Y-57635714D01*
X134109524Y-57730952D01*
X134061905Y-57778571D01*
X133966667Y-57826190D01*
X133585714Y-57826190D01*
X134538095Y-57397619D02*
X134585714Y-57350000D01*
X134680952Y-57302381D01*
X134919048Y-57302381D01*
X135014286Y-57350000D01*
X135061905Y-57397619D01*
X135109524Y-57492857D01*
X135109524Y-57588095D01*
X135061905Y-57730952D01*
X134490476Y-58302381D01*
X135109524Y-58302381D01*
X135442857Y-57302381D02*
X136109524Y-57302381D01*
X135680952Y-58302381D01*
D13*
X105952847Y-65526190D02*
X105786180Y-65288095D01*
X105667133Y-65526190D02*
X105667133Y-65026190D01*
X105857609Y-65026190D01*
X105905228Y-65050000D01*
X105929037Y-65073810D01*
X105952847Y-65121429D01*
X105952847Y-65192857D01*
X105929037Y-65240476D01*
X105905228Y-65264286D01*
X105857609Y-65288095D01*
X105667133Y-65288095D01*
X106167133Y-65526190D02*
X106167133Y-65026190D01*
X106357609Y-65026190D01*
X106405228Y-65050000D01*
X106429037Y-65073810D01*
X106452847Y-65121429D01*
X106452847Y-65192857D01*
X106429037Y-65240476D01*
X106405228Y-65264286D01*
X106357609Y-65288095D01*
X106167133Y-65288095D01*
X106929037Y-65526190D02*
X106643323Y-65526190D01*
X106786180Y-65526190D02*
X106786180Y-65026190D01*
X106738561Y-65097619D01*
X106690942Y-65145238D01*
X106643323Y-65169048D01*
X105829847Y-62974570D02*
X105853657Y-62950760D01*
X105901276Y-62926950D01*
X106020323Y-62926950D01*
X106067942Y-62950760D01*
X106091752Y-62974570D01*
X106115561Y-63022189D01*
X106115561Y-63069808D01*
X106091752Y-63141236D01*
X105806038Y-63426950D01*
X106115561Y-63426950D01*
X106425085Y-62926950D02*
X106472704Y-62926950D01*
X106520323Y-62950760D01*
X106544132Y-62974570D01*
X106567942Y-63022189D01*
X106591751Y-63117427D01*
X106591751Y-63236474D01*
X106567942Y-63331712D01*
X106544132Y-63379331D01*
X106520323Y-63403141D01*
X106472704Y-63426950D01*
X106425085Y-63426950D01*
X106377466Y-63403141D01*
X106353656Y-63379331D01*
X106329847Y-63331712D01*
X106306037Y-63236474D01*
X106306037Y-63117427D01*
X106329847Y-63022189D01*
X106353656Y-62974570D01*
X106377466Y-62950760D01*
X106425085Y-62926950D01*
X106806037Y-63426950D02*
X106806037Y-62926950D01*
X106853656Y-63236474D02*
X106996513Y-63426950D01*
X106996513Y-63093617D02*
X106806037Y-63284093D01*
X110166667Y-65526190D02*
X110000000Y-65288095D01*
X109880953Y-65526190D02*
X109880953Y-65026190D01*
X110071429Y-65026190D01*
X110119048Y-65050000D01*
X110142857Y-65073810D01*
X110166667Y-65121429D01*
X110166667Y-65192857D01*
X110142857Y-65240476D01*
X110119048Y-65264286D01*
X110071429Y-65288095D01*
X109880953Y-65288095D01*
X110380953Y-65526190D02*
X110380953Y-65026190D01*
X110571429Y-65026190D01*
X110619048Y-65050000D01*
X110642857Y-65073810D01*
X110666667Y-65121429D01*
X110666667Y-65192857D01*
X110642857Y-65240476D01*
X110619048Y-65264286D01*
X110571429Y-65288095D01*
X110380953Y-65288095D01*
X110857143Y-65073810D02*
X110880953Y-65050000D01*
X110928572Y-65026190D01*
X111047619Y-65026190D01*
X111095238Y-65050000D01*
X111119048Y-65073810D01*
X111142857Y-65121429D01*
X111142857Y-65169048D01*
X111119048Y-65240476D01*
X110833334Y-65526190D01*
X111142857Y-65526190D01*
X109979687Y-62974570D02*
X110003497Y-62950760D01*
X110051116Y-62926950D01*
X110170163Y-62926950D01*
X110217782Y-62950760D01*
X110241592Y-62974570D01*
X110265401Y-63022189D01*
X110265401Y-63069808D01*
X110241592Y-63141236D01*
X109955878Y-63426950D01*
X110265401Y-63426950D01*
X110574925Y-62926950D02*
X110622544Y-62926950D01*
X110670163Y-62950760D01*
X110693972Y-62974570D01*
X110717782Y-63022189D01*
X110741591Y-63117427D01*
X110741591Y-63236474D01*
X110717782Y-63331712D01*
X110693972Y-63379331D01*
X110670163Y-63403141D01*
X110622544Y-63426950D01*
X110574925Y-63426950D01*
X110527306Y-63403141D01*
X110503496Y-63379331D01*
X110479687Y-63331712D01*
X110455877Y-63236474D01*
X110455877Y-63117427D01*
X110479687Y-63022189D01*
X110503496Y-62974570D01*
X110527306Y-62950760D01*
X110574925Y-62926950D01*
X110955877Y-63426950D02*
X110955877Y-62926950D01*
X111003496Y-63236474D02*
X111146353Y-63426950D01*
X111146353Y-63093617D02*
X110955877Y-63284093D01*
X114317567Y-65526190D02*
X114150900Y-65288095D01*
X114031853Y-65526190D02*
X114031853Y-65026190D01*
X114222329Y-65026190D01*
X114269948Y-65050000D01*
X114293757Y-65073810D01*
X114317567Y-65121429D01*
X114317567Y-65192857D01*
X114293757Y-65240476D01*
X114269948Y-65264286D01*
X114222329Y-65288095D01*
X114031853Y-65288095D01*
X114531853Y-65526190D02*
X114531853Y-65026190D01*
X114722329Y-65026190D01*
X114769948Y-65050000D01*
X114793757Y-65073810D01*
X114817567Y-65121429D01*
X114817567Y-65192857D01*
X114793757Y-65240476D01*
X114769948Y-65264286D01*
X114722329Y-65288095D01*
X114531853Y-65288095D01*
X114984234Y-65026190D02*
X115293757Y-65026190D01*
X115127091Y-65216667D01*
X115198519Y-65216667D01*
X115246138Y-65240476D01*
X115269948Y-65264286D01*
X115293757Y-65311905D01*
X115293757Y-65430952D01*
X115269948Y-65478571D01*
X115246138Y-65502381D01*
X115198519Y-65526190D01*
X115055662Y-65526190D01*
X115008043Y-65502381D01*
X114984234Y-65478571D01*
X114129847Y-62974570D02*
X114153657Y-62950760D01*
X114201276Y-62926950D01*
X114320323Y-62926950D01*
X114367942Y-62950760D01*
X114391752Y-62974570D01*
X114415561Y-63022189D01*
X114415561Y-63069808D01*
X114391752Y-63141236D01*
X114106038Y-63426950D01*
X114415561Y-63426950D01*
X114725085Y-62926950D02*
X114772704Y-62926950D01*
X114820323Y-62950760D01*
X114844132Y-62974570D01*
X114867942Y-63022189D01*
X114891751Y-63117427D01*
X114891751Y-63236474D01*
X114867942Y-63331712D01*
X114844132Y-63379331D01*
X114820323Y-63403141D01*
X114772704Y-63426950D01*
X114725085Y-63426950D01*
X114677466Y-63403141D01*
X114653656Y-63379331D01*
X114629847Y-63331712D01*
X114606037Y-63236474D01*
X114606037Y-63117427D01*
X114629847Y-63022189D01*
X114653656Y-62974570D01*
X114677466Y-62950760D01*
X114725085Y-62926950D01*
X115106037Y-63426950D02*
X115106037Y-62926950D01*
X115153656Y-63236474D02*
X115296513Y-63426950D01*
X115296513Y-63093617D02*
X115106037Y-63284093D01*
X118465927Y-65576190D02*
X118299260Y-65338095D01*
X118180213Y-65576190D02*
X118180213Y-65076190D01*
X118370689Y-65076190D01*
X118418308Y-65100000D01*
X118442117Y-65123810D01*
X118465927Y-65171429D01*
X118465927Y-65242857D01*
X118442117Y-65290476D01*
X118418308Y-65314286D01*
X118370689Y-65338095D01*
X118180213Y-65338095D01*
X118680213Y-65576190D02*
X118680213Y-65076190D01*
X118870689Y-65076190D01*
X118918308Y-65100000D01*
X118942117Y-65123810D01*
X118965927Y-65171429D01*
X118965927Y-65242857D01*
X118942117Y-65290476D01*
X118918308Y-65314286D01*
X118870689Y-65338095D01*
X118680213Y-65338095D01*
X119394498Y-65242857D02*
X119394498Y-65576190D01*
X119275451Y-65052381D02*
X119156403Y-65409524D01*
X119465927Y-65409524D01*
X118278947Y-62973050D02*
X118302757Y-62949240D01*
X118350376Y-62925430D01*
X118469423Y-62925430D01*
X118517042Y-62949240D01*
X118540852Y-62973050D01*
X118564661Y-63020669D01*
X118564661Y-63068288D01*
X118540852Y-63139716D01*
X118255138Y-63425430D01*
X118564661Y-63425430D01*
X118874185Y-62925430D02*
X118921804Y-62925430D01*
X118969423Y-62949240D01*
X118993232Y-62973050D01*
X119017042Y-63020669D01*
X119040851Y-63115907D01*
X119040851Y-63234954D01*
X119017042Y-63330192D01*
X118993232Y-63377811D01*
X118969423Y-63401621D01*
X118921804Y-63425430D01*
X118874185Y-63425430D01*
X118826566Y-63401621D01*
X118802756Y-63377811D01*
X118778947Y-63330192D01*
X118755137Y-63234954D01*
X118755137Y-63115907D01*
X118778947Y-63020669D01*
X118802756Y-62973050D01*
X118826566Y-62949240D01*
X118874185Y-62925430D01*
X119255137Y-63425430D02*
X119255137Y-62925430D01*
X119302756Y-63234954D02*
X119445613Y-63425430D01*
X119445613Y-63092097D02*
X119255137Y-63282573D01*
X106066667Y-57926190D02*
X105900000Y-57688095D01*
X105780953Y-57926190D02*
X105780953Y-57426190D01*
X105971429Y-57426190D01*
X106019048Y-57450000D01*
X106042857Y-57473810D01*
X106066667Y-57521429D01*
X106066667Y-57592857D01*
X106042857Y-57640476D01*
X106019048Y-57664286D01*
X105971429Y-57688095D01*
X105780953Y-57688095D01*
X106280953Y-57926190D02*
X106280953Y-57426190D01*
X106471429Y-57426190D01*
X106519048Y-57450000D01*
X106542857Y-57473810D01*
X106566667Y-57521429D01*
X106566667Y-57592857D01*
X106542857Y-57640476D01*
X106519048Y-57664286D01*
X106471429Y-57688095D01*
X106280953Y-57688095D01*
X107019048Y-57426190D02*
X106780953Y-57426190D01*
X106757143Y-57664286D01*
X106780953Y-57640476D01*
X106828572Y-57616667D01*
X106947619Y-57616667D01*
X106995238Y-57640476D01*
X107019048Y-57664286D01*
X107042857Y-57711905D01*
X107042857Y-57830952D01*
X107019048Y-57878571D01*
X106995238Y-57902381D01*
X106947619Y-57926190D01*
X106828572Y-57926190D01*
X106780953Y-57902381D01*
X106757143Y-57878571D01*
X106115561Y-59826950D02*
X105829847Y-59826950D01*
X105972704Y-59826950D02*
X105972704Y-59326950D01*
X105925085Y-59398379D01*
X105877466Y-59445998D01*
X105829847Y-59469808D01*
X106425085Y-59326950D02*
X106472704Y-59326950D01*
X106520323Y-59350760D01*
X106544132Y-59374570D01*
X106567942Y-59422189D01*
X106591751Y-59517427D01*
X106591751Y-59636474D01*
X106567942Y-59731712D01*
X106544132Y-59779331D01*
X106520323Y-59803141D01*
X106472704Y-59826950D01*
X106425085Y-59826950D01*
X106377466Y-59803141D01*
X106353656Y-59779331D01*
X106329847Y-59731712D01*
X106306037Y-59636474D01*
X106306037Y-59517427D01*
X106329847Y-59422189D01*
X106353656Y-59374570D01*
X106377466Y-59350760D01*
X106425085Y-59326950D01*
X106806037Y-59826950D02*
X106806037Y-59326950D01*
X106853656Y-59636474D02*
X106996513Y-59826950D01*
X106996513Y-59493617D02*
X106806037Y-59684093D01*
X110166667Y-57826190D02*
X110000000Y-57588095D01*
X109880953Y-57826190D02*
X109880953Y-57326190D01*
X110071429Y-57326190D01*
X110119048Y-57350000D01*
X110142857Y-57373810D01*
X110166667Y-57421429D01*
X110166667Y-57492857D01*
X110142857Y-57540476D01*
X110119048Y-57564286D01*
X110071429Y-57588095D01*
X109880953Y-57588095D01*
X110380953Y-57826190D02*
X110380953Y-57326190D01*
X110571429Y-57326190D01*
X110619048Y-57350000D01*
X110642857Y-57373810D01*
X110666667Y-57421429D01*
X110666667Y-57492857D01*
X110642857Y-57540476D01*
X110619048Y-57564286D01*
X110571429Y-57588095D01*
X110380953Y-57588095D01*
X111095238Y-57326190D02*
X111000000Y-57326190D01*
X110952381Y-57350000D01*
X110928572Y-57373810D01*
X110880953Y-57445238D01*
X110857143Y-57540476D01*
X110857143Y-57730952D01*
X110880953Y-57778571D01*
X110904762Y-57802381D01*
X110952381Y-57826190D01*
X111047619Y-57826190D01*
X111095238Y-57802381D01*
X111119048Y-57778571D01*
X111142857Y-57730952D01*
X111142857Y-57611905D01*
X111119048Y-57564286D01*
X111095238Y-57540476D01*
X111047619Y-57516667D01*
X110952381Y-57516667D01*
X110904762Y-57540476D01*
X110880953Y-57564286D01*
X110857143Y-57611905D01*
X110265401Y-59825430D02*
X109979687Y-59825430D01*
X110122544Y-59825430D02*
X110122544Y-59325430D01*
X110074925Y-59396859D01*
X110027306Y-59444478D01*
X109979687Y-59468288D01*
X110574925Y-59325430D02*
X110622544Y-59325430D01*
X110670163Y-59349240D01*
X110693972Y-59373050D01*
X110717782Y-59420669D01*
X110741591Y-59515907D01*
X110741591Y-59634954D01*
X110717782Y-59730192D01*
X110693972Y-59777811D01*
X110670163Y-59801621D01*
X110622544Y-59825430D01*
X110574925Y-59825430D01*
X110527306Y-59801621D01*
X110503496Y-59777811D01*
X110479687Y-59730192D01*
X110455877Y-59634954D01*
X110455877Y-59515907D01*
X110479687Y-59420669D01*
X110503496Y-59373050D01*
X110527306Y-59349240D01*
X110574925Y-59325430D01*
X110955877Y-59825430D02*
X110955877Y-59325430D01*
X111003496Y-59634954D02*
X111146353Y-59825430D01*
X111146353Y-59492097D02*
X110955877Y-59682573D01*
X114416827Y-57827710D02*
X114250160Y-57589615D01*
X114131113Y-57827710D02*
X114131113Y-57327710D01*
X114321589Y-57327710D01*
X114369208Y-57351520D01*
X114393017Y-57375330D01*
X114416827Y-57422949D01*
X114416827Y-57494377D01*
X114393017Y-57541996D01*
X114369208Y-57565806D01*
X114321589Y-57589615D01*
X114131113Y-57589615D01*
X114631113Y-57827710D02*
X114631113Y-57327710D01*
X114821589Y-57327710D01*
X114869208Y-57351520D01*
X114893017Y-57375330D01*
X114916827Y-57422949D01*
X114916827Y-57494377D01*
X114893017Y-57541996D01*
X114869208Y-57565806D01*
X114821589Y-57589615D01*
X114631113Y-57589615D01*
X115083494Y-57327710D02*
X115416827Y-57327710D01*
X115202541Y-57827710D01*
X114415561Y-59826950D02*
X114129847Y-59826950D01*
X114272704Y-59826950D02*
X114272704Y-59326950D01*
X114225085Y-59398379D01*
X114177466Y-59445998D01*
X114129847Y-59469808D01*
X114725085Y-59326950D02*
X114772704Y-59326950D01*
X114820323Y-59350760D01*
X114844132Y-59374570D01*
X114867942Y-59422189D01*
X114891751Y-59517427D01*
X114891751Y-59636474D01*
X114867942Y-59731712D01*
X114844132Y-59779331D01*
X114820323Y-59803141D01*
X114772704Y-59826950D01*
X114725085Y-59826950D01*
X114677466Y-59803141D01*
X114653656Y-59779331D01*
X114629847Y-59731712D01*
X114606037Y-59636474D01*
X114606037Y-59517427D01*
X114629847Y-59422189D01*
X114653656Y-59374570D01*
X114677466Y-59350760D01*
X114725085Y-59326950D01*
X115106037Y-59826950D02*
X115106037Y-59326950D01*
X115153656Y-59636474D02*
X115296513Y-59826950D01*
X115296513Y-59493617D02*
X115106037Y-59684093D01*
D11*
X111752381Y-55392857D02*
X111276190Y-55726191D01*
X111752381Y-55964286D02*
X110752381Y-55964286D01*
X110752381Y-55583333D01*
X110800000Y-55488095D01*
X110847619Y-55440476D01*
X110942857Y-55392857D01*
X111085714Y-55392857D01*
X111180952Y-55440476D01*
X111228571Y-55488095D01*
X111276190Y-55583333D01*
X111276190Y-55964286D01*
X111752381Y-54440476D02*
X111752381Y-55011905D01*
X111752381Y-54726191D02*
X110752381Y-54726191D01*
X110895238Y-54821429D01*
X110990476Y-54916667D01*
X111038095Y-55011905D01*
X111752381Y-53964286D02*
X111752381Y-53773810D01*
X111704762Y-53678571D01*
X111657143Y-53630952D01*
X111514286Y-53535714D01*
X111323810Y-53488095D01*
X110942857Y-53488095D01*
X110847619Y-53535714D01*
X110800000Y-53583333D01*
X110752381Y-53678571D01*
X110752381Y-53869048D01*
X110800000Y-53964286D01*
X110847619Y-54011905D01*
X110942857Y-54059524D01*
X111180952Y-54059524D01*
X111276190Y-54011905D01*
X111323810Y-53964286D01*
X111371429Y-53869048D01*
X111371429Y-53678571D01*
X111323810Y-53583333D01*
X111276190Y-53535714D01*
X111180952Y-53488095D01*
X122652381Y-55392857D02*
X122176190Y-55726191D01*
X122652381Y-55964286D02*
X121652381Y-55964286D01*
X121652381Y-55583333D01*
X121700000Y-55488095D01*
X121747619Y-55440476D01*
X121842857Y-55392857D01*
X121985714Y-55392857D01*
X122080952Y-55440476D01*
X122128571Y-55488095D01*
X122176190Y-55583333D01*
X122176190Y-55964286D01*
X121747619Y-55011905D02*
X121700000Y-54964286D01*
X121652381Y-54869048D01*
X121652381Y-54630952D01*
X121700000Y-54535714D01*
X121747619Y-54488095D01*
X121842857Y-54440476D01*
X121938095Y-54440476D01*
X122080952Y-54488095D01*
X122652381Y-55059524D01*
X122652381Y-54440476D01*
X121652381Y-53821429D02*
X121652381Y-53726190D01*
X121700000Y-53630952D01*
X121747619Y-53583333D01*
X121842857Y-53535714D01*
X122033333Y-53488095D01*
X122271429Y-53488095D01*
X122461905Y-53535714D01*
X122557143Y-53583333D01*
X122604762Y-53630952D01*
X122652381Y-53726190D01*
X122652381Y-53821429D01*
X122604762Y-53916667D01*
X122557143Y-53964286D01*
X122461905Y-54011905D01*
X122271429Y-54059524D01*
X122033333Y-54059524D01*
X121842857Y-54011905D01*
X121747619Y-53964286D01*
X121700000Y-53916667D01*
X121652381Y-53821429D01*
X93457143Y-53552381D02*
X93123809Y-53076190D01*
X92885714Y-53552381D02*
X92885714Y-52552381D01*
X93266667Y-52552381D01*
X93361905Y-52600000D01*
X93409524Y-52647619D01*
X93457143Y-52742857D01*
X93457143Y-52885714D01*
X93409524Y-52980952D01*
X93361905Y-53028571D01*
X93266667Y-53076190D01*
X92885714Y-53076190D01*
X93838095Y-52647619D02*
X93885714Y-52600000D01*
X93980952Y-52552381D01*
X94219048Y-52552381D01*
X94314286Y-52600000D01*
X94361905Y-52647619D01*
X94409524Y-52742857D01*
X94409524Y-52838095D01*
X94361905Y-52980952D01*
X93790476Y-53552381D01*
X94409524Y-53552381D01*
X95361905Y-53552381D02*
X94790476Y-53552381D01*
X95076190Y-53552381D02*
X95076190Y-52552381D01*
X94980952Y-52695238D01*
X94885714Y-52790476D01*
X94790476Y-52838095D01*
X93457143Y-57852381D02*
X93123809Y-57376190D01*
X92885714Y-57852381D02*
X92885714Y-56852381D01*
X93266667Y-56852381D01*
X93361905Y-56900000D01*
X93409524Y-56947619D01*
X93457143Y-57042857D01*
X93457143Y-57185714D01*
X93409524Y-57280952D01*
X93361905Y-57328571D01*
X93266667Y-57376190D01*
X92885714Y-57376190D01*
X93838095Y-56947619D02*
X93885714Y-56900000D01*
X93980952Y-56852381D01*
X94219048Y-56852381D01*
X94314286Y-56900000D01*
X94361905Y-56947619D01*
X94409524Y-57042857D01*
X94409524Y-57138095D01*
X94361905Y-57280952D01*
X93790476Y-57852381D01*
X94409524Y-57852381D01*
X94790476Y-56947619D02*
X94838095Y-56900000D01*
X94933333Y-56852381D01*
X95171429Y-56852381D01*
X95266667Y-56900000D01*
X95314286Y-56947619D01*
X95361905Y-57042857D01*
X95361905Y-57138095D01*
X95314286Y-57280952D01*
X94742857Y-57852381D01*
X95361905Y-57852381D01*
X117552381Y-55392857D02*
X117076190Y-55726191D01*
X117552381Y-55964286D02*
X116552381Y-55964286D01*
X116552381Y-55583333D01*
X116600000Y-55488095D01*
X116647619Y-55440476D01*
X116742857Y-55392857D01*
X116885714Y-55392857D01*
X116980952Y-55440476D01*
X117028571Y-55488095D01*
X117076190Y-55583333D01*
X117076190Y-55964286D01*
X116647619Y-55011905D02*
X116600000Y-54964286D01*
X116552381Y-54869048D01*
X116552381Y-54630952D01*
X116600000Y-54535714D01*
X116647619Y-54488095D01*
X116742857Y-54440476D01*
X116838095Y-54440476D01*
X116980952Y-54488095D01*
X117552381Y-55059524D01*
X117552381Y-54440476D01*
X116552381Y-54107143D02*
X116552381Y-53488095D01*
X116933333Y-53821429D01*
X116933333Y-53678571D01*
X116980952Y-53583333D01*
X117028571Y-53535714D01*
X117123810Y-53488095D01*
X117361905Y-53488095D01*
X117457143Y-53535714D01*
X117504762Y-53583333D01*
X117552381Y-53678571D01*
X117552381Y-53964286D01*
X117504762Y-54059524D01*
X117457143Y-54107143D01*
X93457143Y-55752381D02*
X93123809Y-55276190D01*
X92885714Y-55752381D02*
X92885714Y-54752381D01*
X93266667Y-54752381D01*
X93361905Y-54800000D01*
X93409524Y-54847619D01*
X93457143Y-54942857D01*
X93457143Y-55085714D01*
X93409524Y-55180952D01*
X93361905Y-55228571D01*
X93266667Y-55276190D01*
X92885714Y-55276190D01*
X93838095Y-54847619D02*
X93885714Y-54800000D01*
X93980952Y-54752381D01*
X94219048Y-54752381D01*
X94314286Y-54800000D01*
X94361905Y-54847619D01*
X94409524Y-54942857D01*
X94409524Y-55038095D01*
X94361905Y-55180952D01*
X93790476Y-55752381D01*
X94409524Y-55752381D01*
X95266667Y-55085714D02*
X95266667Y-55752381D01*
X95028571Y-54704762D02*
X94790476Y-55419048D01*
X95409524Y-55419048D01*
X95607143Y-67352381D02*
X95273809Y-66876190D01*
X95035714Y-67352381D02*
X95035714Y-66352381D01*
X95416667Y-66352381D01*
X95511905Y-66400000D01*
X95559524Y-66447619D01*
X95607143Y-66542857D01*
X95607143Y-66685714D01*
X95559524Y-66780952D01*
X95511905Y-66828571D01*
X95416667Y-66876190D01*
X95035714Y-66876190D01*
X96559524Y-67352381D02*
X95988095Y-67352381D01*
X96273809Y-67352381D02*
X96273809Y-66352381D01*
X96178571Y-66495238D01*
X96083333Y-66590476D01*
X95988095Y-66638095D01*
X97416667Y-66352381D02*
X97226190Y-66352381D01*
X97130952Y-66400000D01*
X97083333Y-66447619D01*
X96988095Y-66590476D01*
X96940476Y-66780952D01*
X96940476Y-67161905D01*
X96988095Y-67257143D01*
X97035714Y-67304762D01*
X97130952Y-67352381D01*
X97321429Y-67352381D01*
X97416667Y-67304762D01*
X97464286Y-67257143D01*
X97511905Y-67161905D01*
X97511905Y-66923810D01*
X97464286Y-66828571D01*
X97416667Y-66780952D01*
X97321429Y-66733333D01*
X97130952Y-66733333D01*
X97035714Y-66780952D01*
X96988095Y-66828571D01*
X96940476Y-66923810D01*
X95657143Y-65802381D02*
X95323809Y-65326190D01*
X95085714Y-65802381D02*
X95085714Y-64802381D01*
X95466667Y-64802381D01*
X95561905Y-64850000D01*
X95609524Y-64897619D01*
X95657143Y-64992857D01*
X95657143Y-65135714D01*
X95609524Y-65230952D01*
X95561905Y-65278571D01*
X95466667Y-65326190D01*
X95085714Y-65326190D01*
X96609524Y-65802381D02*
X96038095Y-65802381D01*
X96323809Y-65802381D02*
X96323809Y-64802381D01*
X96228571Y-64945238D01*
X96133333Y-65040476D01*
X96038095Y-65088095D01*
X96942857Y-64802381D02*
X97609524Y-64802381D01*
X97180952Y-65802381D01*
X93407143Y-59952381D02*
X93073809Y-59476190D01*
X92835714Y-59952381D02*
X92835714Y-58952381D01*
X93216667Y-58952381D01*
X93311905Y-59000000D01*
X93359524Y-59047619D01*
X93407143Y-59142857D01*
X93407143Y-59285714D01*
X93359524Y-59380952D01*
X93311905Y-59428571D01*
X93216667Y-59476190D01*
X92835714Y-59476190D01*
X94359524Y-59952381D02*
X93788095Y-59952381D01*
X94073809Y-59952381D02*
X94073809Y-58952381D01*
X93978571Y-59095238D01*
X93883333Y-59190476D01*
X93788095Y-59238095D01*
X94930952Y-59380952D02*
X94835714Y-59333333D01*
X94788095Y-59285714D01*
X94740476Y-59190476D01*
X94740476Y-59142857D01*
X94788095Y-59047619D01*
X94835714Y-59000000D01*
X94930952Y-58952381D01*
X95121429Y-58952381D01*
X95216667Y-59000000D01*
X95264286Y-59047619D01*
X95311905Y-59142857D01*
X95311905Y-59190476D01*
X95264286Y-59285714D01*
X95216667Y-59333333D01*
X95121429Y-59380952D01*
X94930952Y-59380952D01*
X94835714Y-59428571D01*
X94788095Y-59476190D01*
X94740476Y-59571429D01*
X94740476Y-59761905D01*
X94788095Y-59857143D01*
X94835714Y-59904762D01*
X94930952Y-59952381D01*
X95121429Y-59952381D01*
X95216667Y-59904762D01*
X95264286Y-59857143D01*
X95311905Y-59761905D01*
X95311905Y-59571429D01*
X95264286Y-59476190D01*
X95216667Y-59428571D01*
X95121429Y-59380952D01*
X86891905Y-130642381D02*
X86891905Y-129642381D01*
X87272858Y-129642381D01*
X87368096Y-129690000D01*
X87415715Y-129737619D01*
X87463334Y-129832857D01*
X87463334Y-129975714D01*
X87415715Y-130070952D01*
X87368096Y-130118571D01*
X87272858Y-130166190D01*
X86891905Y-130166190D01*
X87796667Y-129642381D02*
X88415715Y-129642381D01*
X88082381Y-130023333D01*
X88225239Y-130023333D01*
X88320477Y-130070952D01*
X88368096Y-130118571D01*
X88415715Y-130213810D01*
X88415715Y-130451905D01*
X88368096Y-130547143D01*
X88320477Y-130594762D01*
X88225239Y-130642381D01*
X87939524Y-130642381D01*
X87844286Y-130594762D01*
X87796667Y-130547143D01*
X89391667Y-122041667D02*
X89867858Y-122041667D01*
X89296429Y-122327381D02*
X89629762Y-121327381D01*
X89963096Y-122327381D01*
X90725001Y-121660714D02*
X90725001Y-122327381D01*
X90296429Y-121660714D02*
X90296429Y-122184524D01*
X90344048Y-122279762D01*
X90439286Y-122327381D01*
X90582144Y-122327381D01*
X90677382Y-122279762D01*
X90725001Y-122232143D01*
X91629763Y-122327381D02*
X91629763Y-121327381D01*
X91629763Y-122279762D02*
X91534525Y-122327381D01*
X91344048Y-122327381D01*
X91248810Y-122279762D01*
X91201191Y-122232143D01*
X91153572Y-122136905D01*
X91153572Y-121851190D01*
X91201191Y-121755952D01*
X91248810Y-121708333D01*
X91344048Y-121660714D01*
X91534525Y-121660714D01*
X91629763Y-121708333D01*
X92105953Y-122327381D02*
X92105953Y-121660714D01*
X92105953Y-121327381D02*
X92058334Y-121375000D01*
X92105953Y-121422619D01*
X92153572Y-121375000D01*
X92105953Y-121327381D01*
X92105953Y-121422619D01*
X92725000Y-122327381D02*
X92629762Y-122279762D01*
X92582143Y-122232143D01*
X92534524Y-122136905D01*
X92534524Y-121851190D01*
X92582143Y-121755952D01*
X92629762Y-121708333D01*
X92725000Y-121660714D01*
X92867858Y-121660714D01*
X92963096Y-121708333D01*
X93010715Y-121755952D01*
X93058334Y-121851190D01*
X93058334Y-122136905D01*
X93010715Y-122232143D01*
X92963096Y-122279762D01*
X92867858Y-122327381D01*
X92725000Y-122327381D01*
X86991905Y-127762381D02*
X86991905Y-126762381D01*
X87372858Y-126762381D01*
X87468096Y-126810000D01*
X87515715Y-126857619D01*
X87563334Y-126952857D01*
X87563334Y-127095714D01*
X87515715Y-127190952D01*
X87468096Y-127238571D01*
X87372858Y-127286190D01*
X86991905Y-127286190D01*
X88468096Y-126762381D02*
X87991905Y-126762381D01*
X87944286Y-127238571D01*
X87991905Y-127190952D01*
X88087143Y-127143333D01*
X88325239Y-127143333D01*
X88420477Y-127190952D01*
X88468096Y-127238571D01*
X88515715Y-127333810D01*
X88515715Y-127571905D01*
X88468096Y-127667143D01*
X88420477Y-127714762D01*
X88325239Y-127762381D01*
X88087143Y-127762381D01*
X87991905Y-127714762D01*
X87944286Y-127667143D01*
X89473809Y-137402381D02*
X89473809Y-136402381D01*
X89854762Y-136402381D01*
X89950000Y-136450000D01*
X89997619Y-136497619D01*
X90045238Y-136592857D01*
X90045238Y-136735714D01*
X89997619Y-136830952D01*
X89950000Y-136878571D01*
X89854762Y-136926190D01*
X89473809Y-136926190D01*
X90616666Y-137402381D02*
X90521428Y-137354762D01*
X90473809Y-137307143D01*
X90426190Y-137211905D01*
X90426190Y-136926190D01*
X90473809Y-136830952D01*
X90521428Y-136783333D01*
X90616666Y-136735714D01*
X90759524Y-136735714D01*
X90854762Y-136783333D01*
X90902381Y-136830952D01*
X90950000Y-136926190D01*
X90950000Y-137211905D01*
X90902381Y-137307143D01*
X90854762Y-137354762D01*
X90759524Y-137402381D01*
X90616666Y-137402381D01*
X91283333Y-136735714D02*
X91473809Y-137402381D01*
X91664286Y-136926190D01*
X91854762Y-137402381D01*
X92045238Y-136735714D01*
X92807143Y-137354762D02*
X92711905Y-137402381D01*
X92521428Y-137402381D01*
X92426190Y-137354762D01*
X92378571Y-137259524D01*
X92378571Y-136878571D01*
X92426190Y-136783333D01*
X92521428Y-136735714D01*
X92711905Y-136735714D01*
X92807143Y-136783333D01*
X92854762Y-136878571D01*
X92854762Y-136973810D01*
X92378571Y-137069048D01*
X93283333Y-137402381D02*
X93283333Y-136735714D01*
X93283333Y-136926190D02*
X93330952Y-136830952D01*
X93378571Y-136783333D01*
X93473809Y-136735714D01*
X93569048Y-136735714D01*
X86791905Y-107732381D02*
X86791905Y-106732381D01*
X87172858Y-106732381D01*
X87268096Y-106780000D01*
X87315715Y-106827619D01*
X87363334Y-106922857D01*
X87363334Y-107065714D01*
X87315715Y-107160952D01*
X87268096Y-107208571D01*
X87172858Y-107256190D01*
X86791905Y-107256190D01*
X88220477Y-106732381D02*
X88030000Y-106732381D01*
X87934762Y-106780000D01*
X87887143Y-106827619D01*
X87791905Y-106970476D01*
X87744286Y-107160952D01*
X87744286Y-107541905D01*
X87791905Y-107637143D01*
X87839524Y-107684762D01*
X87934762Y-107732381D01*
X88125239Y-107732381D01*
X88220477Y-107684762D01*
X88268096Y-107637143D01*
X88315715Y-107541905D01*
X88315715Y-107303810D01*
X88268096Y-107208571D01*
X88220477Y-107160952D01*
X88125239Y-107113333D01*
X87934762Y-107113333D01*
X87839524Y-107160952D01*
X87791905Y-107208571D01*
X87744286Y-107303810D01*
X89529761Y-89227381D02*
X89529761Y-88227381D01*
X89910714Y-88227381D01*
X90005952Y-88275000D01*
X90053571Y-88322619D01*
X90101190Y-88417857D01*
X90101190Y-88560714D01*
X90053571Y-88655952D01*
X90005952Y-88703571D01*
X89910714Y-88751190D01*
X89529761Y-88751190D01*
X90910714Y-89179762D02*
X90815476Y-89227381D01*
X90624999Y-89227381D01*
X90529761Y-89179762D01*
X90482142Y-89084524D01*
X90482142Y-88703571D01*
X90529761Y-88608333D01*
X90624999Y-88560714D01*
X90815476Y-88560714D01*
X90910714Y-88608333D01*
X90958333Y-88703571D01*
X90958333Y-88798810D01*
X90482142Y-88894048D01*
X91386904Y-89227381D02*
X91386904Y-88560714D01*
X91386904Y-88751190D02*
X91434523Y-88655952D01*
X91482142Y-88608333D01*
X91577380Y-88560714D01*
X91672619Y-88560714D01*
X92005952Y-89227381D02*
X92005952Y-88560714D01*
X92005952Y-88227381D02*
X91958333Y-88275000D01*
X92005952Y-88322619D01*
X92053571Y-88275000D01*
X92005952Y-88227381D01*
X92005952Y-88322619D01*
X92482142Y-88560714D02*
X92482142Y-89560714D01*
X92482142Y-88608333D02*
X92577380Y-88560714D01*
X92767857Y-88560714D01*
X92863095Y-88608333D01*
X92910714Y-88655952D01*
X92958333Y-88751190D01*
X92958333Y-89036905D01*
X92910714Y-89132143D01*
X92863095Y-89179762D01*
X92767857Y-89227381D01*
X92577380Y-89227381D01*
X92482142Y-89179762D01*
X93386904Y-89227381D02*
X93386904Y-88227381D01*
X93815476Y-89227381D02*
X93815476Y-88703571D01*
X93767857Y-88608333D01*
X93672619Y-88560714D01*
X93529761Y-88560714D01*
X93434523Y-88608333D01*
X93386904Y-88655952D01*
X94672619Y-89179762D02*
X94577381Y-89227381D01*
X94386904Y-89227381D01*
X94291666Y-89179762D01*
X94244047Y-89084524D01*
X94244047Y-88703571D01*
X94291666Y-88608333D01*
X94386904Y-88560714D01*
X94577381Y-88560714D01*
X94672619Y-88608333D01*
X94720238Y-88703571D01*
X94720238Y-88798810D01*
X94244047Y-88894048D01*
X95148809Y-89227381D02*
X95148809Y-88560714D01*
X95148809Y-88751190D02*
X95196428Y-88655952D01*
X95244047Y-88608333D01*
X95339285Y-88560714D01*
X95434524Y-88560714D01*
X96196429Y-89227381D02*
X96196429Y-88703571D01*
X96148810Y-88608333D01*
X96053572Y-88560714D01*
X95863095Y-88560714D01*
X95767857Y-88608333D01*
X96196429Y-89179762D02*
X96101191Y-89227381D01*
X95863095Y-89227381D01*
X95767857Y-89179762D01*
X95720238Y-89084524D01*
X95720238Y-88989286D01*
X95767857Y-88894048D01*
X95863095Y-88846429D01*
X96101191Y-88846429D01*
X96196429Y-88798810D01*
X96815476Y-89227381D02*
X96720238Y-89179762D01*
X96672619Y-89084524D01*
X96672619Y-88227381D01*
X164602381Y-53488095D02*
X163602381Y-53488095D01*
X163602381Y-53107142D01*
X163650000Y-53011904D01*
X163697619Y-52964285D01*
X163792857Y-52916666D01*
X163935714Y-52916666D01*
X164030952Y-52964285D01*
X164078571Y-53011904D01*
X164126190Y-53107142D01*
X164126190Y-53488095D01*
X163602381Y-52583333D02*
X163602381Y-51916666D01*
X164602381Y-52345238D01*
X165602381Y-54011905D02*
X166602381Y-53678572D01*
X165602381Y-53345238D01*
X165650000Y-52488095D02*
X165602381Y-52583333D01*
X165602381Y-52726190D01*
X165650000Y-52869048D01*
X165745238Y-52964286D01*
X165840476Y-53011905D01*
X166030952Y-53059524D01*
X166173810Y-53059524D01*
X166364286Y-53011905D01*
X166459524Y-52964286D01*
X166554762Y-52869048D01*
X166602381Y-52726190D01*
X166602381Y-52630952D01*
X166554762Y-52488095D01*
X166507143Y-52440476D01*
X166173810Y-52440476D01*
X166173810Y-52630952D01*
X166316667Y-52059524D02*
X166316667Y-51583333D01*
X166602381Y-52154762D02*
X165602381Y-51821429D01*
X166602381Y-51488095D01*
X141752381Y-149066666D02*
X141276190Y-149400000D01*
X141752381Y-149638095D02*
X140752381Y-149638095D01*
X140752381Y-149257142D01*
X140800000Y-149161904D01*
X140847619Y-149114285D01*
X140942857Y-149066666D01*
X141085714Y-149066666D01*
X141180952Y-149114285D01*
X141228571Y-149161904D01*
X141276190Y-149257142D01*
X141276190Y-149638095D01*
X141752381Y-148114285D02*
X141752381Y-148685714D01*
X141752381Y-148400000D02*
X140752381Y-148400000D01*
X140895238Y-148495238D01*
X140990476Y-148590476D01*
X141038095Y-148685714D01*
X162752381Y-148966666D02*
X162276190Y-149300000D01*
X162752381Y-149538095D02*
X161752381Y-149538095D01*
X161752381Y-149157142D01*
X161800000Y-149061904D01*
X161847619Y-149014285D01*
X161942857Y-148966666D01*
X162085714Y-148966666D01*
X162180952Y-149014285D01*
X162228571Y-149061904D01*
X162276190Y-149157142D01*
X162276190Y-149538095D01*
X161847619Y-148585714D02*
X161800000Y-148538095D01*
X161752381Y-148442857D01*
X161752381Y-148204761D01*
X161800000Y-148109523D01*
X161847619Y-148061904D01*
X161942857Y-148014285D01*
X162038095Y-148014285D01*
X162180952Y-148061904D01*
X162752381Y-148633333D01*
X162752381Y-148014285D01*
X164152381Y-148966666D02*
X163676190Y-149300000D01*
X164152381Y-149538095D02*
X163152381Y-149538095D01*
X163152381Y-149157142D01*
X163200000Y-149061904D01*
X163247619Y-149014285D01*
X163342857Y-148966666D01*
X163485714Y-148966666D01*
X163580952Y-149014285D01*
X163628571Y-149061904D01*
X163676190Y-149157142D01*
X163676190Y-149538095D01*
X163152381Y-148633333D02*
X163152381Y-148014285D01*
X163533333Y-148347619D01*
X163533333Y-148204761D01*
X163580952Y-148109523D01*
X163628571Y-148061904D01*
X163723810Y-148014285D01*
X163961905Y-148014285D01*
X164057143Y-148061904D01*
X164104762Y-148109523D01*
X164152381Y-148204761D01*
X164152381Y-148490476D01*
X164104762Y-148585714D01*
X164057143Y-148633333D01*
X165452381Y-148966666D02*
X164976190Y-149300000D01*
X165452381Y-149538095D02*
X164452381Y-149538095D01*
X164452381Y-149157142D01*
X164500000Y-149061904D01*
X164547619Y-149014285D01*
X164642857Y-148966666D01*
X164785714Y-148966666D01*
X164880952Y-149014285D01*
X164928571Y-149061904D01*
X164976190Y-149157142D01*
X164976190Y-149538095D01*
X164785714Y-148109523D02*
X165452381Y-148109523D01*
X164404762Y-148347619D02*
X165119048Y-148585714D01*
X165119048Y-147966666D01*
X179733334Y-143052381D02*
X179400000Y-142576190D01*
X179161905Y-143052381D02*
X179161905Y-142052381D01*
X179542858Y-142052381D01*
X179638096Y-142100000D01*
X179685715Y-142147619D01*
X179733334Y-142242857D01*
X179733334Y-142385714D01*
X179685715Y-142480952D01*
X179638096Y-142528571D01*
X179542858Y-142576190D01*
X179161905Y-142576190D01*
X180638096Y-142052381D02*
X180161905Y-142052381D01*
X180114286Y-142528571D01*
X180161905Y-142480952D01*
X180257143Y-142433333D01*
X180495239Y-142433333D01*
X180590477Y-142480952D01*
X180638096Y-142528571D01*
X180685715Y-142623810D01*
X180685715Y-142861905D01*
X180638096Y-142957143D01*
X180590477Y-143004762D01*
X180495239Y-143052381D01*
X180257143Y-143052381D01*
X180161905Y-143004762D01*
X180114286Y-142957143D01*
X143152381Y-149066666D02*
X142676190Y-149400000D01*
X143152381Y-149638095D02*
X142152381Y-149638095D01*
X142152381Y-149257142D01*
X142200000Y-149161904D01*
X142247619Y-149114285D01*
X142342857Y-149066666D01*
X142485714Y-149066666D01*
X142580952Y-149114285D01*
X142628571Y-149161904D01*
X142676190Y-149257142D01*
X142676190Y-149638095D01*
X142152381Y-148209523D02*
X142152381Y-148400000D01*
X142200000Y-148495238D01*
X142247619Y-148542857D01*
X142390476Y-148638095D01*
X142580952Y-148685714D01*
X142961905Y-148685714D01*
X143057143Y-148638095D01*
X143104762Y-148590476D01*
X143152381Y-148495238D01*
X143152381Y-148304761D01*
X143104762Y-148209523D01*
X143057143Y-148161904D01*
X142961905Y-148114285D01*
X142723810Y-148114285D01*
X142628571Y-148161904D01*
X142580952Y-148209523D01*
X142533333Y-148304761D01*
X142533333Y-148495238D01*
X142580952Y-148590476D01*
X142628571Y-148638095D01*
X142723810Y-148685714D01*
X104333334Y-128452381D02*
X104000000Y-127976190D01*
X103761905Y-128452381D02*
X103761905Y-127452381D01*
X104142858Y-127452381D01*
X104238096Y-127500000D01*
X104285715Y-127547619D01*
X104333334Y-127642857D01*
X104333334Y-127785714D01*
X104285715Y-127880952D01*
X104238096Y-127928571D01*
X104142858Y-127976190D01*
X103761905Y-127976190D01*
X104666667Y-127452381D02*
X105333334Y-127452381D01*
X104904762Y-128452381D01*
X109033334Y-135352381D02*
X108700000Y-134876190D01*
X108461905Y-135352381D02*
X108461905Y-134352381D01*
X108842858Y-134352381D01*
X108938096Y-134400000D01*
X108985715Y-134447619D01*
X109033334Y-134542857D01*
X109033334Y-134685714D01*
X108985715Y-134780952D01*
X108938096Y-134828571D01*
X108842858Y-134876190D01*
X108461905Y-134876190D01*
X109604762Y-134780952D02*
X109509524Y-134733333D01*
X109461905Y-134685714D01*
X109414286Y-134590476D01*
X109414286Y-134542857D01*
X109461905Y-134447619D01*
X109509524Y-134400000D01*
X109604762Y-134352381D01*
X109795239Y-134352381D01*
X109890477Y-134400000D01*
X109938096Y-134447619D01*
X109985715Y-134542857D01*
X109985715Y-134590476D01*
X109938096Y-134685714D01*
X109890477Y-134733333D01*
X109795239Y-134780952D01*
X109604762Y-134780952D01*
X109509524Y-134828571D01*
X109461905Y-134876190D01*
X109414286Y-134971429D01*
X109414286Y-135161905D01*
X109461905Y-135257143D01*
X109509524Y-135304762D01*
X109604762Y-135352381D01*
X109795239Y-135352381D01*
X109890477Y-135304762D01*
X109938096Y-135257143D01*
X109985715Y-135161905D01*
X109985715Y-134971429D01*
X109938096Y-134876190D01*
X109890477Y-134828571D01*
X109795239Y-134780952D01*
X96733334Y-141752381D02*
X96400000Y-141276190D01*
X96161905Y-141752381D02*
X96161905Y-140752381D01*
X96542858Y-140752381D01*
X96638096Y-140800000D01*
X96685715Y-140847619D01*
X96733334Y-140942857D01*
X96733334Y-141085714D01*
X96685715Y-141180952D01*
X96638096Y-141228571D01*
X96542858Y-141276190D01*
X96161905Y-141276190D01*
X97209524Y-141752381D02*
X97400000Y-141752381D01*
X97495239Y-141704762D01*
X97542858Y-141657143D01*
X97638096Y-141514286D01*
X97685715Y-141323810D01*
X97685715Y-140942857D01*
X97638096Y-140847619D01*
X97590477Y-140800000D01*
X97495239Y-140752381D01*
X97304762Y-140752381D01*
X97209524Y-140800000D01*
X97161905Y-140847619D01*
X97114286Y-140942857D01*
X97114286Y-141180952D01*
X97161905Y-141276190D01*
X97209524Y-141323810D01*
X97304762Y-141371429D01*
X97495239Y-141371429D01*
X97590477Y-141323810D01*
X97638096Y-141276190D01*
X97685715Y-141180952D01*
X144552381Y-149042857D02*
X144076190Y-149376191D01*
X144552381Y-149614286D02*
X143552381Y-149614286D01*
X143552381Y-149233333D01*
X143600000Y-149138095D01*
X143647619Y-149090476D01*
X143742857Y-149042857D01*
X143885714Y-149042857D01*
X143980952Y-149090476D01*
X144028571Y-149138095D01*
X144076190Y-149233333D01*
X144076190Y-149614286D01*
X144552381Y-148090476D02*
X144552381Y-148661905D01*
X144552381Y-148376191D02*
X143552381Y-148376191D01*
X143695238Y-148471429D01*
X143790476Y-148566667D01*
X143838095Y-148661905D01*
X143552381Y-147471429D02*
X143552381Y-147376190D01*
X143600000Y-147280952D01*
X143647619Y-147233333D01*
X143742857Y-147185714D01*
X143933333Y-147138095D01*
X144171429Y-147138095D01*
X144361905Y-147185714D01*
X144457143Y-147233333D01*
X144504762Y-147280952D01*
X144552381Y-147376190D01*
X144552381Y-147471429D01*
X144504762Y-147566667D01*
X144457143Y-147614286D01*
X144361905Y-147661905D01*
X144171429Y-147709524D01*
X143933333Y-147709524D01*
X143742857Y-147661905D01*
X143647619Y-147614286D01*
X143600000Y-147566667D01*
X143552381Y-147471429D01*
X140252381Y-149042857D02*
X139776190Y-149376191D01*
X140252381Y-149614286D02*
X139252381Y-149614286D01*
X139252381Y-149233333D01*
X139300000Y-149138095D01*
X139347619Y-149090476D01*
X139442857Y-149042857D01*
X139585714Y-149042857D01*
X139680952Y-149090476D01*
X139728571Y-149138095D01*
X139776190Y-149233333D01*
X139776190Y-149614286D01*
X140252381Y-148090476D02*
X140252381Y-148661905D01*
X140252381Y-148376191D02*
X139252381Y-148376191D01*
X139395238Y-148471429D01*
X139490476Y-148566667D01*
X139538095Y-148661905D01*
X140252381Y-147138095D02*
X140252381Y-147709524D01*
X140252381Y-147423810D02*
X139252381Y-147423810D01*
X139395238Y-147519048D01*
X139490476Y-147614286D01*
X139538095Y-147709524D01*
X86891905Y-51372381D02*
X86891905Y-50372381D01*
X87272858Y-50372381D01*
X87368096Y-50420000D01*
X87415715Y-50467619D01*
X87463334Y-50562857D01*
X87463334Y-50705714D01*
X87415715Y-50800952D01*
X87368096Y-50848571D01*
X87272858Y-50896190D01*
X86891905Y-50896190D01*
X88034762Y-50800952D02*
X87939524Y-50753333D01*
X87891905Y-50705714D01*
X87844286Y-50610476D01*
X87844286Y-50562857D01*
X87891905Y-50467619D01*
X87939524Y-50420000D01*
X88034762Y-50372381D01*
X88225239Y-50372381D01*
X88320477Y-50420000D01*
X88368096Y-50467619D01*
X88415715Y-50562857D01*
X88415715Y-50610476D01*
X88368096Y-50705714D01*
X88320477Y-50753333D01*
X88225239Y-50800952D01*
X88034762Y-50800952D01*
X87939524Y-50848571D01*
X87891905Y-50896190D01*
X87844286Y-50991429D01*
X87844286Y-51181905D01*
X87891905Y-51277143D01*
X87939524Y-51324762D01*
X88034762Y-51372381D01*
X88225239Y-51372381D01*
X88320477Y-51324762D01*
X88368096Y-51277143D01*
X88415715Y-51181905D01*
X88415715Y-50991429D01*
X88368096Y-50896190D01*
X88320477Y-50848571D01*
X88225239Y-50800952D01*
X89732143Y-51257143D02*
X89684524Y-51304762D01*
X89541667Y-51352381D01*
X89446429Y-51352381D01*
X89303571Y-51304762D01*
X89208333Y-51209524D01*
X89160714Y-51114286D01*
X89113095Y-50923810D01*
X89113095Y-50780952D01*
X89160714Y-50590476D01*
X89208333Y-50495238D01*
X89303571Y-50400000D01*
X89446429Y-50352381D01*
X89541667Y-50352381D01*
X89684524Y-50400000D01*
X89732143Y-50447619D01*
X90303571Y-51352381D02*
X90208333Y-51304762D01*
X90160714Y-51209524D01*
X90160714Y-50352381D01*
X90827381Y-51352381D02*
X90732143Y-51304762D01*
X90684524Y-51257143D01*
X90636905Y-51161905D01*
X90636905Y-50876190D01*
X90684524Y-50780952D01*
X90732143Y-50733333D01*
X90827381Y-50685714D01*
X90970239Y-50685714D01*
X91065477Y-50733333D01*
X91113096Y-50780952D01*
X91160715Y-50876190D01*
X91160715Y-51161905D01*
X91113096Y-51257143D01*
X91065477Y-51304762D01*
X90970239Y-51352381D01*
X90827381Y-51352381D01*
X92017858Y-51304762D02*
X91922620Y-51352381D01*
X91732143Y-51352381D01*
X91636905Y-51304762D01*
X91589286Y-51257143D01*
X91541667Y-51161905D01*
X91541667Y-50876190D01*
X91589286Y-50780952D01*
X91636905Y-50733333D01*
X91732143Y-50685714D01*
X91922620Y-50685714D01*
X92017858Y-50733333D01*
X92446429Y-51352381D02*
X92446429Y-50352381D01*
X92541667Y-50971429D02*
X92827382Y-51352381D01*
X92827382Y-50685714D02*
X92446429Y-51066667D01*
X93208334Y-51304762D02*
X93303572Y-51352381D01*
X93494048Y-51352381D01*
X93589287Y-51304762D01*
X93636906Y-51209524D01*
X93636906Y-51161905D01*
X93589287Y-51066667D01*
X93494048Y-51019048D01*
X93351191Y-51019048D01*
X93255953Y-50971429D01*
X93208334Y-50876190D01*
X93208334Y-50828571D01*
X93255953Y-50733333D01*
X93351191Y-50685714D01*
X93494048Y-50685714D01*
X93589287Y-50733333D01*
X92357143Y-93952381D02*
X92023809Y-93476190D01*
X91785714Y-93952381D02*
X91785714Y-92952381D01*
X92166667Y-92952381D01*
X92261905Y-93000000D01*
X92309524Y-93047619D01*
X92357143Y-93142857D01*
X92357143Y-93285714D01*
X92309524Y-93380952D01*
X92261905Y-93428571D01*
X92166667Y-93476190D01*
X91785714Y-93476190D01*
X92738095Y-93047619D02*
X92785714Y-93000000D01*
X92880952Y-92952381D01*
X93119048Y-92952381D01*
X93214286Y-93000000D01*
X93261905Y-93047619D01*
X93309524Y-93142857D01*
X93309524Y-93238095D01*
X93261905Y-93380952D01*
X92690476Y-93952381D01*
X93309524Y-93952381D01*
X93880952Y-93380952D02*
X93785714Y-93333333D01*
X93738095Y-93285714D01*
X93690476Y-93190476D01*
X93690476Y-93142857D01*
X93738095Y-93047619D01*
X93785714Y-93000000D01*
X93880952Y-92952381D01*
X94071429Y-92952381D01*
X94166667Y-93000000D01*
X94214286Y-93047619D01*
X94261905Y-93142857D01*
X94261905Y-93190476D01*
X94214286Y-93285714D01*
X94166667Y-93333333D01*
X94071429Y-93380952D01*
X93880952Y-93380952D01*
X93785714Y-93428571D01*
X93738095Y-93476190D01*
X93690476Y-93571429D01*
X93690476Y-93761905D01*
X93738095Y-93857143D01*
X93785714Y-93904762D01*
X93880952Y-93952381D01*
X94071429Y-93952381D01*
X94166667Y-93904762D01*
X94214286Y-93857143D01*
X94261905Y-93761905D01*
X94261905Y-93571429D01*
X94214286Y-93476190D01*
X94166667Y-93428571D01*
X94071429Y-93380952D01*
X182902381Y-84738095D02*
X183711905Y-84738095D01*
X183807143Y-84690476D01*
X183854762Y-84642857D01*
X183902381Y-84547619D01*
X183902381Y-84357142D01*
X183854762Y-84261904D01*
X183807143Y-84214285D01*
X183711905Y-84166666D01*
X182902381Y-84166666D01*
X183902381Y-83166666D02*
X183902381Y-83738095D01*
X183902381Y-83452381D02*
X182902381Y-83452381D01*
X183045238Y-83547619D01*
X183140476Y-83642857D01*
X183188095Y-83738095D01*
X183902381Y-82214285D02*
X183902381Y-82785714D01*
X183902381Y-82500000D02*
X182902381Y-82500000D01*
X183045238Y-82595238D01*
X183140476Y-82690476D01*
X183188095Y-82785714D01*
X174352381Y-86340476D02*
X174352381Y-85721428D01*
X174733333Y-86054762D01*
X174733333Y-85911904D01*
X174780952Y-85816666D01*
X174828571Y-85769047D01*
X174923810Y-85721428D01*
X175161905Y-85721428D01*
X175257143Y-85769047D01*
X175304762Y-85816666D01*
X175352381Y-85911904D01*
X175352381Y-86197619D01*
X175304762Y-86292857D01*
X175257143Y-86340476D01*
X174352381Y-85388095D02*
X174352381Y-84769047D01*
X174733333Y-85102381D01*
X174733333Y-84959523D01*
X174780952Y-84864285D01*
X174828571Y-84816666D01*
X174923810Y-84769047D01*
X175161905Y-84769047D01*
X175257143Y-84816666D01*
X175304762Y-84864285D01*
X175352381Y-84959523D01*
X175352381Y-85245238D01*
X175304762Y-85340476D01*
X175257143Y-85388095D01*
X175352381Y-83578571D02*
X174352381Y-83578571D01*
X175066667Y-83245237D01*
X174352381Y-82911904D01*
X175352381Y-82911904D01*
X175352381Y-82435714D02*
X174352381Y-82435714D01*
X174828571Y-82435714D02*
X174828571Y-81864285D01*
X175352381Y-81864285D02*
X174352381Y-81864285D01*
X174685714Y-81483333D02*
X174685714Y-80959523D01*
X175352381Y-81483333D01*
X175352381Y-80959523D01*
X90711905Y-65752381D02*
X90711905Y-66561905D01*
X90759524Y-66657143D01*
X90807143Y-66704762D01*
X90902381Y-66752381D01*
X91092858Y-66752381D01*
X91188096Y-66704762D01*
X91235715Y-66657143D01*
X91283334Y-66561905D01*
X91283334Y-65752381D01*
X92283334Y-66752381D02*
X91711905Y-66752381D01*
X91997619Y-66752381D02*
X91997619Y-65752381D01*
X91902381Y-65895238D01*
X91807143Y-65990476D01*
X91711905Y-66038095D01*
X92664286Y-65847619D02*
X92711905Y-65800000D01*
X92807143Y-65752381D01*
X93045239Y-65752381D01*
X93140477Y-65800000D01*
X93188096Y-65847619D01*
X93235715Y-65942857D01*
X93235715Y-66038095D01*
X93188096Y-66180952D01*
X92616667Y-66752381D01*
X93235715Y-66752381D01*
X91502381Y-60438095D02*
X91502381Y-61009524D01*
X91502381Y-60723810D02*
X90502381Y-60723810D01*
X90645238Y-60819048D01*
X90740476Y-60914286D01*
X90788095Y-61009524D01*
X90597619Y-60057143D02*
X90550000Y-60009524D01*
X90502381Y-59914286D01*
X90502381Y-59676190D01*
X90550000Y-59580952D01*
X90597619Y-59533333D01*
X90692857Y-59485714D01*
X90788095Y-59485714D01*
X90930952Y-59533333D01*
X91502381Y-60104762D01*
X91502381Y-59485714D01*
X91407143Y-59057143D02*
X91454762Y-59009524D01*
X91502381Y-59057143D01*
X91454762Y-59104762D01*
X91407143Y-59057143D01*
X91502381Y-59057143D01*
X90597619Y-58628572D02*
X90550000Y-58580953D01*
X90502381Y-58485715D01*
X90502381Y-58247619D01*
X90550000Y-58152381D01*
X90597619Y-58104762D01*
X90692857Y-58057143D01*
X90788095Y-58057143D01*
X90930952Y-58104762D01*
X91502381Y-58676191D01*
X91502381Y-58057143D01*
X90930952Y-57485715D02*
X90883333Y-57580953D01*
X90835714Y-57628572D01*
X90740476Y-57676191D01*
X90692857Y-57676191D01*
X90597619Y-57628572D01*
X90550000Y-57580953D01*
X90502381Y-57485715D01*
X90502381Y-57295238D01*
X90550000Y-57200000D01*
X90597619Y-57152381D01*
X90692857Y-57104762D01*
X90740476Y-57104762D01*
X90835714Y-57152381D01*
X90883333Y-57200000D01*
X90930952Y-57295238D01*
X90930952Y-57485715D01*
X90978571Y-57580953D01*
X91026190Y-57628572D01*
X91121429Y-57676191D01*
X91311905Y-57676191D01*
X91407143Y-57628572D01*
X91454762Y-57580953D01*
X91502381Y-57485715D01*
X91502381Y-57295238D01*
X91454762Y-57200000D01*
X91407143Y-57152381D01*
X91311905Y-57104762D01*
X91121429Y-57104762D01*
X91026190Y-57152381D01*
X90978571Y-57200000D01*
X90930952Y-57295238D01*
X90930952Y-56533334D02*
X90883333Y-56628572D01*
X90835714Y-56676191D01*
X90740476Y-56723810D01*
X90692857Y-56723810D01*
X90597619Y-56676191D01*
X90550000Y-56628572D01*
X90502381Y-56533334D01*
X90502381Y-56342857D01*
X90550000Y-56247619D01*
X90597619Y-56200000D01*
X90692857Y-56152381D01*
X90740476Y-56152381D01*
X90835714Y-56200000D01*
X90883333Y-56247619D01*
X90930952Y-56342857D01*
X90930952Y-56533334D01*
X90978571Y-56628572D01*
X91026190Y-56676191D01*
X91121429Y-56723810D01*
X91311905Y-56723810D01*
X91407143Y-56676191D01*
X91454762Y-56628572D01*
X91502381Y-56533334D01*
X91502381Y-56342857D01*
X91454762Y-56247619D01*
X91407143Y-56200000D01*
X91311905Y-56152381D01*
X91121429Y-56152381D01*
X91026190Y-56200000D01*
X90978571Y-56247619D01*
X90930952Y-56342857D01*
X91502381Y-54961905D02*
X90502381Y-54961905D01*
X91216667Y-54628571D01*
X90502381Y-54295238D01*
X91502381Y-54295238D01*
X91502381Y-53819048D02*
X90502381Y-53819048D01*
X90978571Y-53819048D02*
X90978571Y-53247619D01*
X91502381Y-53247619D02*
X90502381Y-53247619D01*
X90835714Y-52866667D02*
X90835714Y-52342857D01*
X91502381Y-52866667D01*
X91502381Y-52342857D01*
D13*
X104516667Y-136526190D02*
X104350000Y-136288095D01*
X104230953Y-136526190D02*
X104230953Y-136026190D01*
X104421429Y-136026190D01*
X104469048Y-136050000D01*
X104492857Y-136073810D01*
X104516667Y-136121429D01*
X104516667Y-136192857D01*
X104492857Y-136240476D01*
X104469048Y-136264286D01*
X104421429Y-136288095D01*
X104230953Y-136288095D01*
X104730953Y-136526190D02*
X104730953Y-136026190D01*
X104921429Y-136026190D01*
X104969048Y-136050000D01*
X104992857Y-136073810D01*
X105016667Y-136121429D01*
X105016667Y-136192857D01*
X104992857Y-136240476D01*
X104969048Y-136264286D01*
X104921429Y-136288095D01*
X104730953Y-136288095D01*
X105254762Y-136526190D02*
X105350000Y-136526190D01*
X105397619Y-136502381D01*
X105421429Y-136478571D01*
X105469048Y-136407143D01*
X105492857Y-136311905D01*
X105492857Y-136121429D01*
X105469048Y-136073810D01*
X105445238Y-136050000D01*
X105397619Y-136026190D01*
X105302381Y-136026190D01*
X105254762Y-136050000D01*
X105230953Y-136073810D01*
X105207143Y-136121429D01*
X105207143Y-136240476D01*
X105230953Y-136288095D01*
X105254762Y-136311905D01*
X105302381Y-136335714D01*
X105397619Y-136335714D01*
X105445238Y-136311905D01*
X105469048Y-136288095D01*
X105492857Y-136240476D01*
X129828572Y-136726190D02*
X129661905Y-136488095D01*
X129542858Y-136726190D02*
X129542858Y-136226190D01*
X129733334Y-136226190D01*
X129780953Y-136250000D01*
X129804762Y-136273810D01*
X129828572Y-136321429D01*
X129828572Y-136392857D01*
X129804762Y-136440476D01*
X129780953Y-136464286D01*
X129733334Y-136488095D01*
X129542858Y-136488095D01*
X130042858Y-136726190D02*
X130042858Y-136226190D01*
X130233334Y-136226190D01*
X130280953Y-136250000D01*
X130304762Y-136273810D01*
X130328572Y-136321429D01*
X130328572Y-136392857D01*
X130304762Y-136440476D01*
X130280953Y-136464286D01*
X130233334Y-136488095D01*
X130042858Y-136488095D01*
X130804762Y-136726190D02*
X130519048Y-136726190D01*
X130661905Y-136726190D02*
X130661905Y-136226190D01*
X130614286Y-136297619D01*
X130566667Y-136345238D01*
X130519048Y-136369048D01*
X131114286Y-136226190D02*
X131161905Y-136226190D01*
X131209524Y-136250000D01*
X131233333Y-136273810D01*
X131257143Y-136321429D01*
X131280952Y-136416667D01*
X131280952Y-136535714D01*
X131257143Y-136630952D01*
X131233333Y-136678571D01*
X131209524Y-136702381D01*
X131161905Y-136726190D01*
X131114286Y-136726190D01*
X131066667Y-136702381D01*
X131042857Y-136678571D01*
X131019048Y-136630952D01*
X130995238Y-136535714D01*
X130995238Y-136416667D01*
X131019048Y-136321429D01*
X131042857Y-136273810D01*
X131066667Y-136250000D01*
X131114286Y-136226190D01*
D11*
X180061905Y-137552381D02*
X180061905Y-136552381D01*
X180442858Y-136552381D01*
X180538096Y-136600000D01*
X180585715Y-136647619D01*
X180633334Y-136742857D01*
X180633334Y-136885714D01*
X180585715Y-136980952D01*
X180538096Y-137028571D01*
X180442858Y-137076190D01*
X180061905Y-137076190D01*
X181585715Y-137552381D02*
X181014286Y-137552381D01*
X181300000Y-137552381D02*
X181300000Y-136552381D01*
X181204762Y-136695238D01*
X181109524Y-136790476D01*
X181014286Y-136838095D01*
D13*
X182214285Y-138202381D02*
X181785714Y-138845238D01*
X182547619Y-138464286D02*
X182619048Y-138488095D01*
X182642857Y-138511905D01*
X182666667Y-138559524D01*
X182666667Y-138630952D01*
X182642857Y-138678571D01*
X182619048Y-138702381D01*
X182571429Y-138726190D01*
X182380953Y-138726190D01*
X182380953Y-138226190D01*
X182547619Y-138226190D01*
X182595238Y-138250000D01*
X182619048Y-138273810D01*
X182642857Y-138321429D01*
X182642857Y-138369048D01*
X182619048Y-138416667D01*
X182595238Y-138440476D01*
X182547619Y-138464286D01*
X182380953Y-138464286D01*
X183166667Y-138726190D02*
X183000000Y-138488095D01*
X182880953Y-138726190D02*
X182880953Y-138226190D01*
X183071429Y-138226190D01*
X183119048Y-138250000D01*
X183142857Y-138273810D01*
X183166667Y-138321429D01*
X183166667Y-138392857D01*
X183142857Y-138440476D01*
X183119048Y-138464286D01*
X183071429Y-138488095D01*
X182880953Y-138488095D01*
D11*
X157552381Y-148942857D02*
X157076190Y-149276191D01*
X157552381Y-149514286D02*
X156552381Y-149514286D01*
X156552381Y-149133333D01*
X156600000Y-149038095D01*
X156647619Y-148990476D01*
X156742857Y-148942857D01*
X156885714Y-148942857D01*
X156980952Y-148990476D01*
X157028571Y-149038095D01*
X157076190Y-149133333D01*
X157076190Y-149514286D01*
X156647619Y-148561905D02*
X156600000Y-148514286D01*
X156552381Y-148419048D01*
X156552381Y-148180952D01*
X156600000Y-148085714D01*
X156647619Y-148038095D01*
X156742857Y-147990476D01*
X156838095Y-147990476D01*
X156980952Y-148038095D01*
X157552381Y-148609524D01*
X157552381Y-147990476D01*
X157552381Y-147514286D02*
X157552381Y-147323810D01*
X157504762Y-147228571D01*
X157457143Y-147180952D01*
X157314286Y-147085714D01*
X157123810Y-147038095D01*
X156742857Y-147038095D01*
X156647619Y-147085714D01*
X156600000Y-147133333D01*
X156552381Y-147228571D01*
X156552381Y-147419048D01*
X156600000Y-147514286D01*
X156647619Y-147561905D01*
X156742857Y-147609524D01*
X156980952Y-147609524D01*
X157076190Y-147561905D01*
X157123810Y-147514286D01*
X157171429Y-147419048D01*
X157171429Y-147228571D01*
X157123810Y-147133333D01*
X157076190Y-147085714D01*
X156980952Y-147038095D01*
X177404762Y-58047619D02*
X177309524Y-58000000D01*
X177214286Y-57904762D01*
X177071429Y-57761905D01*
X176976190Y-57714286D01*
X176880952Y-57714286D01*
X176928571Y-57952381D02*
X176833333Y-57904762D01*
X176738095Y-57809524D01*
X176690476Y-57619048D01*
X176690476Y-57285714D01*
X176738095Y-57095238D01*
X176833333Y-57000000D01*
X176928571Y-56952381D01*
X177119048Y-56952381D01*
X177214286Y-57000000D01*
X177309524Y-57095238D01*
X177357143Y-57285714D01*
X177357143Y-57619048D01*
X177309524Y-57809524D01*
X177214286Y-57904762D01*
X177119048Y-57952381D01*
X176928571Y-57952381D01*
X178214286Y-57285714D02*
X178214286Y-57952381D01*
X177976190Y-56904762D02*
X177738095Y-57619048D01*
X178357143Y-57619048D01*
X177404762Y-61547619D02*
X177309524Y-61500000D01*
X177214286Y-61404762D01*
X177071429Y-61261905D01*
X176976190Y-61214286D01*
X176880952Y-61214286D01*
X176928571Y-61452381D02*
X176833333Y-61404762D01*
X176738095Y-61309524D01*
X176690476Y-61119048D01*
X176690476Y-60785714D01*
X176738095Y-60595238D01*
X176833333Y-60500000D01*
X176928571Y-60452381D01*
X177119048Y-60452381D01*
X177214286Y-60500000D01*
X177309524Y-60595238D01*
X177357143Y-60785714D01*
X177357143Y-61119048D01*
X177309524Y-61309524D01*
X177214286Y-61404762D01*
X177119048Y-61452381D01*
X176928571Y-61452381D01*
X178261905Y-60452381D02*
X177785714Y-60452381D01*
X177738095Y-60928571D01*
X177785714Y-60880952D01*
X177880952Y-60833333D01*
X178119048Y-60833333D01*
X178214286Y-60880952D01*
X178261905Y-60928571D01*
X178309524Y-61023810D01*
X178309524Y-61261905D01*
X178261905Y-61357143D01*
X178214286Y-61404762D01*
X178119048Y-61452381D01*
X177880952Y-61452381D01*
X177785714Y-61404762D01*
X177738095Y-61357143D01*
X164857143Y-59952381D02*
X164523809Y-59476190D01*
X164285714Y-59952381D02*
X164285714Y-58952381D01*
X164666667Y-58952381D01*
X164761905Y-59000000D01*
X164809524Y-59047619D01*
X164857143Y-59142857D01*
X164857143Y-59285714D01*
X164809524Y-59380952D01*
X164761905Y-59428571D01*
X164666667Y-59476190D01*
X164285714Y-59476190D01*
X165190476Y-58952381D02*
X165809524Y-58952381D01*
X165476190Y-59333333D01*
X165619048Y-59333333D01*
X165714286Y-59380952D01*
X165761905Y-59428571D01*
X165809524Y-59523810D01*
X165809524Y-59761905D01*
X165761905Y-59857143D01*
X165714286Y-59904762D01*
X165619048Y-59952381D01*
X165333333Y-59952381D01*
X165238095Y-59904762D01*
X165190476Y-59857143D01*
X166428571Y-58952381D02*
X166523810Y-58952381D01*
X166619048Y-59000000D01*
X166666667Y-59047619D01*
X166714286Y-59142857D01*
X166761905Y-59333333D01*
X166761905Y-59571429D01*
X166714286Y-59761905D01*
X166666667Y-59857143D01*
X166619048Y-59904762D01*
X166523810Y-59952381D01*
X166428571Y-59952381D01*
X166333333Y-59904762D01*
X166285714Y-59857143D01*
X166238095Y-59761905D01*
X166190476Y-59571429D01*
X166190476Y-59333333D01*
X166238095Y-59142857D01*
X166285714Y-59047619D01*
X166333333Y-59000000D01*
X166428571Y-58952381D01*
X180357143Y-57452381D02*
X180023809Y-56976190D01*
X179785714Y-57452381D02*
X179785714Y-56452381D01*
X180166667Y-56452381D01*
X180261905Y-56500000D01*
X180309524Y-56547619D01*
X180357143Y-56642857D01*
X180357143Y-56785714D01*
X180309524Y-56880952D01*
X180261905Y-56928571D01*
X180166667Y-56976190D01*
X179785714Y-56976190D01*
X180690476Y-56452381D02*
X181309524Y-56452381D01*
X180976190Y-56833333D01*
X181119048Y-56833333D01*
X181214286Y-56880952D01*
X181261905Y-56928571D01*
X181309524Y-57023810D01*
X181309524Y-57261905D01*
X181261905Y-57357143D01*
X181214286Y-57404762D01*
X181119048Y-57452381D01*
X180833333Y-57452381D01*
X180738095Y-57404762D01*
X180690476Y-57357143D01*
X182261905Y-57452381D02*
X181690476Y-57452381D01*
X181976190Y-57452381D02*
X181976190Y-56452381D01*
X181880952Y-56595238D01*
X181785714Y-56690476D01*
X181690476Y-56738095D01*
X164857143Y-63952381D02*
X164523809Y-63476190D01*
X164285714Y-63952381D02*
X164285714Y-62952381D01*
X164666667Y-62952381D01*
X164761905Y-63000000D01*
X164809524Y-63047619D01*
X164857143Y-63142857D01*
X164857143Y-63285714D01*
X164809524Y-63380952D01*
X164761905Y-63428571D01*
X164666667Y-63476190D01*
X164285714Y-63476190D01*
X165190476Y-62952381D02*
X165809524Y-62952381D01*
X165476190Y-63333333D01*
X165619048Y-63333333D01*
X165714286Y-63380952D01*
X165761905Y-63428571D01*
X165809524Y-63523810D01*
X165809524Y-63761905D01*
X165761905Y-63857143D01*
X165714286Y-63904762D01*
X165619048Y-63952381D01*
X165333333Y-63952381D01*
X165238095Y-63904762D01*
X165190476Y-63857143D01*
X166190476Y-63047619D02*
X166238095Y-63000000D01*
X166333333Y-62952381D01*
X166571429Y-62952381D01*
X166666667Y-63000000D01*
X166714286Y-63047619D01*
X166761905Y-63142857D01*
X166761905Y-63238095D01*
X166714286Y-63380952D01*
X166142857Y-63952381D01*
X166761905Y-63952381D01*
X180357143Y-64952381D02*
X180023809Y-64476190D01*
X179785714Y-64952381D02*
X179785714Y-63952381D01*
X180166667Y-63952381D01*
X180261905Y-64000000D01*
X180309524Y-64047619D01*
X180357143Y-64142857D01*
X180357143Y-64285714D01*
X180309524Y-64380952D01*
X180261905Y-64428571D01*
X180166667Y-64476190D01*
X179785714Y-64476190D01*
X180690476Y-63952381D02*
X181309524Y-63952381D01*
X180976190Y-64333333D01*
X181119048Y-64333333D01*
X181214286Y-64380952D01*
X181261905Y-64428571D01*
X181309524Y-64523810D01*
X181309524Y-64761905D01*
X181261905Y-64857143D01*
X181214286Y-64904762D01*
X181119048Y-64952381D01*
X180833333Y-64952381D01*
X180738095Y-64904762D01*
X180690476Y-64857143D01*
X181642857Y-63952381D02*
X182261905Y-63952381D01*
X181928571Y-64333333D01*
X182071429Y-64333333D01*
X182166667Y-64380952D01*
X182214286Y-64428571D01*
X182261905Y-64523810D01*
X182261905Y-64761905D01*
X182214286Y-64857143D01*
X182166667Y-64904762D01*
X182071429Y-64952381D01*
X181785714Y-64952381D01*
X181690476Y-64904762D01*
X181642857Y-64857143D01*
X86139143Y-144115846D02*
X86186762Y-144163465D01*
X86234381Y-144306322D01*
X86234381Y-144401560D01*
X86186762Y-144544418D01*
X86091524Y-144639656D01*
X85996286Y-144687275D01*
X85805810Y-144734894D01*
X85662952Y-144734894D01*
X85472476Y-144687275D01*
X85377238Y-144639656D01*
X85282000Y-144544418D01*
X85234381Y-144401560D01*
X85234381Y-144306322D01*
X85282000Y-144163465D01*
X85329619Y-144115846D01*
X86234381Y-143163465D02*
X86234381Y-143734894D01*
X86234381Y-143449180D02*
X85234381Y-143449180D01*
X85377238Y-143544418D01*
X85472476Y-143639656D01*
X85520095Y-143734894D01*
X93965619Y-145639656D02*
X93918000Y-145592037D01*
X93870381Y-145496799D01*
X93870381Y-145258703D01*
X93918000Y-145163465D01*
X93965619Y-145115846D01*
X94060857Y-145068227D01*
X94156095Y-145068227D01*
X94298952Y-145115846D01*
X94870381Y-145687275D01*
X94870381Y-145068227D01*
X93965619Y-144687275D02*
X93918000Y-144639656D01*
X93870381Y-144544418D01*
X93870381Y-144306322D01*
X93918000Y-144211084D01*
X93965619Y-144163465D01*
X94060857Y-144115846D01*
X94156095Y-144115846D01*
X94298952Y-144163465D01*
X94870381Y-144734894D01*
X94870381Y-144115846D01*
X93870381Y-143496799D02*
X93870381Y-143401560D01*
X93918000Y-143306322D01*
X93965619Y-143258703D01*
X94060857Y-143211084D01*
X94251333Y-143163465D01*
X94489429Y-143163465D01*
X94679905Y-143211084D01*
X94775143Y-143258703D01*
X94822762Y-143306322D01*
X94870381Y-143401560D01*
X94870381Y-143496799D01*
X94822762Y-143592037D01*
X94775143Y-143639656D01*
X94679905Y-143687275D01*
X94489429Y-143734894D01*
X94251333Y-143734894D01*
X94060857Y-143687275D01*
X93965619Y-143639656D01*
X93918000Y-143592037D01*
X93870381Y-143496799D01*
X94203714Y-142306322D02*
X94870381Y-142306322D01*
X94203714Y-142734894D02*
X94727524Y-142734894D01*
X94822762Y-142687275D01*
X94870381Y-142592037D01*
X94870381Y-142449179D01*
X94822762Y-142353941D01*
X94775143Y-142306322D01*
X90033334Y-133857143D02*
X89985715Y-133904762D01*
X89842858Y-133952381D01*
X89747620Y-133952381D01*
X89604762Y-133904762D01*
X89509524Y-133809524D01*
X89461905Y-133714286D01*
X89414286Y-133523810D01*
X89414286Y-133380952D01*
X89461905Y-133190476D01*
X89509524Y-133095238D01*
X89604762Y-133000000D01*
X89747620Y-132952381D01*
X89842858Y-132952381D01*
X89985715Y-133000000D01*
X90033334Y-133047619D01*
X90414286Y-133047619D02*
X90461905Y-133000000D01*
X90557143Y-132952381D01*
X90795239Y-132952381D01*
X90890477Y-133000000D01*
X90938096Y-133047619D01*
X90985715Y-133142857D01*
X90985715Y-133238095D01*
X90938096Y-133380952D01*
X90366667Y-133952381D01*
X90985715Y-133952381D01*
X90357143Y-125952381D02*
X89785714Y-125952381D01*
X90071428Y-125952381D02*
X90071428Y-124952381D01*
X89976190Y-125095238D01*
X89880952Y-125190476D01*
X89785714Y-125238095D01*
X90976190Y-124952381D02*
X91071429Y-124952381D01*
X91166667Y-125000000D01*
X91214286Y-125047619D01*
X91261905Y-125142857D01*
X91309524Y-125333333D01*
X91309524Y-125571429D01*
X91261905Y-125761905D01*
X91214286Y-125857143D01*
X91166667Y-125904762D01*
X91071429Y-125952381D01*
X90976190Y-125952381D01*
X90880952Y-125904762D01*
X90833333Y-125857143D01*
X90785714Y-125761905D01*
X90738095Y-125571429D01*
X90738095Y-125333333D01*
X90785714Y-125142857D01*
X90833333Y-125047619D01*
X90880952Y-125000000D01*
X90976190Y-124952381D01*
X92166667Y-125285714D02*
X92166667Y-125952381D01*
X91738095Y-125285714D02*
X91738095Y-125809524D01*
X91785714Y-125904762D01*
X91880952Y-125952381D01*
X92023810Y-125952381D01*
X92119048Y-125904762D01*
X92166667Y-125857143D01*
X101357143Y-79357143D02*
X101309524Y-79404762D01*
X101166667Y-79452381D01*
X101071429Y-79452381D01*
X100928571Y-79404762D01*
X100833333Y-79309524D01*
X100785714Y-79214286D01*
X100738095Y-79023810D01*
X100738095Y-78880952D01*
X100785714Y-78690476D01*
X100833333Y-78595238D01*
X100928571Y-78500000D01*
X101071429Y-78452381D01*
X101166667Y-78452381D01*
X101309524Y-78500000D01*
X101357143Y-78547619D01*
X101738095Y-78547619D02*
X101785714Y-78500000D01*
X101880952Y-78452381D01*
X102119048Y-78452381D01*
X102214286Y-78500000D01*
X102261905Y-78547619D01*
X102309524Y-78642857D01*
X102309524Y-78738095D01*
X102261905Y-78880952D01*
X101690476Y-79452381D01*
X102309524Y-79452381D01*
X102928571Y-78452381D02*
X103023810Y-78452381D01*
X103119048Y-78500000D01*
X103166667Y-78547619D01*
X103214286Y-78642857D01*
X103261905Y-78833333D01*
X103261905Y-79071429D01*
X103214286Y-79261905D01*
X103166667Y-79357143D01*
X103119048Y-79404762D01*
X103023810Y-79452381D01*
X102928571Y-79452381D01*
X102833333Y-79404762D01*
X102785714Y-79357143D01*
X102738095Y-79261905D01*
X102690476Y-79071429D01*
X102690476Y-78833333D01*
X102738095Y-78642857D01*
X102785714Y-78547619D01*
X102833333Y-78500000D01*
X102928571Y-78452381D01*
X140357143Y-107357143D02*
X140309524Y-107404762D01*
X140166667Y-107452381D01*
X140071429Y-107452381D01*
X139928571Y-107404762D01*
X139833333Y-107309524D01*
X139785714Y-107214286D01*
X139738095Y-107023810D01*
X139738095Y-106880952D01*
X139785714Y-106690476D01*
X139833333Y-106595238D01*
X139928571Y-106500000D01*
X140071429Y-106452381D01*
X140166667Y-106452381D01*
X140309524Y-106500000D01*
X140357143Y-106547619D01*
X141214286Y-106785714D02*
X141214286Y-107452381D01*
X140976190Y-106404762D02*
X140738095Y-107119048D01*
X141357143Y-107119048D01*
X141928571Y-106452381D02*
X142023810Y-106452381D01*
X142119048Y-106500000D01*
X142166667Y-106547619D01*
X142214286Y-106642857D01*
X142261905Y-106833333D01*
X142261905Y-107071429D01*
X142214286Y-107261905D01*
X142166667Y-107357143D01*
X142119048Y-107404762D01*
X142023810Y-107452381D01*
X141928571Y-107452381D01*
X141833333Y-107404762D01*
X141785714Y-107357143D01*
X141738095Y-107261905D01*
X141690476Y-107071429D01*
X141690476Y-106833333D01*
X141738095Y-106642857D01*
X141785714Y-106547619D01*
X141833333Y-106500000D01*
X141928571Y-106452381D01*
X86891905Y-119852381D02*
X86891905Y-118852381D01*
X87272858Y-118852381D01*
X87368096Y-118900000D01*
X87415715Y-118947619D01*
X87463334Y-119042857D01*
X87463334Y-119185714D01*
X87415715Y-119280952D01*
X87368096Y-119328571D01*
X87272858Y-119376190D01*
X86891905Y-119376190D01*
X87939524Y-119852381D02*
X88130000Y-119852381D01*
X88225239Y-119804762D01*
X88272858Y-119757143D01*
X88368096Y-119614286D01*
X88415715Y-119423810D01*
X88415715Y-119042857D01*
X88368096Y-118947619D01*
X88320477Y-118900000D01*
X88225239Y-118852381D01*
X88034762Y-118852381D01*
X87939524Y-118900000D01*
X87891905Y-118947619D01*
X87844286Y-119042857D01*
X87844286Y-119280952D01*
X87891905Y-119376190D01*
X87939524Y-119423810D01*
X88034762Y-119471429D01*
X88225239Y-119471429D01*
X88320477Y-119423810D01*
X88368096Y-119376190D01*
X88415715Y-119280952D01*
X89261904Y-114328571D02*
X89595238Y-114328571D01*
X89738095Y-114852381D02*
X89261904Y-114852381D01*
X89261904Y-113852381D01*
X89738095Y-113852381D01*
X90071428Y-114852381D02*
X90595238Y-114185714D01*
X90071428Y-114185714D02*
X90595238Y-114852381D01*
X90833333Y-114185714D02*
X91214285Y-114185714D01*
X90976190Y-113852381D02*
X90976190Y-114709524D01*
X91023809Y-114804762D01*
X91119047Y-114852381D01*
X91214285Y-114852381D01*
X91547619Y-114757143D02*
X91595238Y-114804762D01*
X91547619Y-114852381D01*
X91500000Y-114804762D01*
X91547619Y-114757143D01*
X91547619Y-114852381D01*
X92785714Y-114852381D02*
X92785714Y-113852381D01*
X93261904Y-114185714D02*
X93261904Y-114852381D01*
X93261904Y-114280952D02*
X93309523Y-114233333D01*
X93404761Y-114185714D01*
X93547619Y-114185714D01*
X93642857Y-114233333D01*
X93690476Y-114328571D01*
X93690476Y-114852381D01*
X94023809Y-114185714D02*
X94404761Y-114185714D01*
X94166666Y-113852381D02*
X94166666Y-114709524D01*
X94214285Y-114804762D01*
X94309523Y-114852381D01*
X94404761Y-114852381D01*
X95119048Y-114804762D02*
X95023810Y-114852381D01*
X94833333Y-114852381D01*
X94738095Y-114804762D01*
X94690476Y-114709524D01*
X94690476Y-114328571D01*
X94738095Y-114233333D01*
X94833333Y-114185714D01*
X95023810Y-114185714D01*
X95119048Y-114233333D01*
X95166667Y-114328571D01*
X95166667Y-114423810D01*
X94690476Y-114519048D01*
X95595238Y-114852381D02*
X95595238Y-114185714D01*
X95595238Y-114376190D02*
X95642857Y-114280952D01*
X95690476Y-114233333D01*
X95785714Y-114185714D01*
X95880953Y-114185714D01*
X96214286Y-114852381D02*
X96214286Y-114185714D01*
X96214286Y-114376190D02*
X96261905Y-114280952D01*
X96309524Y-114233333D01*
X96404762Y-114185714D01*
X96500001Y-114185714D01*
X97261906Y-114185714D02*
X97261906Y-114852381D01*
X96833334Y-114185714D02*
X96833334Y-114709524D01*
X96880953Y-114804762D01*
X96976191Y-114852381D01*
X97119049Y-114852381D01*
X97214287Y-114804762D01*
X97261906Y-114757143D01*
X97738096Y-114185714D02*
X97738096Y-115185714D01*
X97738096Y-114233333D02*
X97833334Y-114185714D01*
X98023811Y-114185714D01*
X98119049Y-114233333D01*
X98166668Y-114280952D01*
X98214287Y-114376190D01*
X98214287Y-114661905D01*
X98166668Y-114757143D01*
X98119049Y-114804762D01*
X98023811Y-114852381D01*
X97833334Y-114852381D01*
X97738096Y-114804762D01*
X98500001Y-114185714D02*
X98880953Y-114185714D01*
X98642858Y-113852381D02*
X98642858Y-114709524D01*
X98690477Y-114804762D01*
X98785715Y-114852381D01*
X98880953Y-114852381D01*
D13*
X91041350Y-109352008D02*
X90803255Y-109518675D01*
X91041350Y-109637722D02*
X90541350Y-109637722D01*
X90541350Y-109447246D01*
X90565160Y-109399627D01*
X90588970Y-109375818D01*
X90636589Y-109352008D01*
X90708017Y-109352008D01*
X90755636Y-109375818D01*
X90779446Y-109399627D01*
X90803255Y-109447246D01*
X90803255Y-109637722D01*
X91041350Y-109137722D02*
X90541350Y-109137722D01*
X90541350Y-108947246D01*
X90565160Y-108899627D01*
X90588970Y-108875818D01*
X90636589Y-108852008D01*
X90708017Y-108852008D01*
X90755636Y-108875818D01*
X90779446Y-108899627D01*
X90803255Y-108947246D01*
X90803255Y-109137722D01*
X91041350Y-108375818D02*
X91041350Y-108661532D01*
X91041350Y-108518675D02*
X90541350Y-108518675D01*
X90612779Y-108566294D01*
X90660398Y-108613913D01*
X90684208Y-108661532D01*
X91041350Y-107899628D02*
X91041350Y-108185342D01*
X91041350Y-108042485D02*
X90541350Y-108042485D01*
X90612779Y-108090104D01*
X90660398Y-108137723D01*
X90684208Y-108185342D01*
X93708350Y-108951199D02*
X93708350Y-109236913D01*
X93708350Y-109094056D02*
X93208350Y-109094056D01*
X93279779Y-109141675D01*
X93327398Y-109189294D01*
X93351208Y-109236913D01*
X93208350Y-108641675D02*
X93208350Y-108594056D01*
X93232160Y-108546437D01*
X93255970Y-108522628D01*
X93303589Y-108498818D01*
X93398827Y-108475009D01*
X93517874Y-108475009D01*
X93613112Y-108498818D01*
X93660731Y-108522628D01*
X93684541Y-108546437D01*
X93708350Y-108594056D01*
X93708350Y-108641675D01*
X93684541Y-108689294D01*
X93660731Y-108713104D01*
X93613112Y-108736913D01*
X93517874Y-108760723D01*
X93398827Y-108760723D01*
X93303589Y-108736913D01*
X93255970Y-108713104D01*
X93232160Y-108689294D01*
X93208350Y-108641675D01*
X93708350Y-108260723D02*
X93208350Y-108260723D01*
X93517874Y-108213104D02*
X93708350Y-108070247D01*
X93375017Y-108070247D02*
X93565493Y-108260723D01*
M02*
