M48
INCH,TZ
T1C0.020
T2C0.024
T3C0.031
T4C0.032
T5C0.039
T6C0.039
T7C0.040
T8C0.040
T9C0.051
T10C0.059
T11C0.043
T12C0.061
T13C0.063
T14C0.079
%
G90
G05
T1
X56142Y34075
X56142Y33583
X56142Y33091
X56142Y32598
X56142Y32106
X61398Y27835
X61890Y27835
X62382Y27835
X62874Y27835
T2
X2165Y17717
X2520Y34409
X3110Y29016
X3346Y26260
X3740Y10236
X4126Y10748
X5276Y27992
X5394Y38406
X5591Y11181
X6099Y11570
X6354Y18079
X9685Y11220
X9724Y10276
X10079Y9803
X10197Y10709
X10229Y11575
X21983Y10980
X22008Y7165
X22047Y8346
X22283Y12323
X22441Y15472
X22795Y7520
X22860Y14911
X23214Y15418
X23614Y5394
X23824Y4648
X23878Y1732
X24134Y12323
X24313Y4703
X24370Y1900
X24802Y4648
X24882Y2116
X24882Y5512
X24921Y15315
X25371Y14822
X25768Y4704
X25853Y14921
X26063Y7795
X26260Y4685
X26345Y14921
X26417Y14409
X26476Y8228
X26654Y13780
X26693Y16614
X26732Y19370
X26732Y18858
X26811Y19921
X26975Y18332
X27402Y8976
X27677Y5744
X28622Y19449
X30807Y37035
X37047Y12323
X37469Y7287
X37992Y7992
X38583Y18858
X38780Y17614
X45591Y31378
X45731Y35616
X49717Y30669
X56142Y38110
X56572Y38349
X57953Y37559
X60253Y4983
X61181Y5020
X61535Y29094
X62402Y13465
X62717Y33937
X62756Y4921
T3
X5669Y5236
X9921Y5236
X15760Y14783
X16611Y14741
X17717Y16126
X18606Y14819
X57441Y34449
X58465Y31102
X60512Y16142
X60513Y7442
X60551Y14567
X61181Y5020
X61378Y33937
T4
X31465Y38110
X32465Y38110
X33465Y38110
X37886Y12587
X38886Y12587
T5
X5669Y5236
X9921Y5236
X53504Y32677
T6
X29134Y38110
X30134Y38110
X34827Y38110
X35827Y38110
T7
X1035Y34315
X1035Y33315
X1035Y32315
X1035Y31315
X1035Y29315
X1035Y28315
X1035Y27315
X1035Y26315
X1035Y25315
X1035Y24315
X1035Y23315
X1035Y22315
X1035Y21315
X1035Y20315
X1035Y19315
X1035Y18315
X1035Y17315
X1035Y16315
X1035Y15315
X1035Y14315
X1035Y13315
X1035Y12315
X1035Y11315
X1035Y10315
X1035Y9315
X1035Y8315
X1035Y7315
X1035Y6315
X1035Y5315
X1035Y4315
X1035Y3315
X1035Y2315
X1035Y1315
T9
X61122Y26732
X61122Y23031
X62618Y26732
X62618Y23031
X64114Y26732
X64114Y23031
T10
X46575Y37598
X54693Y31831
X60630Y21102
X63307Y20984
X63858Y12323
T11
X21024Y13012
T12
X60787Y33425
X60787Y29646
T13
X12756Y13012
T14
X28740Y8071
X36614Y8760
T8
X60236Y37102G85X60236Y37701
G05
X62035Y35402G85X61437Y35402
G05
X62638Y37102G85X62638Y37701
G05
T0
M30
